M48
; DRILL file {KiCad 8.0.8} date 2025-02-03T17:03:14-0700
; FORMAT={-:-/ absolute / inch / decimal}
; #@! TF.CreationDate,2025-02-03T17:03:14-07:00
; #@! TF.GenerationSoftware,Kicad,Pcbnew,8.0.8
; #@! TF.FileFunction,Plated,1,2,PTH
FMAT,2
INCH
; #@! TA.AperFunction,Plated,PTH,ComponentDrill
T1C0.0315
; #@! TA.AperFunction,Plated,PTH,ComponentDrill
T2C0.0354
; #@! TA.AperFunction,Plated,PTH,ComponentDrill
T3C0.0374
; #@! TA.AperFunction,Plated,PTH,ComponentDrill
T4C0.0394
; #@! TA.AperFunction,Plated,PTH,ComponentDrill
T5C0.0433
; #@! TA.AperFunction,Plated,PTH,ComponentDrill
T6C0.0472
%
G90
G05
T1
X4.3291Y-3.2093
X4.4291Y-3.3093
X4.5291Y-3.2093
T2
X5.0591Y-2.1063
X5.0591Y-2.2063
T3
X4.2323Y-2.0669
X4.3307Y-2.0669
X4.4291Y-2.0669
T4
X4.3148Y-2.875
X4.4148Y-2.875
X4.5148Y-2.875
X4.6148Y-2.875
X4.677Y-1.937
X4.7148Y-2.875
X4.777Y-1.937
X4.8148Y-2.875
X4.877Y-1.937
X4.9148Y-2.875
X4.977Y-1.937
X5.0148Y-2.875
X5.037Y-3.837
X5.077Y-1.937
X5.137Y-3.837
X5.177Y-1.937
X5.237Y-3.837
X5.277Y-1.937
X5.337Y-3.837
X5.377Y-1.937
X5.437Y-3.837
X5.477Y-1.937
X5.537Y-3.837
X5.577Y-1.937
X5.5858Y-2.8346
X5.637Y-3.837
X5.6858Y-2.8346
X5.737Y-1.937
X5.737Y-3.837
X5.7858Y-2.8346
X5.837Y-1.937
X5.8858Y-2.8346
X5.937Y-1.937
X5.937Y-3.837
X6.037Y-1.937
X6.037Y-3.837
X6.137Y-1.937
X6.137Y-3.837
X6.237Y-1.937
X6.237Y-3.837
X6.337Y-1.937
X6.337Y-3.837
X6.437Y-1.937
X6.437Y-3.837
T5
X4.7244Y-3.1693
X4.7244Y-3.3465
X4.9803Y-3.1693
X4.9803Y-3.3465
X5.1181Y-3.1693
X5.1181Y-3.3465
X5.374Y-3.1693
X5.374Y-3.3465
X5.5118Y-3.1693
X5.5118Y-3.3465
X5.7677Y-3.1693
X5.7677Y-3.3465
X5.9055Y-3.1693
X5.9055Y-3.3465
X6.1614Y-3.1693
X6.1614Y-3.3465
X6.2992Y-3.1693
X6.2992Y-3.3465
X6.5551Y-3.1693
X6.5551Y-3.3465
T6
X5.2953Y-2.0819
X5.2953Y-2.6819
X5.4921Y-2.0819
X5.4921Y-2.6819
X5.689Y-2.0819
X5.689Y-2.6819
X5.8661Y-2.0819
X5.8661Y-2.6819
X6.0433Y-2.0819
X6.0433Y-2.6819
X6.2205Y-2.0819
X6.2205Y-2.6819
M30
