%TF.GenerationSoftware,KiCad,Pcbnew,8.0.8*%
%TF.CreationDate,2025-03-12T20:49:11-06:00*%
%TF.ProjectId,ArduinoUnoSheildFinalProject,41726475-696e-46f5-956e-6f536865696c,rev?*%
%TF.SameCoordinates,Original*%
%TF.FileFunction,Soldermask,Bot*%
%TF.FilePolarity,Negative*%
%FSLAX46Y46*%
G04 Gerber Fmt 4.6, Leading zero omitted, Abs format (unit mm)*
G04 Created by KiCad (PCBNEW 8.0.8) date 2025-03-12 20:49:11*
%MOMM*%
%LPD*%
G01*
G04 APERTURE LIST*
G04 Aperture macros list*
%AMRoundRect*
0 Rectangle with rounded corners*
0 $1 Rounding radius*
0 $2 $3 $4 $5 $6 $7 $8 $9 X,Y pos of 4 corners*
0 Add a 4 corners polygon primitive as box body*
4,1,4,$2,$3,$4,$5,$6,$7,$8,$9,$2,$3,0*
0 Add four circle primitives for the rounded corners*
1,1,$1+$1,$2,$3*
1,1,$1+$1,$4,$5*
1,1,$1+$1,$6,$7*
1,1,$1+$1,$8,$9*
0 Add four rect primitives between the rounded corners*
20,1,$1+$1,$2,$3,$4,$5,0*
20,1,$1+$1,$4,$5,$6,$7,0*
20,1,$1+$1,$6,$7,$8,$9,0*
20,1,$1+$1,$8,$9,$2,$3,0*%
G04 Aperture macros list end*
%ADD10R,1.700000X1.700000*%
%ADD11O,1.700000X1.700000*%
%ADD12C,1.400000*%
%ADD13O,1.400000X1.400000*%
%ADD14RoundRect,0.102000X0.754000X0.754000X-0.754000X0.754000X-0.754000X-0.754000X0.754000X-0.754000X0*%
%ADD15C,1.712000*%
%ADD16C,3.420000*%
%ADD17R,1.800000X1.800000*%
%ADD18C,1.800000*%
%ADD19C,3.200000*%
%ADD20RoundRect,0.102000X0.939800X0.939800X-0.939800X0.939800X-0.939800X-0.939800X0.939800X-0.939800X0*%
%ADD21C,2.083600*%
%ADD22RoundRect,0.102000X-0.754000X-0.754000X0.754000X-0.754000X0.754000X0.754000X-0.754000X0.754000X0*%
%ADD23C,3.720000*%
%ADD24O,1.304000X2.404000*%
G04 APERTURE END LIST*
D10*
%TO.C,J1*%
X127940000Y-97460000D03*
D11*
X130480000Y-97460000D03*
X133020000Y-97460000D03*
X135560000Y-97460000D03*
X138100000Y-97460000D03*
X140640000Y-97460000D03*
X143180000Y-97460000D03*
X145720000Y-97460000D03*
%TD*%
D10*
%TO.C,J3*%
X150800000Y-97460000D03*
D11*
X153340000Y-97460000D03*
X155880000Y-97460000D03*
X158420000Y-97460000D03*
X160960000Y-97460000D03*
X163500000Y-97460000D03*
%TD*%
D10*
%TO.C,J2*%
X118796000Y-49200000D03*
D11*
X121336000Y-49200000D03*
X123876000Y-49200000D03*
X126416000Y-49200000D03*
X128956000Y-49200000D03*
X131496000Y-49200000D03*
X134036000Y-49200000D03*
X136576000Y-49200000D03*
X139116000Y-49200000D03*
X141656000Y-49200000D03*
%TD*%
D10*
%TO.C,J4*%
X145720000Y-49200000D03*
D11*
X148260000Y-49200000D03*
X150800000Y-49200000D03*
X153340000Y-49200000D03*
X155880000Y-49200000D03*
X158420000Y-49200000D03*
X160960000Y-49200000D03*
X163500000Y-49200000D03*
%TD*%
D12*
%TO.C,R3*%
X151700000Y-52960000D03*
D13*
X151700000Y-58040000D03*
%TD*%
D12*
%TO.C,R2*%
X154850000Y-52960000D03*
D13*
X154850000Y-58040000D03*
%TD*%
D14*
%TO.C,U3*%
X117120000Y-79000000D03*
D15*
X114580000Y-79000000D03*
X112040000Y-79000000D03*
X109500000Y-79000000D03*
X106960000Y-79000000D03*
X104420000Y-79000000D03*
X101880000Y-79000000D03*
D16*
X115850000Y-92970000D03*
X103150000Y-92970000D03*
%TD*%
D17*
%TO.C,D1*%
X155840000Y-65500000D03*
D18*
X158380000Y-65500000D03*
%TD*%
D19*
%TO.C,MH1*%
X115240000Y-49200000D03*
%TD*%
D17*
%TO.C,D6*%
X118450000Y-65500000D03*
D18*
X120990000Y-65500000D03*
%TD*%
D17*
%TO.C,D2*%
X148370000Y-65500000D03*
D18*
X150910000Y-65500000D03*
%TD*%
D20*
%TO.C,U1*%
X148150000Y-76245000D03*
D21*
X150690000Y-76245000D03*
X153230000Y-76245000D03*
X155770000Y-76245000D03*
X158310000Y-76245000D03*
X160850000Y-76245000D03*
%TD*%
D12*
%TO.C,R4*%
X148550000Y-52960000D03*
D13*
X148550000Y-58040000D03*
%TD*%
D17*
%TO.C,D5*%
X125960000Y-65500000D03*
D18*
X128500000Y-65500000D03*
%TD*%
D12*
%TO.C,R1*%
X158000000Y-52960000D03*
D13*
X158000000Y-58040000D03*
%TD*%
D12*
%TO.C,R5*%
X145400000Y-52960000D03*
D13*
X145400000Y-58040000D03*
%TD*%
D12*
%TO.C,R6*%
X142250000Y-52960000D03*
D13*
X142250000Y-58040000D03*
%TD*%
D22*
%TO.C,U4*%
X142000000Y-92500000D03*
D15*
X139460000Y-92500000D03*
X136920000Y-92500000D03*
X134380000Y-92500000D03*
X131840000Y-92500000D03*
X129300000Y-92500000D03*
X126760000Y-92500000D03*
X124220000Y-92500000D03*
D23*
X125490000Y-79800000D03*
X140730000Y-79800000D03*
%TD*%
D19*
%TO.C,MH2*%
X113970000Y-97460000D03*
%TD*%
%TO.C,MH3*%
X166040000Y-64440000D03*
%TD*%
%TO.C,MH4*%
X166040000Y-92380000D03*
%TD*%
D24*
%TO.C,U2*%
X118730000Y-57780000D03*
X120000000Y-57780000D03*
X121270000Y-57780000D03*
%TD*%
D17*
%TO.C,D4*%
X133430000Y-65500000D03*
D18*
X135970000Y-65500000D03*
%TD*%
D17*
%TO.C,D3*%
X140900000Y-65500000D03*
D18*
X143440000Y-65500000D03*
%TD*%
M02*
