M48
; DRILL file {KiCad 8.0.8} date 2025-03-12T20:49:06-0600
; FORMAT={-:-/ absolute / inch / decimal}
; #@! TF.CreationDate,2025-03-12T20:49:06-06:00
; #@! TF.GenerationSoftware,Kicad,Pcbnew,8.0.8
; #@! TF.FileFunction,Plated,1,2,PTH
FMAT,2
INCH
; #@! TA.AperFunction,Plated,PTH,ComponentDrill
T1C0.0276
; #@! TA.AperFunction,Plated,PTH,ComponentDrill
T2C0.0343
; #@! TA.AperFunction,Plated,PTH,ComponentDrill
T3C0.0354
; #@! TA.AperFunction,Plated,PTH,ComponentDrill
T4C0.0394
; #@! TA.AperFunction,Plated,PTH,ComponentDrill
T5C0.0400
; #@! TA.AperFunction,Plated,PTH,ComponentDrill
T6C0.0866
; #@! TA.AperFunction,Plated,PTH,ComponentDrill
T7C0.0984
%
G90
G05
T1
X5.6004Y-2.085
X5.6004Y-2.285
X5.7244Y-2.085
X5.7244Y-2.285
X5.8484Y-2.085
X5.8484Y-2.285
X5.9724Y-2.085
X5.9724Y-2.285
X6.0965Y-2.085
X6.0965Y-2.285
X6.2205Y-2.085
X6.2205Y-2.285
T2
X4.6744Y-2.2748
X4.7244Y-2.2748
X4.7744Y-2.2748
T3
X4.6634Y-2.5787
X4.7634Y-2.5787
X4.9591Y-2.5787
X5.0591Y-2.5787
X5.2531Y-2.5787
X5.3531Y-2.5787
X5.5472Y-2.5787
X5.6472Y-2.5787
X5.8413Y-2.5787
X5.9413Y-2.5787
X6.1354Y-2.5787
X6.2354Y-2.5787
T4
X4.011Y-3.1102
X4.111Y-3.1102
X4.211Y-3.1102
X4.311Y-3.1102
X4.411Y-3.1102
X4.511Y-3.1102
X4.611Y-3.1102
X4.677Y-1.937
X4.777Y-1.937
X4.877Y-1.937
X4.8906Y-3.6417
X4.977Y-1.937
X4.9906Y-3.6417
X5.037Y-3.837
X5.077Y-1.937
X5.0906Y-3.6417
X5.137Y-3.837
X5.177Y-1.937
X5.1906Y-3.6417
X5.237Y-3.837
X5.277Y-1.937
X5.2906Y-3.6417
X5.337Y-3.837
X5.377Y-1.937
X5.3906Y-3.6417
X5.437Y-3.837
X5.477Y-1.937
X5.4906Y-3.6417
X5.537Y-3.837
X5.577Y-1.937
X5.5906Y-3.6417
X5.637Y-3.837
X5.737Y-1.937
X5.737Y-3.837
X5.837Y-1.937
X5.937Y-1.937
X5.937Y-3.837
X6.037Y-1.937
X6.037Y-3.837
X6.137Y-1.937
X6.137Y-3.837
X6.237Y-1.937
X6.237Y-3.837
X6.337Y-1.937
X6.337Y-3.837
X6.437Y-1.937
X6.437Y-3.837
T5
X5.8327Y-3.0018
X5.9327Y-3.0018
X6.0327Y-3.0018
X6.1327Y-3.0018
X6.2327Y-3.0018
X6.3327Y-3.0018
T6
X4.061Y-3.6602
X4.561Y-3.6602
T7
X4.9406Y-3.1417
X5.5406Y-3.1417
M30
