%TF.GenerationSoftware,KiCad,Pcbnew,8.0.8*%
%TF.CreationDate,2025-03-12T20:49:11-06:00*%
%TF.ProjectId,ArduinoUnoSheildFinalProject,41726475-696e-46f5-956e-6f536865696c,rev?*%
%TF.SameCoordinates,Original*%
%TF.FileFunction,Copper,L2,Bot*%
%TF.FilePolarity,Positive*%
%FSLAX46Y46*%
G04 Gerber Fmt 4.6, Leading zero omitted, Abs format (unit mm)*
G04 Created by KiCad (PCBNEW 8.0.8) date 2025-03-12 20:49:11*
%MOMM*%
%LPD*%
G01*
G04 APERTURE LIST*
%TA.AperFunction,ComponentPad*%
%ADD10R,1.700000X1.700000*%
%TD*%
%TA.AperFunction,ComponentPad*%
%ADD11O,1.700000X1.700000*%
%TD*%
%TA.AperFunction,ComponentPad*%
%ADD12C,1.400000*%
%TD*%
%TA.AperFunction,ComponentPad*%
%ADD13O,1.400000X1.400000*%
%TD*%
%TA.AperFunction,ComponentPad*%
%ADD14R,1.508000X1.508000*%
%TD*%
%TA.AperFunction,ComponentPad*%
%ADD15C,1.508000*%
%TD*%
%TA.AperFunction,ComponentPad*%
%ADD16C,3.216000*%
%TD*%
%TA.AperFunction,ComponentPad*%
%ADD17R,1.800000X1.800000*%
%TD*%
%TA.AperFunction,ComponentPad*%
%ADD18C,1.800000*%
%TD*%
%TA.AperFunction,ComponentPad*%
%ADD19R,1.879600X1.879600*%
%TD*%
%TA.AperFunction,ComponentPad*%
%ADD20C,1.879600*%
%TD*%
%TA.AperFunction,ComponentPad*%
%ADD21C,3.516000*%
%TD*%
%TA.AperFunction,ComponentPad*%
%ADD22O,1.100000X2.200000*%
%TD*%
G04 APERTURE END LIST*
D10*
%TO.P,J1,1,Pin_1*%
%TO.N,unconnected-(J1-Pin_1-Pad1)*%
X127940000Y-97460000D03*
D11*
%TO.P,J1,2,Pin_2*%
%TO.N,/IOREF*%
X130480000Y-97460000D03*
%TO.P,J1,3,Pin_3*%
%TO.N,/RESET*%
X133020000Y-97460000D03*
%TO.P,J1,4,Pin_4*%
%TO.N,+3V3*%
X135560000Y-97460000D03*
%TO.P,J1,5,Pin_5*%
%TO.N,+5V*%
X138100000Y-97460000D03*
%TO.P,J1,6,Pin_6*%
%TO.N,GND*%
X140640000Y-97460000D03*
%TO.P,J1,7,Pin_7*%
X143180000Y-97460000D03*
%TO.P,J1,8,Pin_8*%
%TO.N,VCC*%
X145720000Y-97460000D03*
%TD*%
D10*
%TO.P,J3,1,Pin_1*%
%TO.N,/External_Temp*%
X150800000Y-97460000D03*
D11*
%TO.P,J3,2,Pin_2*%
%TO.N,/A1*%
X153340000Y-97460000D03*
%TO.P,J3,3,Pin_3*%
%TO.N,/A2*%
X155880000Y-97460000D03*
%TO.P,J3,4,Pin_4*%
%TO.N,/A3*%
X158420000Y-97460000D03*
%TO.P,J3,5,Pin_5*%
%TO.N,unconnected-(J3-Pin_5-Pad5)*%
X160960000Y-97460000D03*
%TO.P,J3,6,Pin_6*%
%TO.N,unconnected-(J3-Pin_6-Pad6)*%
X163500000Y-97460000D03*
%TD*%
D10*
%TO.P,J2,1,Pin_1*%
%TO.N,/SCL{slash}A5*%
X118796000Y-49200000D03*
D11*
%TO.P,J2,2,Pin_2*%
%TO.N,/SDA{slash}A4*%
X121336000Y-49200000D03*
%TO.P,J2,3,Pin_3*%
%TO.N,/AREF*%
X123876000Y-49200000D03*
%TO.P,J2,4,Pin_4*%
%TO.N,GND*%
X126416000Y-49200000D03*
%TO.P,J2,5,Pin_5*%
%TO.N,/13*%
X128956000Y-49200000D03*
%TO.P,J2,6,Pin_6*%
%TO.N,/12*%
X131496000Y-49200000D03*
%TO.P,J2,7,Pin_7*%
%TO.N,/\u002A11*%
X134036000Y-49200000D03*
%TO.P,J2,8,Pin_8*%
%TO.N,/\u002A10*%
X136576000Y-49200000D03*
%TO.P,J2,9,Pin_9*%
%TO.N,/\u002A9*%
X139116000Y-49200000D03*
%TO.P,J2,10,Pin_10*%
%TO.N,/8*%
X141656000Y-49200000D03*
%TD*%
D10*
%TO.P,J4,1,Pin_1*%
%TO.N,/LED6*%
X145720000Y-49200000D03*
D11*
%TO.P,J4,2,Pin_2*%
%TO.N,/LED5*%
X148260000Y-49200000D03*
%TO.P,J4,3,Pin_3*%
%TO.N,/LED4*%
X150800000Y-49200000D03*
%TO.P,J4,4,Pin_4*%
%TO.N,/LED3*%
X153340000Y-49200000D03*
%TO.P,J4,5,Pin_5*%
%TO.N,/LED2*%
X155880000Y-49200000D03*
%TO.P,J4,6,Pin_6*%
%TO.N,/LED1*%
X158420000Y-49200000D03*
%TO.P,J4,7,Pin_7*%
%TO.N,/TX{slash}1*%
X160960000Y-49200000D03*
%TO.P,J4,8,Pin_8*%
%TO.N,/RX{slash}0*%
X163500000Y-49200000D03*
%TD*%
D12*
%TO.P,R3,1*%
%TO.N,/LED3*%
X151700000Y-52960000D03*
D13*
%TO.P,R3,2*%
%TO.N,Net-(D3-A)*%
X151700000Y-58040000D03*
%TD*%
D12*
%TO.P,R2,1*%
%TO.N,/LED2*%
X154850000Y-52960000D03*
D13*
%TO.P,R2,2*%
%TO.N,Net-(D2-A)*%
X154850000Y-58040000D03*
%TD*%
D14*
%TO.P,U3,1,VIN*%
%TO.N,+5V*%
X117120000Y-79000000D03*
D15*
%TO.P,U3,2,3VO*%
%TO.N,unconnected-(U3-3VO-Pad2)*%
X114580000Y-79000000D03*
%TO.P,U3,3,GND*%
%TO.N,GND*%
X112040000Y-79000000D03*
%TO.P,U3,4,SCK*%
%TO.N,/SCL{slash}A5*%
X109500000Y-79000000D03*
%TO.P,U3,5,SDO*%
%TO.N,unconnected-(U3-SDO-Pad5)*%
X106960000Y-79000000D03*
%TO.P,U3,6,SDI*%
%TO.N,/SDA{slash}A4*%
X104420000Y-79000000D03*
%TO.P,U3,7,CS*%
%TO.N,unconnected-(U3-CS-Pad7)*%
X101880000Y-79000000D03*
D16*
%TO.P,U3,P1*%
%TO.N,N/C*%
X115850000Y-92970000D03*
%TO.P,U3,P2*%
X103150000Y-92970000D03*
%TD*%
D17*
%TO.P,D1,1,K*%
%TO.N,GND*%
X155840000Y-65500000D03*
D18*
%TO.P,D1,2,A*%
%TO.N,Net-(D1-A)*%
X158380000Y-65500000D03*
%TD*%
D17*
%TO.P,D6,1,K*%
%TO.N,GND*%
X118450000Y-65500000D03*
D18*
%TO.P,D6,2,A*%
%TO.N,Net-(D6-A)*%
X120990000Y-65500000D03*
%TD*%
D17*
%TO.P,D2,1,K*%
%TO.N,GND*%
X148370000Y-65500000D03*
D18*
%TO.P,D2,2,A*%
%TO.N,Net-(D2-A)*%
X150910000Y-65500000D03*
%TD*%
D19*
%TO.P,U1,1,BLK*%
%TO.N,GND*%
X148150000Y-76245000D03*
D20*
%TO.P,U1,2,GND*%
X150690000Y-76245000D03*
%TO.P,U1,3,VCC*%
%TO.N,+5V*%
X153230000Y-76245000D03*
%TO.P,U1,4,TXO*%
%TO.N,/TX{slash}1*%
X155770000Y-76245000D03*
%TO.P,U1,5,RXI*%
%TO.N,/RX{slash}0*%
X158310000Y-76245000D03*
%TO.P,U1,6,GRN*%
%TO.N,/RESET*%
X160850000Y-76245000D03*
%TD*%
D12*
%TO.P,R4,1*%
%TO.N,/LED4*%
X148550000Y-52960000D03*
D13*
%TO.P,R4,2*%
%TO.N,Net-(D4-A)*%
X148550000Y-58040000D03*
%TD*%
D17*
%TO.P,D5,1,K*%
%TO.N,GND*%
X125960000Y-65500000D03*
D18*
%TO.P,D5,2,A*%
%TO.N,Net-(D5-A)*%
X128500000Y-65500000D03*
%TD*%
D12*
%TO.P,R1,1*%
%TO.N,/LED1*%
X158000000Y-52960000D03*
D13*
%TO.P,R1,2*%
%TO.N,Net-(D1-A)*%
X158000000Y-58040000D03*
%TD*%
D12*
%TO.P,R5,1*%
%TO.N,/LED5*%
X145400000Y-52960000D03*
D13*
%TO.P,R5,2*%
%TO.N,Net-(D5-A)*%
X145400000Y-58040000D03*
%TD*%
D12*
%TO.P,R6,1*%
%TO.N,/LED6*%
X142250000Y-52960000D03*
D13*
%TO.P,R6,2*%
%TO.N,Net-(D6-A)*%
X142250000Y-58040000D03*
%TD*%
D14*
%TO.P,U4,1,A*%
%TO.N,unconnected-(U4-A-Pad1)*%
X142000000Y-92500000D03*
D15*
%TO.P,U4,2,SDA*%
%TO.N,/SDA{slash}A4*%
X139460000Y-92500000D03*
%TO.P,U4,3,SCL*%
%TO.N,/SCL{slash}A5*%
X136920000Y-92500000D03*
%TO.P,U4,4,I1*%
%TO.N,unconnected-(U4-I1-Pad4)*%
X134380000Y-92500000D03*
%TO.P,U4,5,I2*%
%TO.N,unconnected-(U4-I2-Pad5)*%
X131840000Y-92500000D03*
%TO.P,U4,6,3VO*%
%TO.N,unconnected-(U4-3VO-Pad6)*%
X129300000Y-92500000D03*
%TO.P,U4,7,GND*%
%TO.N,GND*%
X126760000Y-92500000D03*
%TO.P,U4,8,VIN*%
%TO.N,+5V*%
X124220000Y-92500000D03*
D21*
%TO.P,U4,P1*%
%TO.N,N/C*%
X125490000Y-79800000D03*
%TO.P,U4,P2*%
X140730000Y-79800000D03*
%TD*%
D22*
%TO.P,U2,1,+VS*%
%TO.N,+5V*%
X118730000Y-57780000D03*
%TO.P,U2,2,VOUT*%
%TO.N,/External_Temp*%
X120000000Y-57780000D03*
%TO.P,U2,3,GND*%
%TO.N,GND*%
X121270000Y-57780000D03*
%TD*%
D17*
%TO.P,D4,1,K*%
%TO.N,GND*%
X133430000Y-65500000D03*
D18*
%TO.P,D4,2,A*%
%TO.N,Net-(D4-A)*%
X135970000Y-65500000D03*
%TD*%
D17*
%TO.P,D3,1,K*%
%TO.N,GND*%
X140900000Y-65500000D03*
D18*
%TO.P,D3,2,A*%
%TO.N,Net-(D3-A)*%
X143440000Y-65500000D03*
%TD*%
%TA.AperFunction,Conductor*%
%TO.N,GND*%
G36*
X142714075Y-97267007D02*
G01*
X142680000Y-97394174D01*
X142680000Y-97525826D01*
X142714075Y-97652993D01*
X142746988Y-97710000D01*
X141073012Y-97710000D01*
X141105925Y-97652993D01*
X141140000Y-97525826D01*
X141140000Y-97394174D01*
X141105925Y-97267007D01*
X141073012Y-97210000D01*
X142746988Y-97210000D01*
X142714075Y-97267007D01*
G37*
%TD.AperFunction*%
%TA.AperFunction,Conductor*%
G36*
X163484404Y-46755185D02*
G01*
X163505046Y-46771819D01*
X165928181Y-49194954D01*
X165961666Y-49256277D01*
X165964500Y-49282635D01*
X165964500Y-59344982D01*
X165964500Y-59375018D01*
X165975994Y-59402767D01*
X165975995Y-59402768D01*
X168468181Y-61894954D01*
X168501666Y-61956277D01*
X168504500Y-61982635D01*
X168504500Y-96107364D01*
X168484815Y-96174403D01*
X168468181Y-96195045D01*
X165997233Y-98665994D01*
X165975995Y-98687231D01*
X165964500Y-98714982D01*
X165964500Y-99231907D01*
X165963903Y-99244062D01*
X165952505Y-99359778D01*
X165947763Y-99383618D01*
X165917832Y-99482290D01*
X165915789Y-99489024D01*
X165906486Y-99511482D01*
X165854561Y-99608627D01*
X165841056Y-99628839D01*
X165771176Y-99713988D01*
X165753988Y-99731176D01*
X165668839Y-99801056D01*
X165648627Y-99814561D01*
X165551482Y-99866486D01*
X165529028Y-99875787D01*
X165487028Y-99888528D01*
X165423618Y-99907763D01*
X165399778Y-99912505D01*
X165291162Y-99923203D01*
X165284060Y-99923903D01*
X165271907Y-99924500D01*
X100768093Y-99924500D01*
X100755939Y-99923903D01*
X100747995Y-99923120D01*
X100640221Y-99912505D01*
X100616381Y-99907763D01*
X100599445Y-99902625D01*
X100510968Y-99875786D01*
X100488517Y-99866486D01*
X100391372Y-99814561D01*
X100371160Y-99801056D01*
X100286011Y-99731176D01*
X100268823Y-99713988D01*
X100198943Y-99628839D01*
X100185438Y-99608627D01*
X100133510Y-99511476D01*
X100124215Y-99489037D01*
X100092234Y-99383612D01*
X100087494Y-99359777D01*
X100076097Y-99244061D01*
X100075500Y-99231907D01*
X100075500Y-96561345D01*
X126581500Y-96561345D01*
X126581500Y-98358654D01*
X126588011Y-98419202D01*
X126588011Y-98419204D01*
X126639111Y-98556204D01*
X126726739Y-98673261D01*
X126843796Y-98760889D01*
X126980799Y-98811989D01*
X127008050Y-98814918D01*
X127041345Y-98818499D01*
X127041362Y-98818500D01*
X128838638Y-98818500D01*
X128838654Y-98818499D01*
X128865692Y-98815591D01*
X128899201Y-98811989D01*
X129036204Y-98760889D01*
X129153261Y-98673261D01*
X129240889Y-98556204D01*
X129286138Y-98434887D01*
X129328009Y-98378956D01*
X129393474Y-98354539D01*
X129461746Y-98369391D01*
X129493545Y-98394236D01*
X129556760Y-98462906D01*
X129734424Y-98601189D01*
X129734425Y-98601189D01*
X129734427Y-98601191D01*
X129861135Y-98669761D01*
X129932426Y-98708342D01*
X130145365Y-98781444D01*
X130367431Y-98818500D01*
X130592569Y-98818500D01*
X130814635Y-98781444D01*
X131027574Y-98708342D01*
X131225576Y-98601189D01*
X131403240Y-98462906D01*
X131524594Y-98331082D01*
X131555715Y-98297276D01*
X131555715Y-98297275D01*
X131555722Y-98297268D01*
X131646193Y-98158790D01*
X131699338Y-98113437D01*
X131768569Y-98104013D01*
X131831905Y-98133515D01*
X131853804Y-98158787D01*
X131944278Y-98297268D01*
X131944283Y-98297273D01*
X131944284Y-98297276D01*
X132070968Y-98434889D01*
X132096760Y-98462906D01*
X132274424Y-98601189D01*
X132274425Y-98601189D01*
X132274427Y-98601191D01*
X132401135Y-98669761D01*
X132472426Y-98708342D01*
X132685365Y-98781444D01*
X132907431Y-98818500D01*
X133132569Y-98818500D01*
X133354635Y-98781444D01*
X133567574Y-98708342D01*
X133765576Y-98601189D01*
X133943240Y-98462906D01*
X134064594Y-98331082D01*
X134095715Y-98297276D01*
X134095715Y-98297275D01*
X134095722Y-98297268D01*
X134186193Y-98158790D01*
X134239338Y-98113437D01*
X134308569Y-98104013D01*
X134371905Y-98133515D01*
X134393804Y-98158787D01*
X134484278Y-98297268D01*
X134484283Y-98297273D01*
X134484284Y-98297276D01*
X134610968Y-98434889D01*
X134636760Y-98462906D01*
X134814424Y-98601189D01*
X134814425Y-98601189D01*
X134814427Y-98601191D01*
X134941135Y-98669761D01*
X135012426Y-98708342D01*
X135225365Y-98781444D01*
X135447431Y-98818500D01*
X135672569Y-98818500D01*
X135894635Y-98781444D01*
X136107574Y-98708342D01*
X136305576Y-98601189D01*
X136483240Y-98462906D01*
X136604594Y-98331082D01*
X136635715Y-98297276D01*
X136635715Y-98297275D01*
X136635722Y-98297268D01*
X136726193Y-98158790D01*
X136779338Y-98113437D01*
X136848569Y-98104013D01*
X136911905Y-98133515D01*
X136933804Y-98158787D01*
X137024278Y-98297268D01*
X137024283Y-98297273D01*
X137024284Y-98297276D01*
X137150968Y-98434889D01*
X137176760Y-98462906D01*
X137354424Y-98601189D01*
X137354425Y-98601189D01*
X137354427Y-98601191D01*
X137481135Y-98669761D01*
X137552426Y-98708342D01*
X137765365Y-98781444D01*
X137987431Y-98818500D01*
X138212569Y-98818500D01*
X138434635Y-98781444D01*
X138647574Y-98708342D01*
X138845576Y-98601189D01*
X139023240Y-98462906D01*
X139144594Y-98331082D01*
X139175715Y-98297276D01*
X139175715Y-98297275D01*
X139175722Y-98297268D01*
X139269749Y-98153347D01*
X139322894Y-98107994D01*
X139392125Y-98098570D01*
X139455461Y-98128072D01*
X139475130Y-98150048D01*
X139601890Y-98331078D01*
X139768917Y-98498105D01*
X139962421Y-98633600D01*
X140176507Y-98733429D01*
X140176516Y-98733433D01*
X140390000Y-98790634D01*
X140390000Y-97893012D01*
X140447007Y-97925925D01*
X140574174Y-97960000D01*
X140705826Y-97960000D01*
X140832993Y-97925925D01*
X140890000Y-97893012D01*
X140890000Y-98790633D01*
X141103483Y-98733433D01*
X141103492Y-98733429D01*
X141317578Y-98633600D01*
X141511082Y-98498105D01*
X141678105Y-98331082D01*
X141808425Y-98144968D01*
X141863002Y-98101344D01*
X141932501Y-98094151D01*
X141994855Y-98125673D01*
X142011575Y-98144968D01*
X142141894Y-98331082D01*
X142308917Y-98498105D01*
X142502421Y-98633600D01*
X142716507Y-98733429D01*
X142716516Y-98733433D01*
X142930000Y-98790634D01*
X142930000Y-97893012D01*
X142987007Y-97925925D01*
X143114174Y-97960000D01*
X143245826Y-97960000D01*
X143372993Y-97925925D01*
X143430000Y-97893012D01*
X143430000Y-98790633D01*
X143643483Y-98733433D01*
X143643492Y-98733429D01*
X143857578Y-98633600D01*
X144051082Y-98498105D01*
X144218105Y-98331082D01*
X144344868Y-98150048D01*
X144399445Y-98106423D01*
X144468944Y-98099231D01*
X144531298Y-98130753D01*
X144550251Y-98153350D01*
X144644276Y-98297265D01*
X144644284Y-98297276D01*
X144770968Y-98434889D01*
X144796760Y-98462906D01*
X144974424Y-98601189D01*
X144974425Y-98601189D01*
X144974427Y-98601191D01*
X145101135Y-98669761D01*
X145172426Y-98708342D01*
X145385365Y-98781444D01*
X145607431Y-98818500D01*
X145832569Y-98818500D01*
X146054635Y-98781444D01*
X146267574Y-98708342D01*
X146465576Y-98601189D01*
X146643240Y-98462906D01*
X146764594Y-98331082D01*
X146795715Y-98297276D01*
X146795717Y-98297273D01*
X146795722Y-98297268D01*
X146918860Y-98108791D01*
X147009296Y-97902616D01*
X147064564Y-97684368D01*
X147067164Y-97652993D01*
X147083156Y-97460005D01*
X147083156Y-97459994D01*
X147064565Y-97235640D01*
X147064563Y-97235628D01*
X147009296Y-97017385D01*
X146999071Y-96994075D01*
X146918860Y-96811209D01*
X146902706Y-96786484D01*
X146795723Y-96622734D01*
X146795715Y-96622723D01*
X146739212Y-96561345D01*
X149441500Y-96561345D01*
X149441500Y-98358654D01*
X149448011Y-98419202D01*
X149448011Y-98419204D01*
X149499111Y-98556204D01*
X149586739Y-98673261D01*
X149703796Y-98760889D01*
X149840799Y-98811989D01*
X149868050Y-98814918D01*
X149901345Y-98818499D01*
X149901362Y-98818500D01*
X151698638Y-98818500D01*
X151698654Y-98818499D01*
X151725692Y-98815591D01*
X151759201Y-98811989D01*
X151896204Y-98760889D01*
X152013261Y-98673261D01*
X152100889Y-98556204D01*
X152146138Y-98434887D01*
X152188009Y-98378956D01*
X152253474Y-98354539D01*
X152321746Y-98369391D01*
X152353545Y-98394236D01*
X152416760Y-98462906D01*
X152594424Y-98601189D01*
X152594425Y-98601189D01*
X152594427Y-98601191D01*
X152721135Y-98669761D01*
X152792426Y-98708342D01*
X153005365Y-98781444D01*
X153227431Y-98818500D01*
X153452569Y-98818500D01*
X153674635Y-98781444D01*
X153887574Y-98708342D01*
X154085576Y-98601189D01*
X154263240Y-98462906D01*
X154384594Y-98331082D01*
X154415715Y-98297276D01*
X154415715Y-98297275D01*
X154415722Y-98297268D01*
X154506193Y-98158790D01*
X154559338Y-98113437D01*
X154628569Y-98104013D01*
X154691905Y-98133515D01*
X154713804Y-98158787D01*
X154804278Y-98297268D01*
X154804283Y-98297273D01*
X154804284Y-98297276D01*
X154930968Y-98434889D01*
X154956760Y-98462906D01*
X155134424Y-98601189D01*
X155134425Y-98601189D01*
X155134427Y-98601191D01*
X155261135Y-98669761D01*
X155332426Y-98708342D01*
X155545365Y-98781444D01*
X155767431Y-98818500D01*
X155992569Y-98818500D01*
X156214635Y-98781444D01*
X156427574Y-98708342D01*
X156625576Y-98601189D01*
X156803240Y-98462906D01*
X156924594Y-98331082D01*
X156955715Y-98297276D01*
X156955715Y-98297275D01*
X156955722Y-98297268D01*
X157046193Y-98158790D01*
X157099338Y-98113437D01*
X157168569Y-98104013D01*
X157231905Y-98133515D01*
X157253804Y-98158787D01*
X157344278Y-98297268D01*
X157344283Y-98297273D01*
X157344284Y-98297276D01*
X157470968Y-98434889D01*
X157496760Y-98462906D01*
X157674424Y-98601189D01*
X157674425Y-98601189D01*
X157674427Y-98601191D01*
X157801135Y-98669761D01*
X157872426Y-98708342D01*
X158085365Y-98781444D01*
X158307431Y-98818500D01*
X158532569Y-98818500D01*
X158754635Y-98781444D01*
X158967574Y-98708342D01*
X159165576Y-98601189D01*
X159343240Y-98462906D01*
X159464594Y-98331082D01*
X159495715Y-98297276D01*
X159495715Y-98297275D01*
X159495722Y-98297268D01*
X159586193Y-98158790D01*
X159639338Y-98113437D01*
X159708569Y-98104013D01*
X159771905Y-98133515D01*
X159793804Y-98158787D01*
X159884278Y-98297268D01*
X159884283Y-98297273D01*
X159884284Y-98297276D01*
X160010968Y-98434889D01*
X160036760Y-98462906D01*
X160214424Y-98601189D01*
X160214425Y-98601189D01*
X160214427Y-98601191D01*
X160341135Y-98669761D01*
X160412426Y-98708342D01*
X160625365Y-98781444D01*
X160847431Y-98818500D01*
X161072569Y-98818500D01*
X161294635Y-98781444D01*
X161507574Y-98708342D01*
X161705576Y-98601189D01*
X161883240Y-98462906D01*
X162004594Y-98331082D01*
X162035715Y-98297276D01*
X162035715Y-98297275D01*
X162035722Y-98297268D01*
X162126193Y-98158790D01*
X162179338Y-98113437D01*
X162248569Y-98104013D01*
X162311905Y-98133515D01*
X162333804Y-98158787D01*
X162424278Y-98297268D01*
X162424283Y-98297273D01*
X162424284Y-98297276D01*
X162550968Y-98434889D01*
X162576760Y-98462906D01*
X162754424Y-98601189D01*
X162754425Y-98601189D01*
X162754427Y-98601191D01*
X162881135Y-98669761D01*
X162952426Y-98708342D01*
X163165365Y-98781444D01*
X163387431Y-98818500D01*
X163612569Y-98818500D01*
X163834635Y-98781444D01*
X164047574Y-98708342D01*
X164245576Y-98601189D01*
X164423240Y-98462906D01*
X164544594Y-98331082D01*
X164575715Y-98297276D01*
X164575717Y-98297273D01*
X164575722Y-98297268D01*
X164698860Y-98108791D01*
X164789296Y-97902616D01*
X164844564Y-97684368D01*
X164847164Y-97652993D01*
X164863156Y-97460005D01*
X164863156Y-97459994D01*
X164844565Y-97235640D01*
X164844563Y-97235628D01*
X164789296Y-97017385D01*
X164779071Y-96994075D01*
X164698860Y-96811209D01*
X164682706Y-96786484D01*
X164575723Y-96622734D01*
X164575715Y-96622723D01*
X164423243Y-96457097D01*
X164423238Y-96457092D01*
X164245577Y-96318812D01*
X164245572Y-96318808D01*
X164047580Y-96211661D01*
X164047577Y-96211659D01*
X164047574Y-96211658D01*
X164047571Y-96211657D01*
X164047569Y-96211656D01*
X163834637Y-96138556D01*
X163612569Y-96101500D01*
X163387431Y-96101500D01*
X163165362Y-96138556D01*
X162952430Y-96211656D01*
X162952419Y-96211661D01*
X162754427Y-96318808D01*
X162754422Y-96318812D01*
X162576761Y-96457092D01*
X162576756Y-96457097D01*
X162424284Y-96622723D01*
X162424276Y-96622734D01*
X162333808Y-96761206D01*
X162280662Y-96806562D01*
X162211431Y-96815986D01*
X162148095Y-96786484D01*
X162126192Y-96761206D01*
X162035723Y-96622734D01*
X162035715Y-96622723D01*
X161883243Y-96457097D01*
X161883238Y-96457092D01*
X161705577Y-96318812D01*
X161705572Y-96318808D01*
X161507580Y-96211661D01*
X161507577Y-96211659D01*
X161507574Y-96211658D01*
X161507571Y-96211657D01*
X161507569Y-96211656D01*
X161294637Y-96138556D01*
X161072569Y-96101500D01*
X160847431Y-96101500D01*
X160625362Y-96138556D01*
X160412430Y-96211656D01*
X160412419Y-96211661D01*
X160214427Y-96318808D01*
X160214422Y-96318812D01*
X160036761Y-96457092D01*
X160036756Y-96457097D01*
X159884284Y-96622723D01*
X159884276Y-96622734D01*
X159793808Y-96761206D01*
X159740662Y-96806562D01*
X159671431Y-96815986D01*
X159608095Y-96786484D01*
X159586192Y-96761206D01*
X159495723Y-96622734D01*
X159495715Y-96622723D01*
X159343243Y-96457097D01*
X159343238Y-96457092D01*
X159165577Y-96318812D01*
X159165572Y-96318808D01*
X158967580Y-96211661D01*
X158967577Y-96211659D01*
X158967574Y-96211658D01*
X158967571Y-96211657D01*
X158967569Y-96211656D01*
X158754637Y-96138556D01*
X158532569Y-96101500D01*
X158307431Y-96101500D01*
X158085362Y-96138556D01*
X157872430Y-96211656D01*
X157872419Y-96211661D01*
X157674427Y-96318808D01*
X157674422Y-96318812D01*
X157496761Y-96457092D01*
X157496756Y-96457097D01*
X157344284Y-96622723D01*
X157344276Y-96622734D01*
X157253808Y-96761206D01*
X157200662Y-96806562D01*
X157131431Y-96815986D01*
X157068095Y-96786484D01*
X157046192Y-96761206D01*
X156955723Y-96622734D01*
X156955715Y-96622723D01*
X156803243Y-96457097D01*
X156803238Y-96457092D01*
X156625577Y-96318812D01*
X156625572Y-96318808D01*
X156427580Y-96211661D01*
X156427577Y-96211659D01*
X156427574Y-96211658D01*
X156427571Y-96211657D01*
X156427569Y-96211656D01*
X156214637Y-96138556D01*
X155992569Y-96101500D01*
X155767431Y-96101500D01*
X155545362Y-96138556D01*
X155332430Y-96211656D01*
X155332419Y-96211661D01*
X155134427Y-96318808D01*
X155134422Y-96318812D01*
X154956761Y-96457092D01*
X154956756Y-96457097D01*
X154804284Y-96622723D01*
X154804276Y-96622734D01*
X154713808Y-96761206D01*
X154660662Y-96806562D01*
X154591431Y-96815986D01*
X154528095Y-96786484D01*
X154506192Y-96761206D01*
X154415723Y-96622734D01*
X154415715Y-96622723D01*
X154263243Y-96457097D01*
X154263238Y-96457092D01*
X154085577Y-96318812D01*
X154085572Y-96318808D01*
X153887580Y-96211661D01*
X153887577Y-96211659D01*
X153887574Y-96211658D01*
X153887571Y-96211657D01*
X153887569Y-96211656D01*
X153674637Y-96138556D01*
X153452569Y-96101500D01*
X153227431Y-96101500D01*
X153005362Y-96138556D01*
X152792430Y-96211656D01*
X152792419Y-96211661D01*
X152594427Y-96318808D01*
X152594422Y-96318812D01*
X152416761Y-96457092D01*
X152353548Y-96525760D01*
X152293661Y-96561750D01*
X152223823Y-96559649D01*
X152166207Y-96520124D01*
X152146138Y-96485110D01*
X152100889Y-96363796D01*
X152067214Y-96318812D01*
X152013261Y-96246739D01*
X151896204Y-96159111D01*
X151895172Y-96158726D01*
X151759203Y-96108011D01*
X151698654Y-96101500D01*
X151698638Y-96101500D01*
X149901362Y-96101500D01*
X149901345Y-96101500D01*
X149840797Y-96108011D01*
X149840795Y-96108011D01*
X149703795Y-96159111D01*
X149586739Y-96246739D01*
X149499111Y-96363795D01*
X149448011Y-96500795D01*
X149448011Y-96500797D01*
X149441500Y-96561345D01*
X146739212Y-96561345D01*
X146643243Y-96457097D01*
X146643238Y-96457092D01*
X146465577Y-96318812D01*
X146465572Y-96318808D01*
X146267580Y-96211661D01*
X146267577Y-96211659D01*
X146267574Y-96211658D01*
X146267571Y-96211657D01*
X146267569Y-96211656D01*
X146054637Y-96138556D01*
X145832569Y-96101500D01*
X145607431Y-96101500D01*
X145385362Y-96138556D01*
X145172430Y-96211656D01*
X145172419Y-96211661D01*
X144974427Y-96318808D01*
X144974422Y-96318812D01*
X144796761Y-96457092D01*
X144796756Y-96457097D01*
X144644284Y-96622723D01*
X144644276Y-96622734D01*
X144550251Y-96766650D01*
X144497105Y-96812007D01*
X144427873Y-96821430D01*
X144364538Y-96791928D01*
X144344868Y-96769951D01*
X144218113Y-96588926D01*
X144218108Y-96588920D01*
X144051082Y-96421894D01*
X143857578Y-96286399D01*
X143643492Y-96186570D01*
X143643486Y-96186567D01*
X143430000Y-96129364D01*
X143430000Y-97026988D01*
X143372993Y-96994075D01*
X143245826Y-96960000D01*
X143114174Y-96960000D01*
X142987007Y-96994075D01*
X142930000Y-97026988D01*
X142930000Y-96129364D01*
X142929999Y-96129364D01*
X142716513Y-96186567D01*
X142716507Y-96186570D01*
X142502422Y-96286399D01*
X142502420Y-96286400D01*
X142308926Y-96421886D01*
X142308920Y-96421891D01*
X142141891Y-96588920D01*
X142141890Y-96588922D01*
X142011575Y-96775031D01*
X141956998Y-96818655D01*
X141887499Y-96825848D01*
X141825145Y-96794326D01*
X141808425Y-96775031D01*
X141678109Y-96588922D01*
X141678108Y-96588920D01*
X141511082Y-96421894D01*
X141317578Y-96286399D01*
X141103492Y-96186570D01*
X141103486Y-96186567D01*
X140890000Y-96129364D01*
X140890000Y-97026988D01*
X140832993Y-96994075D01*
X140705826Y-96960000D01*
X140574174Y-96960000D01*
X140447007Y-96994075D01*
X140390000Y-97026988D01*
X140390000Y-96129364D01*
X140389999Y-96129364D01*
X140176513Y-96186567D01*
X140176507Y-96186570D01*
X139962422Y-96286399D01*
X139962420Y-96286400D01*
X139768926Y-96421886D01*
X139768920Y-96421891D01*
X139601891Y-96588920D01*
X139601890Y-96588922D01*
X139475131Y-96769952D01*
X139420554Y-96813577D01*
X139351055Y-96820769D01*
X139288701Y-96789247D01*
X139269752Y-96766656D01*
X139175722Y-96622732D01*
X139175715Y-96622725D01*
X139175715Y-96622723D01*
X139023243Y-96457097D01*
X139023238Y-96457092D01*
X138845577Y-96318812D01*
X138845572Y-96318808D01*
X138647580Y-96211661D01*
X138647577Y-96211659D01*
X138647574Y-96211658D01*
X138647571Y-96211657D01*
X138647569Y-96211656D01*
X138434637Y-96138556D01*
X138212569Y-96101500D01*
X137987431Y-96101500D01*
X137765362Y-96138556D01*
X137552430Y-96211656D01*
X137552419Y-96211661D01*
X137354427Y-96318808D01*
X137354422Y-96318812D01*
X137176761Y-96457092D01*
X137176756Y-96457097D01*
X137024284Y-96622723D01*
X137024276Y-96622734D01*
X136933808Y-96761206D01*
X136880662Y-96806562D01*
X136811431Y-96815986D01*
X136748095Y-96786484D01*
X136726192Y-96761206D01*
X136635723Y-96622734D01*
X136635715Y-96622723D01*
X136483243Y-96457097D01*
X136483238Y-96457092D01*
X136305577Y-96318812D01*
X136305572Y-96318808D01*
X136107580Y-96211661D01*
X136107577Y-96211659D01*
X136107574Y-96211658D01*
X136107571Y-96211657D01*
X136107569Y-96211656D01*
X135894637Y-96138556D01*
X135672569Y-96101500D01*
X135447431Y-96101500D01*
X135225362Y-96138556D01*
X135012430Y-96211656D01*
X135012419Y-96211661D01*
X134814427Y-96318808D01*
X134814422Y-96318812D01*
X134636761Y-96457092D01*
X134636756Y-96457097D01*
X134484284Y-96622723D01*
X134484276Y-96622734D01*
X134393808Y-96761206D01*
X134340662Y-96806562D01*
X134271431Y-96815986D01*
X134208095Y-96786484D01*
X134186192Y-96761206D01*
X134095723Y-96622734D01*
X134095715Y-96622723D01*
X133943243Y-96457097D01*
X133943238Y-96457092D01*
X133765577Y-96318812D01*
X133765572Y-96318808D01*
X133567580Y-96211661D01*
X133567577Y-96211659D01*
X133567574Y-96211658D01*
X133567571Y-96211657D01*
X133567569Y-96211656D01*
X133354637Y-96138556D01*
X133132569Y-96101500D01*
X132907431Y-96101500D01*
X132685362Y-96138556D01*
X132472430Y-96211656D01*
X132472419Y-96211661D01*
X132274427Y-96318808D01*
X132274422Y-96318812D01*
X132096761Y-96457092D01*
X132096756Y-96457097D01*
X131944284Y-96622723D01*
X131944276Y-96622734D01*
X131853808Y-96761206D01*
X131800662Y-96806562D01*
X131731431Y-96815986D01*
X131668095Y-96786484D01*
X131646192Y-96761206D01*
X131555723Y-96622734D01*
X131555715Y-96622723D01*
X131403243Y-96457097D01*
X131403238Y-96457092D01*
X131225577Y-96318812D01*
X131225572Y-96318808D01*
X131027580Y-96211661D01*
X131027577Y-96211659D01*
X131027574Y-96211658D01*
X131027571Y-96211657D01*
X131027569Y-96211656D01*
X130814637Y-96138556D01*
X130592569Y-96101500D01*
X130367431Y-96101500D01*
X130145362Y-96138556D01*
X129932430Y-96211656D01*
X129932419Y-96211661D01*
X129734427Y-96318808D01*
X129734422Y-96318812D01*
X129556761Y-96457092D01*
X129493548Y-96525760D01*
X129433661Y-96561750D01*
X129363823Y-96559649D01*
X129306207Y-96520124D01*
X129286138Y-96485110D01*
X129240889Y-96363796D01*
X129207214Y-96318812D01*
X129153261Y-96246739D01*
X129036204Y-96159111D01*
X129035172Y-96158726D01*
X128899203Y-96108011D01*
X128838654Y-96101500D01*
X128838638Y-96101500D01*
X127041362Y-96101500D01*
X127041345Y-96101500D01*
X126980797Y-96108011D01*
X126980795Y-96108011D01*
X126843795Y-96159111D01*
X126726739Y-96246739D01*
X126639111Y-96363795D01*
X126588011Y-96500795D01*
X126588011Y-96500797D01*
X126581500Y-96561345D01*
X100075500Y-96561345D01*
X100075500Y-92970000D01*
X101028554Y-92970000D01*
X101048312Y-93258870D01*
X101048313Y-93258872D01*
X101107219Y-93542347D01*
X101107224Y-93542364D01*
X101204185Y-93815184D01*
X101337395Y-94072270D01*
X101337399Y-94072276D01*
X101504367Y-94308816D01*
X101702003Y-94520432D01*
X101827628Y-94622635D01*
X101926604Y-94703158D01*
X101926606Y-94703159D01*
X101926607Y-94703160D01*
X102173998Y-94853602D01*
X102389543Y-94947226D01*
X102439571Y-94968956D01*
X102718379Y-95047074D01*
X102970564Y-95081735D01*
X103005226Y-95086500D01*
X103005227Y-95086500D01*
X103294774Y-95086500D01*
X103325698Y-95082249D01*
X103581621Y-95047074D01*
X103860429Y-94968956D01*
X104126003Y-94853601D01*
X104373396Y-94703158D01*
X104598000Y-94520429D01*
X104795630Y-94308819D01*
X104962605Y-94072269D01*
X105095814Y-93815186D01*
X105192777Y-93542359D01*
X105192778Y-93542352D01*
X105192780Y-93542347D01*
X105230006Y-93363202D01*
X105251687Y-93258870D01*
X105271446Y-92970000D01*
X113728554Y-92970000D01*
X113748312Y-93258870D01*
X113748313Y-93258872D01*
X113807219Y-93542347D01*
X113807224Y-93542364D01*
X113904185Y-93815184D01*
X114037395Y-94072270D01*
X114037399Y-94072276D01*
X114204367Y-94308816D01*
X114402003Y-94520432D01*
X114527628Y-94622635D01*
X114626604Y-94703158D01*
X114626606Y-94703159D01*
X114626607Y-94703160D01*
X114873998Y-94853602D01*
X115089543Y-94947226D01*
X115139571Y-94968956D01*
X115418379Y-95047074D01*
X115670564Y-95081735D01*
X115705226Y-95086500D01*
X115705227Y-95086500D01*
X115994774Y-95086500D01*
X116025698Y-95082249D01*
X116281621Y-95047074D01*
X116560429Y-94968956D01*
X116826003Y-94853601D01*
X117073396Y-94703158D01*
X117298000Y-94520429D01*
X117495630Y-94308819D01*
X117662605Y-94072269D01*
X117795814Y-93815186D01*
X117892777Y-93542359D01*
X117892778Y-93542352D01*
X117892780Y-93542347D01*
X117930006Y-93363202D01*
X117951687Y-93258870D01*
X117971446Y-92970000D01*
X117951687Y-92681130D01*
X117914048Y-92500000D01*
X117914047Y-92499997D01*
X122952677Y-92499997D01*
X122952677Y-92500002D01*
X122971929Y-92720062D01*
X122971930Y-92720070D01*
X123029104Y-92933445D01*
X123029105Y-92933447D01*
X123029106Y-92933450D01*
X123060139Y-93000000D01*
X123122466Y-93133662D01*
X123122468Y-93133666D01*
X123249170Y-93314615D01*
X123249175Y-93314621D01*
X123405378Y-93470824D01*
X123405384Y-93470829D01*
X123586333Y-93597531D01*
X123586335Y-93597532D01*
X123586338Y-93597534D01*
X123786550Y-93690894D01*
X123999932Y-93748070D01*
X124157123Y-93761822D01*
X124219998Y-93767323D01*
X124220000Y-93767323D01*
X124220002Y-93767323D01*
X124275140Y-93762499D01*
X124440068Y-93748070D01*
X124653450Y-93690894D01*
X124853662Y-93597534D01*
X125034620Y-93470826D01*
X125190826Y-93314620D01*
X125317534Y-93133662D01*
X125382308Y-92994752D01*
X125428479Y-92942314D01*
X125495672Y-92923162D01*
X125562553Y-92943377D01*
X125607071Y-92994753D01*
X125669854Y-93129392D01*
X125714003Y-93192443D01*
X126277037Y-92629409D01*
X126294075Y-92692993D01*
X126359901Y-92807007D01*
X126452993Y-92900099D01*
X126567007Y-92965925D01*
X126630590Y-92982962D01*
X126067555Y-93545996D01*
X126130601Y-93590142D01*
X126130605Y-93590144D01*
X126329466Y-93682874D01*
X126329475Y-93682878D01*
X126541407Y-93739664D01*
X126541417Y-93739666D01*
X126759999Y-93758790D01*
X126760001Y-93758790D01*
X126978582Y-93739666D01*
X126978592Y-93739664D01*
X127190524Y-93682878D01*
X127190533Y-93682874D01*
X127389392Y-93590145D01*
X127452443Y-93545995D01*
X126889410Y-92982962D01*
X126952993Y-92965925D01*
X127067007Y-92900099D01*
X127160099Y-92807007D01*
X127225925Y-92692993D01*
X127242962Y-92629409D01*
X127805995Y-93192442D01*
X127850146Y-93129390D01*
X127912928Y-92994754D01*
X127959100Y-92942314D01*
X128026293Y-92923162D01*
X128093174Y-92943377D01*
X128137692Y-92994753D01*
X128202466Y-93133662D01*
X128202468Y-93133666D01*
X128329170Y-93314615D01*
X128329175Y-93314621D01*
X128485378Y-93470824D01*
X128485384Y-93470829D01*
X128666333Y-93597531D01*
X128666335Y-93597532D01*
X128666338Y-93597534D01*
X128866550Y-93690894D01*
X129079932Y-93748070D01*
X129237123Y-93761822D01*
X129299998Y-93767323D01*
X129300000Y-93767323D01*
X129300002Y-93767323D01*
X129355140Y-93762499D01*
X129520068Y-93748070D01*
X129733450Y-93690894D01*
X129933662Y-93597534D01*
X130114620Y-93470826D01*
X130270826Y-93314620D01*
X130397534Y-93133662D01*
X130457618Y-93004811D01*
X130503790Y-92952371D01*
X130570983Y-92933219D01*
X130637865Y-92953435D01*
X130682382Y-93004811D01*
X130742464Y-93133658D01*
X130742468Y-93133666D01*
X130869170Y-93314615D01*
X130869175Y-93314621D01*
X131025378Y-93470824D01*
X131025384Y-93470829D01*
X131206333Y-93597531D01*
X131206335Y-93597532D01*
X131206338Y-93597534D01*
X131406550Y-93690894D01*
X131619932Y-93748070D01*
X131777123Y-93761822D01*
X131839998Y-93767323D01*
X131840000Y-93767323D01*
X131840002Y-93767323D01*
X131895140Y-93762499D01*
X132060068Y-93748070D01*
X132273450Y-93690894D01*
X132473662Y-93597534D01*
X132654620Y-93470826D01*
X132810826Y-93314620D01*
X132937534Y-93133662D01*
X132997618Y-93004811D01*
X133043790Y-92952371D01*
X133110983Y-92933219D01*
X133177865Y-92953435D01*
X133222382Y-93004811D01*
X133282464Y-93133658D01*
X133282468Y-93133666D01*
X133409170Y-93314615D01*
X133409175Y-93314621D01*
X133565378Y-93470824D01*
X133565384Y-93470829D01*
X133746333Y-93597531D01*
X133746335Y-93597532D01*
X133746338Y-93597534D01*
X133946550Y-93690894D01*
X134159932Y-93748070D01*
X134317123Y-93761822D01*
X134379998Y-93767323D01*
X134380000Y-93767323D01*
X134380002Y-93767323D01*
X134435140Y-93762499D01*
X134600068Y-93748070D01*
X134813450Y-93690894D01*
X135013662Y-93597534D01*
X135194620Y-93470826D01*
X135350826Y-93314620D01*
X135477534Y-93133662D01*
X135537618Y-93004811D01*
X135583790Y-92952371D01*
X135650983Y-92933219D01*
X135717865Y-92953435D01*
X135762382Y-93004811D01*
X135822464Y-93133658D01*
X135822468Y-93133666D01*
X135949170Y-93314615D01*
X135949175Y-93314621D01*
X136105378Y-93470824D01*
X136105384Y-93470829D01*
X136286333Y-93597531D01*
X136286335Y-93597532D01*
X136286338Y-93597534D01*
X136486550Y-93690894D01*
X136699932Y-93748070D01*
X136857123Y-93761822D01*
X136919998Y-93767323D01*
X136920000Y-93767323D01*
X136920002Y-93767323D01*
X136975140Y-93762499D01*
X137140068Y-93748070D01*
X137353450Y-93690894D01*
X137553662Y-93597534D01*
X137734620Y-93470826D01*
X137890826Y-93314620D01*
X138017534Y-93133662D01*
X138077618Y-93004811D01*
X138123790Y-92952371D01*
X138190983Y-92933219D01*
X138257865Y-92953435D01*
X138302382Y-93004811D01*
X138362464Y-93133658D01*
X138362468Y-93133666D01*
X138489170Y-93314615D01*
X138489175Y-93314621D01*
X138645378Y-93470824D01*
X138645384Y-93470829D01*
X138826333Y-93597531D01*
X138826335Y-93597532D01*
X138826338Y-93597534D01*
X139026550Y-93690894D01*
X139239932Y-93748070D01*
X139397123Y-93761822D01*
X139459998Y-93767323D01*
X139460000Y-93767323D01*
X139460002Y-93767323D01*
X139515140Y-93762499D01*
X139680068Y-93748070D01*
X139893450Y-93690894D01*
X140093662Y-93597534D01*
X140274620Y-93470826D01*
X140430826Y-93314620D01*
X140511925Y-93198797D01*
X140566502Y-93155173D01*
X140636000Y-93147979D01*
X140698355Y-93179502D01*
X140733769Y-93239731D01*
X140737500Y-93269921D01*
X140737500Y-93302654D01*
X140744011Y-93363202D01*
X140744011Y-93363204D01*
X140795111Y-93500204D01*
X140882739Y-93617261D01*
X140999796Y-93704889D01*
X141136799Y-93755989D01*
X141162853Y-93758790D01*
X141197345Y-93762499D01*
X141197362Y-93762500D01*
X142802638Y-93762500D01*
X142802654Y-93762499D01*
X142829692Y-93759591D01*
X142863201Y-93755989D01*
X143000204Y-93704889D01*
X143117261Y-93617261D01*
X143204889Y-93500204D01*
X143255989Y-93363201D01*
X143261212Y-93314620D01*
X143262499Y-93302654D01*
X143262500Y-93302637D01*
X143262500Y-91697362D01*
X143262499Y-91697345D01*
X143259157Y-91666270D01*
X143255989Y-91636799D01*
X143253894Y-91631183D01*
X143215847Y-91529175D01*
X143204889Y-91499796D01*
X143117261Y-91382739D01*
X143000204Y-91295111D01*
X142863203Y-91244011D01*
X142802654Y-91237500D01*
X142802638Y-91237500D01*
X141197362Y-91237500D01*
X141197345Y-91237500D01*
X141136797Y-91244011D01*
X141136795Y-91244011D01*
X140999795Y-91295111D01*
X140882739Y-91382739D01*
X140795111Y-91499795D01*
X140744011Y-91636795D01*
X140744011Y-91636797D01*
X140737500Y-91697345D01*
X140737500Y-91730079D01*
X140717815Y-91797118D01*
X140665011Y-91842873D01*
X140595853Y-91852817D01*
X140532297Y-91823792D01*
X140511925Y-91801202D01*
X140430827Y-91685381D01*
X140376627Y-91631181D01*
X140274620Y-91529174D01*
X140274616Y-91529171D01*
X140274615Y-91529170D01*
X140093666Y-91402468D01*
X140093662Y-91402466D01*
X140051357Y-91382739D01*
X139893450Y-91309106D01*
X139893447Y-91309105D01*
X139893445Y-91309104D01*
X139680070Y-91251930D01*
X139680062Y-91251929D01*
X139460002Y-91232677D01*
X139459998Y-91232677D01*
X139239937Y-91251929D01*
X139239929Y-91251930D01*
X139026554Y-91309104D01*
X139026548Y-91309107D01*
X138826340Y-91402465D01*
X138826338Y-91402466D01*
X138645377Y-91529175D01*
X138489175Y-91685377D01*
X138362466Y-91866338D01*
X138362465Y-91866340D01*
X138302382Y-91995189D01*
X138256209Y-92047628D01*
X138189016Y-92066780D01*
X138122135Y-92046564D01*
X138077618Y-91995189D01*
X138019525Y-91870609D01*
X138017534Y-91866339D01*
X137954180Y-91775859D01*
X137890827Y-91685381D01*
X137836627Y-91631181D01*
X137734620Y-91529174D01*
X137734616Y-91529171D01*
X137734615Y-91529170D01*
X137553666Y-91402468D01*
X137553662Y-91402466D01*
X137511357Y-91382739D01*
X137353450Y-91309106D01*
X137353447Y-91309105D01*
X137353445Y-91309104D01*
X137140070Y-91251930D01*
X137140062Y-91251929D01*
X136920002Y-91232677D01*
X136919998Y-91232677D01*
X136699937Y-91251929D01*
X136699929Y-91251930D01*
X136486554Y-91309104D01*
X136486548Y-91309107D01*
X136286340Y-91402465D01*
X136286338Y-91402466D01*
X136105377Y-91529175D01*
X135949175Y-91685377D01*
X135822466Y-91866338D01*
X135822465Y-91866340D01*
X135762382Y-91995189D01*
X135716209Y-92047628D01*
X135649016Y-92066780D01*
X135582135Y-92046564D01*
X135537618Y-91995189D01*
X135479525Y-91870609D01*
X135477534Y-91866339D01*
X135414180Y-91775859D01*
X135350827Y-91685381D01*
X135296627Y-91631181D01*
X135194620Y-91529174D01*
X135194616Y-91529171D01*
X135194615Y-91529170D01*
X135013666Y-91402468D01*
X135013662Y-91402466D01*
X134971357Y-91382739D01*
X134813450Y-91309106D01*
X134813447Y-91309105D01*
X134813445Y-91309104D01*
X134600070Y-91251930D01*
X134600062Y-91251929D01*
X134380002Y-91232677D01*
X134379998Y-91232677D01*
X134159937Y-91251929D01*
X134159929Y-91251930D01*
X133946554Y-91309104D01*
X133946548Y-91309107D01*
X133746340Y-91402465D01*
X133746338Y-91402466D01*
X133565377Y-91529175D01*
X133409175Y-91685377D01*
X133282466Y-91866338D01*
X133282465Y-91866340D01*
X133222382Y-91995189D01*
X133176209Y-92047628D01*
X133109016Y-92066780D01*
X133042135Y-92046564D01*
X132997618Y-91995189D01*
X132939525Y-91870609D01*
X132937534Y-91866339D01*
X132874180Y-91775859D01*
X132810827Y-91685381D01*
X132756627Y-91631181D01*
X132654620Y-91529174D01*
X132654616Y-91529171D01*
X132654615Y-91529170D01*
X132473666Y-91402468D01*
X132473662Y-91402466D01*
X132431357Y-91382739D01*
X132273450Y-91309106D01*
X132273447Y-91309105D01*
X132273445Y-91309104D01*
X132060070Y-91251930D01*
X132060062Y-91251929D01*
X131840002Y-91232677D01*
X131839998Y-91232677D01*
X131619937Y-91251929D01*
X131619929Y-91251930D01*
X131406554Y-91309104D01*
X131406548Y-91309107D01*
X131206340Y-91402465D01*
X131206338Y-91402466D01*
X131025377Y-91529175D01*
X130869175Y-91685377D01*
X130742466Y-91866338D01*
X130742465Y-91866340D01*
X130682382Y-91995189D01*
X130636209Y-92047628D01*
X130569016Y-92066780D01*
X130502135Y-92046564D01*
X130457618Y-91995189D01*
X130399525Y-91870609D01*
X130397534Y-91866339D01*
X130334180Y-91775859D01*
X130270827Y-91685381D01*
X130216627Y-91631181D01*
X130114620Y-91529174D01*
X130114616Y-91529171D01*
X130114615Y-91529170D01*
X129933666Y-91402468D01*
X129933662Y-91402466D01*
X129891357Y-91382739D01*
X129733450Y-91309106D01*
X129733447Y-91309105D01*
X129733445Y-91309104D01*
X129520070Y-91251930D01*
X129520062Y-91251929D01*
X129300002Y-91232677D01*
X129299998Y-91232677D01*
X129079937Y-91251929D01*
X129079929Y-91251930D01*
X128866554Y-91309104D01*
X128866548Y-91309107D01*
X128666340Y-91402465D01*
X128666338Y-91402466D01*
X128485377Y-91529175D01*
X128329175Y-91685377D01*
X128202466Y-91866338D01*
X128202465Y-91866340D01*
X128137692Y-92005246D01*
X128091519Y-92057685D01*
X128024326Y-92076837D01*
X127957445Y-92056621D01*
X127912928Y-92005245D01*
X127850146Y-91870609D01*
X127850142Y-91870601D01*
X127805996Y-91807555D01*
X127242962Y-92370589D01*
X127225925Y-92307007D01*
X127160099Y-92192993D01*
X127067007Y-92099901D01*
X126952993Y-92034075D01*
X126889409Y-92017037D01*
X127452443Y-91454003D01*
X127389392Y-91409854D01*
X127190533Y-91317125D01*
X127190524Y-91317121D01*
X126978592Y-91260335D01*
X126978582Y-91260333D01*
X126760001Y-91241210D01*
X126759999Y-91241210D01*
X126541417Y-91260333D01*
X126541407Y-91260335D01*
X126329475Y-91317121D01*
X126329466Y-91317124D01*
X126130606Y-91409855D01*
X126130604Y-91409856D01*
X126067556Y-91454003D01*
X126067555Y-91454003D01*
X126630590Y-92017037D01*
X126567007Y-92034075D01*
X126452993Y-92099901D01*
X126359901Y-92192993D01*
X126294075Y-92307007D01*
X126277037Y-92370590D01*
X125714003Y-91807555D01*
X125714003Y-91807556D01*
X125669856Y-91870604D01*
X125669855Y-91870606D01*
X125607071Y-92005246D01*
X125560898Y-92057685D01*
X125493704Y-92076837D01*
X125426823Y-92056621D01*
X125382307Y-92005246D01*
X125379861Y-92000000D01*
X125317534Y-91866339D01*
X125254180Y-91775859D01*
X125190827Y-91685381D01*
X125136627Y-91631181D01*
X125034620Y-91529174D01*
X125034616Y-91529171D01*
X125034615Y-91529170D01*
X124853666Y-91402468D01*
X124853662Y-91402466D01*
X124811357Y-91382739D01*
X124653450Y-91309106D01*
X124653447Y-91309105D01*
X124653445Y-91309104D01*
X124440070Y-91251930D01*
X124440062Y-91251929D01*
X124220002Y-91232677D01*
X124219998Y-91232677D01*
X123999937Y-91251929D01*
X123999929Y-91251930D01*
X123786554Y-91309104D01*
X123786548Y-91309107D01*
X123586340Y-91402465D01*
X123586338Y-91402466D01*
X123405377Y-91529175D01*
X123249175Y-91685377D01*
X123122466Y-91866338D01*
X123122465Y-91866340D01*
X123029107Y-92066548D01*
X123029104Y-92066554D01*
X122971930Y-92279929D01*
X122971929Y-92279937D01*
X122952677Y-92499997D01*
X117914047Y-92499997D01*
X117892780Y-92397652D01*
X117892775Y-92397635D01*
X117795814Y-92124815D01*
X117795814Y-92124814D01*
X117662605Y-91867731D01*
X117662604Y-91867729D01*
X117662600Y-91867723D01*
X117495632Y-91631183D01*
X117297996Y-91419567D01*
X117102270Y-91260333D01*
X117073396Y-91236842D01*
X117073394Y-91236841D01*
X117073392Y-91236839D01*
X116826001Y-91086397D01*
X116560430Y-90971044D01*
X116281627Y-90892927D01*
X116281622Y-90892926D01*
X116281621Y-90892926D01*
X116138197Y-90873213D01*
X115994774Y-90853500D01*
X115994773Y-90853500D01*
X115705227Y-90853500D01*
X115705226Y-90853500D01*
X115418379Y-90892926D01*
X115418372Y-90892927D01*
X115139569Y-90971044D01*
X114873998Y-91086397D01*
X114626607Y-91236839D01*
X114402003Y-91419567D01*
X114204367Y-91631183D01*
X114037399Y-91867723D01*
X114037395Y-91867729D01*
X113904185Y-92124815D01*
X113807224Y-92397635D01*
X113807219Y-92397652D01*
X113748313Y-92681127D01*
X113748312Y-92681129D01*
X113728554Y-92970000D01*
X105271446Y-92970000D01*
X105251687Y-92681130D01*
X105214048Y-92500000D01*
X105192780Y-92397652D01*
X105192775Y-92397635D01*
X105095814Y-92124815D01*
X105095814Y-92124814D01*
X104962605Y-91867731D01*
X104962604Y-91867729D01*
X104962600Y-91867723D01*
X104795632Y-91631183D01*
X104597996Y-91419567D01*
X104402270Y-91260333D01*
X104373396Y-91236842D01*
X104373394Y-91236841D01*
X104373392Y-91236839D01*
X104126001Y-91086397D01*
X103860430Y-90971044D01*
X103581627Y-90892927D01*
X103581622Y-90892926D01*
X103581621Y-90892926D01*
X103438197Y-90873213D01*
X103294774Y-90853500D01*
X103294773Y-90853500D01*
X103005227Y-90853500D01*
X103005226Y-90853500D01*
X102718379Y-90892926D01*
X102718372Y-90892927D01*
X102439569Y-90971044D01*
X102173998Y-91086397D01*
X101926607Y-91236839D01*
X101702003Y-91419567D01*
X101504367Y-91631183D01*
X101337399Y-91867723D01*
X101337395Y-91867729D01*
X101204185Y-92124815D01*
X101107224Y-92397635D01*
X101107219Y-92397652D01*
X101048313Y-92681127D01*
X101048312Y-92681129D01*
X101028554Y-92970000D01*
X100075500Y-92970000D01*
X100075500Y-78999997D01*
X100612677Y-78999997D01*
X100612677Y-79000002D01*
X100631929Y-79220062D01*
X100631930Y-79220070D01*
X100689104Y-79433445D01*
X100689105Y-79433447D01*
X100689106Y-79433450D01*
X100722382Y-79504811D01*
X100782466Y-79633662D01*
X100782468Y-79633666D01*
X100909170Y-79814615D01*
X100909175Y-79814621D01*
X101065378Y-79970824D01*
X101065384Y-79970829D01*
X101246333Y-80097531D01*
X101246335Y-80097532D01*
X101246338Y-80097534D01*
X101446550Y-80190894D01*
X101659932Y-80248070D01*
X101817123Y-80261822D01*
X101879998Y-80267323D01*
X101880000Y-80267323D01*
X101880002Y-80267323D01*
X101935140Y-80262499D01*
X102100068Y-80248070D01*
X102313450Y-80190894D01*
X102513662Y-80097534D01*
X102694620Y-79970826D01*
X102850826Y-79814620D01*
X102977534Y-79633662D01*
X103037618Y-79504811D01*
X103083790Y-79452371D01*
X103150983Y-79433219D01*
X103217865Y-79453435D01*
X103262382Y-79504811D01*
X103322464Y-79633658D01*
X103322468Y-79633666D01*
X103449170Y-79814615D01*
X103449175Y-79814621D01*
X103605378Y-79970824D01*
X103605384Y-79970829D01*
X103786333Y-80097531D01*
X103786335Y-80097532D01*
X103786338Y-80097534D01*
X103986550Y-80190894D01*
X104199932Y-80248070D01*
X104357123Y-80261822D01*
X104419998Y-80267323D01*
X104420000Y-80267323D01*
X104420002Y-80267323D01*
X104475140Y-80262499D01*
X104640068Y-80248070D01*
X104853450Y-80190894D01*
X105053662Y-80097534D01*
X105234620Y-79970826D01*
X105390826Y-79814620D01*
X105517534Y-79633662D01*
X105577618Y-79504811D01*
X105623790Y-79452371D01*
X105690983Y-79433219D01*
X105757865Y-79453435D01*
X105802382Y-79504811D01*
X105862464Y-79633658D01*
X105862468Y-79633666D01*
X105989170Y-79814615D01*
X105989175Y-79814621D01*
X106145378Y-79970824D01*
X106145384Y-79970829D01*
X106326333Y-80097531D01*
X106326335Y-80097532D01*
X106326338Y-80097534D01*
X106526550Y-80190894D01*
X106739932Y-80248070D01*
X106897123Y-80261822D01*
X106959998Y-80267323D01*
X106960000Y-80267323D01*
X106960002Y-80267323D01*
X107015140Y-80262499D01*
X107180068Y-80248070D01*
X107393450Y-80190894D01*
X107593662Y-80097534D01*
X107774620Y-79970826D01*
X107930826Y-79814620D01*
X108057534Y-79633662D01*
X108117618Y-79504811D01*
X108163790Y-79452371D01*
X108230983Y-79433219D01*
X108297865Y-79453435D01*
X108342382Y-79504811D01*
X108402464Y-79633658D01*
X108402468Y-79633666D01*
X108529170Y-79814615D01*
X108529175Y-79814621D01*
X108685378Y-79970824D01*
X108685384Y-79970829D01*
X108866333Y-80097531D01*
X108866335Y-80097532D01*
X108866338Y-80097534D01*
X109066550Y-80190894D01*
X109279932Y-80248070D01*
X109437123Y-80261822D01*
X109499998Y-80267323D01*
X109500000Y-80267323D01*
X109500002Y-80267323D01*
X109555140Y-80262499D01*
X109720068Y-80248070D01*
X109933450Y-80190894D01*
X110133662Y-80097534D01*
X110314620Y-79970826D01*
X110470826Y-79814620D01*
X110597534Y-79633662D01*
X110662308Y-79494752D01*
X110708479Y-79442314D01*
X110775672Y-79423162D01*
X110842553Y-79443377D01*
X110887071Y-79494753D01*
X110949854Y-79629392D01*
X110994003Y-79692443D01*
X111557037Y-79129409D01*
X111574075Y-79192993D01*
X111639901Y-79307007D01*
X111732993Y-79400099D01*
X111847007Y-79465925D01*
X111910590Y-79482962D01*
X111347555Y-80045996D01*
X111410601Y-80090142D01*
X111410605Y-80090144D01*
X111609466Y-80182874D01*
X111609475Y-80182878D01*
X111821407Y-80239664D01*
X111821417Y-80239666D01*
X112039999Y-80258790D01*
X112040001Y-80258790D01*
X112258582Y-80239666D01*
X112258592Y-80239664D01*
X112470524Y-80182878D01*
X112470533Y-80182874D01*
X112669392Y-80090145D01*
X112732443Y-80045995D01*
X112169410Y-79482962D01*
X112232993Y-79465925D01*
X112347007Y-79400099D01*
X112440099Y-79307007D01*
X112505925Y-79192993D01*
X112522962Y-79129409D01*
X113085995Y-79692442D01*
X113130146Y-79629390D01*
X113192928Y-79494754D01*
X113239100Y-79442314D01*
X113306293Y-79423162D01*
X113373174Y-79443377D01*
X113417692Y-79494753D01*
X113482466Y-79633662D01*
X113482468Y-79633666D01*
X113609170Y-79814615D01*
X113609175Y-79814621D01*
X113765378Y-79970824D01*
X113765384Y-79970829D01*
X113946333Y-80097531D01*
X113946335Y-80097532D01*
X113946338Y-80097534D01*
X114146550Y-80190894D01*
X114359932Y-80248070D01*
X114517123Y-80261822D01*
X114579998Y-80267323D01*
X114580000Y-80267323D01*
X114580002Y-80267323D01*
X114635140Y-80262499D01*
X114800068Y-80248070D01*
X115013450Y-80190894D01*
X115213662Y-80097534D01*
X115394620Y-79970826D01*
X115550826Y-79814620D01*
X115631925Y-79698797D01*
X115686502Y-79655173D01*
X115756000Y-79647979D01*
X115818355Y-79679502D01*
X115853769Y-79739731D01*
X115857500Y-79769921D01*
X115857500Y-79802654D01*
X115864011Y-79863202D01*
X115864011Y-79863204D01*
X115915111Y-80000204D01*
X116002739Y-80117261D01*
X116119796Y-80204889D01*
X116256799Y-80255989D01*
X116282853Y-80258790D01*
X116317345Y-80262499D01*
X116317362Y-80262500D01*
X117922638Y-80262500D01*
X117922654Y-80262499D01*
X117949692Y-80259591D01*
X117983201Y-80255989D01*
X118120204Y-80204889D01*
X118237261Y-80117261D01*
X118324889Y-80000204D01*
X118375989Y-79863201D01*
X118381212Y-79814620D01*
X118382499Y-79802654D01*
X118382500Y-79802637D01*
X118382500Y-79800000D01*
X123218637Y-79800000D01*
X123238069Y-80096470D01*
X123238071Y-80096482D01*
X123296030Y-80387863D01*
X123296035Y-80387883D01*
X123391530Y-80669205D01*
X123391534Y-80669215D01*
X123522939Y-80935678D01*
X123688008Y-81182719D01*
X123883903Y-81406096D01*
X124058339Y-81559071D01*
X124107282Y-81601993D01*
X124354318Y-81767058D01*
X124354321Y-81767060D01*
X124620784Y-81898465D01*
X124620794Y-81898469D01*
X124902116Y-81993964D01*
X124902128Y-81993968D01*
X125193528Y-82051931D01*
X125490000Y-82071363D01*
X125786472Y-82051931D01*
X126077872Y-81993968D01*
X126213852Y-81947809D01*
X126359205Y-81898469D01*
X126359215Y-81898465D01*
X126625678Y-81767060D01*
X126625678Y-81767059D01*
X126625682Y-81767058D01*
X126872718Y-81601993D01*
X127096096Y-81406096D01*
X127291993Y-81182718D01*
X127457058Y-80935682D01*
X127588466Y-80669213D01*
X127683968Y-80387872D01*
X127741931Y-80096472D01*
X127761363Y-79800000D01*
X138458637Y-79800000D01*
X138478069Y-80096470D01*
X138478071Y-80096482D01*
X138536030Y-80387863D01*
X138536035Y-80387883D01*
X138631530Y-80669205D01*
X138631534Y-80669215D01*
X138762939Y-80935678D01*
X138928008Y-81182719D01*
X139123903Y-81406096D01*
X139298339Y-81559071D01*
X139347282Y-81601993D01*
X139594318Y-81767058D01*
X139594321Y-81767060D01*
X139860784Y-81898465D01*
X139860794Y-81898469D01*
X140142116Y-81993964D01*
X140142128Y-81993968D01*
X140433528Y-82051931D01*
X140730000Y-82071363D01*
X141026472Y-82051931D01*
X141317872Y-81993968D01*
X141453852Y-81947809D01*
X141599205Y-81898469D01*
X141599215Y-81898465D01*
X141865678Y-81767060D01*
X141865678Y-81767059D01*
X141865682Y-81767058D01*
X142112718Y-81601993D01*
X142336096Y-81406096D01*
X142531993Y-81182718D01*
X142697058Y-80935682D01*
X142828466Y-80669213D01*
X142923968Y-80387872D01*
X142981931Y-80096472D01*
X143001363Y-79800000D01*
X142981931Y-79503528D01*
X142923968Y-79212128D01*
X142917473Y-79192993D01*
X142828469Y-78930794D01*
X142828465Y-78930784D01*
X142697060Y-78664322D01*
X142619087Y-78547628D01*
X142531993Y-78417282D01*
X142339129Y-78197362D01*
X142336096Y-78193903D01*
X142112719Y-77998008D01*
X142046861Y-77954003D01*
X141980788Y-77909854D01*
X141865678Y-77832939D01*
X141599215Y-77701534D01*
X141599205Y-77701530D01*
X141317883Y-77606035D01*
X141317874Y-77606032D01*
X141317872Y-77606032D01*
X141317867Y-77606031D01*
X141317863Y-77606030D01*
X141026482Y-77548071D01*
X141026472Y-77548069D01*
X140730000Y-77528637D01*
X140433528Y-77548069D01*
X140433522Y-77548070D01*
X140433517Y-77548071D01*
X140142136Y-77606030D01*
X140142116Y-77606035D01*
X139860794Y-77701530D01*
X139860784Y-77701534D01*
X139594322Y-77832939D01*
X139347280Y-77998008D01*
X139123903Y-78193903D01*
X138928008Y-78417280D01*
X138762939Y-78664322D01*
X138631534Y-78930784D01*
X138631530Y-78930794D01*
X138536035Y-79212116D01*
X138536030Y-79212136D01*
X138479814Y-79494753D01*
X138478069Y-79503528D01*
X138469539Y-79633666D01*
X138458637Y-79800000D01*
X127761363Y-79800000D01*
X127741931Y-79503528D01*
X127683968Y-79212128D01*
X127677473Y-79192993D01*
X127588469Y-78930794D01*
X127588465Y-78930784D01*
X127457060Y-78664322D01*
X127379087Y-78547628D01*
X127291993Y-78417282D01*
X127099129Y-78197362D01*
X127096096Y-78193903D01*
X126872719Y-77998008D01*
X126806861Y-77954003D01*
X126740788Y-77909854D01*
X126625678Y-77832939D01*
X126359215Y-77701534D01*
X126359205Y-77701530D01*
X126077883Y-77606035D01*
X126077874Y-77606032D01*
X126077872Y-77606032D01*
X126077867Y-77606031D01*
X126077863Y-77606030D01*
X125786482Y-77548071D01*
X125786472Y-77548069D01*
X125490000Y-77528637D01*
X125193528Y-77548069D01*
X125193522Y-77548070D01*
X125193517Y-77548071D01*
X124902136Y-77606030D01*
X124902116Y-77606035D01*
X124620794Y-77701530D01*
X124620784Y-77701534D01*
X124354322Y-77832939D01*
X124107280Y-77998008D01*
X123883903Y-78193903D01*
X123688008Y-78417280D01*
X123522939Y-78664322D01*
X123391534Y-78930784D01*
X123391530Y-78930794D01*
X123296035Y-79212116D01*
X123296030Y-79212136D01*
X123239814Y-79494753D01*
X123238069Y-79503528D01*
X123229539Y-79633666D01*
X123218637Y-79800000D01*
X118382500Y-79800000D01*
X118382500Y-78197362D01*
X118382499Y-78197345D01*
X118379157Y-78166270D01*
X118375989Y-78136799D01*
X118324889Y-77999796D01*
X118237261Y-77882739D01*
X118120204Y-77795111D01*
X117983203Y-77744011D01*
X117922654Y-77737500D01*
X117922638Y-77737500D01*
X116317362Y-77737500D01*
X116317345Y-77737500D01*
X116256797Y-77744011D01*
X116256795Y-77744011D01*
X116119795Y-77795111D01*
X116002739Y-77882739D01*
X115915111Y-77999795D01*
X115864011Y-78136795D01*
X115864011Y-78136797D01*
X115857500Y-78197345D01*
X115857500Y-78230079D01*
X115837815Y-78297118D01*
X115785011Y-78342873D01*
X115715853Y-78352817D01*
X115652297Y-78323792D01*
X115631925Y-78301202D01*
X115550827Y-78185381D01*
X115502241Y-78136795D01*
X115394620Y-78029174D01*
X115394616Y-78029171D01*
X115394615Y-78029170D01*
X115213666Y-77902468D01*
X115213662Y-77902466D01*
X115171357Y-77882739D01*
X115013450Y-77809106D01*
X115013447Y-77809105D01*
X115013445Y-77809104D01*
X114800070Y-77751930D01*
X114800062Y-77751929D01*
X114580002Y-77732677D01*
X114579998Y-77732677D01*
X114359937Y-77751929D01*
X114359929Y-77751930D01*
X114146554Y-77809104D01*
X114146548Y-77809107D01*
X113946340Y-77902465D01*
X113946338Y-77902466D01*
X113765377Y-78029175D01*
X113609175Y-78185377D01*
X113482466Y-78366338D01*
X113482465Y-78366340D01*
X113417692Y-78505246D01*
X113371519Y-78557685D01*
X113304326Y-78576837D01*
X113237445Y-78556621D01*
X113192928Y-78505245D01*
X113130146Y-78370609D01*
X113130142Y-78370601D01*
X113085996Y-78307555D01*
X112522962Y-78870589D01*
X112505925Y-78807007D01*
X112440099Y-78692993D01*
X112347007Y-78599901D01*
X112232993Y-78534075D01*
X112169409Y-78517037D01*
X112732443Y-77954003D01*
X112669392Y-77909854D01*
X112470533Y-77817125D01*
X112470524Y-77817121D01*
X112258592Y-77760335D01*
X112258582Y-77760333D01*
X112040001Y-77741210D01*
X112039999Y-77741210D01*
X111821417Y-77760333D01*
X111821407Y-77760335D01*
X111609475Y-77817121D01*
X111609466Y-77817124D01*
X111410606Y-77909855D01*
X111410604Y-77909856D01*
X111347556Y-77954003D01*
X111347555Y-77954003D01*
X111910590Y-78517037D01*
X111847007Y-78534075D01*
X111732993Y-78599901D01*
X111639901Y-78692993D01*
X111574075Y-78807007D01*
X111557037Y-78870590D01*
X110994003Y-78307555D01*
X110994003Y-78307556D01*
X110949856Y-78370604D01*
X110949855Y-78370606D01*
X110887071Y-78505246D01*
X110840898Y-78557685D01*
X110773704Y-78576837D01*
X110706823Y-78556621D01*
X110662307Y-78505246D01*
X110659861Y-78500000D01*
X110597534Y-78366339D01*
X110534180Y-78275859D01*
X110470827Y-78185381D01*
X110422241Y-78136795D01*
X110314620Y-78029174D01*
X110314616Y-78029171D01*
X110314615Y-78029170D01*
X110133666Y-77902468D01*
X110133662Y-77902466D01*
X110091357Y-77882739D01*
X109933450Y-77809106D01*
X109933447Y-77809105D01*
X109933445Y-77809104D01*
X109720070Y-77751930D01*
X109720062Y-77751929D01*
X109500002Y-77732677D01*
X109499998Y-77732677D01*
X109279937Y-77751929D01*
X109279929Y-77751930D01*
X109066554Y-77809104D01*
X109066548Y-77809107D01*
X108866340Y-77902465D01*
X108866338Y-77902466D01*
X108685377Y-78029175D01*
X108529175Y-78185377D01*
X108402466Y-78366338D01*
X108402465Y-78366340D01*
X108342382Y-78495189D01*
X108296209Y-78547628D01*
X108229016Y-78566780D01*
X108162135Y-78546564D01*
X108117618Y-78495189D01*
X108059525Y-78370609D01*
X108057534Y-78366339D01*
X107994180Y-78275859D01*
X107930827Y-78185381D01*
X107882241Y-78136795D01*
X107774620Y-78029174D01*
X107774616Y-78029171D01*
X107774615Y-78029170D01*
X107593666Y-77902468D01*
X107593662Y-77902466D01*
X107551357Y-77882739D01*
X107393450Y-77809106D01*
X107393447Y-77809105D01*
X107393445Y-77809104D01*
X107180070Y-77751930D01*
X107180062Y-77751929D01*
X106960002Y-77732677D01*
X106959998Y-77732677D01*
X106739937Y-77751929D01*
X106739929Y-77751930D01*
X106526554Y-77809104D01*
X106526548Y-77809107D01*
X106326340Y-77902465D01*
X106326338Y-77902466D01*
X106145377Y-78029175D01*
X105989175Y-78185377D01*
X105862466Y-78366338D01*
X105862465Y-78366340D01*
X105802382Y-78495189D01*
X105756209Y-78547628D01*
X105689016Y-78566780D01*
X105622135Y-78546564D01*
X105577618Y-78495189D01*
X105519525Y-78370609D01*
X105517534Y-78366339D01*
X105454180Y-78275859D01*
X105390827Y-78185381D01*
X105342241Y-78136795D01*
X105234620Y-78029174D01*
X105234616Y-78029171D01*
X105234615Y-78029170D01*
X105053666Y-77902468D01*
X105053662Y-77902466D01*
X105011357Y-77882739D01*
X104853450Y-77809106D01*
X104853447Y-77809105D01*
X104853445Y-77809104D01*
X104640070Y-77751930D01*
X104640062Y-77751929D01*
X104420002Y-77732677D01*
X104419998Y-77732677D01*
X104199937Y-77751929D01*
X104199929Y-77751930D01*
X103986554Y-77809104D01*
X103986548Y-77809107D01*
X103786340Y-77902465D01*
X103786338Y-77902466D01*
X103605377Y-78029175D01*
X103449175Y-78185377D01*
X103322466Y-78366338D01*
X103322465Y-78366340D01*
X103262382Y-78495189D01*
X103216209Y-78547628D01*
X103149016Y-78566780D01*
X103082135Y-78546564D01*
X103037618Y-78495189D01*
X102979525Y-78370609D01*
X102977534Y-78366339D01*
X102914180Y-78275859D01*
X102850827Y-78185381D01*
X102802241Y-78136795D01*
X102694620Y-78029174D01*
X102694616Y-78029171D01*
X102694615Y-78029170D01*
X102513666Y-77902468D01*
X102513662Y-77902466D01*
X102471357Y-77882739D01*
X102313450Y-77809106D01*
X102313447Y-77809105D01*
X102313445Y-77809104D01*
X102100070Y-77751930D01*
X102100062Y-77751929D01*
X101880002Y-77732677D01*
X101879998Y-77732677D01*
X101659937Y-77751929D01*
X101659929Y-77751930D01*
X101446554Y-77809104D01*
X101446548Y-77809107D01*
X101246340Y-77902465D01*
X101246338Y-77902466D01*
X101065377Y-78029175D01*
X100909175Y-78185377D01*
X100782466Y-78366338D01*
X100782465Y-78366340D01*
X100689107Y-78566548D01*
X100689104Y-78566554D01*
X100631930Y-78779929D01*
X100631929Y-78779937D01*
X100612677Y-78999997D01*
X100075500Y-78999997D01*
X100075500Y-75257355D01*
X146710200Y-75257355D01*
X146710200Y-75995000D01*
X147707749Y-75995000D01*
X147676619Y-76048919D01*
X147642000Y-76178120D01*
X147642000Y-76311880D01*
X147676619Y-76441081D01*
X147707749Y-76495000D01*
X146710200Y-76495000D01*
X146710200Y-77232644D01*
X146716601Y-77292172D01*
X146716603Y-77292179D01*
X146766845Y-77426886D01*
X146766849Y-77426893D01*
X146853009Y-77541987D01*
X146853012Y-77541990D01*
X146968106Y-77628150D01*
X146968113Y-77628154D01*
X147102820Y-77678396D01*
X147102827Y-77678398D01*
X147162355Y-77684799D01*
X147162372Y-77684800D01*
X147900000Y-77684800D01*
X147900000Y-76687251D01*
X147953919Y-76718381D01*
X148083120Y-76753000D01*
X148216880Y-76753000D01*
X148346081Y-76718381D01*
X148400000Y-76687251D01*
X148400000Y-77684800D01*
X149137628Y-77684800D01*
X149137644Y-77684799D01*
X149197172Y-77678398D01*
X149197179Y-77678396D01*
X149331886Y-77628154D01*
X149331893Y-77628150D01*
X149446987Y-77541990D01*
X149446990Y-77541987D01*
X149533151Y-77426891D01*
X149533153Y-77426888D01*
X149565399Y-77340432D01*
X149565398Y-77340430D01*
X149490888Y-77265920D01*
X149457403Y-77204597D01*
X149462387Y-77134905D01*
X149490888Y-77090558D01*
X150200504Y-76380941D01*
X150216619Y-76441081D01*
X150283498Y-76556920D01*
X150378080Y-76651502D01*
X150493919Y-76718381D01*
X150554057Y-76734494D01*
X149862839Y-77425711D01*
X149862840Y-77425712D01*
X149899802Y-77454481D01*
X149899808Y-77454486D01*
X150109650Y-77568046D01*
X150109660Y-77568051D01*
X150335335Y-77645525D01*
X150570696Y-77684800D01*
X150809304Y-77684800D01*
X151044664Y-77645525D01*
X151270339Y-77568051D01*
X151270344Y-77568049D01*
X151480197Y-77454481D01*
X151480200Y-77454480D01*
X151517158Y-77425712D01*
X151517158Y-77425711D01*
X150825942Y-76734495D01*
X150886081Y-76718381D01*
X151001920Y-76651502D01*
X151096502Y-76556920D01*
X151163381Y-76441081D01*
X151179494Y-76380942D01*
X151869941Y-77071389D01*
X151886945Y-77069625D01*
X151904260Y-77054849D01*
X151973491Y-77045425D01*
X152036827Y-77074926D01*
X152058730Y-77100204D01*
X152083171Y-77137613D01*
X152245731Y-77314201D01*
X152279433Y-77340432D01*
X152425962Y-77454481D01*
X152435140Y-77461624D01*
X152646231Y-77575860D01*
X152873245Y-77653795D01*
X153109990Y-77693300D01*
X153350010Y-77693300D01*
X153586755Y-77653795D01*
X153813769Y-77575860D01*
X154024860Y-77461624D01*
X154214269Y-77314201D01*
X154376829Y-77137613D01*
X154396193Y-77107974D01*
X154449337Y-77062619D01*
X154518568Y-77053195D01*
X154581904Y-77082697D01*
X154603805Y-77107971D01*
X154623171Y-77137613D01*
X154785731Y-77314201D01*
X154819433Y-77340432D01*
X154965962Y-77454481D01*
X154975140Y-77461624D01*
X155186231Y-77575860D01*
X155413245Y-77653795D01*
X155649990Y-77693300D01*
X155890010Y-77693300D01*
X156126755Y-77653795D01*
X156353769Y-77575860D01*
X156564860Y-77461624D01*
X156754269Y-77314201D01*
X156916829Y-77137613D01*
X156936193Y-77107974D01*
X156989337Y-77062619D01*
X157058568Y-77053195D01*
X157121904Y-77082697D01*
X157143805Y-77107971D01*
X157163171Y-77137613D01*
X157325731Y-77314201D01*
X157359433Y-77340432D01*
X157505962Y-77454481D01*
X157515140Y-77461624D01*
X157726231Y-77575860D01*
X157953245Y-77653795D01*
X158189990Y-77693300D01*
X158430010Y-77693300D01*
X158666755Y-77653795D01*
X158893769Y-77575860D01*
X159104860Y-77461624D01*
X159294269Y-77314201D01*
X159456829Y-77137613D01*
X159476193Y-77107974D01*
X159529337Y-77062619D01*
X159598568Y-77053195D01*
X159661904Y-77082697D01*
X159683805Y-77107971D01*
X159703171Y-77137613D01*
X159865731Y-77314201D01*
X159899433Y-77340432D01*
X160045962Y-77454481D01*
X160055140Y-77461624D01*
X160266231Y-77575860D01*
X160493245Y-77653795D01*
X160729990Y-77693300D01*
X160970010Y-77693300D01*
X161206755Y-77653795D01*
X161433769Y-77575860D01*
X161644860Y-77461624D01*
X161834269Y-77314201D01*
X161996829Y-77137613D01*
X162128108Y-76936677D01*
X162224522Y-76716874D01*
X162283443Y-76484199D01*
X162303264Y-76245000D01*
X162283443Y-76005801D01*
X162224522Y-75773126D01*
X162128108Y-75553323D01*
X162119999Y-75540912D01*
X161996830Y-75352389D01*
X161996829Y-75352387D01*
X161834269Y-75175799D01*
X161763107Y-75120411D01*
X161644862Y-75028377D01*
X161644857Y-75028374D01*
X161433775Y-74914143D01*
X161433772Y-74914142D01*
X161433769Y-74914140D01*
X161433763Y-74914138D01*
X161433761Y-74914137D01*
X161206757Y-74836205D01*
X160970010Y-74796700D01*
X160729990Y-74796700D01*
X160493242Y-74836205D01*
X160266238Y-74914137D01*
X160266224Y-74914143D01*
X160055142Y-75028374D01*
X160055137Y-75028377D01*
X159865733Y-75175797D01*
X159703172Y-75352385D01*
X159703169Y-75352389D01*
X159683808Y-75382024D01*
X159630661Y-75427381D01*
X159561430Y-75436804D01*
X159498094Y-75407301D01*
X159476192Y-75382024D01*
X159456830Y-75352389D01*
X159456829Y-75352387D01*
X159294269Y-75175799D01*
X159223107Y-75120411D01*
X159104862Y-75028377D01*
X159104857Y-75028374D01*
X158893775Y-74914143D01*
X158893772Y-74914142D01*
X158893769Y-74914140D01*
X158893763Y-74914138D01*
X158893761Y-74914137D01*
X158666757Y-74836205D01*
X158430010Y-74796700D01*
X158189990Y-74796700D01*
X157953242Y-74836205D01*
X157726238Y-74914137D01*
X157726224Y-74914143D01*
X157515142Y-75028374D01*
X157515137Y-75028377D01*
X157325733Y-75175797D01*
X157163172Y-75352385D01*
X157163169Y-75352389D01*
X157143808Y-75382024D01*
X157090661Y-75427381D01*
X157021430Y-75436804D01*
X156958094Y-75407301D01*
X156936192Y-75382024D01*
X156916830Y-75352389D01*
X156916829Y-75352387D01*
X156754269Y-75175799D01*
X156683107Y-75120411D01*
X156564862Y-75028377D01*
X156564857Y-75028374D01*
X156353775Y-74914143D01*
X156353772Y-74914142D01*
X156353769Y-74914140D01*
X156353763Y-74914138D01*
X156353761Y-74914137D01*
X156126757Y-74836205D01*
X155890010Y-74796700D01*
X155649990Y-74796700D01*
X155413242Y-74836205D01*
X155186238Y-74914137D01*
X155186224Y-74914143D01*
X154975142Y-75028374D01*
X154975137Y-75028377D01*
X154785733Y-75175797D01*
X154623172Y-75352385D01*
X154623169Y-75352389D01*
X154603808Y-75382024D01*
X154550661Y-75427381D01*
X154481430Y-75436804D01*
X154418094Y-75407301D01*
X154396192Y-75382024D01*
X154376830Y-75352389D01*
X154376829Y-75352387D01*
X154214269Y-75175799D01*
X154143107Y-75120411D01*
X154024862Y-75028377D01*
X154024857Y-75028374D01*
X153813775Y-74914143D01*
X153813772Y-74914142D01*
X153813769Y-74914140D01*
X153813763Y-74914138D01*
X153813761Y-74914137D01*
X153586757Y-74836205D01*
X153350010Y-74796700D01*
X153109990Y-74796700D01*
X152873242Y-74836205D01*
X152646238Y-74914137D01*
X152646224Y-74914143D01*
X152435142Y-75028374D01*
X152435137Y-75028377D01*
X152245733Y-75175797D01*
X152083168Y-75352390D01*
X152083166Y-75352392D01*
X152058730Y-75389794D01*
X152005583Y-75435150D01*
X151936352Y-75444572D01*
X151883673Y-75420033D01*
X151869941Y-75418609D01*
X151179494Y-76109056D01*
X151163381Y-76048919D01*
X151096502Y-75933080D01*
X151001920Y-75838498D01*
X150886081Y-75771619D01*
X150825941Y-75755504D01*
X151517159Y-75064287D01*
X151517158Y-75064286D01*
X151480197Y-75035518D01*
X151480191Y-75035513D01*
X151270349Y-74921953D01*
X151270339Y-74921948D01*
X151044664Y-74844474D01*
X150809304Y-74805200D01*
X150570696Y-74805200D01*
X150335335Y-74844474D01*
X150109660Y-74921948D01*
X150109650Y-74921953D01*
X149899807Y-75035514D01*
X149899802Y-75035517D01*
X149862840Y-75064286D01*
X149862840Y-75064287D01*
X150554058Y-75755504D01*
X150493919Y-75771619D01*
X150378080Y-75838498D01*
X150283498Y-75933080D01*
X150216619Y-76048919D01*
X150200504Y-76109057D01*
X149490888Y-75399441D01*
X149457403Y-75338118D01*
X149462387Y-75268426D01*
X149490888Y-75224078D01*
X149565399Y-75149567D01*
X149533154Y-75063113D01*
X149533150Y-75063106D01*
X149446990Y-74948012D01*
X149446987Y-74948009D01*
X149331893Y-74861849D01*
X149331886Y-74861845D01*
X149197179Y-74811603D01*
X149197172Y-74811601D01*
X149137644Y-74805200D01*
X148400000Y-74805200D01*
X148400000Y-75802748D01*
X148346081Y-75771619D01*
X148216880Y-75737000D01*
X148083120Y-75737000D01*
X147953919Y-75771619D01*
X147900000Y-75802748D01*
X147900000Y-74805200D01*
X147162355Y-74805200D01*
X147102827Y-74811601D01*
X147102820Y-74811603D01*
X146968113Y-74861845D01*
X146968106Y-74861849D01*
X146853012Y-74948009D01*
X146853009Y-74948012D01*
X146766849Y-75063106D01*
X146766845Y-75063113D01*
X146716603Y-75197820D01*
X146716601Y-75197827D01*
X146710200Y-75257355D01*
X100075500Y-75257355D01*
X100075500Y-64552155D01*
X117050000Y-64552155D01*
X117050000Y-65250000D01*
X118074722Y-65250000D01*
X118030667Y-65326306D01*
X118000000Y-65440756D01*
X118000000Y-65559244D01*
X118030667Y-65673694D01*
X118074722Y-65750000D01*
X117050000Y-65750000D01*
X117050000Y-66447844D01*
X117056401Y-66507372D01*
X117056403Y-66507379D01*
X117106645Y-66642086D01*
X117106649Y-66642093D01*
X117192809Y-66757187D01*
X117192812Y-66757190D01*
X117307906Y-66843350D01*
X117307913Y-66843354D01*
X117442620Y-66893596D01*
X117442627Y-66893598D01*
X117502155Y-66899999D01*
X117502172Y-66900000D01*
X118200000Y-66900000D01*
X118200000Y-65875277D01*
X118276306Y-65919333D01*
X118390756Y-65950000D01*
X118509244Y-65950000D01*
X118623694Y-65919333D01*
X118700000Y-65875277D01*
X118700000Y-66900000D01*
X119397828Y-66900000D01*
X119397844Y-66899999D01*
X119457372Y-66893598D01*
X119457379Y-66893596D01*
X119592086Y-66843354D01*
X119592093Y-66843350D01*
X119707187Y-66757190D01*
X119707190Y-66757187D01*
X119793350Y-66642093D01*
X119793355Y-66642084D01*
X119818940Y-66573486D01*
X119860810Y-66517552D01*
X119926274Y-66493134D01*
X119994547Y-66507985D01*
X120026349Y-66532832D01*
X120032780Y-66539818D01*
X120216983Y-66683190D01*
X120216985Y-66683191D01*
X120216988Y-66683193D01*
X120336331Y-66747777D01*
X120422273Y-66794287D01*
X120536914Y-66833643D01*
X120643045Y-66870079D01*
X120643047Y-66870079D01*
X120643049Y-66870080D01*
X120873288Y-66908500D01*
X120873289Y-66908500D01*
X121106711Y-66908500D01*
X121106712Y-66908500D01*
X121336951Y-66870080D01*
X121557727Y-66794287D01*
X121763017Y-66683190D01*
X121947220Y-66539818D01*
X122105314Y-66368083D01*
X122232984Y-66172669D01*
X122326749Y-65958907D01*
X122384051Y-65732626D01*
X122403327Y-65500000D01*
X122384051Y-65267374D01*
X122326749Y-65041093D01*
X122232984Y-64827331D01*
X122105314Y-64631917D01*
X122105313Y-64631915D01*
X122031888Y-64552155D01*
X124560000Y-64552155D01*
X124560000Y-65250000D01*
X125584722Y-65250000D01*
X125540667Y-65326306D01*
X125510000Y-65440756D01*
X125510000Y-65559244D01*
X125540667Y-65673694D01*
X125584722Y-65750000D01*
X124560000Y-65750000D01*
X124560000Y-66447844D01*
X124566401Y-66507372D01*
X124566403Y-66507379D01*
X124616645Y-66642086D01*
X124616649Y-66642093D01*
X124702809Y-66757187D01*
X124702812Y-66757190D01*
X124817906Y-66843350D01*
X124817913Y-66843354D01*
X124952620Y-66893596D01*
X124952627Y-66893598D01*
X125012155Y-66899999D01*
X125012172Y-66900000D01*
X125710000Y-66900000D01*
X125710000Y-65875277D01*
X125786306Y-65919333D01*
X125900756Y-65950000D01*
X126019244Y-65950000D01*
X126133694Y-65919333D01*
X126210000Y-65875277D01*
X126210000Y-66900000D01*
X126907828Y-66900000D01*
X126907844Y-66899999D01*
X126967372Y-66893598D01*
X126967379Y-66893596D01*
X127102086Y-66843354D01*
X127102093Y-66843350D01*
X127217187Y-66757190D01*
X127217190Y-66757187D01*
X127303350Y-66642093D01*
X127303355Y-66642084D01*
X127328940Y-66573486D01*
X127370810Y-66517552D01*
X127436274Y-66493134D01*
X127504547Y-66507985D01*
X127536349Y-66532832D01*
X127542780Y-66539818D01*
X127726983Y-66683190D01*
X127726985Y-66683191D01*
X127726988Y-66683193D01*
X127846331Y-66747777D01*
X127932273Y-66794287D01*
X128046914Y-66833643D01*
X128153045Y-66870079D01*
X128153047Y-66870079D01*
X128153049Y-66870080D01*
X128383288Y-66908500D01*
X128383289Y-66908500D01*
X128616711Y-66908500D01*
X128616712Y-66908500D01*
X128846951Y-66870080D01*
X129067727Y-66794287D01*
X129273017Y-66683190D01*
X129457220Y-66539818D01*
X129615314Y-66368083D01*
X129742984Y-66172669D01*
X129836749Y-65958907D01*
X129894051Y-65732626D01*
X129913327Y-65500000D01*
X129894051Y-65267374D01*
X129836749Y-65041093D01*
X129742984Y-64827331D01*
X129615314Y-64631917D01*
X129615313Y-64631915D01*
X129541888Y-64552155D01*
X132030000Y-64552155D01*
X132030000Y-65250000D01*
X133054722Y-65250000D01*
X133010667Y-65326306D01*
X132980000Y-65440756D01*
X132980000Y-65559244D01*
X133010667Y-65673694D01*
X133054722Y-65750000D01*
X132030000Y-65750000D01*
X132030000Y-66447844D01*
X132036401Y-66507372D01*
X132036403Y-66507379D01*
X132086645Y-66642086D01*
X132086649Y-66642093D01*
X132172809Y-66757187D01*
X132172812Y-66757190D01*
X132287906Y-66843350D01*
X132287913Y-66843354D01*
X132422620Y-66893596D01*
X132422627Y-66893598D01*
X132482155Y-66899999D01*
X132482172Y-66900000D01*
X133180000Y-66900000D01*
X133180000Y-65875277D01*
X133256306Y-65919333D01*
X133370756Y-65950000D01*
X133489244Y-65950000D01*
X133603694Y-65919333D01*
X133680000Y-65875277D01*
X133680000Y-66900000D01*
X134377828Y-66900000D01*
X134377844Y-66899999D01*
X134437372Y-66893598D01*
X134437379Y-66893596D01*
X134572086Y-66843354D01*
X134572093Y-66843350D01*
X134687187Y-66757190D01*
X134687190Y-66757187D01*
X134773350Y-66642093D01*
X134773355Y-66642084D01*
X134798940Y-66573486D01*
X134840810Y-66517552D01*
X134906274Y-66493134D01*
X134974547Y-66507985D01*
X135006349Y-66532832D01*
X135012780Y-66539818D01*
X135196983Y-66683190D01*
X135196985Y-66683191D01*
X135196988Y-66683193D01*
X135316331Y-66747777D01*
X135402273Y-66794287D01*
X135516914Y-66833643D01*
X135623045Y-66870079D01*
X135623047Y-66870079D01*
X135623049Y-66870080D01*
X135853288Y-66908500D01*
X135853289Y-66908500D01*
X136086711Y-66908500D01*
X136086712Y-66908500D01*
X136316951Y-66870080D01*
X136537727Y-66794287D01*
X136743017Y-66683190D01*
X136927220Y-66539818D01*
X137085314Y-66368083D01*
X137212984Y-66172669D01*
X137306749Y-65958907D01*
X137364051Y-65732626D01*
X137383327Y-65500000D01*
X137364051Y-65267374D01*
X137306749Y-65041093D01*
X137212984Y-64827331D01*
X137085314Y-64631917D01*
X137085313Y-64631915D01*
X137011888Y-64552155D01*
X139500000Y-64552155D01*
X139500000Y-65250000D01*
X140524722Y-65250000D01*
X140480667Y-65326306D01*
X140450000Y-65440756D01*
X140450000Y-65559244D01*
X140480667Y-65673694D01*
X140524722Y-65750000D01*
X139500000Y-65750000D01*
X139500000Y-66447844D01*
X139506401Y-66507372D01*
X139506403Y-66507379D01*
X139556645Y-66642086D01*
X139556649Y-66642093D01*
X139642809Y-66757187D01*
X139642812Y-66757190D01*
X139757906Y-66843350D01*
X139757913Y-66843354D01*
X139892620Y-66893596D01*
X139892627Y-66893598D01*
X139952155Y-66899999D01*
X139952172Y-66900000D01*
X140650000Y-66900000D01*
X140650000Y-65875277D01*
X140726306Y-65919333D01*
X140840756Y-65950000D01*
X140959244Y-65950000D01*
X141073694Y-65919333D01*
X141150000Y-65875277D01*
X141150000Y-66900000D01*
X141847828Y-66900000D01*
X141847844Y-66899999D01*
X141907372Y-66893598D01*
X141907379Y-66893596D01*
X142042086Y-66843354D01*
X142042093Y-66843350D01*
X142157187Y-66757190D01*
X142157190Y-66757187D01*
X142243350Y-66642093D01*
X142243355Y-66642084D01*
X142268940Y-66573486D01*
X142310810Y-66517552D01*
X142376274Y-66493134D01*
X142444547Y-66507985D01*
X142476349Y-66532832D01*
X142482780Y-66539818D01*
X142666983Y-66683190D01*
X142666985Y-66683191D01*
X142666988Y-66683193D01*
X142786331Y-66747777D01*
X142872273Y-66794287D01*
X142986914Y-66833643D01*
X143093045Y-66870079D01*
X143093047Y-66870079D01*
X143093049Y-66870080D01*
X143323288Y-66908500D01*
X143323289Y-66908500D01*
X143556711Y-66908500D01*
X143556712Y-66908500D01*
X143786951Y-66870080D01*
X144007727Y-66794287D01*
X144213017Y-66683190D01*
X144397220Y-66539818D01*
X144555314Y-66368083D01*
X144682984Y-66172669D01*
X144776749Y-65958907D01*
X144834051Y-65732626D01*
X144853327Y-65500000D01*
X144834051Y-65267374D01*
X144776749Y-65041093D01*
X144682984Y-64827331D01*
X144555314Y-64631917D01*
X144555313Y-64631915D01*
X144481888Y-64552155D01*
X146970000Y-64552155D01*
X146970000Y-65250000D01*
X147994722Y-65250000D01*
X147950667Y-65326306D01*
X147920000Y-65440756D01*
X147920000Y-65559244D01*
X147950667Y-65673694D01*
X147994722Y-65750000D01*
X146970000Y-65750000D01*
X146970000Y-66447844D01*
X146976401Y-66507372D01*
X146976403Y-66507379D01*
X147026645Y-66642086D01*
X147026649Y-66642093D01*
X147112809Y-66757187D01*
X147112812Y-66757190D01*
X147227906Y-66843350D01*
X147227913Y-66843354D01*
X147362620Y-66893596D01*
X147362627Y-66893598D01*
X147422155Y-66899999D01*
X147422172Y-66900000D01*
X148120000Y-66900000D01*
X148120000Y-65875277D01*
X148196306Y-65919333D01*
X148310756Y-65950000D01*
X148429244Y-65950000D01*
X148543694Y-65919333D01*
X148620000Y-65875277D01*
X148620000Y-66900000D01*
X149317828Y-66900000D01*
X149317844Y-66899999D01*
X149377372Y-66893598D01*
X149377379Y-66893596D01*
X149512086Y-66843354D01*
X149512093Y-66843350D01*
X149627187Y-66757190D01*
X149627190Y-66757187D01*
X149713350Y-66642093D01*
X149713355Y-66642084D01*
X149738940Y-66573486D01*
X149780810Y-66517552D01*
X149846274Y-66493134D01*
X149914547Y-66507985D01*
X149946349Y-66532832D01*
X149952780Y-66539818D01*
X150136983Y-66683190D01*
X150136985Y-66683191D01*
X150136988Y-66683193D01*
X150256331Y-66747777D01*
X150342273Y-66794287D01*
X150456914Y-66833643D01*
X150563045Y-66870079D01*
X150563047Y-66870079D01*
X150563049Y-66870080D01*
X150793288Y-66908500D01*
X150793289Y-66908500D01*
X151026711Y-66908500D01*
X151026712Y-66908500D01*
X151256951Y-66870080D01*
X151477727Y-66794287D01*
X151683017Y-66683190D01*
X151867220Y-66539818D01*
X152025314Y-66368083D01*
X152152984Y-66172669D01*
X152246749Y-65958907D01*
X152304051Y-65732626D01*
X152323327Y-65500000D01*
X152304051Y-65267374D01*
X152246749Y-65041093D01*
X152152984Y-64827331D01*
X152025314Y-64631917D01*
X152025313Y-64631915D01*
X151951888Y-64552155D01*
X154440000Y-64552155D01*
X154440000Y-65250000D01*
X155464722Y-65250000D01*
X155420667Y-65326306D01*
X155390000Y-65440756D01*
X155390000Y-65559244D01*
X155420667Y-65673694D01*
X155464722Y-65750000D01*
X154440000Y-65750000D01*
X154440000Y-66447844D01*
X154446401Y-66507372D01*
X154446403Y-66507379D01*
X154496645Y-66642086D01*
X154496649Y-66642093D01*
X154582809Y-66757187D01*
X154582812Y-66757190D01*
X154697906Y-66843350D01*
X154697913Y-66843354D01*
X154832620Y-66893596D01*
X154832627Y-66893598D01*
X154892155Y-66899999D01*
X154892172Y-66900000D01*
X155590000Y-66900000D01*
X155590000Y-65875277D01*
X155666306Y-65919333D01*
X155780756Y-65950000D01*
X155899244Y-65950000D01*
X156013694Y-65919333D01*
X156090000Y-65875277D01*
X156090000Y-66900000D01*
X156787828Y-66900000D01*
X156787844Y-66899999D01*
X156847372Y-66893598D01*
X156847379Y-66893596D01*
X156982086Y-66843354D01*
X156982093Y-66843350D01*
X157097187Y-66757190D01*
X157097190Y-66757187D01*
X157183350Y-66642093D01*
X157183355Y-66642084D01*
X157208940Y-66573486D01*
X157250810Y-66517552D01*
X157316274Y-66493134D01*
X157384547Y-66507985D01*
X157416349Y-66532832D01*
X157422780Y-66539818D01*
X157606983Y-66683190D01*
X157606985Y-66683191D01*
X157606988Y-66683193D01*
X157726331Y-66747777D01*
X157812273Y-66794287D01*
X157926914Y-66833643D01*
X158033045Y-66870079D01*
X158033047Y-66870079D01*
X158033049Y-66870080D01*
X158263288Y-66908500D01*
X158263289Y-66908500D01*
X158496711Y-66908500D01*
X158496712Y-66908500D01*
X158726951Y-66870080D01*
X158947727Y-66794287D01*
X159153017Y-66683190D01*
X159337220Y-66539818D01*
X159495314Y-66368083D01*
X159622984Y-66172669D01*
X159716749Y-65958907D01*
X159774051Y-65732626D01*
X159793327Y-65500000D01*
X159774051Y-65267374D01*
X159716749Y-65041093D01*
X159622984Y-64827331D01*
X159495314Y-64631917D01*
X159495313Y-64631915D01*
X159337223Y-64460185D01*
X159337222Y-64460184D01*
X159337220Y-64460182D01*
X159153017Y-64316810D01*
X159153015Y-64316809D01*
X159153014Y-64316808D01*
X159153011Y-64316806D01*
X158947733Y-64205716D01*
X158947730Y-64205715D01*
X158947727Y-64205713D01*
X158947721Y-64205711D01*
X158947719Y-64205710D01*
X158726954Y-64129920D01*
X158547650Y-64100000D01*
X158496712Y-64091500D01*
X158263288Y-64091500D01*
X158217240Y-64099184D01*
X158033045Y-64129920D01*
X157812280Y-64205710D01*
X157812266Y-64205716D01*
X157606988Y-64316806D01*
X157606985Y-64316808D01*
X157422781Y-64460181D01*
X157422776Y-64460185D01*
X157416346Y-64467170D01*
X157356457Y-64503157D01*
X157286619Y-64501052D01*
X157229005Y-64461524D01*
X157208940Y-64426513D01*
X157183355Y-64357915D01*
X157183350Y-64357906D01*
X157097190Y-64242812D01*
X157097187Y-64242809D01*
X156982093Y-64156649D01*
X156982086Y-64156645D01*
X156847379Y-64106403D01*
X156847372Y-64106401D01*
X156787844Y-64100000D01*
X156090000Y-64100000D01*
X156090000Y-65124722D01*
X156013694Y-65080667D01*
X155899244Y-65050000D01*
X155780756Y-65050000D01*
X155666306Y-65080667D01*
X155590000Y-65124722D01*
X155590000Y-64100000D01*
X154892155Y-64100000D01*
X154832627Y-64106401D01*
X154832620Y-64106403D01*
X154697913Y-64156645D01*
X154697906Y-64156649D01*
X154582812Y-64242809D01*
X154582809Y-64242812D01*
X154496649Y-64357906D01*
X154496645Y-64357913D01*
X154446403Y-64492620D01*
X154446401Y-64492627D01*
X154440000Y-64552155D01*
X151951888Y-64552155D01*
X151867223Y-64460185D01*
X151867222Y-64460184D01*
X151867220Y-64460182D01*
X151683017Y-64316810D01*
X151683015Y-64316809D01*
X151683014Y-64316808D01*
X151683011Y-64316806D01*
X151477733Y-64205716D01*
X151477730Y-64205715D01*
X151477727Y-64205713D01*
X151477721Y-64205711D01*
X151477719Y-64205710D01*
X151256954Y-64129920D01*
X151077650Y-64100000D01*
X151026712Y-64091500D01*
X150793288Y-64091500D01*
X150747240Y-64099184D01*
X150563045Y-64129920D01*
X150342280Y-64205710D01*
X150342266Y-64205716D01*
X150136988Y-64316806D01*
X150136985Y-64316808D01*
X149952781Y-64460181D01*
X149952776Y-64460185D01*
X149946346Y-64467170D01*
X149886457Y-64503157D01*
X149816619Y-64501052D01*
X149759005Y-64461524D01*
X149738940Y-64426513D01*
X149713355Y-64357915D01*
X149713350Y-64357906D01*
X149627190Y-64242812D01*
X149627187Y-64242809D01*
X149512093Y-64156649D01*
X149512086Y-64156645D01*
X149377379Y-64106403D01*
X149377372Y-64106401D01*
X149317844Y-64100000D01*
X148620000Y-64100000D01*
X148620000Y-65124722D01*
X148543694Y-65080667D01*
X148429244Y-65050000D01*
X148310756Y-65050000D01*
X148196306Y-65080667D01*
X148120000Y-65124722D01*
X148120000Y-64100000D01*
X147422155Y-64100000D01*
X147362627Y-64106401D01*
X147362620Y-64106403D01*
X147227913Y-64156645D01*
X147227906Y-64156649D01*
X147112812Y-64242809D01*
X147112809Y-64242812D01*
X147026649Y-64357906D01*
X147026645Y-64357913D01*
X146976403Y-64492620D01*
X146976401Y-64492627D01*
X146970000Y-64552155D01*
X144481888Y-64552155D01*
X144397223Y-64460185D01*
X144397222Y-64460184D01*
X144397220Y-64460182D01*
X144213017Y-64316810D01*
X144213015Y-64316809D01*
X144213014Y-64316808D01*
X144213011Y-64316806D01*
X144007733Y-64205716D01*
X144007730Y-64205715D01*
X144007727Y-64205713D01*
X144007721Y-64205711D01*
X144007719Y-64205710D01*
X143786954Y-64129920D01*
X143607650Y-64100000D01*
X143556712Y-64091500D01*
X143323288Y-64091500D01*
X143277240Y-64099184D01*
X143093045Y-64129920D01*
X142872280Y-64205710D01*
X142872266Y-64205716D01*
X142666988Y-64316806D01*
X142666985Y-64316808D01*
X142482781Y-64460181D01*
X142482776Y-64460185D01*
X142476346Y-64467170D01*
X142416457Y-64503157D01*
X142346619Y-64501052D01*
X142289005Y-64461524D01*
X142268940Y-64426513D01*
X142243355Y-64357915D01*
X142243350Y-64357906D01*
X142157190Y-64242812D01*
X142157187Y-64242809D01*
X142042093Y-64156649D01*
X142042086Y-64156645D01*
X141907379Y-64106403D01*
X141907372Y-64106401D01*
X141847844Y-64100000D01*
X141150000Y-64100000D01*
X141150000Y-65124722D01*
X141073694Y-65080667D01*
X140959244Y-65050000D01*
X140840756Y-65050000D01*
X140726306Y-65080667D01*
X140650000Y-65124722D01*
X140650000Y-64100000D01*
X139952155Y-64100000D01*
X139892627Y-64106401D01*
X139892620Y-64106403D01*
X139757913Y-64156645D01*
X139757906Y-64156649D01*
X139642812Y-64242809D01*
X139642809Y-64242812D01*
X139556649Y-64357906D01*
X139556645Y-64357913D01*
X139506403Y-64492620D01*
X139506401Y-64492627D01*
X139500000Y-64552155D01*
X137011888Y-64552155D01*
X136927223Y-64460185D01*
X136927222Y-64460184D01*
X136927220Y-64460182D01*
X136743017Y-64316810D01*
X136743015Y-64316809D01*
X136743014Y-64316808D01*
X136743011Y-64316806D01*
X136537733Y-64205716D01*
X136537730Y-64205715D01*
X136537727Y-64205713D01*
X136537721Y-64205711D01*
X136537719Y-64205710D01*
X136316954Y-64129920D01*
X136137650Y-64100000D01*
X136086712Y-64091500D01*
X135853288Y-64091500D01*
X135807240Y-64099184D01*
X135623045Y-64129920D01*
X135402280Y-64205710D01*
X135402266Y-64205716D01*
X135196988Y-64316806D01*
X135196985Y-64316808D01*
X135012781Y-64460181D01*
X135012776Y-64460185D01*
X135006346Y-64467170D01*
X134946457Y-64503157D01*
X134876619Y-64501052D01*
X134819005Y-64461524D01*
X134798940Y-64426513D01*
X134773355Y-64357915D01*
X134773350Y-64357906D01*
X134687190Y-64242812D01*
X134687187Y-64242809D01*
X134572093Y-64156649D01*
X134572086Y-64156645D01*
X134437379Y-64106403D01*
X134437372Y-64106401D01*
X134377844Y-64100000D01*
X133680000Y-64100000D01*
X133680000Y-65124722D01*
X133603694Y-65080667D01*
X133489244Y-65050000D01*
X133370756Y-65050000D01*
X133256306Y-65080667D01*
X133180000Y-65124722D01*
X133180000Y-64100000D01*
X132482155Y-64100000D01*
X132422627Y-64106401D01*
X132422620Y-64106403D01*
X132287913Y-64156645D01*
X132287906Y-64156649D01*
X132172812Y-64242809D01*
X132172809Y-64242812D01*
X132086649Y-64357906D01*
X132086645Y-64357913D01*
X132036403Y-64492620D01*
X132036401Y-64492627D01*
X132030000Y-64552155D01*
X129541888Y-64552155D01*
X129457223Y-64460185D01*
X129457222Y-64460184D01*
X129457220Y-64460182D01*
X129273017Y-64316810D01*
X129273015Y-64316809D01*
X129273014Y-64316808D01*
X129273011Y-64316806D01*
X129067733Y-64205716D01*
X129067730Y-64205715D01*
X129067727Y-64205713D01*
X129067721Y-64205711D01*
X129067719Y-64205710D01*
X128846954Y-64129920D01*
X128667650Y-64100000D01*
X128616712Y-64091500D01*
X128383288Y-64091500D01*
X128337240Y-64099184D01*
X128153045Y-64129920D01*
X127932280Y-64205710D01*
X127932266Y-64205716D01*
X127726988Y-64316806D01*
X127726985Y-64316808D01*
X127542781Y-64460181D01*
X127542776Y-64460185D01*
X127536346Y-64467170D01*
X127476457Y-64503157D01*
X127406619Y-64501052D01*
X127349005Y-64461524D01*
X127328940Y-64426513D01*
X127303355Y-64357915D01*
X127303350Y-64357906D01*
X127217190Y-64242812D01*
X127217187Y-64242809D01*
X127102093Y-64156649D01*
X127102086Y-64156645D01*
X126967379Y-64106403D01*
X126967372Y-64106401D01*
X126907844Y-64100000D01*
X126210000Y-64100000D01*
X126210000Y-65124722D01*
X126133694Y-65080667D01*
X126019244Y-65050000D01*
X125900756Y-65050000D01*
X125786306Y-65080667D01*
X125710000Y-65124722D01*
X125710000Y-64100000D01*
X125012155Y-64100000D01*
X124952627Y-64106401D01*
X124952620Y-64106403D01*
X124817913Y-64156645D01*
X124817906Y-64156649D01*
X124702812Y-64242809D01*
X124702809Y-64242812D01*
X124616649Y-64357906D01*
X124616645Y-64357913D01*
X124566403Y-64492620D01*
X124566401Y-64492627D01*
X124560000Y-64552155D01*
X122031888Y-64552155D01*
X121947223Y-64460185D01*
X121947222Y-64460184D01*
X121947220Y-64460182D01*
X121763017Y-64316810D01*
X121763015Y-64316809D01*
X121763014Y-64316808D01*
X121763011Y-64316806D01*
X121557733Y-64205716D01*
X121557730Y-64205715D01*
X121557727Y-64205713D01*
X121557721Y-64205711D01*
X121557719Y-64205710D01*
X121336954Y-64129920D01*
X121157650Y-64100000D01*
X121106712Y-64091500D01*
X120873288Y-64091500D01*
X120827240Y-64099184D01*
X120643045Y-64129920D01*
X120422280Y-64205710D01*
X120422266Y-64205716D01*
X120216988Y-64316806D01*
X120216985Y-64316808D01*
X120032781Y-64460181D01*
X120032776Y-64460185D01*
X120026346Y-64467170D01*
X119966457Y-64503157D01*
X119896619Y-64501052D01*
X119839005Y-64461524D01*
X119818940Y-64426513D01*
X119793355Y-64357915D01*
X119793350Y-64357906D01*
X119707190Y-64242812D01*
X119707187Y-64242809D01*
X119592093Y-64156649D01*
X119592086Y-64156645D01*
X119457379Y-64106403D01*
X119457372Y-64106401D01*
X119397844Y-64100000D01*
X118700000Y-64100000D01*
X118700000Y-65124722D01*
X118623694Y-65080667D01*
X118509244Y-65050000D01*
X118390756Y-65050000D01*
X118276306Y-65080667D01*
X118200000Y-65124722D01*
X118200000Y-64100000D01*
X117502155Y-64100000D01*
X117442627Y-64106401D01*
X117442620Y-64106403D01*
X117307913Y-64156645D01*
X117307906Y-64156649D01*
X117192812Y-64242809D01*
X117192809Y-64242812D01*
X117106649Y-64357906D01*
X117106645Y-64357913D01*
X117056403Y-64492620D01*
X117056401Y-64492627D01*
X117050000Y-64552155D01*
X100075500Y-64552155D01*
X100075500Y-57125742D01*
X117671500Y-57125742D01*
X117671500Y-58434257D01*
X117712175Y-58638745D01*
X117712177Y-58638753D01*
X117791967Y-58831385D01*
X117791972Y-58831394D01*
X117907808Y-59004754D01*
X117907811Y-59004758D01*
X118055241Y-59152188D01*
X118055245Y-59152191D01*
X118228605Y-59268027D01*
X118228611Y-59268030D01*
X118228612Y-59268031D01*
X118421247Y-59347823D01*
X118625742Y-59388499D01*
X118625746Y-59388500D01*
X118625747Y-59388500D01*
X118834254Y-59388500D01*
X118834255Y-59388499D01*
X119038753Y-59347823D01*
X119231388Y-59268031D01*
X119296108Y-59224785D01*
X119362785Y-59203907D01*
X119430165Y-59222391D01*
X119433892Y-59224786D01*
X119498604Y-59268026D01*
X119498606Y-59268027D01*
X119498612Y-59268031D01*
X119691247Y-59347823D01*
X119895742Y-59388499D01*
X119895746Y-59388500D01*
X119895747Y-59388500D01*
X120104254Y-59388500D01*
X120104255Y-59388499D01*
X120308753Y-59347823D01*
X120501388Y-59268031D01*
X120573761Y-59219672D01*
X120640434Y-59198795D01*
X120707814Y-59217279D01*
X120711541Y-59219674D01*
X120772629Y-59260493D01*
X120772641Y-59260499D01*
X120963723Y-59339648D01*
X120963725Y-59339649D01*
X121020000Y-59350842D01*
X121020000Y-58640018D01*
X121022383Y-58615827D01*
X121054391Y-58454910D01*
X121058500Y-58434253D01*
X121058500Y-58160185D01*
X121102096Y-58185356D01*
X121212731Y-58215000D01*
X121327269Y-58215000D01*
X121437904Y-58185356D01*
X121520000Y-58137957D01*
X121520000Y-59350842D01*
X121576274Y-59339649D01*
X121576276Y-59339648D01*
X121767358Y-59260499D01*
X121767368Y-59260494D01*
X121939335Y-59145589D01*
X121939339Y-59145586D01*
X122085586Y-58999339D01*
X122085589Y-58999335D01*
X122200494Y-58827368D01*
X122200499Y-58827358D01*
X122279649Y-58636274D01*
X122279651Y-58636266D01*
X122319999Y-58433420D01*
X122320000Y-58433417D01*
X122320000Y-58039998D01*
X141036884Y-58039998D01*
X141036884Y-58040001D01*
X141055313Y-58250649D01*
X141055315Y-58250660D01*
X141110041Y-58454902D01*
X141110043Y-58454906D01*
X141110044Y-58454910D01*
X141185081Y-58615827D01*
X141199410Y-58646556D01*
X141199411Y-58646558D01*
X141320700Y-58819778D01*
X141470221Y-58969299D01*
X141470224Y-58969301D01*
X141643442Y-59090589D01*
X141835090Y-59179956D01*
X142039345Y-59234686D01*
X142189812Y-59247850D01*
X142249998Y-59253116D01*
X142250000Y-59253116D01*
X142250002Y-59253116D01*
X142302663Y-59248508D01*
X142460655Y-59234686D01*
X142664910Y-59179956D01*
X142856558Y-59090589D01*
X143029776Y-58969301D01*
X143179301Y-58819776D01*
X143300589Y-58646558D01*
X143389956Y-58454910D01*
X143444686Y-58250655D01*
X143463116Y-58040000D01*
X143463116Y-58039998D01*
X144186884Y-58039998D01*
X144186884Y-58040001D01*
X144205313Y-58250649D01*
X144205315Y-58250660D01*
X144260041Y-58454902D01*
X144260043Y-58454906D01*
X144260044Y-58454910D01*
X144335081Y-58615827D01*
X144349410Y-58646556D01*
X144349411Y-58646558D01*
X144470700Y-58819778D01*
X144620221Y-58969299D01*
X144620224Y-58969301D01*
X144793442Y-59090589D01*
X144985090Y-59179956D01*
X145189345Y-59234686D01*
X145339812Y-59247850D01*
X145399998Y-59253116D01*
X145400000Y-59253116D01*
X145400002Y-59253116D01*
X145452663Y-59248508D01*
X145610655Y-59234686D01*
X145814910Y-59179956D01*
X146006558Y-59090589D01*
X146179776Y-58969301D01*
X146329301Y-58819776D01*
X146450589Y-58646558D01*
X146539956Y-58454910D01*
X146594686Y-58250655D01*
X146613116Y-58040000D01*
X146613116Y-58039998D01*
X147336884Y-58039998D01*
X147336884Y-58040001D01*
X147355313Y-58250649D01*
X147355315Y-58250660D01*
X147410041Y-58454902D01*
X147410043Y-58454906D01*
X147410044Y-58454910D01*
X147485081Y-58615827D01*
X147499410Y-58646556D01*
X147499411Y-58646558D01*
X147620700Y-58819778D01*
X147770221Y-58969299D01*
X147770224Y-58969301D01*
X147943442Y-59090589D01*
X148135090Y-59179956D01*
X148339345Y-59234686D01*
X148489812Y-59247850D01*
X148549998Y-59253116D01*
X148550000Y-59253116D01*
X148550002Y-59253116D01*
X148602663Y-59248508D01*
X148760655Y-59234686D01*
X148964910Y-59179956D01*
X149156558Y-59090589D01*
X149329776Y-58969301D01*
X149479301Y-58819776D01*
X149600589Y-58646558D01*
X149689956Y-58454910D01*
X149744686Y-58250655D01*
X149763116Y-58040000D01*
X149763116Y-58039998D01*
X150486884Y-58039998D01*
X150486884Y-58040001D01*
X150505313Y-58250649D01*
X150505315Y-58250660D01*
X150560041Y-58454902D01*
X150560043Y-58454906D01*
X150560044Y-58454910D01*
X150635081Y-58615827D01*
X150649410Y-58646556D01*
X150649411Y-58646558D01*
X150770700Y-58819778D01*
X150920221Y-58969299D01*
X150920224Y-58969301D01*
X151093442Y-59090589D01*
X151285090Y-59179956D01*
X151489345Y-59234686D01*
X151639812Y-59247850D01*
X151699998Y-59253116D01*
X151700000Y-59253116D01*
X151700002Y-59253116D01*
X151752663Y-59248508D01*
X151910655Y-59234686D01*
X152114910Y-59179956D01*
X152306558Y-59090589D01*
X152479776Y-58969301D01*
X152629301Y-58819776D01*
X152750589Y-58646558D01*
X152839956Y-58454910D01*
X152894686Y-58250655D01*
X152913116Y-58040000D01*
X152913116Y-58039998D01*
X153636884Y-58039998D01*
X153636884Y-58040001D01*
X153655313Y-58250649D01*
X153655315Y-58250660D01*
X153710041Y-58454902D01*
X153710043Y-58454906D01*
X153710044Y-58454910D01*
X153785081Y-58615827D01*
X153799410Y-58646556D01*
X153799411Y-58646558D01*
X153920700Y-58819778D01*
X154070221Y-58969299D01*
X154070224Y-58969301D01*
X154243442Y-59090589D01*
X154435090Y-59179956D01*
X154639345Y-59234686D01*
X154789812Y-59247850D01*
X154849998Y-59253116D01*
X154850000Y-59253116D01*
X154850002Y-59253116D01*
X154902663Y-59248508D01*
X155060655Y-59234686D01*
X155264910Y-59179956D01*
X155456558Y-59090589D01*
X155629776Y-58969301D01*
X155779301Y-58819776D01*
X155900589Y-58646558D01*
X155989956Y-58454910D01*
X156044686Y-58250655D01*
X156063116Y-58040000D01*
X156063116Y-58039998D01*
X156786884Y-58039998D01*
X156786884Y-58040001D01*
X156805313Y-58250649D01*
X156805315Y-58250660D01*
X156860041Y-58454902D01*
X156860043Y-58454906D01*
X156860044Y-58454910D01*
X156935081Y-58615827D01*
X156949410Y-58646556D01*
X156949411Y-58646558D01*
X157070700Y-58819778D01*
X157220221Y-58969299D01*
X157220224Y-58969301D01*
X157393442Y-59090589D01*
X157585090Y-59179956D01*
X157789345Y-59234686D01*
X157939812Y-59247850D01*
X157999998Y-59253116D01*
X158000000Y-59253116D01*
X158000002Y-59253116D01*
X158052663Y-59248508D01*
X158210655Y-59234686D01*
X158414910Y-59179956D01*
X158606558Y-59090589D01*
X158779776Y-58969301D01*
X158929301Y-58819776D01*
X159050589Y-58646558D01*
X159139956Y-58454910D01*
X159194686Y-58250655D01*
X159213116Y-58040000D01*
X159194686Y-57829345D01*
X159139956Y-57625090D01*
X159050589Y-57433442D01*
X158929301Y-57260224D01*
X158929299Y-57260221D01*
X158779778Y-57110700D01*
X158606558Y-56989411D01*
X158606556Y-56989410D01*
X158585071Y-56979391D01*
X158414910Y-56900044D01*
X158414906Y-56900043D01*
X158414902Y-56900041D01*
X158210660Y-56845315D01*
X158210656Y-56845314D01*
X158210655Y-56845314D01*
X158210654Y-56845313D01*
X158210649Y-56845313D01*
X158000002Y-56826884D01*
X157999998Y-56826884D01*
X157789350Y-56845313D01*
X157789339Y-56845315D01*
X157585097Y-56900041D01*
X157585088Y-56900045D01*
X157393443Y-56989410D01*
X157393441Y-56989411D01*
X157220221Y-57110700D01*
X157070700Y-57260221D01*
X156949411Y-57433441D01*
X156949410Y-57433443D01*
X156860045Y-57625088D01*
X156860041Y-57625097D01*
X156805315Y-57829339D01*
X156805313Y-57829350D01*
X156786884Y-58039998D01*
X156063116Y-58039998D01*
X156044686Y-57829345D01*
X155989956Y-57625090D01*
X155900589Y-57433442D01*
X155779301Y-57260224D01*
X155779299Y-57260221D01*
X155629778Y-57110700D01*
X155456558Y-56989411D01*
X155456556Y-56989410D01*
X155435071Y-56979391D01*
X155264910Y-56900044D01*
X155264906Y-56900043D01*
X155264902Y-56900041D01*
X155060660Y-56845315D01*
X155060656Y-56845314D01*
X155060655Y-56845314D01*
X155060654Y-56845313D01*
X155060649Y-56845313D01*
X154850002Y-56826884D01*
X154849998Y-56826884D01*
X154639350Y-56845313D01*
X154639339Y-56845315D01*
X154435097Y-56900041D01*
X154435088Y-56900045D01*
X154243443Y-56989410D01*
X154243441Y-56989411D01*
X154070221Y-57110700D01*
X153920700Y-57260221D01*
X153799411Y-57433441D01*
X153799410Y-57433443D01*
X153710045Y-57625088D01*
X153710041Y-57625097D01*
X153655315Y-57829339D01*
X153655313Y-57829350D01*
X153636884Y-58039998D01*
X152913116Y-58039998D01*
X152894686Y-57829345D01*
X152839956Y-57625090D01*
X152750589Y-57433442D01*
X152629301Y-57260224D01*
X152629299Y-57260221D01*
X152479778Y-57110700D01*
X152306558Y-56989411D01*
X152306556Y-56989410D01*
X152285071Y-56979391D01*
X152114910Y-56900044D01*
X152114906Y-56900043D01*
X152114902Y-56900041D01*
X151910660Y-56845315D01*
X151910656Y-56845314D01*
X151910655Y-56845314D01*
X151910654Y-56845313D01*
X151910649Y-56845313D01*
X151700002Y-56826884D01*
X151699998Y-56826884D01*
X151489350Y-56845313D01*
X151489339Y-56845315D01*
X151285097Y-56900041D01*
X151285088Y-56900045D01*
X151093443Y-56989410D01*
X151093441Y-56989411D01*
X150920221Y-57110700D01*
X150770700Y-57260221D01*
X150649411Y-57433441D01*
X150649410Y-57433443D01*
X150560045Y-57625088D01*
X150560041Y-57625097D01*
X150505315Y-57829339D01*
X150505313Y-57829350D01*
X150486884Y-58039998D01*
X149763116Y-58039998D01*
X149744686Y-57829345D01*
X149689956Y-57625090D01*
X149600589Y-57433442D01*
X149479301Y-57260224D01*
X149479299Y-57260221D01*
X149329778Y-57110700D01*
X149156558Y-56989411D01*
X149156556Y-56989410D01*
X149135071Y-56979391D01*
X148964910Y-56900044D01*
X148964906Y-56900043D01*
X148964902Y-56900041D01*
X148760660Y-56845315D01*
X148760656Y-56845314D01*
X148760655Y-56845314D01*
X148760654Y-56845313D01*
X148760649Y-56845313D01*
X148550002Y-56826884D01*
X148549998Y-56826884D01*
X148339350Y-56845313D01*
X148339339Y-56845315D01*
X148135097Y-56900041D01*
X148135088Y-56900045D01*
X147943443Y-56989410D01*
X147943441Y-56989411D01*
X147770221Y-57110700D01*
X147620700Y-57260221D01*
X147499411Y-57433441D01*
X147499410Y-57433443D01*
X147410045Y-57625088D01*
X147410041Y-57625097D01*
X147355315Y-57829339D01*
X147355313Y-57829350D01*
X147336884Y-58039998D01*
X146613116Y-58039998D01*
X146594686Y-57829345D01*
X146539956Y-57625090D01*
X146450589Y-57433442D01*
X146329301Y-57260224D01*
X146329299Y-57260221D01*
X146179778Y-57110700D01*
X146006558Y-56989411D01*
X146006556Y-56989410D01*
X145985071Y-56979391D01*
X145814910Y-56900044D01*
X145814906Y-56900043D01*
X145814902Y-56900041D01*
X145610660Y-56845315D01*
X145610656Y-56845314D01*
X145610655Y-56845314D01*
X145610654Y-56845313D01*
X145610649Y-56845313D01*
X145400002Y-56826884D01*
X145399998Y-56826884D01*
X145189350Y-56845313D01*
X145189339Y-56845315D01*
X144985097Y-56900041D01*
X144985088Y-56900045D01*
X144793443Y-56989410D01*
X144793441Y-56989411D01*
X144620221Y-57110700D01*
X144470700Y-57260221D01*
X144349411Y-57433441D01*
X144349410Y-57433443D01*
X144260045Y-57625088D01*
X144260041Y-57625097D01*
X144205315Y-57829339D01*
X144205313Y-57829350D01*
X144186884Y-58039998D01*
X143463116Y-58039998D01*
X143444686Y-57829345D01*
X143389956Y-57625090D01*
X143300589Y-57433442D01*
X143179301Y-57260224D01*
X143179299Y-57260221D01*
X143029778Y-57110700D01*
X142856558Y-56989411D01*
X142856556Y-56989410D01*
X142835071Y-56979391D01*
X142664910Y-56900044D01*
X142664906Y-56900043D01*
X142664902Y-56900041D01*
X142460660Y-56845315D01*
X142460656Y-56845314D01*
X142460655Y-56845314D01*
X142460654Y-56845313D01*
X142460649Y-56845313D01*
X142250002Y-56826884D01*
X142249998Y-56826884D01*
X142039350Y-56845313D01*
X142039339Y-56845315D01*
X141835097Y-56900041D01*
X141835088Y-56900045D01*
X141643443Y-56989410D01*
X141643441Y-56989411D01*
X141470221Y-57110700D01*
X141320700Y-57260221D01*
X141199411Y-57433441D01*
X141199410Y-57433443D01*
X141110045Y-57625088D01*
X141110041Y-57625097D01*
X141055315Y-57829339D01*
X141055313Y-57829350D01*
X141036884Y-58039998D01*
X122320000Y-58039998D01*
X122320000Y-58030000D01*
X121627958Y-58030000D01*
X121675356Y-57947904D01*
X121705000Y-57837269D01*
X121705000Y-57722731D01*
X121675356Y-57612096D01*
X121627958Y-57530000D01*
X122320000Y-57530000D01*
X122320000Y-57126583D01*
X122319999Y-57126579D01*
X122279651Y-56923733D01*
X122279649Y-56923725D01*
X122200499Y-56732641D01*
X122200494Y-56732631D01*
X122085589Y-56560664D01*
X122085586Y-56560660D01*
X121939339Y-56414413D01*
X121939335Y-56414410D01*
X121767368Y-56299505D01*
X121767358Y-56299500D01*
X121576272Y-56220349D01*
X121576267Y-56220347D01*
X121520000Y-56209155D01*
X121520000Y-57422042D01*
X121437904Y-57374644D01*
X121327269Y-57345000D01*
X121212731Y-57345000D01*
X121102096Y-57374644D01*
X121058500Y-57399814D01*
X121058500Y-57125747D01*
X121055507Y-57110699D01*
X121022383Y-56944171D01*
X121020000Y-56919980D01*
X121020000Y-56209156D01*
X121019999Y-56209155D01*
X120963732Y-56220347D01*
X120963727Y-56220349D01*
X120772637Y-56299502D01*
X120711538Y-56340326D01*
X120644861Y-56361203D01*
X120577481Y-56342717D01*
X120573758Y-56340325D01*
X120501393Y-56291972D01*
X120501385Y-56291967D01*
X120308753Y-56212177D01*
X120308745Y-56212175D01*
X120104257Y-56171500D01*
X120104253Y-56171500D01*
X119895747Y-56171500D01*
X119895742Y-56171500D01*
X119691254Y-56212175D01*
X119691246Y-56212177D01*
X119498612Y-56291968D01*
X119433891Y-56335214D01*
X119367213Y-56356092D01*
X119299833Y-56337607D01*
X119296109Y-56335214D01*
X119231387Y-56291968D01*
X119038753Y-56212177D01*
X119038745Y-56212175D01*
X118834257Y-56171500D01*
X118834253Y-56171500D01*
X118625747Y-56171500D01*
X118625742Y-56171500D01*
X118421254Y-56212175D01*
X118421246Y-56212177D01*
X118228614Y-56291967D01*
X118228605Y-56291972D01*
X118055245Y-56407808D01*
X118055241Y-56407811D01*
X117907811Y-56555241D01*
X117907808Y-56555245D01*
X117791972Y-56728605D01*
X117791967Y-56728614D01*
X117712177Y-56921246D01*
X117712175Y-56921254D01*
X117671500Y-57125742D01*
X100075500Y-57125742D01*
X100075500Y-52959998D01*
X141036884Y-52959998D01*
X141036884Y-52960001D01*
X141055313Y-53170649D01*
X141055315Y-53170660D01*
X141110041Y-53374902D01*
X141110043Y-53374906D01*
X141110044Y-53374910D01*
X141189391Y-53545071D01*
X141199410Y-53566556D01*
X141199411Y-53566558D01*
X141320700Y-53739778D01*
X141470221Y-53889299D01*
X141470224Y-53889301D01*
X141643442Y-54010589D01*
X141835090Y-54099956D01*
X142039345Y-54154686D01*
X142189812Y-54167850D01*
X142249998Y-54173116D01*
X142250000Y-54173116D01*
X142250002Y-54173116D01*
X142302663Y-54168508D01*
X142460655Y-54154686D01*
X142664910Y-54099956D01*
X142856558Y-54010589D01*
X143029776Y-53889301D01*
X143179301Y-53739776D01*
X143300589Y-53566558D01*
X143389956Y-53374910D01*
X143444686Y-53170655D01*
X143463116Y-52960000D01*
X143463116Y-52959998D01*
X144186884Y-52959998D01*
X144186884Y-52960001D01*
X144205313Y-53170649D01*
X144205315Y-53170660D01*
X144260041Y-53374902D01*
X144260043Y-53374906D01*
X144260044Y-53374910D01*
X144339391Y-53545071D01*
X144349410Y-53566556D01*
X144349411Y-53566558D01*
X144470700Y-53739778D01*
X144620221Y-53889299D01*
X144620224Y-53889301D01*
X144793442Y-54010589D01*
X144985090Y-54099956D01*
X145189345Y-54154686D01*
X145339812Y-54167850D01*
X145399998Y-54173116D01*
X145400000Y-54173116D01*
X145400002Y-54173116D01*
X145452663Y-54168508D01*
X145610655Y-54154686D01*
X145814910Y-54099956D01*
X146006558Y-54010589D01*
X146179776Y-53889301D01*
X146329301Y-53739776D01*
X146450589Y-53566558D01*
X146539956Y-53374910D01*
X146594686Y-53170655D01*
X146613116Y-52960000D01*
X146613116Y-52959998D01*
X147336884Y-52959998D01*
X147336884Y-52960001D01*
X147355313Y-53170649D01*
X147355315Y-53170660D01*
X147410041Y-53374902D01*
X147410043Y-53374906D01*
X147410044Y-53374910D01*
X147489391Y-53545071D01*
X147499410Y-53566556D01*
X147499411Y-53566558D01*
X147620700Y-53739778D01*
X147770221Y-53889299D01*
X147770224Y-53889301D01*
X147943442Y-54010589D01*
X148135090Y-54099956D01*
X148339345Y-54154686D01*
X148489812Y-54167850D01*
X148549998Y-54173116D01*
X148550000Y-54173116D01*
X148550002Y-54173116D01*
X148602663Y-54168508D01*
X148760655Y-54154686D01*
X148964910Y-54099956D01*
X149156558Y-54010589D01*
X149329776Y-53889301D01*
X149479301Y-53739776D01*
X149600589Y-53566558D01*
X149689956Y-53374910D01*
X149744686Y-53170655D01*
X149763116Y-52960000D01*
X149763116Y-52959998D01*
X150486884Y-52959998D01*
X150486884Y-52960001D01*
X150505313Y-53170649D01*
X150505315Y-53170660D01*
X150560041Y-53374902D01*
X150560043Y-53374906D01*
X150560044Y-53374910D01*
X150639391Y-53545071D01*
X150649410Y-53566556D01*
X150649411Y-53566558D01*
X150770700Y-53739778D01*
X150920221Y-53889299D01*
X150920224Y-53889301D01*
X151093442Y-54010589D01*
X151285090Y-54099956D01*
X151489345Y-54154686D01*
X151639812Y-54167850D01*
X151699998Y-54173116D01*
X151700000Y-54173116D01*
X151700002Y-54173116D01*
X151752663Y-54168508D01*
X151910655Y-54154686D01*
X152114910Y-54099956D01*
X152306558Y-54010589D01*
X152479776Y-53889301D01*
X152629301Y-53739776D01*
X152750589Y-53566558D01*
X152839956Y-53374910D01*
X152894686Y-53170655D01*
X152913116Y-52960000D01*
X152913116Y-52959998D01*
X153636884Y-52959998D01*
X153636884Y-52960001D01*
X153655313Y-53170649D01*
X153655315Y-53170660D01*
X153710041Y-53374902D01*
X153710043Y-53374906D01*
X153710044Y-53374910D01*
X153789391Y-53545071D01*
X153799410Y-53566556D01*
X153799411Y-53566558D01*
X153920700Y-53739778D01*
X154070221Y-53889299D01*
X154070224Y-53889301D01*
X154243442Y-54010589D01*
X154435090Y-54099956D01*
X154639345Y-54154686D01*
X154789812Y-54167850D01*
X154849998Y-54173116D01*
X154850000Y-54173116D01*
X154850002Y-54173116D01*
X154902663Y-54168508D01*
X155060655Y-54154686D01*
X155264910Y-54099956D01*
X155456558Y-54010589D01*
X155629776Y-53889301D01*
X155779301Y-53739776D01*
X155900589Y-53566558D01*
X155989956Y-53374910D01*
X156044686Y-53170655D01*
X156063116Y-52960000D01*
X156063116Y-52959998D01*
X156786884Y-52959998D01*
X156786884Y-52960001D01*
X156805313Y-53170649D01*
X156805315Y-53170660D01*
X156860041Y-53374902D01*
X156860043Y-53374906D01*
X156860044Y-53374910D01*
X156939391Y-53545071D01*
X156949410Y-53566556D01*
X156949411Y-53566558D01*
X157070700Y-53739778D01*
X157220221Y-53889299D01*
X157220224Y-53889301D01*
X157393442Y-54010589D01*
X157585090Y-54099956D01*
X157789345Y-54154686D01*
X157939812Y-54167850D01*
X157999998Y-54173116D01*
X158000000Y-54173116D01*
X158000002Y-54173116D01*
X158052663Y-54168508D01*
X158210655Y-54154686D01*
X158414910Y-54099956D01*
X158606558Y-54010589D01*
X158779776Y-53889301D01*
X158929301Y-53739776D01*
X159050589Y-53566558D01*
X159139956Y-53374910D01*
X159194686Y-53170655D01*
X159213116Y-52960000D01*
X159194686Y-52749345D01*
X159139956Y-52545090D01*
X159050589Y-52353442D01*
X158929301Y-52180224D01*
X158929299Y-52180221D01*
X158779778Y-52030700D01*
X158606558Y-51909411D01*
X158606556Y-51909410D01*
X158585071Y-51899391D01*
X158414910Y-51820044D01*
X158414906Y-51820043D01*
X158414902Y-51820041D01*
X158210660Y-51765315D01*
X158210656Y-51765314D01*
X158210655Y-51765314D01*
X158210654Y-51765313D01*
X158210649Y-51765313D01*
X158000002Y-51746884D01*
X157999998Y-51746884D01*
X157789350Y-51765313D01*
X157789339Y-51765315D01*
X157585097Y-51820041D01*
X157585088Y-51820045D01*
X157393443Y-51909410D01*
X157393441Y-51909411D01*
X157220221Y-52030700D01*
X157070700Y-52180221D01*
X156949411Y-52353441D01*
X156949410Y-52353443D01*
X156860045Y-52545088D01*
X156860041Y-52545097D01*
X156805315Y-52749339D01*
X156805313Y-52749350D01*
X156786884Y-52959998D01*
X156063116Y-52959998D01*
X156044686Y-52749345D01*
X155989956Y-52545090D01*
X155900589Y-52353442D01*
X155779301Y-52180224D01*
X155779299Y-52180221D01*
X155629778Y-52030700D01*
X155456558Y-51909411D01*
X155456556Y-51909410D01*
X155435071Y-51899391D01*
X155264910Y-51820044D01*
X155264906Y-51820043D01*
X155264902Y-51820041D01*
X155060660Y-51765315D01*
X155060656Y-51765314D01*
X155060655Y-51765314D01*
X155060654Y-51765313D01*
X155060649Y-51765313D01*
X154850002Y-51746884D01*
X154849998Y-51746884D01*
X154639350Y-51765313D01*
X154639339Y-51765315D01*
X154435097Y-51820041D01*
X154435088Y-51820045D01*
X154243443Y-51909410D01*
X154243441Y-51909411D01*
X154070221Y-52030700D01*
X153920700Y-52180221D01*
X153799411Y-52353441D01*
X153799410Y-52353443D01*
X153710045Y-52545088D01*
X153710041Y-52545097D01*
X153655315Y-52749339D01*
X153655313Y-52749350D01*
X153636884Y-52959998D01*
X152913116Y-52959998D01*
X152894686Y-52749345D01*
X152839956Y-52545090D01*
X152750589Y-52353442D01*
X152629301Y-52180224D01*
X152629299Y-52180221D01*
X152479778Y-52030700D01*
X152306558Y-51909411D01*
X152306556Y-51909410D01*
X152285071Y-51899391D01*
X152114910Y-51820044D01*
X152114906Y-51820043D01*
X152114902Y-51820041D01*
X151910660Y-51765315D01*
X151910656Y-51765314D01*
X151910655Y-51765314D01*
X151910654Y-51765313D01*
X151910649Y-51765313D01*
X151700002Y-51746884D01*
X151699998Y-51746884D01*
X151489350Y-51765313D01*
X151489339Y-51765315D01*
X151285097Y-51820041D01*
X151285088Y-51820045D01*
X151093443Y-51909410D01*
X151093441Y-51909411D01*
X150920221Y-52030700D01*
X150770700Y-52180221D01*
X150649411Y-52353441D01*
X150649410Y-52353443D01*
X150560045Y-52545088D01*
X150560041Y-52545097D01*
X150505315Y-52749339D01*
X150505313Y-52749350D01*
X150486884Y-52959998D01*
X149763116Y-52959998D01*
X149744686Y-52749345D01*
X149689956Y-52545090D01*
X149600589Y-52353442D01*
X149479301Y-52180224D01*
X149479299Y-52180221D01*
X149329778Y-52030700D01*
X149156558Y-51909411D01*
X149156556Y-51909410D01*
X149135071Y-51899391D01*
X148964910Y-51820044D01*
X148964906Y-51820043D01*
X148964902Y-51820041D01*
X148760660Y-51765315D01*
X148760656Y-51765314D01*
X148760655Y-51765314D01*
X148760654Y-51765313D01*
X148760649Y-51765313D01*
X148550002Y-51746884D01*
X148549998Y-51746884D01*
X148339350Y-51765313D01*
X148339339Y-51765315D01*
X148135097Y-51820041D01*
X148135088Y-51820045D01*
X147943443Y-51909410D01*
X147943441Y-51909411D01*
X147770221Y-52030700D01*
X147620700Y-52180221D01*
X147499411Y-52353441D01*
X147499410Y-52353443D01*
X147410045Y-52545088D01*
X147410041Y-52545097D01*
X147355315Y-52749339D01*
X147355313Y-52749350D01*
X147336884Y-52959998D01*
X146613116Y-52959998D01*
X146594686Y-52749345D01*
X146539956Y-52545090D01*
X146450589Y-52353442D01*
X146329301Y-52180224D01*
X146329299Y-52180221D01*
X146179778Y-52030700D01*
X146006558Y-51909411D01*
X146006556Y-51909410D01*
X145985071Y-51899391D01*
X145814910Y-51820044D01*
X145814906Y-51820043D01*
X145814902Y-51820041D01*
X145610660Y-51765315D01*
X145610656Y-51765314D01*
X145610655Y-51765314D01*
X145610654Y-51765313D01*
X145610649Y-51765313D01*
X145400002Y-51746884D01*
X145399998Y-51746884D01*
X145189350Y-51765313D01*
X145189339Y-51765315D01*
X144985097Y-51820041D01*
X144985088Y-51820045D01*
X144793443Y-51909410D01*
X144793441Y-51909411D01*
X144620221Y-52030700D01*
X144470700Y-52180221D01*
X144349411Y-52353441D01*
X144349410Y-52353443D01*
X144260045Y-52545088D01*
X144260041Y-52545097D01*
X144205315Y-52749339D01*
X144205313Y-52749350D01*
X144186884Y-52959998D01*
X143463116Y-52959998D01*
X143444686Y-52749345D01*
X143389956Y-52545090D01*
X143300589Y-52353442D01*
X143179301Y-52180224D01*
X143179299Y-52180221D01*
X143029778Y-52030700D01*
X142856558Y-51909411D01*
X142856556Y-51909410D01*
X142835071Y-51899391D01*
X142664910Y-51820044D01*
X142664906Y-51820043D01*
X142664902Y-51820041D01*
X142460660Y-51765315D01*
X142460656Y-51765314D01*
X142460655Y-51765314D01*
X142460654Y-51765313D01*
X142460649Y-51765313D01*
X142250002Y-51746884D01*
X142249998Y-51746884D01*
X142039350Y-51765313D01*
X142039339Y-51765315D01*
X141835097Y-51820041D01*
X141835088Y-51820045D01*
X141643443Y-51909410D01*
X141643441Y-51909411D01*
X141470221Y-52030700D01*
X141320700Y-52180221D01*
X141199411Y-52353441D01*
X141199410Y-52353443D01*
X141110045Y-52545088D01*
X141110041Y-52545097D01*
X141055315Y-52749339D01*
X141055313Y-52749350D01*
X141036884Y-52959998D01*
X100075500Y-52959998D01*
X100075500Y-48301345D01*
X117437500Y-48301345D01*
X117437500Y-50098654D01*
X117444011Y-50159202D01*
X117444011Y-50159204D01*
X117495111Y-50296204D01*
X117582739Y-50413261D01*
X117699796Y-50500889D01*
X117836799Y-50551989D01*
X117864050Y-50554918D01*
X117897345Y-50558499D01*
X117897362Y-50558500D01*
X119694638Y-50558500D01*
X119694654Y-50558499D01*
X119721692Y-50555591D01*
X119755201Y-50551989D01*
X119892204Y-50500889D01*
X120009261Y-50413261D01*
X120096889Y-50296204D01*
X120142138Y-50174887D01*
X120184009Y-50118956D01*
X120249474Y-50094539D01*
X120317746Y-50109391D01*
X120349545Y-50134236D01*
X120412760Y-50202906D01*
X120590424Y-50341189D01*
X120590425Y-50341189D01*
X120590427Y-50341191D01*
X120650314Y-50373600D01*
X120788426Y-50448342D01*
X121001365Y-50521444D01*
X121223431Y-50558500D01*
X121448569Y-50558500D01*
X121670635Y-50521444D01*
X121883574Y-50448342D01*
X122081576Y-50341189D01*
X122259240Y-50202906D01*
X122380594Y-50071082D01*
X122411715Y-50037276D01*
X122411715Y-50037275D01*
X122411722Y-50037268D01*
X122502193Y-49898790D01*
X122555338Y-49853437D01*
X122624569Y-49844013D01*
X122687905Y-49873515D01*
X122709804Y-49898787D01*
X122800278Y-50037268D01*
X122800283Y-50037273D01*
X122800284Y-50037276D01*
X122926968Y-50174889D01*
X122952760Y-50202906D01*
X123130424Y-50341189D01*
X123130425Y-50341189D01*
X123130427Y-50341191D01*
X123190314Y-50373600D01*
X123328426Y-50448342D01*
X123541365Y-50521444D01*
X123763431Y-50558500D01*
X123988569Y-50558500D01*
X124210635Y-50521444D01*
X124423574Y-50448342D01*
X124621576Y-50341189D01*
X124799240Y-50202906D01*
X124920594Y-50071082D01*
X124951715Y-50037276D01*
X124951715Y-50037275D01*
X124951722Y-50037268D01*
X125045749Y-49893347D01*
X125098894Y-49847994D01*
X125168125Y-49838570D01*
X125231461Y-49868072D01*
X125251130Y-49890048D01*
X125377890Y-50071078D01*
X125544917Y-50238105D01*
X125738421Y-50373600D01*
X125952507Y-50473429D01*
X125952516Y-50473433D01*
X126166000Y-50530634D01*
X126166000Y-49633012D01*
X126223007Y-49665925D01*
X126350174Y-49700000D01*
X126481826Y-49700000D01*
X126608993Y-49665925D01*
X126666000Y-49633012D01*
X126666000Y-50530633D01*
X126879483Y-50473433D01*
X126879492Y-50473429D01*
X127093578Y-50373600D01*
X127287082Y-50238105D01*
X127454105Y-50071082D01*
X127580868Y-49890048D01*
X127635445Y-49846423D01*
X127704944Y-49839231D01*
X127767298Y-49870753D01*
X127786251Y-49893350D01*
X127880276Y-50037265D01*
X127880284Y-50037276D01*
X128006968Y-50174889D01*
X128032760Y-50202906D01*
X128210424Y-50341189D01*
X128210425Y-50341189D01*
X128210427Y-50341191D01*
X128270314Y-50373600D01*
X128408426Y-50448342D01*
X128621365Y-50521444D01*
X128843431Y-50558500D01*
X129068569Y-50558500D01*
X129290635Y-50521444D01*
X129503574Y-50448342D01*
X129701576Y-50341189D01*
X129879240Y-50202906D01*
X130000594Y-50071082D01*
X130031715Y-50037276D01*
X130031715Y-50037275D01*
X130031722Y-50037268D01*
X130122193Y-49898790D01*
X130175338Y-49853437D01*
X130244569Y-49844013D01*
X130307905Y-49873515D01*
X130329804Y-49898787D01*
X130420278Y-50037268D01*
X130420283Y-50037273D01*
X130420284Y-50037276D01*
X130546968Y-50174889D01*
X130572760Y-50202906D01*
X130750424Y-50341189D01*
X130750425Y-50341189D01*
X130750427Y-50341191D01*
X130810314Y-50373600D01*
X130948426Y-50448342D01*
X131161365Y-50521444D01*
X131383431Y-50558500D01*
X131608569Y-50558500D01*
X131830635Y-50521444D01*
X132043574Y-50448342D01*
X132241576Y-50341189D01*
X132419240Y-50202906D01*
X132540594Y-50071082D01*
X132571715Y-50037276D01*
X132571715Y-50037275D01*
X132571722Y-50037268D01*
X132662193Y-49898790D01*
X132715338Y-49853437D01*
X132784569Y-49844013D01*
X132847905Y-49873515D01*
X132869804Y-49898787D01*
X132960278Y-50037268D01*
X132960283Y-50037273D01*
X132960284Y-50037276D01*
X133086968Y-50174889D01*
X133112760Y-50202906D01*
X133290424Y-50341189D01*
X133290425Y-50341189D01*
X133290427Y-50341191D01*
X133350314Y-50373600D01*
X133488426Y-50448342D01*
X133701365Y-50521444D01*
X133923431Y-50558500D01*
X134148569Y-50558500D01*
X134370635Y-50521444D01*
X134583574Y-50448342D01*
X134781576Y-50341189D01*
X134959240Y-50202906D01*
X135080594Y-50071082D01*
X135111715Y-50037276D01*
X135111715Y-50037275D01*
X135111722Y-50037268D01*
X135202193Y-49898790D01*
X135255338Y-49853437D01*
X135324569Y-49844013D01*
X135387905Y-49873515D01*
X135409804Y-49898787D01*
X135500278Y-50037268D01*
X135500283Y-50037273D01*
X135500284Y-50037276D01*
X135626968Y-50174889D01*
X135652760Y-50202906D01*
X135830424Y-50341189D01*
X135830425Y-50341189D01*
X135830427Y-50341191D01*
X135890314Y-50373600D01*
X136028426Y-50448342D01*
X136241365Y-50521444D01*
X136463431Y-50558500D01*
X136688569Y-50558500D01*
X136910635Y-50521444D01*
X137123574Y-50448342D01*
X137321576Y-50341189D01*
X137499240Y-50202906D01*
X137620594Y-50071082D01*
X137651715Y-50037276D01*
X137651715Y-50037275D01*
X137651722Y-50037268D01*
X137742193Y-49898790D01*
X137795338Y-49853437D01*
X137864569Y-49844013D01*
X137927905Y-49873515D01*
X137949804Y-49898787D01*
X138040278Y-50037268D01*
X138040283Y-50037273D01*
X138040284Y-50037276D01*
X138166968Y-50174889D01*
X138192760Y-50202906D01*
X138370424Y-50341189D01*
X138370425Y-50341189D01*
X138370427Y-50341191D01*
X138430314Y-50373600D01*
X138568426Y-50448342D01*
X138781365Y-50521444D01*
X139003431Y-50558500D01*
X139228569Y-50558500D01*
X139450635Y-50521444D01*
X139663574Y-50448342D01*
X139861576Y-50341189D01*
X140039240Y-50202906D01*
X140160594Y-50071082D01*
X140191715Y-50037276D01*
X140191715Y-50037275D01*
X140191722Y-50037268D01*
X140282193Y-49898790D01*
X140335338Y-49853437D01*
X140404569Y-49844013D01*
X140467905Y-49873515D01*
X140489804Y-49898787D01*
X140580278Y-50037268D01*
X140580283Y-50037273D01*
X140580284Y-50037276D01*
X140706968Y-50174889D01*
X140732760Y-50202906D01*
X140910424Y-50341189D01*
X140910425Y-50341189D01*
X140910427Y-50341191D01*
X140970314Y-50373600D01*
X141108426Y-50448342D01*
X141321365Y-50521444D01*
X141543431Y-50558500D01*
X141768569Y-50558500D01*
X141990635Y-50521444D01*
X142203574Y-50448342D01*
X142401576Y-50341189D01*
X142579240Y-50202906D01*
X142700594Y-50071082D01*
X142731715Y-50037276D01*
X142731717Y-50037273D01*
X142731722Y-50037268D01*
X142854860Y-49848791D01*
X142945296Y-49642616D01*
X143000564Y-49424368D01*
X143012309Y-49282635D01*
X143019156Y-49200005D01*
X143019156Y-49199994D01*
X143000565Y-48975640D01*
X143000563Y-48975628D01*
X142945296Y-48757385D01*
X142935071Y-48734075D01*
X142854860Y-48551209D01*
X142838706Y-48526484D01*
X142731723Y-48362734D01*
X142731715Y-48362723D01*
X142675212Y-48301345D01*
X144361500Y-48301345D01*
X144361500Y-50098654D01*
X144368011Y-50159202D01*
X144368011Y-50159204D01*
X144419111Y-50296204D01*
X144506739Y-50413261D01*
X144623796Y-50500889D01*
X144760799Y-50551989D01*
X144788050Y-50554918D01*
X144821345Y-50558499D01*
X144821362Y-50558500D01*
X146618638Y-50558500D01*
X146618654Y-50558499D01*
X146645692Y-50555591D01*
X146679201Y-50551989D01*
X146816204Y-50500889D01*
X146933261Y-50413261D01*
X147020889Y-50296204D01*
X147066138Y-50174887D01*
X147108009Y-50118956D01*
X147173474Y-50094539D01*
X147241746Y-50109391D01*
X147273545Y-50134236D01*
X147336760Y-50202906D01*
X147514424Y-50341189D01*
X147514425Y-50341189D01*
X147514427Y-50341191D01*
X147574314Y-50373600D01*
X147712426Y-50448342D01*
X147925365Y-50521444D01*
X148147431Y-50558500D01*
X148372569Y-50558500D01*
X148594635Y-50521444D01*
X148807574Y-50448342D01*
X149005576Y-50341189D01*
X149183240Y-50202906D01*
X149304594Y-50071082D01*
X149335715Y-50037276D01*
X149335715Y-50037275D01*
X149335722Y-50037268D01*
X149426193Y-49898790D01*
X149479338Y-49853437D01*
X149548569Y-49844013D01*
X149611905Y-49873515D01*
X149633804Y-49898787D01*
X149724278Y-50037268D01*
X149724283Y-50037273D01*
X149724284Y-50037276D01*
X149850968Y-50174889D01*
X149876760Y-50202906D01*
X150054424Y-50341189D01*
X150054425Y-50341189D01*
X150054427Y-50341191D01*
X150114314Y-50373600D01*
X150252426Y-50448342D01*
X150465365Y-50521444D01*
X150687431Y-50558500D01*
X150912569Y-50558500D01*
X151134635Y-50521444D01*
X151347574Y-50448342D01*
X151545576Y-50341189D01*
X151723240Y-50202906D01*
X151844594Y-50071082D01*
X151875715Y-50037276D01*
X151875715Y-50037275D01*
X151875722Y-50037268D01*
X151966193Y-49898790D01*
X152019338Y-49853437D01*
X152088569Y-49844013D01*
X152151905Y-49873515D01*
X152173804Y-49898787D01*
X152264278Y-50037268D01*
X152264283Y-50037273D01*
X152264284Y-50037276D01*
X152390968Y-50174889D01*
X152416760Y-50202906D01*
X152594424Y-50341189D01*
X152594425Y-50341189D01*
X152594427Y-50341191D01*
X152654314Y-50373600D01*
X152792426Y-50448342D01*
X153005365Y-50521444D01*
X153227431Y-50558500D01*
X153452569Y-50558500D01*
X153674635Y-50521444D01*
X153887574Y-50448342D01*
X154085576Y-50341189D01*
X154263240Y-50202906D01*
X154384594Y-50071082D01*
X154415715Y-50037276D01*
X154415715Y-50037275D01*
X154415722Y-50037268D01*
X154506193Y-49898790D01*
X154559338Y-49853437D01*
X154628569Y-49844013D01*
X154691905Y-49873515D01*
X154713804Y-49898787D01*
X154804278Y-50037268D01*
X154804283Y-50037273D01*
X154804284Y-50037276D01*
X154930968Y-50174889D01*
X154956760Y-50202906D01*
X155134424Y-50341189D01*
X155134425Y-50341189D01*
X155134427Y-50341191D01*
X155194314Y-50373600D01*
X155332426Y-50448342D01*
X155545365Y-50521444D01*
X155767431Y-50558500D01*
X155992569Y-50558500D01*
X156214635Y-50521444D01*
X156427574Y-50448342D01*
X156625576Y-50341189D01*
X156803240Y-50202906D01*
X156924594Y-50071082D01*
X156955715Y-50037276D01*
X156955715Y-50037275D01*
X156955722Y-50037268D01*
X157046193Y-49898790D01*
X157099338Y-49853437D01*
X157168569Y-49844013D01*
X157231905Y-49873515D01*
X157253804Y-49898787D01*
X157344278Y-50037268D01*
X157344283Y-50037273D01*
X157344284Y-50037276D01*
X157470968Y-50174889D01*
X157496760Y-50202906D01*
X157674424Y-50341189D01*
X157674425Y-50341189D01*
X157674427Y-50341191D01*
X157734314Y-50373600D01*
X157872426Y-50448342D01*
X158085365Y-50521444D01*
X158307431Y-50558500D01*
X158532569Y-50558500D01*
X158754635Y-50521444D01*
X158967574Y-50448342D01*
X159165576Y-50341189D01*
X159343240Y-50202906D01*
X159464594Y-50071082D01*
X159495715Y-50037276D01*
X159495715Y-50037275D01*
X159495722Y-50037268D01*
X159586193Y-49898790D01*
X159639338Y-49853437D01*
X159708569Y-49844013D01*
X159771905Y-49873515D01*
X159793804Y-49898787D01*
X159884278Y-50037268D01*
X159884283Y-50037273D01*
X159884284Y-50037276D01*
X160010968Y-50174889D01*
X160036760Y-50202906D01*
X160214424Y-50341189D01*
X160214425Y-50341189D01*
X160214427Y-50341191D01*
X160274314Y-50373600D01*
X160412426Y-50448342D01*
X160625365Y-50521444D01*
X160847431Y-50558500D01*
X161072569Y-50558500D01*
X161294635Y-50521444D01*
X161507574Y-50448342D01*
X161705576Y-50341189D01*
X161883240Y-50202906D01*
X162004594Y-50071082D01*
X162035715Y-50037276D01*
X162035715Y-50037275D01*
X162035722Y-50037268D01*
X162126193Y-49898790D01*
X162179338Y-49853437D01*
X162248569Y-49844013D01*
X162311905Y-49873515D01*
X162333804Y-49898787D01*
X162424278Y-50037268D01*
X162424283Y-50037273D01*
X162424284Y-50037276D01*
X162550968Y-50174889D01*
X162576760Y-50202906D01*
X162754424Y-50341189D01*
X162754425Y-50341189D01*
X162754427Y-50341191D01*
X162814314Y-50373600D01*
X162952426Y-50448342D01*
X163165365Y-50521444D01*
X163387431Y-50558500D01*
X163612569Y-50558500D01*
X163834635Y-50521444D01*
X164047574Y-50448342D01*
X164245576Y-50341189D01*
X164423240Y-50202906D01*
X164544594Y-50071082D01*
X164575715Y-50037276D01*
X164575717Y-50037273D01*
X164575722Y-50037268D01*
X164698860Y-49848791D01*
X164789296Y-49642616D01*
X164844564Y-49424368D01*
X164856309Y-49282635D01*
X164863156Y-49200005D01*
X164863156Y-49199994D01*
X164844565Y-48975640D01*
X164844563Y-48975628D01*
X164789296Y-48757385D01*
X164779071Y-48734075D01*
X164698860Y-48551209D01*
X164682706Y-48526484D01*
X164575723Y-48362734D01*
X164575715Y-48362723D01*
X164423243Y-48197097D01*
X164423238Y-48197092D01*
X164245577Y-48058812D01*
X164245572Y-48058808D01*
X164047580Y-47951661D01*
X164047577Y-47951659D01*
X164047574Y-47951658D01*
X164047571Y-47951657D01*
X164047569Y-47951656D01*
X163834637Y-47878556D01*
X163612569Y-47841500D01*
X163387431Y-47841500D01*
X163165362Y-47878556D01*
X162952430Y-47951656D01*
X162952419Y-47951661D01*
X162754427Y-48058808D01*
X162754422Y-48058812D01*
X162576761Y-48197092D01*
X162576756Y-48197097D01*
X162424284Y-48362723D01*
X162424276Y-48362734D01*
X162333808Y-48501206D01*
X162280662Y-48546562D01*
X162211431Y-48555986D01*
X162148095Y-48526484D01*
X162126192Y-48501206D01*
X162035723Y-48362734D01*
X162035715Y-48362723D01*
X161883243Y-48197097D01*
X161883238Y-48197092D01*
X161705577Y-48058812D01*
X161705572Y-48058808D01*
X161507580Y-47951661D01*
X161507577Y-47951659D01*
X161507574Y-47951658D01*
X161507571Y-47951657D01*
X161507569Y-47951656D01*
X161294637Y-47878556D01*
X161072569Y-47841500D01*
X160847431Y-47841500D01*
X160625362Y-47878556D01*
X160412430Y-47951656D01*
X160412419Y-47951661D01*
X160214427Y-48058808D01*
X160214422Y-48058812D01*
X160036761Y-48197092D01*
X160036756Y-48197097D01*
X159884284Y-48362723D01*
X159884276Y-48362734D01*
X159793808Y-48501206D01*
X159740662Y-48546562D01*
X159671431Y-48555986D01*
X159608095Y-48526484D01*
X159586192Y-48501206D01*
X159495723Y-48362734D01*
X159495715Y-48362723D01*
X159343243Y-48197097D01*
X159343238Y-48197092D01*
X159165577Y-48058812D01*
X159165572Y-48058808D01*
X158967580Y-47951661D01*
X158967577Y-47951659D01*
X158967574Y-47951658D01*
X158967571Y-47951657D01*
X158967569Y-47951656D01*
X158754637Y-47878556D01*
X158532569Y-47841500D01*
X158307431Y-47841500D01*
X158085362Y-47878556D01*
X157872430Y-47951656D01*
X157872419Y-47951661D01*
X157674427Y-48058808D01*
X157674422Y-48058812D01*
X157496761Y-48197092D01*
X157496756Y-48197097D01*
X157344284Y-48362723D01*
X157344276Y-48362734D01*
X157253808Y-48501206D01*
X157200662Y-48546562D01*
X157131431Y-48555986D01*
X157068095Y-48526484D01*
X157046192Y-48501206D01*
X156955723Y-48362734D01*
X156955715Y-48362723D01*
X156803243Y-48197097D01*
X156803238Y-48197092D01*
X156625577Y-48058812D01*
X156625572Y-48058808D01*
X156427580Y-47951661D01*
X156427577Y-47951659D01*
X156427574Y-47951658D01*
X156427571Y-47951657D01*
X156427569Y-47951656D01*
X156214637Y-47878556D01*
X155992569Y-47841500D01*
X155767431Y-47841500D01*
X155545362Y-47878556D01*
X155332430Y-47951656D01*
X155332419Y-47951661D01*
X155134427Y-48058808D01*
X155134422Y-48058812D01*
X154956761Y-48197092D01*
X154956756Y-48197097D01*
X154804284Y-48362723D01*
X154804276Y-48362734D01*
X154713808Y-48501206D01*
X154660662Y-48546562D01*
X154591431Y-48555986D01*
X154528095Y-48526484D01*
X154506192Y-48501206D01*
X154415723Y-48362734D01*
X154415715Y-48362723D01*
X154263243Y-48197097D01*
X154263238Y-48197092D01*
X154085577Y-48058812D01*
X154085572Y-48058808D01*
X153887580Y-47951661D01*
X153887577Y-47951659D01*
X153887574Y-47951658D01*
X153887571Y-47951657D01*
X153887569Y-47951656D01*
X153674637Y-47878556D01*
X153452569Y-47841500D01*
X153227431Y-47841500D01*
X153005362Y-47878556D01*
X152792430Y-47951656D01*
X152792419Y-47951661D01*
X152594427Y-48058808D01*
X152594422Y-48058812D01*
X152416761Y-48197092D01*
X152416756Y-48197097D01*
X152264284Y-48362723D01*
X152264276Y-48362734D01*
X152173808Y-48501206D01*
X152120662Y-48546562D01*
X152051431Y-48555986D01*
X151988095Y-48526484D01*
X151966192Y-48501206D01*
X151875723Y-48362734D01*
X151875715Y-48362723D01*
X151723243Y-48197097D01*
X151723238Y-48197092D01*
X151545577Y-48058812D01*
X151545572Y-48058808D01*
X151347580Y-47951661D01*
X151347577Y-47951659D01*
X151347574Y-47951658D01*
X151347571Y-47951657D01*
X151347569Y-47951656D01*
X151134637Y-47878556D01*
X150912569Y-47841500D01*
X150687431Y-47841500D01*
X150465362Y-47878556D01*
X150252430Y-47951656D01*
X150252419Y-47951661D01*
X150054427Y-48058808D01*
X150054422Y-48058812D01*
X149876761Y-48197092D01*
X149876756Y-48197097D01*
X149724284Y-48362723D01*
X149724276Y-48362734D01*
X149633808Y-48501206D01*
X149580662Y-48546562D01*
X149511431Y-48555986D01*
X149448095Y-48526484D01*
X149426192Y-48501206D01*
X149335723Y-48362734D01*
X149335715Y-48362723D01*
X149183243Y-48197097D01*
X149183238Y-48197092D01*
X149005577Y-48058812D01*
X149005572Y-48058808D01*
X148807580Y-47951661D01*
X148807577Y-47951659D01*
X148807574Y-47951658D01*
X148807571Y-47951657D01*
X148807569Y-47951656D01*
X148594637Y-47878556D01*
X148372569Y-47841500D01*
X148147431Y-47841500D01*
X147925362Y-47878556D01*
X147712430Y-47951656D01*
X147712419Y-47951661D01*
X147514427Y-48058808D01*
X147514422Y-48058812D01*
X147336761Y-48197092D01*
X147273548Y-48265760D01*
X147213661Y-48301750D01*
X147143823Y-48299649D01*
X147086207Y-48260124D01*
X147066138Y-48225110D01*
X147020889Y-48103796D01*
X146987214Y-48058812D01*
X146933261Y-47986739D01*
X146816204Y-47899111D01*
X146679203Y-47848011D01*
X146618654Y-47841500D01*
X146618638Y-47841500D01*
X144821362Y-47841500D01*
X144821345Y-47841500D01*
X144760797Y-47848011D01*
X144760795Y-47848011D01*
X144623795Y-47899111D01*
X144506739Y-47986739D01*
X144419111Y-48103795D01*
X144368011Y-48240795D01*
X144368011Y-48240797D01*
X144361500Y-48301345D01*
X142675212Y-48301345D01*
X142579243Y-48197097D01*
X142579238Y-48197092D01*
X142401577Y-48058812D01*
X142401572Y-48058808D01*
X142203580Y-47951661D01*
X142203577Y-47951659D01*
X142203574Y-47951658D01*
X142203571Y-47951657D01*
X142203569Y-47951656D01*
X141990637Y-47878556D01*
X141768569Y-47841500D01*
X141543431Y-47841500D01*
X141321362Y-47878556D01*
X141108430Y-47951656D01*
X141108419Y-47951661D01*
X140910427Y-48058808D01*
X140910422Y-48058812D01*
X140732761Y-48197092D01*
X140732756Y-48197097D01*
X140580284Y-48362723D01*
X140580276Y-48362734D01*
X140489808Y-48501206D01*
X140436662Y-48546562D01*
X140367431Y-48555986D01*
X140304095Y-48526484D01*
X140282192Y-48501206D01*
X140191723Y-48362734D01*
X140191715Y-48362723D01*
X140039243Y-48197097D01*
X140039238Y-48197092D01*
X139861577Y-48058812D01*
X139861572Y-48058808D01*
X139663580Y-47951661D01*
X139663577Y-47951659D01*
X139663574Y-47951658D01*
X139663571Y-47951657D01*
X139663569Y-47951656D01*
X139450637Y-47878556D01*
X139228569Y-47841500D01*
X139003431Y-47841500D01*
X138781362Y-47878556D01*
X138568430Y-47951656D01*
X138568419Y-47951661D01*
X138370427Y-48058808D01*
X138370422Y-48058812D01*
X138192761Y-48197092D01*
X138192756Y-48197097D01*
X138040284Y-48362723D01*
X138040276Y-48362734D01*
X137949808Y-48501206D01*
X137896662Y-48546562D01*
X137827431Y-48555986D01*
X137764095Y-48526484D01*
X137742192Y-48501206D01*
X137651723Y-48362734D01*
X137651715Y-48362723D01*
X137499243Y-48197097D01*
X137499238Y-48197092D01*
X137321577Y-48058812D01*
X137321572Y-48058808D01*
X137123580Y-47951661D01*
X137123577Y-47951659D01*
X137123574Y-47951658D01*
X137123571Y-47951657D01*
X137123569Y-47951656D01*
X136910637Y-47878556D01*
X136688569Y-47841500D01*
X136463431Y-47841500D01*
X136241362Y-47878556D01*
X136028430Y-47951656D01*
X136028419Y-47951661D01*
X135830427Y-48058808D01*
X135830422Y-48058812D01*
X135652761Y-48197092D01*
X135652756Y-48197097D01*
X135500284Y-48362723D01*
X135500276Y-48362734D01*
X135409808Y-48501206D01*
X135356662Y-48546562D01*
X135287431Y-48555986D01*
X135224095Y-48526484D01*
X135202192Y-48501206D01*
X135111723Y-48362734D01*
X135111715Y-48362723D01*
X134959243Y-48197097D01*
X134959238Y-48197092D01*
X134781577Y-48058812D01*
X134781572Y-48058808D01*
X134583580Y-47951661D01*
X134583577Y-47951659D01*
X134583574Y-47951658D01*
X134583571Y-47951657D01*
X134583569Y-47951656D01*
X134370637Y-47878556D01*
X134148569Y-47841500D01*
X133923431Y-47841500D01*
X133701362Y-47878556D01*
X133488430Y-47951656D01*
X133488419Y-47951661D01*
X133290427Y-48058808D01*
X133290422Y-48058812D01*
X133112761Y-48197092D01*
X133112756Y-48197097D01*
X132960284Y-48362723D01*
X132960276Y-48362734D01*
X132869808Y-48501206D01*
X132816662Y-48546562D01*
X132747431Y-48555986D01*
X132684095Y-48526484D01*
X132662192Y-48501206D01*
X132571723Y-48362734D01*
X132571715Y-48362723D01*
X132419243Y-48197097D01*
X132419238Y-48197092D01*
X132241577Y-48058812D01*
X132241572Y-48058808D01*
X132043580Y-47951661D01*
X132043577Y-47951659D01*
X132043574Y-47951658D01*
X132043571Y-47951657D01*
X132043569Y-47951656D01*
X131830637Y-47878556D01*
X131608569Y-47841500D01*
X131383431Y-47841500D01*
X131161362Y-47878556D01*
X130948430Y-47951656D01*
X130948419Y-47951661D01*
X130750427Y-48058808D01*
X130750422Y-48058812D01*
X130572761Y-48197092D01*
X130572756Y-48197097D01*
X130420284Y-48362723D01*
X130420276Y-48362734D01*
X130329808Y-48501206D01*
X130276662Y-48546562D01*
X130207431Y-48555986D01*
X130144095Y-48526484D01*
X130122192Y-48501206D01*
X130031723Y-48362734D01*
X130031715Y-48362723D01*
X129879243Y-48197097D01*
X129879238Y-48197092D01*
X129701577Y-48058812D01*
X129701572Y-48058808D01*
X129503580Y-47951661D01*
X129503577Y-47951659D01*
X129503574Y-47951658D01*
X129503571Y-47951657D01*
X129503569Y-47951656D01*
X129290637Y-47878556D01*
X129068569Y-47841500D01*
X128843431Y-47841500D01*
X128621362Y-47878556D01*
X128408430Y-47951656D01*
X128408419Y-47951661D01*
X128210427Y-48058808D01*
X128210422Y-48058812D01*
X128032761Y-48197092D01*
X128032756Y-48197097D01*
X127880284Y-48362723D01*
X127880276Y-48362734D01*
X127786251Y-48506650D01*
X127733105Y-48552007D01*
X127663873Y-48561430D01*
X127600538Y-48531928D01*
X127580868Y-48509951D01*
X127454113Y-48328926D01*
X127454108Y-48328920D01*
X127287082Y-48161894D01*
X127093578Y-48026399D01*
X126879492Y-47926570D01*
X126879486Y-47926567D01*
X126666000Y-47869364D01*
X126666000Y-48766988D01*
X126608993Y-48734075D01*
X126481826Y-48700000D01*
X126350174Y-48700000D01*
X126223007Y-48734075D01*
X126166000Y-48766988D01*
X126166000Y-47869364D01*
X126165999Y-47869364D01*
X125952513Y-47926567D01*
X125952507Y-47926570D01*
X125738422Y-48026399D01*
X125738420Y-48026400D01*
X125544926Y-48161886D01*
X125544920Y-48161891D01*
X125377891Y-48328920D01*
X125377890Y-48328922D01*
X125251131Y-48509952D01*
X125196554Y-48553577D01*
X125127055Y-48560769D01*
X125064701Y-48529247D01*
X125045752Y-48506656D01*
X124951722Y-48362732D01*
X124951715Y-48362725D01*
X124951715Y-48362723D01*
X124799243Y-48197097D01*
X124799238Y-48197092D01*
X124621577Y-48058812D01*
X124621572Y-48058808D01*
X124423580Y-47951661D01*
X124423577Y-47951659D01*
X124423574Y-47951658D01*
X124423571Y-47951657D01*
X124423569Y-47951656D01*
X124210637Y-47878556D01*
X123988569Y-47841500D01*
X123763431Y-47841500D01*
X123541362Y-47878556D01*
X123328430Y-47951656D01*
X123328419Y-47951661D01*
X123130427Y-48058808D01*
X123130422Y-48058812D01*
X122952761Y-48197092D01*
X122952756Y-48197097D01*
X122800284Y-48362723D01*
X122800276Y-48362734D01*
X122709808Y-48501206D01*
X122656662Y-48546562D01*
X122587431Y-48555986D01*
X122524095Y-48526484D01*
X122502192Y-48501206D01*
X122411723Y-48362734D01*
X122411715Y-48362723D01*
X122259243Y-48197097D01*
X122259238Y-48197092D01*
X122081577Y-48058812D01*
X122081572Y-48058808D01*
X121883580Y-47951661D01*
X121883577Y-47951659D01*
X121883574Y-47951658D01*
X121883571Y-47951657D01*
X121883569Y-47951656D01*
X121670637Y-47878556D01*
X121448569Y-47841500D01*
X121223431Y-47841500D01*
X121001362Y-47878556D01*
X120788430Y-47951656D01*
X120788419Y-47951661D01*
X120590427Y-48058808D01*
X120590422Y-48058812D01*
X120412761Y-48197092D01*
X120349548Y-48265760D01*
X120289661Y-48301750D01*
X120219823Y-48299649D01*
X120162207Y-48260124D01*
X120142138Y-48225110D01*
X120096889Y-48103796D01*
X120063214Y-48058812D01*
X120009261Y-47986739D01*
X119892204Y-47899111D01*
X119755203Y-47848011D01*
X119694654Y-47841500D01*
X119694638Y-47841500D01*
X117897362Y-47841500D01*
X117897345Y-47841500D01*
X117836797Y-47848011D01*
X117836795Y-47848011D01*
X117699795Y-47899111D01*
X117582739Y-47986739D01*
X117495111Y-48103795D01*
X117444011Y-48240795D01*
X117444011Y-48240797D01*
X117437500Y-48301345D01*
X100075500Y-48301345D01*
X100075500Y-47428092D01*
X100076097Y-47415938D01*
X100087494Y-47300222D01*
X100092234Y-47276389D01*
X100124216Y-47170959D01*
X100133508Y-47148526D01*
X100185442Y-47051365D01*
X100198938Y-47031166D01*
X100268827Y-46946006D01*
X100286006Y-46928827D01*
X100371166Y-46858938D01*
X100391365Y-46845442D01*
X100488526Y-46793508D01*
X100510959Y-46784216D01*
X100616389Y-46752234D01*
X100640220Y-46747494D01*
X100755939Y-46736097D01*
X100768093Y-46735500D01*
X100786531Y-46735500D01*
X163417365Y-46735500D01*
X163484404Y-46755185D01*
G37*
%TD.AperFunction*%
%TD*%
M02*
