%TF.GenerationSoftware,KiCad,Pcbnew,8.0.8*%
%TF.CreationDate,2025-03-12T20:49:11-06:00*%
%TF.ProjectId,ArduinoUnoSheildFinalProject,41726475-696e-46f5-956e-6f536865696c,rev?*%
%TF.SameCoordinates,Original*%
%TF.FileFunction,Legend,Top*%
%TF.FilePolarity,Positive*%
%FSLAX46Y46*%
G04 Gerber Fmt 4.6, Leading zero omitted, Abs format (unit mm)*
G04 Created by KiCad (PCBNEW 8.0.8) date 2025-03-12 20:49:11*
%MOMM*%
%LPD*%
G01*
G04 APERTURE LIST*
%ADD10C,0.150000*%
%ADD11C,0.120000*%
%ADD12C,0.127000*%
%ADD13C,0.200000*%
%ADD14C,0.300000*%
G04 APERTURE END LIST*
D10*
X117869819Y-60187030D02*
X117869819Y-60663220D01*
X117869819Y-60663220D02*
X118346009Y-60710839D01*
X118346009Y-60710839D02*
X118298390Y-60663220D01*
X118298390Y-60663220D02*
X118250771Y-60567982D01*
X118250771Y-60567982D02*
X118250771Y-60329887D01*
X118250771Y-60329887D02*
X118298390Y-60234649D01*
X118298390Y-60234649D02*
X118346009Y-60187030D01*
X118346009Y-60187030D02*
X118441247Y-60139411D01*
X118441247Y-60139411D02*
X118679342Y-60139411D01*
X118679342Y-60139411D02*
X118774580Y-60187030D01*
X118774580Y-60187030D02*
X118822200Y-60234649D01*
X118822200Y-60234649D02*
X118869819Y-60329887D01*
X118869819Y-60329887D02*
X118869819Y-60567982D01*
X118869819Y-60567982D02*
X118822200Y-60663220D01*
X118822200Y-60663220D02*
X118774580Y-60710839D01*
X117869819Y-59853696D02*
X118869819Y-59520363D01*
X118869819Y-59520363D02*
X117869819Y-59187030D01*
X120084104Y-60710839D02*
X120084104Y-60234649D01*
X120369819Y-60806077D02*
X119369819Y-60472744D01*
X119369819Y-60472744D02*
X120369819Y-60139411D01*
X119369819Y-59615601D02*
X119369819Y-59520363D01*
X119369819Y-59520363D02*
X119417438Y-59425125D01*
X119417438Y-59425125D02*
X119465057Y-59377506D01*
X119465057Y-59377506D02*
X119560295Y-59329887D01*
X119560295Y-59329887D02*
X119750771Y-59282268D01*
X119750771Y-59282268D02*
X119988866Y-59282268D01*
X119988866Y-59282268D02*
X120179342Y-59329887D01*
X120179342Y-59329887D02*
X120274580Y-59377506D01*
X120274580Y-59377506D02*
X120322200Y-59425125D01*
X120322200Y-59425125D02*
X120369819Y-59520363D01*
X120369819Y-59520363D02*
X120369819Y-59615601D01*
X120369819Y-59615601D02*
X120322200Y-59710839D01*
X120322200Y-59710839D02*
X120274580Y-59758458D01*
X120274580Y-59758458D02*
X120179342Y-59806077D01*
X120179342Y-59806077D02*
X119988866Y-59853696D01*
X119988866Y-59853696D02*
X119750771Y-59853696D01*
X119750771Y-59853696D02*
X119560295Y-59806077D01*
X119560295Y-59806077D02*
X119465057Y-59758458D01*
X119465057Y-59758458D02*
X119417438Y-59710839D01*
X119417438Y-59710839D02*
X119369819Y-59615601D01*
X139822200Y-90710839D02*
X139869819Y-90567982D01*
X139869819Y-90567982D02*
X139869819Y-90329887D01*
X139869819Y-90329887D02*
X139822200Y-90234649D01*
X139822200Y-90234649D02*
X139774580Y-90187030D01*
X139774580Y-90187030D02*
X139679342Y-90139411D01*
X139679342Y-90139411D02*
X139584104Y-90139411D01*
X139584104Y-90139411D02*
X139488866Y-90187030D01*
X139488866Y-90187030D02*
X139441247Y-90234649D01*
X139441247Y-90234649D02*
X139393628Y-90329887D01*
X139393628Y-90329887D02*
X139346009Y-90520363D01*
X139346009Y-90520363D02*
X139298390Y-90615601D01*
X139298390Y-90615601D02*
X139250771Y-90663220D01*
X139250771Y-90663220D02*
X139155533Y-90710839D01*
X139155533Y-90710839D02*
X139060295Y-90710839D01*
X139060295Y-90710839D02*
X138965057Y-90663220D01*
X138965057Y-90663220D02*
X138917438Y-90615601D01*
X138917438Y-90615601D02*
X138869819Y-90520363D01*
X138869819Y-90520363D02*
X138869819Y-90282268D01*
X138869819Y-90282268D02*
X138917438Y-90139411D01*
X139869819Y-89710839D02*
X138869819Y-89710839D01*
X138869819Y-89710839D02*
X138869819Y-89472744D01*
X138869819Y-89472744D02*
X138917438Y-89329887D01*
X138917438Y-89329887D02*
X139012676Y-89234649D01*
X139012676Y-89234649D02*
X139107914Y-89187030D01*
X139107914Y-89187030D02*
X139298390Y-89139411D01*
X139298390Y-89139411D02*
X139441247Y-89139411D01*
X139441247Y-89139411D02*
X139631723Y-89187030D01*
X139631723Y-89187030D02*
X139726961Y-89234649D01*
X139726961Y-89234649D02*
X139822200Y-89329887D01*
X139822200Y-89329887D02*
X139869819Y-89472744D01*
X139869819Y-89472744D02*
X139869819Y-89710839D01*
X139584104Y-88758458D02*
X139584104Y-88282268D01*
X139869819Y-88853696D02*
X138869819Y-88520363D01*
X138869819Y-88520363D02*
X139869819Y-88187030D01*
X137322200Y-90710839D02*
X137369819Y-90567982D01*
X137369819Y-90567982D02*
X137369819Y-90329887D01*
X137369819Y-90329887D02*
X137322200Y-90234649D01*
X137322200Y-90234649D02*
X137274580Y-90187030D01*
X137274580Y-90187030D02*
X137179342Y-90139411D01*
X137179342Y-90139411D02*
X137084104Y-90139411D01*
X137084104Y-90139411D02*
X136988866Y-90187030D01*
X136988866Y-90187030D02*
X136941247Y-90234649D01*
X136941247Y-90234649D02*
X136893628Y-90329887D01*
X136893628Y-90329887D02*
X136846009Y-90520363D01*
X136846009Y-90520363D02*
X136798390Y-90615601D01*
X136798390Y-90615601D02*
X136750771Y-90663220D01*
X136750771Y-90663220D02*
X136655533Y-90710839D01*
X136655533Y-90710839D02*
X136560295Y-90710839D01*
X136560295Y-90710839D02*
X136465057Y-90663220D01*
X136465057Y-90663220D02*
X136417438Y-90615601D01*
X136417438Y-90615601D02*
X136369819Y-90520363D01*
X136369819Y-90520363D02*
X136369819Y-90282268D01*
X136369819Y-90282268D02*
X136417438Y-90139411D01*
X137274580Y-89139411D02*
X137322200Y-89187030D01*
X137322200Y-89187030D02*
X137369819Y-89329887D01*
X137369819Y-89329887D02*
X137369819Y-89425125D01*
X137369819Y-89425125D02*
X137322200Y-89567982D01*
X137322200Y-89567982D02*
X137226961Y-89663220D01*
X137226961Y-89663220D02*
X137131723Y-89710839D01*
X137131723Y-89710839D02*
X136941247Y-89758458D01*
X136941247Y-89758458D02*
X136798390Y-89758458D01*
X136798390Y-89758458D02*
X136607914Y-89710839D01*
X136607914Y-89710839D02*
X136512676Y-89663220D01*
X136512676Y-89663220D02*
X136417438Y-89567982D01*
X136417438Y-89567982D02*
X136369819Y-89425125D01*
X136369819Y-89425125D02*
X136369819Y-89329887D01*
X136369819Y-89329887D02*
X136417438Y-89187030D01*
X136417438Y-89187030D02*
X136465057Y-89139411D01*
X137369819Y-88234649D02*
X137369819Y-88710839D01*
X137369819Y-88710839D02*
X136369819Y-88710839D01*
X153630180Y-78312969D02*
X153630180Y-77836779D01*
X153630180Y-77836779D02*
X153153990Y-77789160D01*
X153153990Y-77789160D02*
X153201609Y-77836779D01*
X153201609Y-77836779D02*
X153249228Y-77932017D01*
X153249228Y-77932017D02*
X153249228Y-78170112D01*
X153249228Y-78170112D02*
X153201609Y-78265350D01*
X153201609Y-78265350D02*
X153153990Y-78312969D01*
X153153990Y-78312969D02*
X153058752Y-78360588D01*
X153058752Y-78360588D02*
X152820657Y-78360588D01*
X152820657Y-78360588D02*
X152725419Y-78312969D01*
X152725419Y-78312969D02*
X152677800Y-78265350D01*
X152677800Y-78265350D02*
X152630180Y-78170112D01*
X152630180Y-78170112D02*
X152630180Y-77932017D01*
X152630180Y-77932017D02*
X152677800Y-77836779D01*
X152677800Y-77836779D02*
X152725419Y-77789160D01*
X153630180Y-78646303D02*
X152630180Y-78979636D01*
X152630180Y-78979636D02*
X153630180Y-79312969D01*
X157630180Y-78408207D02*
X158106371Y-78074874D01*
X157630180Y-77836779D02*
X158630180Y-77836779D01*
X158630180Y-77836779D02*
X158630180Y-78217731D01*
X158630180Y-78217731D02*
X158582561Y-78312969D01*
X158582561Y-78312969D02*
X158534942Y-78360588D01*
X158534942Y-78360588D02*
X158439704Y-78408207D01*
X158439704Y-78408207D02*
X158296847Y-78408207D01*
X158296847Y-78408207D02*
X158201609Y-78360588D01*
X158201609Y-78360588D02*
X158153990Y-78312969D01*
X158153990Y-78312969D02*
X158106371Y-78217731D01*
X158106371Y-78217731D02*
X158106371Y-77836779D01*
X158630180Y-78741541D02*
X157630180Y-79408207D01*
X158630180Y-79408207D02*
X157630180Y-78741541D01*
X156130180Y-77693922D02*
X156130180Y-78265350D01*
X155130180Y-77979636D02*
X156130180Y-77979636D01*
X156130180Y-78503446D02*
X155130180Y-79170112D01*
X156130180Y-79170112D02*
X155130180Y-78503446D01*
X117630180Y-81312969D02*
X117630180Y-80836779D01*
X117630180Y-80836779D02*
X117153990Y-80789160D01*
X117153990Y-80789160D02*
X117201609Y-80836779D01*
X117201609Y-80836779D02*
X117249228Y-80932017D01*
X117249228Y-80932017D02*
X117249228Y-81170112D01*
X117249228Y-81170112D02*
X117201609Y-81265350D01*
X117201609Y-81265350D02*
X117153990Y-81312969D01*
X117153990Y-81312969D02*
X117058752Y-81360588D01*
X117058752Y-81360588D02*
X116820657Y-81360588D01*
X116820657Y-81360588D02*
X116725419Y-81312969D01*
X116725419Y-81312969D02*
X116677800Y-81265350D01*
X116677800Y-81265350D02*
X116630180Y-81170112D01*
X116630180Y-81170112D02*
X116630180Y-80932017D01*
X116630180Y-80932017D02*
X116677800Y-80836779D01*
X116677800Y-80836779D02*
X116725419Y-80789160D01*
X117630180Y-81646303D02*
X116630180Y-81979636D01*
X116630180Y-81979636D02*
X117630180Y-82312969D01*
X104177800Y-80789160D02*
X104130180Y-80932017D01*
X104130180Y-80932017D02*
X104130180Y-81170112D01*
X104130180Y-81170112D02*
X104177800Y-81265350D01*
X104177800Y-81265350D02*
X104225419Y-81312969D01*
X104225419Y-81312969D02*
X104320657Y-81360588D01*
X104320657Y-81360588D02*
X104415895Y-81360588D01*
X104415895Y-81360588D02*
X104511133Y-81312969D01*
X104511133Y-81312969D02*
X104558752Y-81265350D01*
X104558752Y-81265350D02*
X104606371Y-81170112D01*
X104606371Y-81170112D02*
X104653990Y-80979636D01*
X104653990Y-80979636D02*
X104701609Y-80884398D01*
X104701609Y-80884398D02*
X104749228Y-80836779D01*
X104749228Y-80836779D02*
X104844466Y-80789160D01*
X104844466Y-80789160D02*
X104939704Y-80789160D01*
X104939704Y-80789160D02*
X105034942Y-80836779D01*
X105034942Y-80836779D02*
X105082561Y-80884398D01*
X105082561Y-80884398D02*
X105130180Y-80979636D01*
X105130180Y-80979636D02*
X105130180Y-81217731D01*
X105130180Y-81217731D02*
X105082561Y-81360588D01*
X104130180Y-81789160D02*
X105130180Y-81789160D01*
X105130180Y-81789160D02*
X105130180Y-82027255D01*
X105130180Y-82027255D02*
X105082561Y-82170112D01*
X105082561Y-82170112D02*
X104987323Y-82265350D01*
X104987323Y-82265350D02*
X104892085Y-82312969D01*
X104892085Y-82312969D02*
X104701609Y-82360588D01*
X104701609Y-82360588D02*
X104558752Y-82360588D01*
X104558752Y-82360588D02*
X104368276Y-82312969D01*
X104368276Y-82312969D02*
X104273038Y-82265350D01*
X104273038Y-82265350D02*
X104177800Y-82170112D01*
X104177800Y-82170112D02*
X104130180Y-82027255D01*
X104130180Y-82027255D02*
X104130180Y-81789160D01*
X104415895Y-82741541D02*
X104415895Y-83217731D01*
X104130180Y-82646303D02*
X105130180Y-82979636D01*
X105130180Y-82979636D02*
X104130180Y-83312969D01*
X109177800Y-80789160D02*
X109130180Y-80932017D01*
X109130180Y-80932017D02*
X109130180Y-81170112D01*
X109130180Y-81170112D02*
X109177800Y-81265350D01*
X109177800Y-81265350D02*
X109225419Y-81312969D01*
X109225419Y-81312969D02*
X109320657Y-81360588D01*
X109320657Y-81360588D02*
X109415895Y-81360588D01*
X109415895Y-81360588D02*
X109511133Y-81312969D01*
X109511133Y-81312969D02*
X109558752Y-81265350D01*
X109558752Y-81265350D02*
X109606371Y-81170112D01*
X109606371Y-81170112D02*
X109653990Y-80979636D01*
X109653990Y-80979636D02*
X109701609Y-80884398D01*
X109701609Y-80884398D02*
X109749228Y-80836779D01*
X109749228Y-80836779D02*
X109844466Y-80789160D01*
X109844466Y-80789160D02*
X109939704Y-80789160D01*
X109939704Y-80789160D02*
X110034942Y-80836779D01*
X110034942Y-80836779D02*
X110082561Y-80884398D01*
X110082561Y-80884398D02*
X110130180Y-80979636D01*
X110130180Y-80979636D02*
X110130180Y-81217731D01*
X110130180Y-81217731D02*
X110082561Y-81360588D01*
X109225419Y-82360588D02*
X109177800Y-82312969D01*
X109177800Y-82312969D02*
X109130180Y-82170112D01*
X109130180Y-82170112D02*
X109130180Y-82074874D01*
X109130180Y-82074874D02*
X109177800Y-81932017D01*
X109177800Y-81932017D02*
X109273038Y-81836779D01*
X109273038Y-81836779D02*
X109368276Y-81789160D01*
X109368276Y-81789160D02*
X109558752Y-81741541D01*
X109558752Y-81741541D02*
X109701609Y-81741541D01*
X109701609Y-81741541D02*
X109892085Y-81789160D01*
X109892085Y-81789160D02*
X109987323Y-81836779D01*
X109987323Y-81836779D02*
X110082561Y-81932017D01*
X110082561Y-81932017D02*
X110130180Y-82074874D01*
X110130180Y-82074874D02*
X110130180Y-82170112D01*
X110130180Y-82170112D02*
X110082561Y-82312969D01*
X110082561Y-82312969D02*
X110034942Y-82360588D01*
X109130180Y-83265350D02*
X109130180Y-82789160D01*
X109130180Y-82789160D02*
X110130180Y-82789160D01*
X101122493Y-49869819D02*
X101122493Y-50584104D01*
X101122493Y-50584104D02*
X101074874Y-50726961D01*
X101074874Y-50726961D02*
X100979636Y-50822200D01*
X100979636Y-50822200D02*
X100836779Y-50869819D01*
X100836779Y-50869819D02*
X100741541Y-50869819D01*
X102027255Y-50869819D02*
X102027255Y-50346009D01*
X102027255Y-50346009D02*
X101979636Y-50250771D01*
X101979636Y-50250771D02*
X101884398Y-50203152D01*
X101884398Y-50203152D02*
X101693922Y-50203152D01*
X101693922Y-50203152D02*
X101598684Y-50250771D01*
X102027255Y-50822200D02*
X101932017Y-50869819D01*
X101932017Y-50869819D02*
X101693922Y-50869819D01*
X101693922Y-50869819D02*
X101598684Y-50822200D01*
X101598684Y-50822200D02*
X101551065Y-50726961D01*
X101551065Y-50726961D02*
X101551065Y-50631723D01*
X101551065Y-50631723D02*
X101598684Y-50536485D01*
X101598684Y-50536485D02*
X101693922Y-50488866D01*
X101693922Y-50488866D02*
X101932017Y-50488866D01*
X101932017Y-50488866D02*
X102027255Y-50441247D01*
X102503446Y-50869819D02*
X102503446Y-50203152D01*
X102503446Y-50298390D02*
X102551065Y-50250771D01*
X102551065Y-50250771D02*
X102646303Y-50203152D01*
X102646303Y-50203152D02*
X102789160Y-50203152D01*
X102789160Y-50203152D02*
X102884398Y-50250771D01*
X102884398Y-50250771D02*
X102932017Y-50346009D01*
X102932017Y-50346009D02*
X102932017Y-50869819D01*
X102932017Y-50346009D02*
X102979636Y-50250771D01*
X102979636Y-50250771D02*
X103074874Y-50203152D01*
X103074874Y-50203152D02*
X103217731Y-50203152D01*
X103217731Y-50203152D02*
X103312970Y-50250771D01*
X103312970Y-50250771D02*
X103360589Y-50346009D01*
X103360589Y-50346009D02*
X103360589Y-50869819D01*
X104217731Y-50822200D02*
X104122493Y-50869819D01*
X104122493Y-50869819D02*
X103932017Y-50869819D01*
X103932017Y-50869819D02*
X103836779Y-50822200D01*
X103836779Y-50822200D02*
X103789160Y-50726961D01*
X103789160Y-50726961D02*
X103789160Y-50346009D01*
X103789160Y-50346009D02*
X103836779Y-50250771D01*
X103836779Y-50250771D02*
X103932017Y-50203152D01*
X103932017Y-50203152D02*
X104122493Y-50203152D01*
X104122493Y-50203152D02*
X104217731Y-50250771D01*
X104217731Y-50250771D02*
X104265350Y-50346009D01*
X104265350Y-50346009D02*
X104265350Y-50441247D01*
X104265350Y-50441247D02*
X103789160Y-50536485D01*
X104646303Y-50822200D02*
X104741541Y-50869819D01*
X104741541Y-50869819D02*
X104932017Y-50869819D01*
X104932017Y-50869819D02*
X105027255Y-50822200D01*
X105027255Y-50822200D02*
X105074874Y-50726961D01*
X105074874Y-50726961D02*
X105074874Y-50679342D01*
X105074874Y-50679342D02*
X105027255Y-50584104D01*
X105027255Y-50584104D02*
X104932017Y-50536485D01*
X104932017Y-50536485D02*
X104789160Y-50536485D01*
X104789160Y-50536485D02*
X104693922Y-50488866D01*
X104693922Y-50488866D02*
X104646303Y-50393628D01*
X104646303Y-50393628D02*
X104646303Y-50346009D01*
X104646303Y-50346009D02*
X104693922Y-50250771D01*
X104693922Y-50250771D02*
X104789160Y-50203152D01*
X104789160Y-50203152D02*
X104932017Y-50203152D01*
X104932017Y-50203152D02*
X105027255Y-50250771D01*
X105646303Y-50869819D02*
X105551065Y-50822200D01*
X105551065Y-50822200D02*
X105503446Y-50774580D01*
X105503446Y-50774580D02*
X105455827Y-50679342D01*
X105455827Y-50679342D02*
X105455827Y-50393628D01*
X105455827Y-50393628D02*
X105503446Y-50298390D01*
X105503446Y-50298390D02*
X105551065Y-50250771D01*
X105551065Y-50250771D02*
X105646303Y-50203152D01*
X105646303Y-50203152D02*
X105789160Y-50203152D01*
X105789160Y-50203152D02*
X105884398Y-50250771D01*
X105884398Y-50250771D02*
X105932017Y-50298390D01*
X105932017Y-50298390D02*
X105979636Y-50393628D01*
X105979636Y-50393628D02*
X105979636Y-50679342D01*
X105979636Y-50679342D02*
X105932017Y-50774580D01*
X105932017Y-50774580D02*
X105884398Y-50822200D01*
X105884398Y-50822200D02*
X105789160Y-50869819D01*
X105789160Y-50869819D02*
X105646303Y-50869819D01*
X106408208Y-50203152D02*
X106408208Y-50869819D01*
X106408208Y-50298390D02*
X106455827Y-50250771D01*
X106455827Y-50250771D02*
X106551065Y-50203152D01*
X106551065Y-50203152D02*
X106693922Y-50203152D01*
X106693922Y-50203152D02*
X106789160Y-50250771D01*
X106789160Y-50250771D02*
X106836779Y-50346009D01*
X106836779Y-50346009D02*
X106836779Y-50869819D01*
X108027256Y-50822200D02*
X108170113Y-50869819D01*
X108170113Y-50869819D02*
X108408208Y-50869819D01*
X108408208Y-50869819D02*
X108503446Y-50822200D01*
X108503446Y-50822200D02*
X108551065Y-50774580D01*
X108551065Y-50774580D02*
X108598684Y-50679342D01*
X108598684Y-50679342D02*
X108598684Y-50584104D01*
X108598684Y-50584104D02*
X108551065Y-50488866D01*
X108551065Y-50488866D02*
X108503446Y-50441247D01*
X108503446Y-50441247D02*
X108408208Y-50393628D01*
X108408208Y-50393628D02*
X108217732Y-50346009D01*
X108217732Y-50346009D02*
X108122494Y-50298390D01*
X108122494Y-50298390D02*
X108074875Y-50250771D01*
X108074875Y-50250771D02*
X108027256Y-50155533D01*
X108027256Y-50155533D02*
X108027256Y-50060295D01*
X108027256Y-50060295D02*
X108074875Y-49965057D01*
X108074875Y-49965057D02*
X108122494Y-49917438D01*
X108122494Y-49917438D02*
X108217732Y-49869819D01*
X108217732Y-49869819D02*
X108455827Y-49869819D01*
X108455827Y-49869819D02*
X108598684Y-49917438D01*
X108884399Y-50203152D02*
X109265351Y-50203152D01*
X109027256Y-49869819D02*
X109027256Y-50726961D01*
X109027256Y-50726961D02*
X109074875Y-50822200D01*
X109074875Y-50822200D02*
X109170113Y-50869819D01*
X109170113Y-50869819D02*
X109265351Y-50869819D01*
X110027256Y-50869819D02*
X110027256Y-50346009D01*
X110027256Y-50346009D02*
X109979637Y-50250771D01*
X109979637Y-50250771D02*
X109884399Y-50203152D01*
X109884399Y-50203152D02*
X109693923Y-50203152D01*
X109693923Y-50203152D02*
X109598685Y-50250771D01*
X110027256Y-50822200D02*
X109932018Y-50869819D01*
X109932018Y-50869819D02*
X109693923Y-50869819D01*
X109693923Y-50869819D02*
X109598685Y-50822200D01*
X109598685Y-50822200D02*
X109551066Y-50726961D01*
X109551066Y-50726961D02*
X109551066Y-50631723D01*
X109551066Y-50631723D02*
X109598685Y-50536485D01*
X109598685Y-50536485D02*
X109693923Y-50488866D01*
X109693923Y-50488866D02*
X109932018Y-50488866D01*
X109932018Y-50488866D02*
X110027256Y-50441247D01*
X110503447Y-50203152D02*
X110503447Y-50869819D01*
X110503447Y-50298390D02*
X110551066Y-50250771D01*
X110551066Y-50250771D02*
X110646304Y-50203152D01*
X110646304Y-50203152D02*
X110789161Y-50203152D01*
X110789161Y-50203152D02*
X110884399Y-50250771D01*
X110884399Y-50250771D02*
X110932018Y-50346009D01*
X110932018Y-50346009D02*
X110932018Y-50869819D01*
X111551066Y-50869819D02*
X111455828Y-50822200D01*
X111455828Y-50822200D02*
X111408209Y-50726961D01*
X111408209Y-50726961D02*
X111408209Y-49869819D01*
X112312971Y-50822200D02*
X112217733Y-50869819D01*
X112217733Y-50869819D02*
X112027257Y-50869819D01*
X112027257Y-50869819D02*
X111932019Y-50822200D01*
X111932019Y-50822200D02*
X111884400Y-50726961D01*
X111884400Y-50726961D02*
X111884400Y-50346009D01*
X111884400Y-50346009D02*
X111932019Y-50250771D01*
X111932019Y-50250771D02*
X112027257Y-50203152D01*
X112027257Y-50203152D02*
X112217733Y-50203152D01*
X112217733Y-50203152D02*
X112312971Y-50250771D01*
X112312971Y-50250771D02*
X112360590Y-50346009D01*
X112360590Y-50346009D02*
X112360590Y-50441247D01*
X112360590Y-50441247D02*
X111884400Y-50536485D01*
X112693924Y-50203152D02*
X112932019Y-50869819D01*
X113170114Y-50203152D02*
X112932019Y-50869819D01*
X112932019Y-50869819D02*
X112836781Y-51107914D01*
X112836781Y-51107914D02*
X112789162Y-51155533D01*
X112789162Y-51155533D02*
X112693924Y-51203152D01*
X101170112Y-52346009D02*
X100836779Y-52346009D01*
X100836779Y-52869819D02*
X100836779Y-51869819D01*
X100836779Y-51869819D02*
X101312969Y-51869819D01*
X101693922Y-52869819D02*
X101693922Y-52203152D01*
X101693922Y-51869819D02*
X101646303Y-51917438D01*
X101646303Y-51917438D02*
X101693922Y-51965057D01*
X101693922Y-51965057D02*
X101741541Y-51917438D01*
X101741541Y-51917438D02*
X101693922Y-51869819D01*
X101693922Y-51869819D02*
X101693922Y-51965057D01*
X102170112Y-52203152D02*
X102170112Y-52869819D01*
X102170112Y-52298390D02*
X102217731Y-52250771D01*
X102217731Y-52250771D02*
X102312969Y-52203152D01*
X102312969Y-52203152D02*
X102455826Y-52203152D01*
X102455826Y-52203152D02*
X102551064Y-52250771D01*
X102551064Y-52250771D02*
X102598683Y-52346009D01*
X102598683Y-52346009D02*
X102598683Y-52869819D01*
X103503445Y-52869819D02*
X103503445Y-52346009D01*
X103503445Y-52346009D02*
X103455826Y-52250771D01*
X103455826Y-52250771D02*
X103360588Y-52203152D01*
X103360588Y-52203152D02*
X103170112Y-52203152D01*
X103170112Y-52203152D02*
X103074874Y-52250771D01*
X103503445Y-52822200D02*
X103408207Y-52869819D01*
X103408207Y-52869819D02*
X103170112Y-52869819D01*
X103170112Y-52869819D02*
X103074874Y-52822200D01*
X103074874Y-52822200D02*
X103027255Y-52726961D01*
X103027255Y-52726961D02*
X103027255Y-52631723D01*
X103027255Y-52631723D02*
X103074874Y-52536485D01*
X103074874Y-52536485D02*
X103170112Y-52488866D01*
X103170112Y-52488866D02*
X103408207Y-52488866D01*
X103408207Y-52488866D02*
X103503445Y-52441247D01*
X104122493Y-52869819D02*
X104027255Y-52822200D01*
X104027255Y-52822200D02*
X103979636Y-52726961D01*
X103979636Y-52726961D02*
X103979636Y-51869819D01*
X104503446Y-52869819D02*
X104503446Y-51869819D01*
X104503446Y-51869819D02*
X104884398Y-51869819D01*
X104884398Y-51869819D02*
X104979636Y-51917438D01*
X104979636Y-51917438D02*
X105027255Y-51965057D01*
X105027255Y-51965057D02*
X105074874Y-52060295D01*
X105074874Y-52060295D02*
X105074874Y-52203152D01*
X105074874Y-52203152D02*
X105027255Y-52298390D01*
X105027255Y-52298390D02*
X104979636Y-52346009D01*
X104979636Y-52346009D02*
X104884398Y-52393628D01*
X104884398Y-52393628D02*
X104503446Y-52393628D01*
X105503446Y-52869819D02*
X105503446Y-52203152D01*
X105503446Y-52393628D02*
X105551065Y-52298390D01*
X105551065Y-52298390D02*
X105598684Y-52250771D01*
X105598684Y-52250771D02*
X105693922Y-52203152D01*
X105693922Y-52203152D02*
X105789160Y-52203152D01*
X106265351Y-52869819D02*
X106170113Y-52822200D01*
X106170113Y-52822200D02*
X106122494Y-52774580D01*
X106122494Y-52774580D02*
X106074875Y-52679342D01*
X106074875Y-52679342D02*
X106074875Y-52393628D01*
X106074875Y-52393628D02*
X106122494Y-52298390D01*
X106122494Y-52298390D02*
X106170113Y-52250771D01*
X106170113Y-52250771D02*
X106265351Y-52203152D01*
X106265351Y-52203152D02*
X106408208Y-52203152D01*
X106408208Y-52203152D02*
X106503446Y-52250771D01*
X106503446Y-52250771D02*
X106551065Y-52298390D01*
X106551065Y-52298390D02*
X106598684Y-52393628D01*
X106598684Y-52393628D02*
X106598684Y-52679342D01*
X106598684Y-52679342D02*
X106551065Y-52774580D01*
X106551065Y-52774580D02*
X106503446Y-52822200D01*
X106503446Y-52822200D02*
X106408208Y-52869819D01*
X106408208Y-52869819D02*
X106265351Y-52869819D01*
X107027256Y-52203152D02*
X107027256Y-53060295D01*
X107027256Y-53060295D02*
X106979637Y-53155533D01*
X106979637Y-53155533D02*
X106884399Y-53203152D01*
X106884399Y-53203152D02*
X106836780Y-53203152D01*
X107027256Y-51869819D02*
X106979637Y-51917438D01*
X106979637Y-51917438D02*
X107027256Y-51965057D01*
X107027256Y-51965057D02*
X107074875Y-51917438D01*
X107074875Y-51917438D02*
X107027256Y-51869819D01*
X107027256Y-51869819D02*
X107027256Y-51965057D01*
X107884398Y-52822200D02*
X107789160Y-52869819D01*
X107789160Y-52869819D02*
X107598684Y-52869819D01*
X107598684Y-52869819D02*
X107503446Y-52822200D01*
X107503446Y-52822200D02*
X107455827Y-52726961D01*
X107455827Y-52726961D02*
X107455827Y-52346009D01*
X107455827Y-52346009D02*
X107503446Y-52250771D01*
X107503446Y-52250771D02*
X107598684Y-52203152D01*
X107598684Y-52203152D02*
X107789160Y-52203152D01*
X107789160Y-52203152D02*
X107884398Y-52250771D01*
X107884398Y-52250771D02*
X107932017Y-52346009D01*
X107932017Y-52346009D02*
X107932017Y-52441247D01*
X107932017Y-52441247D02*
X107455827Y-52536485D01*
X108789160Y-52822200D02*
X108693922Y-52869819D01*
X108693922Y-52869819D02*
X108503446Y-52869819D01*
X108503446Y-52869819D02*
X108408208Y-52822200D01*
X108408208Y-52822200D02*
X108360589Y-52774580D01*
X108360589Y-52774580D02*
X108312970Y-52679342D01*
X108312970Y-52679342D02*
X108312970Y-52393628D01*
X108312970Y-52393628D02*
X108360589Y-52298390D01*
X108360589Y-52298390D02*
X108408208Y-52250771D01*
X108408208Y-52250771D02*
X108503446Y-52203152D01*
X108503446Y-52203152D02*
X108693922Y-52203152D01*
X108693922Y-52203152D02*
X108789160Y-52250771D01*
X109074875Y-52203152D02*
X109455827Y-52203152D01*
X109217732Y-51869819D02*
X109217732Y-52726961D01*
X109217732Y-52726961D02*
X109265351Y-52822200D01*
X109265351Y-52822200D02*
X109360589Y-52869819D01*
X109360589Y-52869819D02*
X109455827Y-52869819D01*
X109741542Y-52584104D02*
X110217732Y-52584104D01*
X109646304Y-52869819D02*
X109979637Y-51869819D01*
X109979637Y-51869819D02*
X110312970Y-52869819D01*
X110646304Y-52869819D02*
X110646304Y-52203152D01*
X110646304Y-52393628D02*
X110693923Y-52298390D01*
X110693923Y-52298390D02*
X110741542Y-52250771D01*
X110741542Y-52250771D02*
X110836780Y-52203152D01*
X110836780Y-52203152D02*
X110932018Y-52203152D01*
X111693923Y-52869819D02*
X111693923Y-51869819D01*
X111693923Y-52822200D02*
X111598685Y-52869819D01*
X111598685Y-52869819D02*
X111408209Y-52869819D01*
X111408209Y-52869819D02*
X111312971Y-52822200D01*
X111312971Y-52822200D02*
X111265352Y-52774580D01*
X111265352Y-52774580D02*
X111217733Y-52679342D01*
X111217733Y-52679342D02*
X111217733Y-52393628D01*
X111217733Y-52393628D02*
X111265352Y-52298390D01*
X111265352Y-52298390D02*
X111312971Y-52250771D01*
X111312971Y-52250771D02*
X111408209Y-52203152D01*
X111408209Y-52203152D02*
X111598685Y-52203152D01*
X111598685Y-52203152D02*
X111693923Y-52250771D01*
X112598685Y-52203152D02*
X112598685Y-52869819D01*
X112170114Y-52203152D02*
X112170114Y-52726961D01*
X112170114Y-52726961D02*
X112217733Y-52822200D01*
X112217733Y-52822200D02*
X112312971Y-52869819D01*
X112312971Y-52869819D02*
X112455828Y-52869819D01*
X112455828Y-52869819D02*
X112551066Y-52822200D01*
X112551066Y-52822200D02*
X112598685Y-52774580D01*
X113074876Y-52869819D02*
X113074876Y-52203152D01*
X113074876Y-51869819D02*
X113027257Y-51917438D01*
X113027257Y-51917438D02*
X113074876Y-51965057D01*
X113074876Y-51965057D02*
X113122495Y-51917438D01*
X113122495Y-51917438D02*
X113074876Y-51869819D01*
X113074876Y-51869819D02*
X113074876Y-51965057D01*
X113551066Y-52203152D02*
X113551066Y-52869819D01*
X113551066Y-52298390D02*
X113598685Y-52250771D01*
X113598685Y-52250771D02*
X113693923Y-52203152D01*
X113693923Y-52203152D02*
X113836780Y-52203152D01*
X113836780Y-52203152D02*
X113932018Y-52250771D01*
X113932018Y-52250771D02*
X113979637Y-52346009D01*
X113979637Y-52346009D02*
X113979637Y-52869819D01*
X114598685Y-52869819D02*
X114503447Y-52822200D01*
X114503447Y-52822200D02*
X114455828Y-52774580D01*
X114455828Y-52774580D02*
X114408209Y-52679342D01*
X114408209Y-52679342D02*
X114408209Y-52393628D01*
X114408209Y-52393628D02*
X114455828Y-52298390D01*
X114455828Y-52298390D02*
X114503447Y-52250771D01*
X114503447Y-52250771D02*
X114598685Y-52203152D01*
X114598685Y-52203152D02*
X114741542Y-52203152D01*
X114741542Y-52203152D02*
X114836780Y-52250771D01*
X114836780Y-52250771D02*
X114884399Y-52298390D01*
X114884399Y-52298390D02*
X114932018Y-52393628D01*
X114932018Y-52393628D02*
X114932018Y-52679342D01*
X114932018Y-52679342D02*
X114884399Y-52774580D01*
X114884399Y-52774580D02*
X114836780Y-52822200D01*
X114836780Y-52822200D02*
X114741542Y-52869819D01*
X114741542Y-52869819D02*
X114598685Y-52869819D01*
X115312971Y-52822200D02*
X115455828Y-52869819D01*
X115455828Y-52869819D02*
X115693923Y-52869819D01*
X115693923Y-52869819D02*
X115789161Y-52822200D01*
X115789161Y-52822200D02*
X115836780Y-52774580D01*
X115836780Y-52774580D02*
X115884399Y-52679342D01*
X115884399Y-52679342D02*
X115884399Y-52584104D01*
X115884399Y-52584104D02*
X115836780Y-52488866D01*
X115836780Y-52488866D02*
X115789161Y-52441247D01*
X115789161Y-52441247D02*
X115693923Y-52393628D01*
X115693923Y-52393628D02*
X115503447Y-52346009D01*
X115503447Y-52346009D02*
X115408209Y-52298390D01*
X115408209Y-52298390D02*
X115360590Y-52250771D01*
X115360590Y-52250771D02*
X115312971Y-52155533D01*
X115312971Y-52155533D02*
X115312971Y-52060295D01*
X115312971Y-52060295D02*
X115360590Y-51965057D01*
X115360590Y-51965057D02*
X115408209Y-51917438D01*
X115408209Y-51917438D02*
X115503447Y-51869819D01*
X115503447Y-51869819D02*
X115741542Y-51869819D01*
X115741542Y-51869819D02*
X115884399Y-51917438D01*
X116312971Y-52869819D02*
X116312971Y-51869819D01*
X116741542Y-52869819D02*
X116741542Y-52346009D01*
X116741542Y-52346009D02*
X116693923Y-52250771D01*
X116693923Y-52250771D02*
X116598685Y-52203152D01*
X116598685Y-52203152D02*
X116455828Y-52203152D01*
X116455828Y-52203152D02*
X116360590Y-52250771D01*
X116360590Y-52250771D02*
X116312971Y-52298390D01*
X117598685Y-52822200D02*
X117503447Y-52869819D01*
X117503447Y-52869819D02*
X117312971Y-52869819D01*
X117312971Y-52869819D02*
X117217733Y-52822200D01*
X117217733Y-52822200D02*
X117170114Y-52726961D01*
X117170114Y-52726961D02*
X117170114Y-52346009D01*
X117170114Y-52346009D02*
X117217733Y-52250771D01*
X117217733Y-52250771D02*
X117312971Y-52203152D01*
X117312971Y-52203152D02*
X117503447Y-52203152D01*
X117503447Y-52203152D02*
X117598685Y-52250771D01*
X117598685Y-52250771D02*
X117646304Y-52346009D01*
X117646304Y-52346009D02*
X117646304Y-52441247D01*
X117646304Y-52441247D02*
X117170114Y-52536485D01*
X118074876Y-52869819D02*
X118074876Y-52203152D01*
X118074876Y-51869819D02*
X118027257Y-51917438D01*
X118027257Y-51917438D02*
X118074876Y-51965057D01*
X118074876Y-51965057D02*
X118122495Y-51917438D01*
X118122495Y-51917438D02*
X118074876Y-51869819D01*
X118074876Y-51869819D02*
X118074876Y-51965057D01*
X118693923Y-52869819D02*
X118598685Y-52822200D01*
X118598685Y-52822200D02*
X118551066Y-52726961D01*
X118551066Y-52726961D02*
X118551066Y-51869819D01*
X119503447Y-52869819D02*
X119503447Y-51869819D01*
X119503447Y-52822200D02*
X119408209Y-52869819D01*
X119408209Y-52869819D02*
X119217733Y-52869819D01*
X119217733Y-52869819D02*
X119122495Y-52822200D01*
X119122495Y-52822200D02*
X119074876Y-52774580D01*
X119074876Y-52774580D02*
X119027257Y-52679342D01*
X119027257Y-52679342D02*
X119027257Y-52393628D01*
X119027257Y-52393628D02*
X119074876Y-52298390D01*
X119074876Y-52298390D02*
X119122495Y-52250771D01*
X119122495Y-52250771D02*
X119217733Y-52203152D01*
X119217733Y-52203152D02*
X119408209Y-52203152D01*
X119408209Y-52203152D02*
X119503447Y-52250771D01*
X101408207Y-54869819D02*
X101074874Y-54393628D01*
X100836779Y-54869819D02*
X100836779Y-53869819D01*
X100836779Y-53869819D02*
X101217731Y-53869819D01*
X101217731Y-53869819D02*
X101312969Y-53917438D01*
X101312969Y-53917438D02*
X101360588Y-53965057D01*
X101360588Y-53965057D02*
X101408207Y-54060295D01*
X101408207Y-54060295D02*
X101408207Y-54203152D01*
X101408207Y-54203152D02*
X101360588Y-54298390D01*
X101360588Y-54298390D02*
X101312969Y-54346009D01*
X101312969Y-54346009D02*
X101217731Y-54393628D01*
X101217731Y-54393628D02*
X100836779Y-54393628D01*
X102217731Y-54822200D02*
X102122493Y-54869819D01*
X102122493Y-54869819D02*
X101932017Y-54869819D01*
X101932017Y-54869819D02*
X101836779Y-54822200D01*
X101836779Y-54822200D02*
X101789160Y-54726961D01*
X101789160Y-54726961D02*
X101789160Y-54346009D01*
X101789160Y-54346009D02*
X101836779Y-54250771D01*
X101836779Y-54250771D02*
X101932017Y-54203152D01*
X101932017Y-54203152D02*
X102122493Y-54203152D01*
X102122493Y-54203152D02*
X102217731Y-54250771D01*
X102217731Y-54250771D02*
X102265350Y-54346009D01*
X102265350Y-54346009D02*
X102265350Y-54441247D01*
X102265350Y-54441247D02*
X101789160Y-54536485D01*
X102598684Y-54203152D02*
X102836779Y-54869819D01*
X102836779Y-54869819D02*
X103074874Y-54203152D01*
X104741541Y-54869819D02*
X104170113Y-54869819D01*
X104455827Y-54869819D02*
X104455827Y-53869819D01*
X104455827Y-53869819D02*
X104360589Y-54012676D01*
X104360589Y-54012676D02*
X104265351Y-54107914D01*
X104265351Y-54107914D02*
X104170113Y-54155533D01*
X105170113Y-54774580D02*
X105217732Y-54822200D01*
X105217732Y-54822200D02*
X105170113Y-54869819D01*
X105170113Y-54869819D02*
X105122494Y-54822200D01*
X105122494Y-54822200D02*
X105170113Y-54774580D01*
X105170113Y-54774580D02*
X105170113Y-54869819D01*
X106170112Y-54869819D02*
X105598684Y-54869819D01*
X105884398Y-54869819D02*
X105884398Y-53869819D01*
X105884398Y-53869819D02*
X105789160Y-54012676D01*
X105789160Y-54012676D02*
X105693922Y-54107914D01*
X105693922Y-54107914D02*
X105598684Y-54155533D01*
X154074819Y-55666666D02*
X153598628Y-55999999D01*
X154074819Y-56238094D02*
X153074819Y-56238094D01*
X153074819Y-56238094D02*
X153074819Y-55857142D01*
X153074819Y-55857142D02*
X153122438Y-55761904D01*
X153122438Y-55761904D02*
X153170057Y-55714285D01*
X153170057Y-55714285D02*
X153265295Y-55666666D01*
X153265295Y-55666666D02*
X153408152Y-55666666D01*
X153408152Y-55666666D02*
X153503390Y-55714285D01*
X153503390Y-55714285D02*
X153551009Y-55761904D01*
X153551009Y-55761904D02*
X153598628Y-55857142D01*
X153598628Y-55857142D02*
X153598628Y-56238094D01*
X153074819Y-55333332D02*
X153074819Y-54714285D01*
X153074819Y-54714285D02*
X153455771Y-55047618D01*
X153455771Y-55047618D02*
X153455771Y-54904761D01*
X153455771Y-54904761D02*
X153503390Y-54809523D01*
X153503390Y-54809523D02*
X153551009Y-54761904D01*
X153551009Y-54761904D02*
X153646247Y-54714285D01*
X153646247Y-54714285D02*
X153884342Y-54714285D01*
X153884342Y-54714285D02*
X153979580Y-54761904D01*
X153979580Y-54761904D02*
X154027200Y-54809523D01*
X154027200Y-54809523D02*
X154074819Y-54904761D01*
X154074819Y-54904761D02*
X154074819Y-55190475D01*
X154074819Y-55190475D02*
X154027200Y-55285713D01*
X154027200Y-55285713D02*
X153979580Y-55333332D01*
X157224819Y-55666666D02*
X156748628Y-55999999D01*
X157224819Y-56238094D02*
X156224819Y-56238094D01*
X156224819Y-56238094D02*
X156224819Y-55857142D01*
X156224819Y-55857142D02*
X156272438Y-55761904D01*
X156272438Y-55761904D02*
X156320057Y-55714285D01*
X156320057Y-55714285D02*
X156415295Y-55666666D01*
X156415295Y-55666666D02*
X156558152Y-55666666D01*
X156558152Y-55666666D02*
X156653390Y-55714285D01*
X156653390Y-55714285D02*
X156701009Y-55761904D01*
X156701009Y-55761904D02*
X156748628Y-55857142D01*
X156748628Y-55857142D02*
X156748628Y-56238094D01*
X156320057Y-55285713D02*
X156272438Y-55238094D01*
X156272438Y-55238094D02*
X156224819Y-55142856D01*
X156224819Y-55142856D02*
X156224819Y-54904761D01*
X156224819Y-54904761D02*
X156272438Y-54809523D01*
X156272438Y-54809523D02*
X156320057Y-54761904D01*
X156320057Y-54761904D02*
X156415295Y-54714285D01*
X156415295Y-54714285D02*
X156510533Y-54714285D01*
X156510533Y-54714285D02*
X156653390Y-54761904D01*
X156653390Y-54761904D02*
X157224819Y-55333332D01*
X157224819Y-55333332D02*
X157224819Y-54714285D01*
X114453095Y-96099819D02*
X114453095Y-96909342D01*
X114453095Y-96909342D02*
X114500714Y-97004580D01*
X114500714Y-97004580D02*
X114548333Y-97052200D01*
X114548333Y-97052200D02*
X114643571Y-97099819D01*
X114643571Y-97099819D02*
X114834047Y-97099819D01*
X114834047Y-97099819D02*
X114929285Y-97052200D01*
X114929285Y-97052200D02*
X114976904Y-97004580D01*
X114976904Y-97004580D02*
X115024523Y-96909342D01*
X115024523Y-96909342D02*
X115024523Y-96099819D01*
X115405476Y-96099819D02*
X116024523Y-96099819D01*
X116024523Y-96099819D02*
X115691190Y-96480771D01*
X115691190Y-96480771D02*
X115834047Y-96480771D01*
X115834047Y-96480771D02*
X115929285Y-96528390D01*
X115929285Y-96528390D02*
X115976904Y-96576009D01*
X115976904Y-96576009D02*
X116024523Y-96671247D01*
X116024523Y-96671247D02*
X116024523Y-96909342D01*
X116024523Y-96909342D02*
X115976904Y-97004580D01*
X115976904Y-97004580D02*
X115929285Y-97052200D01*
X115929285Y-97052200D02*
X115834047Y-97099819D01*
X115834047Y-97099819D02*
X115548333Y-97099819D01*
X115548333Y-97099819D02*
X115453095Y-97052200D01*
X115453095Y-97052200D02*
X115405476Y-97004580D01*
X156371905Y-61994819D02*
X156371905Y-60994819D01*
X156371905Y-60994819D02*
X156610000Y-60994819D01*
X156610000Y-60994819D02*
X156752857Y-61042438D01*
X156752857Y-61042438D02*
X156848095Y-61137676D01*
X156848095Y-61137676D02*
X156895714Y-61232914D01*
X156895714Y-61232914D02*
X156943333Y-61423390D01*
X156943333Y-61423390D02*
X156943333Y-61566247D01*
X156943333Y-61566247D02*
X156895714Y-61756723D01*
X156895714Y-61756723D02*
X156848095Y-61851961D01*
X156848095Y-61851961D02*
X156752857Y-61947200D01*
X156752857Y-61947200D02*
X156610000Y-61994819D01*
X156610000Y-61994819D02*
X156371905Y-61994819D01*
X157895714Y-61994819D02*
X157324286Y-61994819D01*
X157610000Y-61994819D02*
X157610000Y-60994819D01*
X157610000Y-60994819D02*
X157514762Y-61137676D01*
X157514762Y-61137676D02*
X157419524Y-61232914D01*
X157419524Y-61232914D02*
X157324286Y-61280533D01*
X118981905Y-61994819D02*
X118981905Y-60994819D01*
X118981905Y-60994819D02*
X119220000Y-60994819D01*
X119220000Y-60994819D02*
X119362857Y-61042438D01*
X119362857Y-61042438D02*
X119458095Y-61137676D01*
X119458095Y-61137676D02*
X119505714Y-61232914D01*
X119505714Y-61232914D02*
X119553333Y-61423390D01*
X119553333Y-61423390D02*
X119553333Y-61566247D01*
X119553333Y-61566247D02*
X119505714Y-61756723D01*
X119505714Y-61756723D02*
X119458095Y-61851961D01*
X119458095Y-61851961D02*
X119362857Y-61947200D01*
X119362857Y-61947200D02*
X119220000Y-61994819D01*
X119220000Y-61994819D02*
X118981905Y-61994819D01*
X120410476Y-60994819D02*
X120220000Y-60994819D01*
X120220000Y-60994819D02*
X120124762Y-61042438D01*
X120124762Y-61042438D02*
X120077143Y-61090057D01*
X120077143Y-61090057D02*
X119981905Y-61232914D01*
X119981905Y-61232914D02*
X119934286Y-61423390D01*
X119934286Y-61423390D02*
X119934286Y-61804342D01*
X119934286Y-61804342D02*
X119981905Y-61899580D01*
X119981905Y-61899580D02*
X120029524Y-61947200D01*
X120029524Y-61947200D02*
X120124762Y-61994819D01*
X120124762Y-61994819D02*
X120315238Y-61994819D01*
X120315238Y-61994819D02*
X120410476Y-61947200D01*
X120410476Y-61947200D02*
X120458095Y-61899580D01*
X120458095Y-61899580D02*
X120505714Y-61804342D01*
X120505714Y-61804342D02*
X120505714Y-61566247D01*
X120505714Y-61566247D02*
X120458095Y-61471009D01*
X120458095Y-61471009D02*
X120410476Y-61423390D01*
X120410476Y-61423390D02*
X120315238Y-61375771D01*
X120315238Y-61375771D02*
X120124762Y-61375771D01*
X120124762Y-61375771D02*
X120029524Y-61423390D01*
X120029524Y-61423390D02*
X119981905Y-61471009D01*
X119981905Y-61471009D02*
X119934286Y-61566247D01*
X148901905Y-61994819D02*
X148901905Y-60994819D01*
X148901905Y-60994819D02*
X149140000Y-60994819D01*
X149140000Y-60994819D02*
X149282857Y-61042438D01*
X149282857Y-61042438D02*
X149378095Y-61137676D01*
X149378095Y-61137676D02*
X149425714Y-61232914D01*
X149425714Y-61232914D02*
X149473333Y-61423390D01*
X149473333Y-61423390D02*
X149473333Y-61566247D01*
X149473333Y-61566247D02*
X149425714Y-61756723D01*
X149425714Y-61756723D02*
X149378095Y-61851961D01*
X149378095Y-61851961D02*
X149282857Y-61947200D01*
X149282857Y-61947200D02*
X149140000Y-61994819D01*
X149140000Y-61994819D02*
X148901905Y-61994819D01*
X149854286Y-61090057D02*
X149901905Y-61042438D01*
X149901905Y-61042438D02*
X149997143Y-60994819D01*
X149997143Y-60994819D02*
X150235238Y-60994819D01*
X150235238Y-60994819D02*
X150330476Y-61042438D01*
X150330476Y-61042438D02*
X150378095Y-61090057D01*
X150378095Y-61090057D02*
X150425714Y-61185295D01*
X150425714Y-61185295D02*
X150425714Y-61280533D01*
X150425714Y-61280533D02*
X150378095Y-61423390D01*
X150378095Y-61423390D02*
X149806667Y-61994819D01*
X149806667Y-61994819D02*
X150425714Y-61994819D01*
X158433095Y-95364819D02*
X158433095Y-96174342D01*
X158433095Y-96174342D02*
X158480714Y-96269580D01*
X158480714Y-96269580D02*
X158528333Y-96317200D01*
X158528333Y-96317200D02*
X158623571Y-96364819D01*
X158623571Y-96364819D02*
X158814047Y-96364819D01*
X158814047Y-96364819D02*
X158909285Y-96317200D01*
X158909285Y-96317200D02*
X158956904Y-96269580D01*
X158956904Y-96269580D02*
X159004523Y-96174342D01*
X159004523Y-96174342D02*
X159004523Y-95364819D01*
X160004523Y-96364819D02*
X159433095Y-96364819D01*
X159718809Y-96364819D02*
X159718809Y-95364819D01*
X159718809Y-95364819D02*
X159623571Y-95507676D01*
X159623571Y-95507676D02*
X159528333Y-95602914D01*
X159528333Y-95602914D02*
X159433095Y-95650533D01*
X150924819Y-55666666D02*
X150448628Y-55999999D01*
X150924819Y-56238094D02*
X149924819Y-56238094D01*
X149924819Y-56238094D02*
X149924819Y-55857142D01*
X149924819Y-55857142D02*
X149972438Y-55761904D01*
X149972438Y-55761904D02*
X150020057Y-55714285D01*
X150020057Y-55714285D02*
X150115295Y-55666666D01*
X150115295Y-55666666D02*
X150258152Y-55666666D01*
X150258152Y-55666666D02*
X150353390Y-55714285D01*
X150353390Y-55714285D02*
X150401009Y-55761904D01*
X150401009Y-55761904D02*
X150448628Y-55857142D01*
X150448628Y-55857142D02*
X150448628Y-56238094D01*
X150258152Y-54809523D02*
X150924819Y-54809523D01*
X149877200Y-55047618D02*
X150591485Y-55285713D01*
X150591485Y-55285713D02*
X150591485Y-54666666D01*
X126491905Y-61994819D02*
X126491905Y-60994819D01*
X126491905Y-60994819D02*
X126730000Y-60994819D01*
X126730000Y-60994819D02*
X126872857Y-61042438D01*
X126872857Y-61042438D02*
X126968095Y-61137676D01*
X126968095Y-61137676D02*
X127015714Y-61232914D01*
X127015714Y-61232914D02*
X127063333Y-61423390D01*
X127063333Y-61423390D02*
X127063333Y-61566247D01*
X127063333Y-61566247D02*
X127015714Y-61756723D01*
X127015714Y-61756723D02*
X126968095Y-61851961D01*
X126968095Y-61851961D02*
X126872857Y-61947200D01*
X126872857Y-61947200D02*
X126730000Y-61994819D01*
X126730000Y-61994819D02*
X126491905Y-61994819D01*
X127968095Y-60994819D02*
X127491905Y-60994819D01*
X127491905Y-60994819D02*
X127444286Y-61471009D01*
X127444286Y-61471009D02*
X127491905Y-61423390D01*
X127491905Y-61423390D02*
X127587143Y-61375771D01*
X127587143Y-61375771D02*
X127825238Y-61375771D01*
X127825238Y-61375771D02*
X127920476Y-61423390D01*
X127920476Y-61423390D02*
X127968095Y-61471009D01*
X127968095Y-61471009D02*
X128015714Y-61566247D01*
X128015714Y-61566247D02*
X128015714Y-61804342D01*
X128015714Y-61804342D02*
X127968095Y-61899580D01*
X127968095Y-61899580D02*
X127920476Y-61947200D01*
X127920476Y-61947200D02*
X127825238Y-61994819D01*
X127825238Y-61994819D02*
X127587143Y-61994819D01*
X127587143Y-61994819D02*
X127491905Y-61947200D01*
X127491905Y-61947200D02*
X127444286Y-61899580D01*
X160374819Y-55666666D02*
X159898628Y-55999999D01*
X160374819Y-56238094D02*
X159374819Y-56238094D01*
X159374819Y-56238094D02*
X159374819Y-55857142D01*
X159374819Y-55857142D02*
X159422438Y-55761904D01*
X159422438Y-55761904D02*
X159470057Y-55714285D01*
X159470057Y-55714285D02*
X159565295Y-55666666D01*
X159565295Y-55666666D02*
X159708152Y-55666666D01*
X159708152Y-55666666D02*
X159803390Y-55714285D01*
X159803390Y-55714285D02*
X159851009Y-55761904D01*
X159851009Y-55761904D02*
X159898628Y-55857142D01*
X159898628Y-55857142D02*
X159898628Y-56238094D01*
X160374819Y-54714285D02*
X160374819Y-55285713D01*
X160374819Y-54999999D02*
X159374819Y-54999999D01*
X159374819Y-54999999D02*
X159517676Y-55095237D01*
X159517676Y-55095237D02*
X159612914Y-55190475D01*
X159612914Y-55190475D02*
X159660533Y-55285713D01*
X147774819Y-55666666D02*
X147298628Y-55999999D01*
X147774819Y-56238094D02*
X146774819Y-56238094D01*
X146774819Y-56238094D02*
X146774819Y-55857142D01*
X146774819Y-55857142D02*
X146822438Y-55761904D01*
X146822438Y-55761904D02*
X146870057Y-55714285D01*
X146870057Y-55714285D02*
X146965295Y-55666666D01*
X146965295Y-55666666D02*
X147108152Y-55666666D01*
X147108152Y-55666666D02*
X147203390Y-55714285D01*
X147203390Y-55714285D02*
X147251009Y-55761904D01*
X147251009Y-55761904D02*
X147298628Y-55857142D01*
X147298628Y-55857142D02*
X147298628Y-56238094D01*
X146774819Y-54761904D02*
X146774819Y-55238094D01*
X146774819Y-55238094D02*
X147251009Y-55285713D01*
X147251009Y-55285713D02*
X147203390Y-55238094D01*
X147203390Y-55238094D02*
X147155771Y-55142856D01*
X147155771Y-55142856D02*
X147155771Y-54904761D01*
X147155771Y-54904761D02*
X147203390Y-54809523D01*
X147203390Y-54809523D02*
X147251009Y-54761904D01*
X147251009Y-54761904D02*
X147346247Y-54714285D01*
X147346247Y-54714285D02*
X147584342Y-54714285D01*
X147584342Y-54714285D02*
X147679580Y-54761904D01*
X147679580Y-54761904D02*
X147727200Y-54809523D01*
X147727200Y-54809523D02*
X147774819Y-54904761D01*
X147774819Y-54904761D02*
X147774819Y-55142856D01*
X147774819Y-55142856D02*
X147727200Y-55238094D01*
X147727200Y-55238094D02*
X147679580Y-55285713D01*
X144624819Y-55666666D02*
X144148628Y-55999999D01*
X144624819Y-56238094D02*
X143624819Y-56238094D01*
X143624819Y-56238094D02*
X143624819Y-55857142D01*
X143624819Y-55857142D02*
X143672438Y-55761904D01*
X143672438Y-55761904D02*
X143720057Y-55714285D01*
X143720057Y-55714285D02*
X143815295Y-55666666D01*
X143815295Y-55666666D02*
X143958152Y-55666666D01*
X143958152Y-55666666D02*
X144053390Y-55714285D01*
X144053390Y-55714285D02*
X144101009Y-55761904D01*
X144101009Y-55761904D02*
X144148628Y-55857142D01*
X144148628Y-55857142D02*
X144148628Y-56238094D01*
X143624819Y-54809523D02*
X143624819Y-54999999D01*
X143624819Y-54999999D02*
X143672438Y-55095237D01*
X143672438Y-55095237D02*
X143720057Y-55142856D01*
X143720057Y-55142856D02*
X143862914Y-55238094D01*
X143862914Y-55238094D02*
X144053390Y-55285713D01*
X144053390Y-55285713D02*
X144434342Y-55285713D01*
X144434342Y-55285713D02*
X144529580Y-55238094D01*
X144529580Y-55238094D02*
X144577200Y-55190475D01*
X144577200Y-55190475D02*
X144624819Y-55095237D01*
X144624819Y-55095237D02*
X144624819Y-54904761D01*
X144624819Y-54904761D02*
X144577200Y-54809523D01*
X144577200Y-54809523D02*
X144529580Y-54761904D01*
X144529580Y-54761904D02*
X144434342Y-54714285D01*
X144434342Y-54714285D02*
X144196247Y-54714285D01*
X144196247Y-54714285D02*
X144101009Y-54761904D01*
X144101009Y-54761904D02*
X144053390Y-54809523D01*
X144053390Y-54809523D02*
X144005771Y-54904761D01*
X144005771Y-54904761D02*
X144005771Y-55095237D01*
X144005771Y-55095237D02*
X144053390Y-55190475D01*
X144053390Y-55190475D02*
X144101009Y-55238094D01*
X144101009Y-55238094D02*
X144196247Y-55285713D01*
X125113095Y-74969819D02*
X125113095Y-75779342D01*
X125113095Y-75779342D02*
X125160714Y-75874580D01*
X125160714Y-75874580D02*
X125208333Y-75922200D01*
X125208333Y-75922200D02*
X125303571Y-75969819D01*
X125303571Y-75969819D02*
X125494047Y-75969819D01*
X125494047Y-75969819D02*
X125589285Y-75922200D01*
X125589285Y-75922200D02*
X125636904Y-75874580D01*
X125636904Y-75874580D02*
X125684523Y-75779342D01*
X125684523Y-75779342D02*
X125684523Y-74969819D01*
X126589285Y-75303152D02*
X126589285Y-75969819D01*
X126351190Y-74922200D02*
X126113095Y-75636485D01*
X126113095Y-75636485D02*
X126732142Y-75636485D01*
X119873095Y-53279819D02*
X119873095Y-54089342D01*
X119873095Y-54089342D02*
X119920714Y-54184580D01*
X119920714Y-54184580D02*
X119968333Y-54232200D01*
X119968333Y-54232200D02*
X120063571Y-54279819D01*
X120063571Y-54279819D02*
X120254047Y-54279819D01*
X120254047Y-54279819D02*
X120349285Y-54232200D01*
X120349285Y-54232200D02*
X120396904Y-54184580D01*
X120396904Y-54184580D02*
X120444523Y-54089342D01*
X120444523Y-54089342D02*
X120444523Y-53279819D01*
X120873095Y-53375057D02*
X120920714Y-53327438D01*
X120920714Y-53327438D02*
X121015952Y-53279819D01*
X121015952Y-53279819D02*
X121254047Y-53279819D01*
X121254047Y-53279819D02*
X121349285Y-53327438D01*
X121349285Y-53327438D02*
X121396904Y-53375057D01*
X121396904Y-53375057D02*
X121444523Y-53470295D01*
X121444523Y-53470295D02*
X121444523Y-53565533D01*
X121444523Y-53565533D02*
X121396904Y-53708390D01*
X121396904Y-53708390D02*
X120825476Y-54279819D01*
X120825476Y-54279819D02*
X121444523Y-54279819D01*
X133961905Y-61994819D02*
X133961905Y-60994819D01*
X133961905Y-60994819D02*
X134200000Y-60994819D01*
X134200000Y-60994819D02*
X134342857Y-61042438D01*
X134342857Y-61042438D02*
X134438095Y-61137676D01*
X134438095Y-61137676D02*
X134485714Y-61232914D01*
X134485714Y-61232914D02*
X134533333Y-61423390D01*
X134533333Y-61423390D02*
X134533333Y-61566247D01*
X134533333Y-61566247D02*
X134485714Y-61756723D01*
X134485714Y-61756723D02*
X134438095Y-61851961D01*
X134438095Y-61851961D02*
X134342857Y-61947200D01*
X134342857Y-61947200D02*
X134200000Y-61994819D01*
X134200000Y-61994819D02*
X133961905Y-61994819D01*
X135390476Y-61328152D02*
X135390476Y-61994819D01*
X135152381Y-60947200D02*
X134914286Y-61661485D01*
X134914286Y-61661485D02*
X135533333Y-61661485D01*
X141431905Y-61994819D02*
X141431905Y-60994819D01*
X141431905Y-60994819D02*
X141670000Y-60994819D01*
X141670000Y-60994819D02*
X141812857Y-61042438D01*
X141812857Y-61042438D02*
X141908095Y-61137676D01*
X141908095Y-61137676D02*
X141955714Y-61232914D01*
X141955714Y-61232914D02*
X142003333Y-61423390D01*
X142003333Y-61423390D02*
X142003333Y-61566247D01*
X142003333Y-61566247D02*
X141955714Y-61756723D01*
X141955714Y-61756723D02*
X141908095Y-61851961D01*
X141908095Y-61851961D02*
X141812857Y-61947200D01*
X141812857Y-61947200D02*
X141670000Y-61994819D01*
X141670000Y-61994819D02*
X141431905Y-61994819D01*
X142336667Y-60994819D02*
X142955714Y-60994819D01*
X142955714Y-60994819D02*
X142622381Y-61375771D01*
X142622381Y-61375771D02*
X142765238Y-61375771D01*
X142765238Y-61375771D02*
X142860476Y-61423390D01*
X142860476Y-61423390D02*
X142908095Y-61471009D01*
X142908095Y-61471009D02*
X142955714Y-61566247D01*
X142955714Y-61566247D02*
X142955714Y-61804342D01*
X142955714Y-61804342D02*
X142908095Y-61899580D01*
X142908095Y-61899580D02*
X142860476Y-61947200D01*
X142860476Y-61947200D02*
X142765238Y-61994819D01*
X142765238Y-61994819D02*
X142479524Y-61994819D01*
X142479524Y-61994819D02*
X142384286Y-61947200D01*
X142384286Y-61947200D02*
X142336667Y-61899580D01*
D11*
%TO.C,J1*%
X126610000Y-96130000D02*
X127940000Y-96130000D01*
X126610000Y-97460000D02*
X126610000Y-96130000D01*
X129210000Y-96130000D02*
X147050000Y-96130000D01*
X129210000Y-98790000D02*
X129210000Y-96130000D01*
X129210000Y-98790000D02*
X147050000Y-98790000D01*
X147050000Y-98790000D02*
X147050000Y-96130000D01*
%TO.C,J3*%
X149470000Y-96130000D02*
X150800000Y-96130000D01*
X149470000Y-97460000D02*
X149470000Y-96130000D01*
X152070000Y-96130000D02*
X164830000Y-96130000D01*
X152070000Y-98790000D02*
X152070000Y-96130000D01*
X152070000Y-98790000D02*
X164830000Y-98790000D01*
X164830000Y-98790000D02*
X164830000Y-96130000D01*
%TO.C,J2*%
X117466000Y-47870000D02*
X118796000Y-47870000D01*
X117466000Y-49200000D02*
X117466000Y-47870000D01*
X120066000Y-47870000D02*
X142986000Y-47870000D01*
X120066000Y-50530000D02*
X120066000Y-47870000D01*
X120066000Y-50530000D02*
X142986000Y-50530000D01*
X142986000Y-50530000D02*
X142986000Y-47870000D01*
%TO.C,J4*%
X144390000Y-47870000D02*
X145720000Y-47870000D01*
X144390000Y-49200000D02*
X144390000Y-47870000D01*
X146990000Y-47870000D02*
X164830000Y-47870000D01*
X146990000Y-50530000D02*
X146990000Y-47870000D01*
X146990000Y-50530000D02*
X164830000Y-50530000D01*
X164830000Y-50530000D02*
X164830000Y-47870000D01*
%TO.C,R3*%
X150780000Y-53580000D02*
X150780000Y-57420000D01*
X152620000Y-53580000D02*
X152620000Y-57420000D01*
%TO.C,R2*%
X153930000Y-53580000D02*
X153930000Y-57420000D01*
X155770000Y-53580000D02*
X155770000Y-57420000D01*
D12*
%TO.C,U3*%
X100610000Y-76460000D02*
X118390000Y-76460000D01*
X100610000Y-95510000D02*
X100610000Y-76460000D01*
X118390000Y-76460000D02*
X118390000Y-95510000D01*
X118390000Y-95510000D02*
X100610000Y-95510000D01*
D13*
X119090000Y-79000000D02*
G75*
G02*
X118890000Y-79000000I-100000J0D01*
G01*
X118890000Y-79000000D02*
G75*
G02*
X119090000Y-79000000I100000J0D01*
G01*
D11*
%TO.C,D1*%
X154550000Y-63955000D02*
X154550000Y-67045000D01*
X154550000Y-63955170D02*
G75*
G02*
X160100000Y-65499952I2560000J-1544830D01*
G01*
X160100000Y-65500048D02*
G75*
G02*
X154550000Y-67044830I-2990000J48D01*
G01*
X159610000Y-65500000D02*
G75*
G02*
X154610000Y-65500000I-2500000J0D01*
G01*
X154610000Y-65500000D02*
G75*
G02*
X159610000Y-65500000I2500000J0D01*
G01*
%TO.C,D6*%
X117160000Y-63955000D02*
X117160000Y-67045000D01*
X117160000Y-63955170D02*
G75*
G02*
X122710000Y-65499952I2560000J-1544830D01*
G01*
X122710000Y-65500048D02*
G75*
G02*
X117160000Y-67044830I-2990000J48D01*
G01*
X122220000Y-65500000D02*
G75*
G02*
X117220000Y-65500000I-2500000J0D01*
G01*
X117220000Y-65500000D02*
G75*
G02*
X122220000Y-65500000I2500000J0D01*
G01*
%TO.C,D2*%
X147080000Y-63955000D02*
X147080000Y-67045000D01*
X147080000Y-63955170D02*
G75*
G02*
X152630000Y-65499952I2560000J-1544830D01*
G01*
X152630000Y-65500048D02*
G75*
G02*
X147080000Y-67044830I-2990000J48D01*
G01*
X152140000Y-65500000D02*
G75*
G02*
X147140000Y-65500000I-2500000J0D01*
G01*
X147140000Y-65500000D02*
G75*
G02*
X152140000Y-65500000I2500000J0D01*
G01*
D12*
%TO.C,U1*%
X146880000Y-74975000D02*
X162120000Y-74975000D01*
X146880000Y-94025000D02*
X146880000Y-74975000D01*
X162120000Y-74975000D02*
X162120000Y-94025000D01*
X162120000Y-94025000D02*
X146880000Y-94025000D01*
D13*
X146230000Y-76245000D02*
G75*
G02*
X146030000Y-76245000I-100000J0D01*
G01*
X146030000Y-76245000D02*
G75*
G02*
X146230000Y-76245000I100000J0D01*
G01*
D11*
%TO.C,R4*%
X147630000Y-53580000D02*
X147630000Y-57420000D01*
X149470000Y-53580000D02*
X149470000Y-57420000D01*
%TO.C,D5*%
X124670000Y-63955000D02*
X124670000Y-67045000D01*
X124670000Y-63955170D02*
G75*
G02*
X130220000Y-65499952I2560000J-1544830D01*
G01*
X130220000Y-65500048D02*
G75*
G02*
X124670000Y-67044830I-2990000J48D01*
G01*
X129730000Y-65500000D02*
G75*
G02*
X124730000Y-65500000I-2500000J0D01*
G01*
X124730000Y-65500000D02*
G75*
G02*
X129730000Y-65500000I2500000J0D01*
G01*
%TO.C,R1*%
X157080000Y-53580000D02*
X157080000Y-57420000D01*
X158920000Y-53580000D02*
X158920000Y-57420000D01*
%TO.C,R5*%
X144480000Y-53580000D02*
X144480000Y-57420000D01*
X146320000Y-53580000D02*
X146320000Y-57420000D01*
%TO.C,R6*%
X141330000Y-53580000D02*
X141330000Y-57420000D01*
X143170000Y-53580000D02*
X143170000Y-57420000D01*
D12*
%TO.C,U4*%
X122950000Y-92500000D02*
X122950000Y-79800000D01*
X125490000Y-77260000D02*
X140730000Y-77260000D01*
X140730000Y-95040000D02*
X125490000Y-95040000D01*
X143270000Y-79800000D02*
X143270000Y-92500000D01*
X122950000Y-79800000D02*
G75*
G02*
X125490000Y-77260000I2540001J-1D01*
G01*
X125490000Y-95040000D02*
G75*
G02*
X122950000Y-92500000I1J2540001D01*
G01*
X140730000Y-77260000D02*
G75*
G02*
X143270000Y-79800000I0J-2540000D01*
G01*
X143270000Y-92500000D02*
G75*
G02*
X140730000Y-95040000I-2540000J0D01*
G01*
D13*
X144050000Y-92500000D02*
G75*
G02*
X143850000Y-92500000I-100000J0D01*
G01*
X143850000Y-92500000D02*
G75*
G02*
X144050000Y-92500000I100000J0D01*
G01*
D12*
%TO.C,U2*%
X117856000Y-59043000D02*
X118100000Y-59043000D01*
X121906000Y-59043000D02*
X122144000Y-59043000D01*
X117856000Y-59043000D02*
G75*
G02*
X122144000Y-59043000I2144000J1557707D01*
G01*
D14*
X118800000Y-59800000D02*
G75*
G02*
X118600000Y-59800000I-100000J0D01*
G01*
X118600000Y-59800000D02*
G75*
G02*
X118800000Y-59800000I100000J0D01*
G01*
D11*
%TO.C,D4*%
X132140000Y-63955000D02*
X132140000Y-67045000D01*
X132140000Y-63955170D02*
G75*
G02*
X137690000Y-65499952I2560000J-1544830D01*
G01*
X137690000Y-65500048D02*
G75*
G02*
X132140000Y-67044830I-2990000J48D01*
G01*
X137200000Y-65500000D02*
G75*
G02*
X132200000Y-65500000I-2500000J0D01*
G01*
X132200000Y-65500000D02*
G75*
G02*
X137200000Y-65500000I2500000J0D01*
G01*
%TO.C,D3*%
X139610000Y-63955000D02*
X139610000Y-67045000D01*
X139610000Y-63955170D02*
G75*
G02*
X145160000Y-65499952I2560000J-1544830D01*
G01*
X145160000Y-65500048D02*
G75*
G02*
X139610000Y-67044830I-2990000J48D01*
G01*
X144670000Y-65500000D02*
G75*
G02*
X139670000Y-65500000I-2500000J0D01*
G01*
X139670000Y-65500000D02*
G75*
G02*
X144670000Y-65500000I2500000J0D01*
G01*
%TD*%
M02*
