%TF.GenerationSoftware,KiCad,Pcbnew,8.0.8*%
%TF.CreationDate,2025-02-03T17:05:43-07:00*%
%TF.ProjectId,Uno_Sheild_Project,556e6f5f-5368-4656-996c-645f50726f6a,rev?*%
%TF.SameCoordinates,Original*%
%TF.FileFunction,Soldermask,Top*%
%TF.FilePolarity,Negative*%
%FSLAX46Y46*%
G04 Gerber Fmt 4.6, Leading zero omitted, Abs format (unit mm)*
G04 Created by KiCad (PCBNEW 8.0.8) date 2025-02-03 17:05:43*
%MOMM*%
%LPD*%
G01*
G04 APERTURE LIST*
G04 Aperture macros list*
%AMRoundRect*
0 Rectangle with rounded corners*
0 $1 Rounding radius*
0 $2 $3 $4 $5 $6 $7 $8 $9 X,Y pos of 4 corners*
0 Add a 4 corners polygon primitive as box body*
4,1,4,$2,$3,$4,$5,$6,$7,$8,$9,$2,$3,0*
0 Add four circle primitives for the rounded corners*
1,1,$1+$1,$2,$3*
1,1,$1+$1,$4,$5*
1,1,$1+$1,$6,$7*
1,1,$1+$1,$8,$9*
0 Add four rect primitives between the rounded corners*
20,1,$1+$1,$2,$3,$4,$5,0*
20,1,$1+$1,$4,$5,$6,$7,0*
20,1,$1+$1,$6,$7,$8,$9,0*
20,1,$1+$1,$8,$9,$2,$3,0*%
G04 Aperture macros list end*
%ADD10O,1.700000X1.700000*%
%ADD11R,1.700000X1.700000*%
%ADD12C,1.440000*%
%ADD13O,2.400000X2.400000*%
%ADD14C,2.400000*%
%ADD15R,1.800000X1.800000*%
%ADD16C,1.800000*%
%ADD17O,1.700000X1.950000*%
%ADD18RoundRect,0.250000X-0.600000X-0.725000X0.600000X-0.725000X0.600000X0.725000X-0.600000X0.725000X0*%
%ADD19C,2.000000*%
G04 APERTURE END LIST*
D10*
%TO.C,J1*%
X145720000Y-97460000D03*
X143180000Y-97460000D03*
X140640000Y-97460000D03*
X138100000Y-97460000D03*
X135560000Y-97460000D03*
X133020000Y-97460000D03*
X130480000Y-97460000D03*
D11*
X127940000Y-97460000D03*
%TD*%
D10*
%TO.C,J3*%
X163500000Y-97460000D03*
X160960000Y-97460000D03*
X158420000Y-97460000D03*
X155880000Y-97460000D03*
X153340000Y-97460000D03*
D11*
X150800000Y-97460000D03*
%TD*%
D10*
%TO.C,J2*%
X141656000Y-49200000D03*
X139116000Y-49200000D03*
X136576000Y-49200000D03*
X134036000Y-49200000D03*
X131496000Y-49200000D03*
X128956000Y-49200000D03*
X126416000Y-49200000D03*
X123876000Y-49200000D03*
X121336000Y-49200000D03*
D11*
X118796000Y-49200000D03*
%TD*%
D10*
%TO.C,J4*%
X163500000Y-49200000D03*
X160960000Y-49200000D03*
X158420000Y-49200000D03*
X155880000Y-49200000D03*
X153340000Y-49200000D03*
X150800000Y-49200000D03*
X148260000Y-49200000D03*
D11*
X145720000Y-49200000D03*
%TD*%
D12*
%TO.C,RV1*%
X115040000Y-81515000D03*
X112500000Y-84055000D03*
X109960000Y-81515000D03*
%TD*%
D10*
%TO.C,J6*%
X141880000Y-72000000D03*
X144420000Y-72000000D03*
X146960000Y-72000000D03*
D11*
X149500000Y-72000000D03*
%TD*%
D13*
%TO.C,R6*%
X134500000Y-68120000D03*
D14*
X134500000Y-52880000D03*
%TD*%
D15*
%TO.C,D1*%
X128500000Y-56040000D03*
D16*
X128500000Y-53500000D03*
%TD*%
D17*
%TO.C,J7*%
X112500000Y-52500000D03*
X110000000Y-52500000D03*
D18*
X107500000Y-52500000D03*
%TD*%
D19*
%TO.C,SW5*%
X126500000Y-85000000D03*
X120000000Y-85000000D03*
X126500000Y-80500000D03*
X120000000Y-80500000D03*
%TD*%
D14*
%TO.C,R2*%
X153500000Y-52880000D03*
D13*
X153500000Y-68120000D03*
%TD*%
D19*
%TO.C,SW1*%
X166500000Y-85000000D03*
X160000000Y-85000000D03*
X166500000Y-80500000D03*
X160000000Y-80500000D03*
%TD*%
D14*
%TO.C,R1*%
X158000000Y-52880000D03*
D13*
X158000000Y-68120000D03*
%TD*%
%TO.C,R5*%
X139500000Y-68120000D03*
D14*
X139500000Y-52880000D03*
%TD*%
D19*
%TO.C,SW2*%
X156500000Y-85000000D03*
X150000000Y-85000000D03*
X156500000Y-80500000D03*
X150000000Y-80500000D03*
%TD*%
%TO.C,SW4*%
X136500000Y-85000000D03*
X130000000Y-85000000D03*
X136500000Y-80500000D03*
X130000000Y-80500000D03*
%TD*%
D13*
%TO.C,R3*%
X149000000Y-68120000D03*
D14*
X149000000Y-52880000D03*
%TD*%
D13*
%TO.C,R4*%
X144500000Y-68120000D03*
D14*
X144500000Y-52880000D03*
%TD*%
D19*
%TO.C,SW3*%
X146500000Y-85000000D03*
X140000000Y-85000000D03*
X146500000Y-80500000D03*
X140000000Y-80500000D03*
%TD*%
D10*
%TO.C,J5*%
X109595000Y-73025000D03*
X112135000Y-73025000D03*
X114675000Y-73025000D03*
X117215000Y-73025000D03*
X119755000Y-73025000D03*
X122295000Y-73025000D03*
X124835000Y-73025000D03*
D11*
X127375000Y-73025000D03*
%TD*%
M02*
