%TF.GenerationSoftware,KiCad,Pcbnew,8.0.8*%
%TF.CreationDate,2025-02-03T17:05:42-07:00*%
%TF.ProjectId,Uno_Sheild_Project,556e6f5f-5368-4656-996c-645f50726f6a,rev?*%
%TF.SameCoordinates,Original*%
%TF.FileFunction,Copper,L1,Top*%
%TF.FilePolarity,Positive*%
%FSLAX46Y46*%
G04 Gerber Fmt 4.6, Leading zero omitted, Abs format (unit mm)*
G04 Created by KiCad (PCBNEW 8.0.8) date 2025-02-03 17:05:42*
%MOMM*%
%LPD*%
G01*
G04 APERTURE LIST*
G04 Aperture macros list*
%AMRoundRect*
0 Rectangle with rounded corners*
0 $1 Rounding radius*
0 $2 $3 $4 $5 $6 $7 $8 $9 X,Y pos of 4 corners*
0 Add a 4 corners polygon primitive as box body*
4,1,4,$2,$3,$4,$5,$6,$7,$8,$9,$2,$3,0*
0 Add four circle primitives for the rounded corners*
1,1,$1+$1,$2,$3*
1,1,$1+$1,$4,$5*
1,1,$1+$1,$6,$7*
1,1,$1+$1,$8,$9*
0 Add four rect primitives between the rounded corners*
20,1,$1+$1,$2,$3,$4,$5,0*
20,1,$1+$1,$4,$5,$6,$7,0*
20,1,$1+$1,$6,$7,$8,$9,0*
20,1,$1+$1,$8,$9,$2,$3,0*%
G04 Aperture macros list end*
%TA.AperFunction,ComponentPad*%
%ADD10O,1.700000X1.700000*%
%TD*%
%TA.AperFunction,ComponentPad*%
%ADD11R,1.700000X1.700000*%
%TD*%
%TA.AperFunction,ComponentPad*%
%ADD12C,1.440000*%
%TD*%
%TA.AperFunction,ComponentPad*%
%ADD13O,2.400000X2.400000*%
%TD*%
%TA.AperFunction,ComponentPad*%
%ADD14C,2.400000*%
%TD*%
%TA.AperFunction,ComponentPad*%
%ADD15R,1.800000X1.800000*%
%TD*%
%TA.AperFunction,ComponentPad*%
%ADD16C,1.800000*%
%TD*%
%TA.AperFunction,ComponentPad*%
%ADD17O,1.700000X1.950000*%
%TD*%
%TA.AperFunction,ComponentPad*%
%ADD18RoundRect,0.250000X-0.600000X-0.725000X0.600000X-0.725000X0.600000X0.725000X-0.600000X0.725000X0*%
%TD*%
%TA.AperFunction,ComponentPad*%
%ADD19C,2.000000*%
%TD*%
%TA.AperFunction,Conductor*%
%ADD20C,0.508000*%
%TD*%
G04 APERTURE END LIST*
D10*
%TO.P,J1,8,Pin_8*%
%TO.N,VCC*%
X145720000Y-97460000D03*
%TO.P,J1,7,Pin_7*%
%TO.N,GND*%
X143180000Y-97460000D03*
%TO.P,J1,6,Pin_6*%
X140640000Y-97460000D03*
%TO.P,J1,5,Pin_5*%
%TO.N,+5V*%
X138100000Y-97460000D03*
%TO.P,J1,4,Pin_4*%
%TO.N,+3V3*%
X135560000Y-97460000D03*
%TO.P,J1,3,Pin_3*%
%TO.N,/~{RESET}*%
X133020000Y-97460000D03*
%TO.P,J1,2,Pin_2*%
%TO.N,/IOREF*%
X130480000Y-97460000D03*
D11*
%TO.P,J1,1,Pin_1*%
%TO.N,unconnected-(J1-Pin_1-Pad1)*%
X127940000Y-97460000D03*
%TD*%
D10*
%TO.P,J3,6,Pin_6*%
%TO.N,/SCL{slash}A5*%
X163500000Y-97460000D03*
%TO.P,J3,5,Pin_5*%
%TO.N,/SDA{slash}A4*%
X160960000Y-97460000D03*
%TO.P,J3,4,Pin_4*%
%TO.N,/A3*%
X158420000Y-97460000D03*
%TO.P,J3,3,Pin_3*%
%TO.N,/A2*%
X155880000Y-97460000D03*
%TO.P,J3,2,Pin_2*%
%TO.N,/A1*%
X153340000Y-97460000D03*
D11*
%TO.P,J3,1,Pin_1*%
%TO.N,/temp_sensor*%
X150800000Y-97460000D03*
%TD*%
D10*
%TO.P,J2,10,Pin_10*%
%TO.N,unconnected-(J2-Pin_10-Pad10)*%
X141656000Y-49200000D03*
%TO.P,J2,9,Pin_9*%
%TO.N,/led_light*%
X139116000Y-49200000D03*
%TO.P,J2,8,Pin_8*%
%TO.N,/\u002A10*%
X136576000Y-49200000D03*
%TO.P,J2,7,Pin_7*%
%TO.N,/\u002A11*%
X134036000Y-49200000D03*
%TO.P,J2,6,Pin_6*%
%TO.N,/temp_digital*%
X131496000Y-49200000D03*
%TO.P,J2,5,Pin_5*%
%TO.N,/13*%
X128956000Y-49200000D03*
%TO.P,J2,4,Pin_4*%
%TO.N,GND*%
X126416000Y-49200000D03*
%TO.P,J2,3,Pin_3*%
%TO.N,/AREF*%
X123876000Y-49200000D03*
%TO.P,J2,2,Pin_2*%
%TO.N,/I2C_SDA*%
X121336000Y-49200000D03*
D11*
%TO.P,J2,1,Pin_1*%
%TO.N,/I2C_SCL*%
X118796000Y-49200000D03*
%TD*%
D10*
%TO.P,J4,8,Pin_8*%
%TO.N,/RX{slash}0*%
X163500000Y-49200000D03*
%TO.P,J4,7,Pin_7*%
%TO.N,/TX{slash}1*%
X160960000Y-49200000D03*
%TO.P,J4,6,Pin_6*%
%TO.N,/button_onoff*%
X158420000Y-49200000D03*
%TO.P,J4,5,Pin_5*%
%TO.N,/button_units*%
X155880000Y-49200000D03*
%TO.P,J4,4,Pin_4*%
%TO.N,/button_light*%
X153340000Y-49200000D03*
%TO.P,J4,3,Pin_3*%
%TO.N,/button_cal*%
X150800000Y-49200000D03*
%TO.P,J4,2,Pin_2*%
%TO.N,/button_lock*%
X148260000Y-49200000D03*
D11*
%TO.P,J4,1,Pin_1*%
%TO.N,/7*%
X145720000Y-49200000D03*
%TD*%
D12*
%TO.P,RV1,3,3*%
%TO.N,GND*%
X115040000Y-81515000D03*
%TO.P,RV1,2,2*%
%TO.N,/temp_sensor*%
X112500000Y-84055000D03*
%TO.P,RV1,1,1*%
%TO.N,+5V*%
X109960000Y-81515000D03*
%TD*%
D10*
%TO.P,J6,4,Pin_4*%
%TO.N,/I2C_SDA*%
X141880000Y-72000000D03*
%TO.P,J6,3,Pin_3*%
%TO.N,/I2C_SCL*%
X144420000Y-72000000D03*
%TO.P,J6,2,Pin_2*%
%TO.N,+5V*%
X146960000Y-72000000D03*
D11*
%TO.P,J6,1,Pin_1*%
%TO.N,GND*%
X149500000Y-72000000D03*
%TD*%
D13*
%TO.P,R6,2*%
%TO.N,Net-(D1-A)*%
X134500000Y-68120000D03*
D14*
%TO.P,R6,1*%
%TO.N,/led_light*%
X134500000Y-52880000D03*
%TD*%
D15*
%TO.P,D1,1,K*%
%TO.N,GND*%
X128500000Y-56040000D03*
D16*
%TO.P,D1,2,A*%
%TO.N,Net-(D1-A)*%
X128500000Y-53500000D03*
%TD*%
D17*
%TO.P,J7,3,Pin_3*%
%TO.N,+5V*%
X112500000Y-52500000D03*
%TO.P,J7,2,Pin_2*%
%TO.N,/temp_digital*%
X110000000Y-52500000D03*
D18*
%TO.P,J7,1,Pin_1*%
%TO.N,GND*%
X107500000Y-52500000D03*
%TD*%
D19*
%TO.P,SW5,2,B*%
%TO.N,+5V*%
X126500000Y-85000000D03*
X120000000Y-85000000D03*
%TO.P,SW5,1,A*%
%TO.N,/button_lock*%
X126500000Y-80500000D03*
X120000000Y-80500000D03*
%TD*%
D14*
%TO.P,R2,1*%
%TO.N,/button_units*%
X153500000Y-52880000D03*
D13*
%TO.P,R2,2*%
%TO.N,GND*%
X153500000Y-68120000D03*
%TD*%
D19*
%TO.P,SW1,2,B*%
%TO.N,+5V*%
X166500000Y-85000000D03*
X160000000Y-85000000D03*
%TO.P,SW1,1,A*%
%TO.N,/button_onoff*%
X166500000Y-80500000D03*
X160000000Y-80500000D03*
%TD*%
D14*
%TO.P,R1,1*%
%TO.N,/button_onoff*%
X158000000Y-52880000D03*
D13*
%TO.P,R1,2*%
%TO.N,GND*%
X158000000Y-68120000D03*
%TD*%
%TO.P,R5,2*%
%TO.N,GND*%
X139500000Y-68120000D03*
D14*
%TO.P,R5,1*%
%TO.N,/button_lock*%
X139500000Y-52880000D03*
%TD*%
D19*
%TO.P,SW2,2,B*%
%TO.N,+5V*%
X156500000Y-85000000D03*
X150000000Y-85000000D03*
%TO.P,SW2,1,A*%
%TO.N,/button_units*%
X156500000Y-80500000D03*
X150000000Y-80500000D03*
%TD*%
%TO.P,SW4,2,B*%
%TO.N,+5V*%
X136500000Y-85000000D03*
X130000000Y-85000000D03*
%TO.P,SW4,1,A*%
%TO.N,/button_cal*%
X136500000Y-80500000D03*
X130000000Y-80500000D03*
%TD*%
D13*
%TO.P,R3,2*%
%TO.N,GND*%
X149000000Y-68120000D03*
D14*
%TO.P,R3,1*%
%TO.N,/button_light*%
X149000000Y-52880000D03*
%TD*%
D13*
%TO.P,R4,2*%
%TO.N,GND*%
X144500000Y-68120000D03*
D14*
%TO.P,R4,1*%
%TO.N,/button_cal*%
X144500000Y-52880000D03*
%TD*%
D19*
%TO.P,SW3,2,B*%
%TO.N,+5V*%
X146500000Y-85000000D03*
X140000000Y-85000000D03*
%TO.P,SW3,1,A*%
%TO.N,/button_light*%
X146500000Y-80500000D03*
X140000000Y-80500000D03*
%TD*%
D10*
%TO.P,J5,8,Pin_8*%
%TO.N,unconnected-(J5-Pin_8-Pad8)*%
X109595000Y-73025000D03*
%TO.P,J5,7,Pin_7*%
%TO.N,unconnected-(J5-Pin_7-Pad7)*%
X112135000Y-73025000D03*
%TO.P,J5,6,Pin_6*%
%TO.N,unconnected-(J5-Pin_6-Pad6)*%
X114675000Y-73025000D03*
%TO.P,J5,5,Pin_5*%
%TO.N,unconnected-(J5-Pin_5-Pad5)*%
X117215000Y-73025000D03*
%TO.P,J5,4,Pin_4*%
%TO.N,/I2C_SDA*%
X119755000Y-73025000D03*
%TO.P,J5,3,Pin_3*%
%TO.N,/I2C_SCL*%
X122295000Y-73025000D03*
%TO.P,J5,2,Pin_2*%
%TO.N,GND*%
X124835000Y-73025000D03*
D11*
%TO.P,J5,1,Pin_1*%
%TO.N,+5V*%
X127375000Y-73025000D03*
%TD*%
D20*
%TO.N,+5V*%
X146101012Y-88601012D02*
X146500000Y-89000000D01*
X147619913Y-89000000D02*
X146500000Y-89000000D01*
X146500000Y-89000000D02*
X144380086Y-89000000D01*
X146971082Y-88500000D02*
X146971082Y-88528918D01*
X146971082Y-88528918D02*
X146500000Y-89000000D01*
X140130550Y-88630550D02*
X139761100Y-89000000D01*
X140358059Y-88403041D02*
X140130550Y-88630550D01*
X140130550Y-88630550D02*
X139895318Y-88395318D01*
X139895318Y-88395318D02*
X139895318Y-88000000D01*
X141000000Y-89044982D02*
X140955018Y-89000000D01*
X140955018Y-89000000D02*
X139761100Y-89000000D01*
X141000000Y-89104689D02*
X141000000Y-89044982D01*
X141000000Y-89044982D02*
X140358059Y-88403041D01*
X139761100Y-89488254D02*
X139761100Y-89000000D01*
X139761100Y-89000000D02*
X139761100Y-88500000D01*
X140358059Y-88141941D02*
X140358059Y-88403041D01*
X139624677Y-89624677D02*
X139761100Y-89488254D01*
%TO.N,/temp_sensor*%
X125278207Y-97406207D02*
G75*
G03*
X129125963Y-99000011I3847793J3847807D01*
G01*
X112500000Y-84341500D02*
G75*
G03*
X112702580Y-84830592I691700J0D01*
G01*
X150030000Y-98230000D02*
G75*
G02*
X148171055Y-98999952I-1858900J1859000D01*
G01*
%TO.N,/led_light*%
X135766925Y-52549074D02*
G75*
G02*
X134968000Y-52879985I-798925J798974D01*
G01*
%TO.N,Net-(D1-A)*%
X132906207Y-55406207D02*
G75*
G02*
X134500011Y-59253963I-3847807J-3847793D01*
G01*
X131883883Y-54383883D02*
G75*
G03*
X129750000Y-53500010I-2133883J-2133917D01*
G01*
%TO.N,/button_units*%
X161500000Y-73246036D02*
G75*
G02*
X159906200Y-77093785I-5441600J36D01*
G01*
X153959619Y-51120380D02*
G75*
G03*
X153499988Y-52230000I1109581J-1109620D01*
G01*
X159906207Y-59286207D02*
G75*
G02*
X161500011Y-63133963I-3847807J-3847793D01*
G01*
%TO.N,/button_cal*%
X145462067Y-52880000D02*
G75*
G03*
X145180302Y-53560266I33J-398500D01*
G01*
X142755227Y-76498736D02*
G75*
G03*
X138907455Y-78092512I-27J-5441564D01*
G01*
X151093792Y-74904943D02*
G75*
G02*
X147246036Y-76498765I-3847792J3847743D01*
G01*
X147104419Y-52199715D02*
G75*
G02*
X145462067Y-52879987I-1642319J1642315D01*
G01*
X153560207Y-61940207D02*
G75*
G02*
X155154011Y-65787963I-3847807J-3847793D01*
G01*
X150452067Y-49200000D02*
G75*
G03*
X149858122Y-49446038I33J-840000D01*
G01*
X155154000Y-68590772D02*
G75*
G02*
X153560232Y-72438553I-5441600J-28D01*
G01*
%TO.N,/button_light*%
X149330000Y-52880000D02*
G75*
G03*
X149233334Y-53113356I0J-136700D01*
G01*
X151125316Y-77249368D02*
G75*
G03*
X148778586Y-78221419I-16J-3318732D01*
G01*
X159654000Y-67841404D02*
G75*
G02*
X158060216Y-71689169I-5441600J4D01*
G01*
X158060207Y-61940207D02*
G75*
G02*
X159654011Y-65787963I-3847807J-3847793D01*
G01*
X149893345Y-52646654D02*
G75*
G02*
X149330000Y-52879997I-563345J563354D01*
G01*
X153472048Y-76277319D02*
G75*
G02*
X151125316Y-77249382I-2346748J2346719D01*
G01*
%TO.N,/button_lock*%
X147247000Y-50213000D02*
G75*
G02*
X144801401Y-51226001I-2445600J2445600D01*
G01*
X150252207Y-63632207D02*
G75*
G02*
X151846011Y-67479963I-3847807J-3847793D01*
G01*
X151846000Y-70641574D02*
G75*
G02*
X150423008Y-74077008I-4858400J-26D01*
G01*
X133753963Y-75500000D02*
G75*
G03*
X129906236Y-77093821I37J-5441500D01*
G01*
X142323554Y-51226000D02*
G75*
G03*
X140327034Y-52053034I46J-2823500D01*
G01*
X150423000Y-74077000D02*
G75*
G02*
X146987574Y-75499989I-3435400J3435400D01*
G01*
%TO.N,/button_onoff*%
X165190000Y-53190000D02*
G75*
G02*
X165499997Y-53938406I-748400J-748400D01*
G01*
X166000000Y-80000000D02*
G75*
G02*
X165792893Y-80499984I-207100J-207100D01*
G01*
X158210000Y-49410000D02*
G75*
G03*
X157999994Y-49916984I507000J-507000D01*
G01*
X165190000Y-53190000D02*
G75*
G03*
X164441593Y-52880003I-748400J-748400D01*
G01*
X165500000Y-78792893D02*
G75*
G03*
X165999998Y-80000002I1707100J-7D01*
G01*
%TO.N,/I2C_SDA*%
X116996000Y-50008000D02*
G75*
G03*
X118193449Y-50504021I1197500J1197500D01*
G01*
X116500000Y-49506000D02*
G75*
G03*
X116494000Y-49500000I-6000J0D01*
G01*
X116500000Y-49506000D02*
G75*
G03*
X116504239Y-49516245I14500J0D01*
G01*
X141380000Y-71500000D02*
G75*
G03*
X140172893Y-71000003I-1207100J-1207100D01*
G01*
X106196000Y-57212036D02*
G75*
G03*
X107789800Y-61059784I5441600J36D01*
G01*
X120684000Y-49852000D02*
G75*
G02*
X119109932Y-50504014I-1574100J1574100D01*
G01*
X123211891Y-71000000D02*
G75*
G03*
X120767503Y-72012503I9J-3456900D01*
G01*
X107098000Y-50402000D02*
G75*
G03*
X106196009Y-52579620I2177600J-2177600D01*
G01*
X109275620Y-49500000D02*
G75*
G03*
X107097994Y-50401994I-20J-3079600D01*
G01*
%TO.N,/I2C_SCL*%
X105488000Y-62005979D02*
G75*
G03*
X106889494Y-65389506I4785000J-21D01*
G01*
X106889500Y-65389500D02*
G75*
G02*
X108290992Y-68773020I-3383500J-3383500D01*
G01*
X124521067Y-71721000D02*
G75*
G03*
X122947010Y-72373010I33J-2226100D01*
G01*
X121643000Y-73677000D02*
G75*
G02*
X120068932Y-74329014I-1574100J1574100D01*
G01*
X143768000Y-72652000D02*
G75*
G02*
X142193932Y-73304014I-1574100J1574100D01*
G01*
X129804500Y-72512500D02*
G75*
G03*
X127893649Y-71720979I-1910900J-1910900D01*
G01*
X106597368Y-49901368D02*
G75*
G03*
X105488008Y-52579619I2678232J-2678232D01*
G01*
X118592000Y-48996000D02*
G75*
G03*
X118099500Y-48792000I-492500J-492500D01*
G01*
X108291000Y-73025000D02*
G75*
G03*
X108672932Y-73947067I1304000J0D01*
G01*
X109275619Y-48792000D02*
G75*
G03*
X106597362Y-49901362I-19J-3787600D01*
G01*
X108672932Y-73947067D02*
G75*
G03*
X109594999Y-74329000I922068J922067D01*
G01*
X129804500Y-72512500D02*
G75*
G03*
X131715350Y-73304021I1910900J1910900D01*
G01*
%TO.N,/temp_digital*%
X112439455Y-51071000D02*
G75*
G03*
X110714534Y-51785534I45J-2439400D01*
G01*
X114035500Y-51535500D02*
G75*
G03*
X112914097Y-51071001I-1121400J-1121400D01*
G01*
X130490000Y-50206000D02*
G75*
G02*
X128061301Y-51212000I-2428700J2428700D01*
G01*
X117606000Y-51606000D02*
G75*
G02*
X116654799Y-52000000I-951200J951200D01*
G01*
X118557200Y-51212000D02*
G75*
G03*
X117606000Y-51606000I0J-1345200D01*
G01*
X114035500Y-51535500D02*
G75*
G03*
X115156902Y-51999999I1121400J1121400D01*
G01*
%TO.N,+5V*%
X144380086Y-89000000D02*
G75*
G03*
X147145455Y-87854552I14J3910800D01*
G01*
X147145451Y-87854548D02*
G75*
G03*
X147619913Y-88999974I474449J-474452D01*
G01*
X138585787Y-90414212D02*
G75*
G03*
X140000007Y-87000001I-3414187J3414212D01*
G01*
X141999998Y-89000000D02*
G75*
G03*
X138585793Y-90414218I2J-4828400D01*
G01*
X140000000Y-87000001D02*
G75*
G03*
X141999998Y-89000000I2000000J1D01*
G01*
X136410000Y-95770000D02*
X136410000Y-95770000D01*
X136250000Y-95383725D02*
G75*
G03*
X136410008Y-95769992I546300J25D01*
G01*
X120000000Y-84971866D02*
G75*
G03*
X120028133Y-85000000I28100J-34D01*
G01*
X145106284Y-70842149D02*
G75*
G02*
X145729977Y-72347932I-1505784J-1505751D01*
G01*
X134410000Y-90090000D02*
G75*
G03*
X134319991Y-90307279I217300J-217300D01*
G01*
X144949000Y-74011000D02*
G75*
G02*
X143063499Y-74792000I-1885500J1885500D01*
G01*
X129929866Y-74792000D02*
G75*
G03*
X129551140Y-74948907I34J-535600D01*
G01*
X128335944Y-86835944D02*
G75*
G02*
X128640003Y-87570000I-734044J-734056D01*
G01*
X128210000Y-88000000D02*
G75*
G03*
X128640000Y-87570000I0J430000D01*
G01*
X128944055Y-88304055D02*
G75*
G03*
X128210000Y-87999997I-734055J-734045D01*
G01*
X128640000Y-87570000D02*
G75*
G03*
X128944057Y-88304053I1038100J0D01*
G01*
X144997067Y-70732932D02*
G75*
G03*
X143227611Y-69999995I-1769467J-1769468D01*
G01*
X129929866Y-74792000D02*
G75*
G03*
X129994866Y-74635099I34J91900D01*
G01*
X129994849Y-74635116D02*
G75*
G03*
X130373599Y-74792010I378751J378716D01*
G01*
X117250000Y-87750000D02*
G75*
G03*
X117853553Y-88000019I603600J603600D01*
G01*
X129104000Y-75396000D02*
G75*
G02*
X127645815Y-76000006I-1458200J1458200D01*
G01*
X128741727Y-73381994D02*
G75*
G03*
X127879866Y-73025007I-861827J-861806D01*
G01*
X118593792Y-77906206D02*
G75*
G03*
X116999988Y-81753963I3847808J-3847794D01*
G01*
X136375000Y-92625000D02*
G75*
G03*
X136249990Y-92926776I301800J-301800D01*
G01*
X117000000Y-87146446D02*
G75*
G03*
X117249984Y-87750016I853500J-54D01*
G01*
X145115000Y-73845000D02*
G75*
G03*
X145729954Y-72360258I-1484800J1484700D01*
G01*
X145730000Y-72360258D02*
G75*
G03*
X146345071Y-72615071I360300J-42D01*
G01*
X136500000Y-86585786D02*
G75*
G02*
X135500004Y-89000004I-3414200J-14D01*
G01*
X122753963Y-76000000D02*
G75*
G03*
X118906236Y-77593821I37J-5441500D01*
G01*
X112741552Y-82241552D02*
G75*
G03*
X110987500Y-81514999I-1754052J-1754048D01*
G01*
X157593792Y-87406207D02*
G75*
G02*
X153746036Y-89000010I-3847792J3847807D01*
G01*
X126906207Y-68406207D02*
G75*
G03*
X130753963Y-70000011I3847793J3847807D01*
G01*
X117000000Y-87000000D02*
G75*
G03*
X116646445Y-86146447I-1207100J0D01*
G01*
X116646446Y-86146446D02*
G75*
G03*
X117000012Y-86000000I146454J146446D01*
G01*
X112500000Y-53250000D02*
G75*
G03*
X113030322Y-54530338I1810700J0D01*
G01*
X134320000Y-93326446D02*
G75*
G03*
X134569984Y-93930016I853500J-54D01*
G01*
X134070000Y-93430000D02*
G75*
G03*
X134320113Y-93326446I103600J103600D01*
G01*
X136730000Y-96090000D02*
X136410000Y-95770000D01*
X136410000Y-95770000D02*
X136730000Y-96090000D01*
X136625000Y-92375000D02*
X136375000Y-92625000D01*
X131695000Y-91055000D02*
X133445000Y-92805000D01*
X134590000Y-89910000D02*
X134410000Y-90090000D01*
X134570000Y-93930000D02*
X135070000Y-94430000D01*
X130373599Y-74792000D02*
X129929866Y-74792000D01*
X127570000Y-88000000D02*
X125430000Y-88000000D01*
X146345000Y-72615000D02*
X145115000Y-73845000D01*
X117000000Y-84250000D02*
X117000000Y-85750000D01*
X117000000Y-86000000D02*
X117000000Y-87000000D01*
X134570000Y-93930000D02*
X134070000Y-93430000D01*
X112500000Y-53250000D02*
X112500000Y-52500000D01*
X143227611Y-70000000D02*
X130753963Y-70000000D01*
X126906207Y-68406207D02*
X113030330Y-54530330D01*
X145730000Y-72347932D02*
X145730000Y-72360258D01*
X145106284Y-70842149D02*
X144997067Y-70732932D01*
%TO.N,Net-(D1-A)*%
X134500000Y-59253963D02*
X134500000Y-68120000D01*
X132906207Y-55406207D02*
X131883883Y-54383883D01*
X129750000Y-53500000D02*
X128500000Y-53500000D01*
%TO.N,+5V*%
X134320000Y-90307279D02*
X134320000Y-93326446D01*
X133445000Y-92805000D02*
X134070000Y-93430000D01*
X134590000Y-89910000D02*
X135500000Y-89000000D01*
X138585787Y-90414212D02*
X136625000Y-92375000D01*
X136410000Y-95770000D02*
X135070000Y-94430000D01*
X136250000Y-95383725D02*
X136250000Y-92926776D01*
X136730000Y-96090000D02*
X138100000Y-97460000D01*
%TO.N,/temp_digital*%
X128061301Y-51212000D02*
X118557200Y-51212000D01*
X112439455Y-51071000D02*
X112914097Y-51071000D01*
X116654799Y-52000000D02*
X115156902Y-52000000D01*
%TO.N,/I2C_SCL*%
X120068932Y-74329000D02*
X109594999Y-74329000D01*
X108291000Y-68773020D02*
X108291000Y-73025000D01*
X118099500Y-48792000D02*
X109275619Y-48792000D01*
X105488000Y-62005979D02*
X105488000Y-52579619D01*
X118592000Y-48996000D02*
X118796000Y-49200000D01*
%TO.N,/button_lock*%
X150252207Y-63632207D02*
X139500000Y-52880000D01*
X151846000Y-67479963D02*
X151846000Y-70641574D01*
X133753963Y-75500000D02*
X146987574Y-75500000D01*
X129906207Y-77093792D02*
X126500000Y-80500000D01*
%TO.N,+5V*%
X112741552Y-82241552D02*
X116646446Y-86146446D01*
X126500000Y-85000000D02*
X128335944Y-86835944D01*
X147145451Y-87854548D02*
X150000000Y-85000000D01*
X136500000Y-85000000D02*
X136500000Y-86585786D01*
X117000000Y-81753963D02*
X117000000Y-84250000D01*
X127645815Y-76000000D02*
X122753963Y-76000000D01*
X131695000Y-91055000D02*
X128944055Y-88304055D01*
X150000000Y-85000000D02*
X156500000Y-85000000D01*
X160000000Y-85000000D02*
X157593792Y-87406207D01*
X136500000Y-85000000D02*
X130000000Y-85000000D01*
X128210000Y-88000000D02*
X127570000Y-88000000D01*
X143063499Y-74792000D02*
X130373599Y-74792000D01*
X117000000Y-87146446D02*
X117000000Y-87000000D01*
X117853553Y-88000000D02*
X125430000Y-88000000D01*
X129994849Y-74635116D02*
X128741727Y-73381994D01*
X120028133Y-85000000D02*
X126500000Y-85000000D01*
X120000000Y-84971866D02*
X120000000Y-84943733D01*
X140000000Y-85000000D02*
X140000000Y-87000001D01*
X160000000Y-85000000D02*
X166500000Y-85000000D01*
X146345000Y-72615000D02*
X146960000Y-72000000D01*
X127879866Y-73025000D02*
X127375000Y-73025000D01*
X129551116Y-74948883D02*
X129104000Y-75396000D01*
X110987500Y-81515000D02*
X109960000Y-81515000D01*
X147619913Y-89000000D02*
X153746036Y-89000000D01*
X144380086Y-89000000D02*
X141999998Y-89000000D01*
X117000000Y-85750000D02*
X117000000Y-86000000D01*
X118593792Y-77906206D02*
X118906207Y-77593792D01*
X140000000Y-85000000D02*
X146500000Y-85000000D01*
X144949000Y-74011000D02*
X145115000Y-73845000D01*
%TO.N,/temp_digital*%
X130490000Y-50206000D02*
X131496000Y-49200000D01*
X110714500Y-51785500D02*
X110000000Y-52500000D01*
%TO.N,/I2C_SCL*%
X142193932Y-73304000D02*
X131715350Y-73304000D01*
X124521067Y-71721000D02*
X127893649Y-71721000D01*
X143768000Y-72652000D02*
X144420000Y-72000000D01*
%TO.N,/I2C_SDA*%
X116996000Y-50008000D02*
X116504242Y-49516242D01*
X119755000Y-73025000D02*
X107789792Y-61059792D01*
X118193449Y-50504000D02*
X119109932Y-50504000D01*
X119755000Y-73025000D02*
X120767500Y-72012500D01*
X116494000Y-49500000D02*
X109275620Y-49500000D01*
X106196000Y-57212036D02*
X106196000Y-52579620D01*
X140172893Y-71000000D02*
X123211891Y-71000000D01*
X120684000Y-49852000D02*
X121336000Y-49200000D01*
X141380000Y-71500000D02*
X141880000Y-72000000D01*
%TO.N,/button_onoff*%
X158210000Y-49410000D02*
X158420000Y-49200000D01*
X165792893Y-80500000D02*
X160000000Y-80500000D01*
X158000000Y-49916984D02*
X158000000Y-52880000D01*
%TO.N,/button_lock*%
X140327000Y-52053000D02*
X139500000Y-52880000D01*
X126500000Y-80500000D02*
X120000000Y-80500000D01*
X144801401Y-51226000D02*
X142323554Y-51226000D01*
X147247000Y-50213000D02*
X148260000Y-49200000D01*
%TO.N,/button_light*%
X146500000Y-80500000D02*
X140000000Y-80500000D01*
X149893345Y-52646654D02*
X153340000Y-49200000D01*
%TO.N,/button_cal*%
X136500000Y-80500000D02*
X130000000Y-80500000D01*
X150452067Y-49200000D02*
X150800000Y-49200000D01*
X147104419Y-52199715D02*
X149858109Y-49446025D01*
%TO.N,/button_units*%
X156500000Y-80500000D02*
X150000000Y-80500000D01*
%TO.N,/led_light*%
X135766925Y-52549074D02*
X139116000Y-49200000D01*
X134968000Y-52880000D02*
X134500000Y-52880000D01*
%TO.N,/temp_sensor*%
X150030000Y-98230000D02*
X150800000Y-97460000D01*
X129125963Y-99000000D02*
X148171055Y-99000000D01*
X125278207Y-97406207D02*
X112702586Y-84830586D01*
X112500000Y-84341500D02*
X112500000Y-84055000D01*
%TO.N,/button_onoff*%
X158000000Y-52880000D02*
X164441593Y-52880000D01*
X165500000Y-53938406D02*
X165500000Y-78792893D01*
%TO.N,/button_cal*%
X136500000Y-80500000D02*
X138907471Y-78092528D01*
X151093792Y-74904943D02*
X153560207Y-72438528D01*
X142755227Y-76498736D02*
X147246036Y-76498736D01*
X145180284Y-53560284D02*
X153560207Y-61940207D01*
X155154000Y-65787963D02*
X155154000Y-68590772D01*
%TO.N,/button_light*%
X146500000Y-80500000D02*
X148778583Y-78221416D01*
X149233345Y-53113345D02*
X158060207Y-61940207D01*
X158060207Y-71689160D02*
X153472048Y-76277319D01*
X159654000Y-67841404D02*
X159654000Y-65787963D01*
%TO.N,/button_units*%
X153959619Y-51120380D02*
X155880000Y-49200000D01*
X153500000Y-52230000D02*
X153500000Y-52880000D01*
X161500000Y-73246036D02*
X161500000Y-63133963D01*
X159906207Y-77093792D02*
X156500000Y-80500000D01*
X159906207Y-59286207D02*
X153500000Y-52880000D01*
%TO.N,/I2C_SCL*%
X122947000Y-72373000D02*
X122295000Y-73025000D01*
X121643000Y-73677000D02*
X122295000Y-73025000D01*
%TD*%
M02*
