%TF.GenerationSoftware,KiCad,Pcbnew,8.0.8*%
%TF.CreationDate,2025-02-03T17:05:42-07:00*%
%TF.ProjectId,Uno_Sheild_Project,556e6f5f-5368-4656-996c-645f50726f6a,rev?*%
%TF.SameCoordinates,Original*%
%TF.FileFunction,Legend,Top*%
%TF.FilePolarity,Positive*%
%FSLAX46Y46*%
G04 Gerber Fmt 4.6, Leading zero omitted, Abs format (unit mm)*
G04 Created by KiCad (PCBNEW 8.0.8) date 2025-02-03 17:05:42*
%MOMM*%
%LPD*%
G01*
G04 APERTURE LIST*
%ADD10C,0.150000*%
%ADD11C,0.120000*%
G04 APERTURE END LIST*
D10*
X101193922Y-94649931D02*
X101765350Y-94649931D01*
X101479636Y-95649931D02*
X101479636Y-94649931D01*
X102098684Y-95649931D02*
X102098684Y-94649931D01*
X102527255Y-95649931D02*
X102527255Y-95126121D01*
X102527255Y-95126121D02*
X102479636Y-95030883D01*
X102479636Y-95030883D02*
X102384398Y-94983264D01*
X102384398Y-94983264D02*
X102241541Y-94983264D01*
X102241541Y-94983264D02*
X102146303Y-95030883D01*
X102146303Y-95030883D02*
X102098684Y-95078502D01*
X103384398Y-95602312D02*
X103289160Y-95649931D01*
X103289160Y-95649931D02*
X103098684Y-95649931D01*
X103098684Y-95649931D02*
X103003446Y-95602312D01*
X103003446Y-95602312D02*
X102955827Y-95507073D01*
X102955827Y-95507073D02*
X102955827Y-95126121D01*
X102955827Y-95126121D02*
X103003446Y-95030883D01*
X103003446Y-95030883D02*
X103098684Y-94983264D01*
X103098684Y-94983264D02*
X103289160Y-94983264D01*
X103289160Y-94983264D02*
X103384398Y-95030883D01*
X103384398Y-95030883D02*
X103432017Y-95126121D01*
X103432017Y-95126121D02*
X103432017Y-95221359D01*
X103432017Y-95221359D02*
X102955827Y-95316597D01*
X103860589Y-95649931D02*
X103860589Y-94983264D01*
X103860589Y-95173740D02*
X103908208Y-95078502D01*
X103908208Y-95078502D02*
X103955827Y-95030883D01*
X103955827Y-95030883D02*
X104051065Y-94983264D01*
X104051065Y-94983264D02*
X104146303Y-94983264D01*
X104479637Y-95649931D02*
X104479637Y-94983264D01*
X104479637Y-95078502D02*
X104527256Y-95030883D01*
X104527256Y-95030883D02*
X104622494Y-94983264D01*
X104622494Y-94983264D02*
X104765351Y-94983264D01*
X104765351Y-94983264D02*
X104860589Y-95030883D01*
X104860589Y-95030883D02*
X104908208Y-95126121D01*
X104908208Y-95126121D02*
X104908208Y-95649931D01*
X104908208Y-95126121D02*
X104955827Y-95030883D01*
X104955827Y-95030883D02*
X105051065Y-94983264D01*
X105051065Y-94983264D02*
X105193922Y-94983264D01*
X105193922Y-94983264D02*
X105289161Y-95030883D01*
X105289161Y-95030883D02*
X105336780Y-95126121D01*
X105336780Y-95126121D02*
X105336780Y-95649931D01*
X105955827Y-95649931D02*
X105860589Y-95602312D01*
X105860589Y-95602312D02*
X105812970Y-95554692D01*
X105812970Y-95554692D02*
X105765351Y-95459454D01*
X105765351Y-95459454D02*
X105765351Y-95173740D01*
X105765351Y-95173740D02*
X105812970Y-95078502D01*
X105812970Y-95078502D02*
X105860589Y-95030883D01*
X105860589Y-95030883D02*
X105955827Y-94983264D01*
X105955827Y-94983264D02*
X106098684Y-94983264D01*
X106098684Y-94983264D02*
X106193922Y-95030883D01*
X106193922Y-95030883D02*
X106241541Y-95078502D01*
X106241541Y-95078502D02*
X106289160Y-95173740D01*
X106289160Y-95173740D02*
X106289160Y-95459454D01*
X106289160Y-95459454D02*
X106241541Y-95554692D01*
X106241541Y-95554692D02*
X106193922Y-95602312D01*
X106193922Y-95602312D02*
X106098684Y-95649931D01*
X106098684Y-95649931D02*
X105955827Y-95649931D01*
X106717732Y-95649931D02*
X106717732Y-94649931D01*
X106717732Y-94649931D02*
X107098684Y-94649931D01*
X107098684Y-94649931D02*
X107193922Y-94697550D01*
X107193922Y-94697550D02*
X107241541Y-94745169D01*
X107241541Y-94745169D02*
X107289160Y-94840407D01*
X107289160Y-94840407D02*
X107289160Y-94983264D01*
X107289160Y-94983264D02*
X107241541Y-95078502D01*
X107241541Y-95078502D02*
X107193922Y-95126121D01*
X107193922Y-95126121D02*
X107098684Y-95173740D01*
X107098684Y-95173740D02*
X106717732Y-95173740D01*
X107717732Y-95649931D02*
X107717732Y-94983264D01*
X107717732Y-95173740D02*
X107765351Y-95078502D01*
X107765351Y-95078502D02*
X107812970Y-95030883D01*
X107812970Y-95030883D02*
X107908208Y-94983264D01*
X107908208Y-94983264D02*
X108003446Y-94983264D01*
X108479637Y-95649931D02*
X108384399Y-95602312D01*
X108384399Y-95602312D02*
X108336780Y-95554692D01*
X108336780Y-95554692D02*
X108289161Y-95459454D01*
X108289161Y-95459454D02*
X108289161Y-95173740D01*
X108289161Y-95173740D02*
X108336780Y-95078502D01*
X108336780Y-95078502D02*
X108384399Y-95030883D01*
X108384399Y-95030883D02*
X108479637Y-94983264D01*
X108479637Y-94983264D02*
X108622494Y-94983264D01*
X108622494Y-94983264D02*
X108717732Y-95030883D01*
X108717732Y-95030883D02*
X108765351Y-95078502D01*
X108765351Y-95078502D02*
X108812970Y-95173740D01*
X108812970Y-95173740D02*
X108812970Y-95459454D01*
X108812970Y-95459454D02*
X108765351Y-95554692D01*
X108765351Y-95554692D02*
X108717732Y-95602312D01*
X108717732Y-95602312D02*
X108622494Y-95649931D01*
X108622494Y-95649931D02*
X108479637Y-95649931D01*
X110003447Y-94649931D02*
X110003447Y-95459454D01*
X110003447Y-95459454D02*
X110051066Y-95554692D01*
X110051066Y-95554692D02*
X110098685Y-95602312D01*
X110098685Y-95602312D02*
X110193923Y-95649931D01*
X110193923Y-95649931D02*
X110384399Y-95649931D01*
X110384399Y-95649931D02*
X110479637Y-95602312D01*
X110479637Y-95602312D02*
X110527256Y-95554692D01*
X110527256Y-95554692D02*
X110574875Y-95459454D01*
X110574875Y-95459454D02*
X110574875Y-94649931D01*
X111051066Y-94983264D02*
X111051066Y-95649931D01*
X111051066Y-95078502D02*
X111098685Y-95030883D01*
X111098685Y-95030883D02*
X111193923Y-94983264D01*
X111193923Y-94983264D02*
X111336780Y-94983264D01*
X111336780Y-94983264D02*
X111432018Y-95030883D01*
X111432018Y-95030883D02*
X111479637Y-95126121D01*
X111479637Y-95126121D02*
X111479637Y-95649931D01*
X112098685Y-95649931D02*
X112003447Y-95602312D01*
X112003447Y-95602312D02*
X111955828Y-95554692D01*
X111955828Y-95554692D02*
X111908209Y-95459454D01*
X111908209Y-95459454D02*
X111908209Y-95173740D01*
X111908209Y-95173740D02*
X111955828Y-95078502D01*
X111955828Y-95078502D02*
X112003447Y-95030883D01*
X112003447Y-95030883D02*
X112098685Y-94983264D01*
X112098685Y-94983264D02*
X112241542Y-94983264D01*
X112241542Y-94983264D02*
X112336780Y-95030883D01*
X112336780Y-95030883D02*
X112384399Y-95078502D01*
X112384399Y-95078502D02*
X112432018Y-95173740D01*
X112432018Y-95173740D02*
X112432018Y-95459454D01*
X112432018Y-95459454D02*
X112384399Y-95554692D01*
X112384399Y-95554692D02*
X112336780Y-95602312D01*
X112336780Y-95602312D02*
X112241542Y-95649931D01*
X112241542Y-95649931D02*
X112098685Y-95649931D01*
X113574876Y-95602312D02*
X113717733Y-95649931D01*
X113717733Y-95649931D02*
X113955828Y-95649931D01*
X113955828Y-95649931D02*
X114051066Y-95602312D01*
X114051066Y-95602312D02*
X114098685Y-95554692D01*
X114098685Y-95554692D02*
X114146304Y-95459454D01*
X114146304Y-95459454D02*
X114146304Y-95364216D01*
X114146304Y-95364216D02*
X114098685Y-95268978D01*
X114098685Y-95268978D02*
X114051066Y-95221359D01*
X114051066Y-95221359D02*
X113955828Y-95173740D01*
X113955828Y-95173740D02*
X113765352Y-95126121D01*
X113765352Y-95126121D02*
X113670114Y-95078502D01*
X113670114Y-95078502D02*
X113622495Y-95030883D01*
X113622495Y-95030883D02*
X113574876Y-94935645D01*
X113574876Y-94935645D02*
X113574876Y-94840407D01*
X113574876Y-94840407D02*
X113622495Y-94745169D01*
X113622495Y-94745169D02*
X113670114Y-94697550D01*
X113670114Y-94697550D02*
X113765352Y-94649931D01*
X113765352Y-94649931D02*
X114003447Y-94649931D01*
X114003447Y-94649931D02*
X114146304Y-94697550D01*
X114574876Y-95649931D02*
X114574876Y-94649931D01*
X115003447Y-95649931D02*
X115003447Y-95126121D01*
X115003447Y-95126121D02*
X114955828Y-95030883D01*
X114955828Y-95030883D02*
X114860590Y-94983264D01*
X114860590Y-94983264D02*
X114717733Y-94983264D01*
X114717733Y-94983264D02*
X114622495Y-95030883D01*
X114622495Y-95030883D02*
X114574876Y-95078502D01*
X115479638Y-95649931D02*
X115479638Y-94983264D01*
X115479638Y-94649931D02*
X115432019Y-94697550D01*
X115432019Y-94697550D02*
X115479638Y-94745169D01*
X115479638Y-94745169D02*
X115527257Y-94697550D01*
X115527257Y-94697550D02*
X115479638Y-94649931D01*
X115479638Y-94649931D02*
X115479638Y-94745169D01*
X116336780Y-95602312D02*
X116241542Y-95649931D01*
X116241542Y-95649931D02*
X116051066Y-95649931D01*
X116051066Y-95649931D02*
X115955828Y-95602312D01*
X115955828Y-95602312D02*
X115908209Y-95507073D01*
X115908209Y-95507073D02*
X115908209Y-95126121D01*
X115908209Y-95126121D02*
X115955828Y-95030883D01*
X115955828Y-95030883D02*
X116051066Y-94983264D01*
X116051066Y-94983264D02*
X116241542Y-94983264D01*
X116241542Y-94983264D02*
X116336780Y-95030883D01*
X116336780Y-95030883D02*
X116384399Y-95126121D01*
X116384399Y-95126121D02*
X116384399Y-95221359D01*
X116384399Y-95221359D02*
X115908209Y-95316597D01*
X116955828Y-95649931D02*
X116860590Y-95602312D01*
X116860590Y-95602312D02*
X116812971Y-95507073D01*
X116812971Y-95507073D02*
X116812971Y-94649931D01*
X117765352Y-95649931D02*
X117765352Y-94649931D01*
X117765352Y-95602312D02*
X117670114Y-95649931D01*
X117670114Y-95649931D02*
X117479638Y-95649931D01*
X117479638Y-95649931D02*
X117384400Y-95602312D01*
X117384400Y-95602312D02*
X117336781Y-95554692D01*
X117336781Y-95554692D02*
X117289162Y-95459454D01*
X117289162Y-95459454D02*
X117289162Y-95173740D01*
X117289162Y-95173740D02*
X117336781Y-95078502D01*
X117336781Y-95078502D02*
X117384400Y-95030883D01*
X117384400Y-95030883D02*
X117479638Y-94983264D01*
X117479638Y-94983264D02*
X117670114Y-94983264D01*
X117670114Y-94983264D02*
X117765352Y-95030883D01*
X101193922Y-96259875D02*
X101527255Y-97259875D01*
X101527255Y-97259875D02*
X101860588Y-96259875D01*
X102574874Y-97212256D02*
X102479636Y-97259875D01*
X102479636Y-97259875D02*
X102289160Y-97259875D01*
X102289160Y-97259875D02*
X102193922Y-97212256D01*
X102193922Y-97212256D02*
X102146303Y-97117017D01*
X102146303Y-97117017D02*
X102146303Y-96736065D01*
X102146303Y-96736065D02*
X102193922Y-96640827D01*
X102193922Y-96640827D02*
X102289160Y-96593208D01*
X102289160Y-96593208D02*
X102479636Y-96593208D01*
X102479636Y-96593208D02*
X102574874Y-96640827D01*
X102574874Y-96640827D02*
X102622493Y-96736065D01*
X102622493Y-96736065D02*
X102622493Y-96831303D01*
X102622493Y-96831303D02*
X102146303Y-96926541D01*
X103051065Y-97259875D02*
X103051065Y-96593208D01*
X103051065Y-96783684D02*
X103098684Y-96688446D01*
X103098684Y-96688446D02*
X103146303Y-96640827D01*
X103146303Y-96640827D02*
X103241541Y-96593208D01*
X103241541Y-96593208D02*
X103336779Y-96593208D01*
X103622494Y-97212256D02*
X103717732Y-97259875D01*
X103717732Y-97259875D02*
X103908208Y-97259875D01*
X103908208Y-97259875D02*
X104003446Y-97212256D01*
X104003446Y-97212256D02*
X104051065Y-97117017D01*
X104051065Y-97117017D02*
X104051065Y-97069398D01*
X104051065Y-97069398D02*
X104003446Y-96974160D01*
X104003446Y-96974160D02*
X103908208Y-96926541D01*
X103908208Y-96926541D02*
X103765351Y-96926541D01*
X103765351Y-96926541D02*
X103670113Y-96878922D01*
X103670113Y-96878922D02*
X103622494Y-96783684D01*
X103622494Y-96783684D02*
X103622494Y-96736065D01*
X103622494Y-96736065D02*
X103670113Y-96640827D01*
X103670113Y-96640827D02*
X103765351Y-96593208D01*
X103765351Y-96593208D02*
X103908208Y-96593208D01*
X103908208Y-96593208D02*
X104003446Y-96640827D01*
X104479637Y-97259875D02*
X104479637Y-96593208D01*
X104479637Y-96259875D02*
X104432018Y-96307494D01*
X104432018Y-96307494D02*
X104479637Y-96355113D01*
X104479637Y-96355113D02*
X104527256Y-96307494D01*
X104527256Y-96307494D02*
X104479637Y-96259875D01*
X104479637Y-96259875D02*
X104479637Y-96355113D01*
X105098684Y-97259875D02*
X105003446Y-97212256D01*
X105003446Y-97212256D02*
X104955827Y-97164636D01*
X104955827Y-97164636D02*
X104908208Y-97069398D01*
X104908208Y-97069398D02*
X104908208Y-96783684D01*
X104908208Y-96783684D02*
X104955827Y-96688446D01*
X104955827Y-96688446D02*
X105003446Y-96640827D01*
X105003446Y-96640827D02*
X105098684Y-96593208D01*
X105098684Y-96593208D02*
X105241541Y-96593208D01*
X105241541Y-96593208D02*
X105336779Y-96640827D01*
X105336779Y-96640827D02*
X105384398Y-96688446D01*
X105384398Y-96688446D02*
X105432017Y-96783684D01*
X105432017Y-96783684D02*
X105432017Y-97069398D01*
X105432017Y-97069398D02*
X105384398Y-97164636D01*
X105384398Y-97164636D02*
X105336779Y-97212256D01*
X105336779Y-97212256D02*
X105241541Y-97259875D01*
X105241541Y-97259875D02*
X105098684Y-97259875D01*
X105860589Y-96593208D02*
X105860589Y-97259875D01*
X105860589Y-96688446D02*
X105908208Y-96640827D01*
X105908208Y-96640827D02*
X106003446Y-96593208D01*
X106003446Y-96593208D02*
X106146303Y-96593208D01*
X106146303Y-96593208D02*
X106241541Y-96640827D01*
X106241541Y-96640827D02*
X106289160Y-96736065D01*
X106289160Y-96736065D02*
X106289160Y-97259875D01*
X108051065Y-97259875D02*
X107479637Y-97259875D01*
X107765351Y-97259875D02*
X107765351Y-96259875D01*
X107765351Y-96259875D02*
X107670113Y-96402732D01*
X107670113Y-96402732D02*
X107574875Y-96497970D01*
X107574875Y-96497970D02*
X107479637Y-96545589D01*
X109241542Y-96878922D02*
X110003447Y-96878922D01*
X111432018Y-96259875D02*
X111527256Y-96259875D01*
X111527256Y-96259875D02*
X111622494Y-96307494D01*
X111622494Y-96307494D02*
X111670113Y-96355113D01*
X111670113Y-96355113D02*
X111717732Y-96450351D01*
X111717732Y-96450351D02*
X111765351Y-96640827D01*
X111765351Y-96640827D02*
X111765351Y-96878922D01*
X111765351Y-96878922D02*
X111717732Y-97069398D01*
X111717732Y-97069398D02*
X111670113Y-97164636D01*
X111670113Y-97164636D02*
X111622494Y-97212256D01*
X111622494Y-97212256D02*
X111527256Y-97259875D01*
X111527256Y-97259875D02*
X111432018Y-97259875D01*
X111432018Y-97259875D02*
X111336780Y-97212256D01*
X111336780Y-97212256D02*
X111289161Y-97164636D01*
X111289161Y-97164636D02*
X111241542Y-97069398D01*
X111241542Y-97069398D02*
X111193923Y-96878922D01*
X111193923Y-96878922D02*
X111193923Y-96640827D01*
X111193923Y-96640827D02*
X111241542Y-96450351D01*
X111241542Y-96450351D02*
X111289161Y-96355113D01*
X111289161Y-96355113D02*
X111336780Y-96307494D01*
X111336780Y-96307494D02*
X111432018Y-96259875D01*
X112146304Y-96355113D02*
X112193923Y-96307494D01*
X112193923Y-96307494D02*
X112289161Y-96259875D01*
X112289161Y-96259875D02*
X112527256Y-96259875D01*
X112527256Y-96259875D02*
X112622494Y-96307494D01*
X112622494Y-96307494D02*
X112670113Y-96355113D01*
X112670113Y-96355113D02*
X112717732Y-96450351D01*
X112717732Y-96450351D02*
X112717732Y-96545589D01*
X112717732Y-96545589D02*
X112670113Y-96688446D01*
X112670113Y-96688446D02*
X112098685Y-97259875D01*
X112098685Y-97259875D02*
X112717732Y-97259875D01*
X113860589Y-96212256D02*
X113003447Y-97497970D01*
X114384399Y-96259875D02*
X114479637Y-96259875D01*
X114479637Y-96259875D02*
X114574875Y-96307494D01*
X114574875Y-96307494D02*
X114622494Y-96355113D01*
X114622494Y-96355113D02*
X114670113Y-96450351D01*
X114670113Y-96450351D02*
X114717732Y-96640827D01*
X114717732Y-96640827D02*
X114717732Y-96878922D01*
X114717732Y-96878922D02*
X114670113Y-97069398D01*
X114670113Y-97069398D02*
X114622494Y-97164636D01*
X114622494Y-97164636D02*
X114574875Y-97212256D01*
X114574875Y-97212256D02*
X114479637Y-97259875D01*
X114479637Y-97259875D02*
X114384399Y-97259875D01*
X114384399Y-97259875D02*
X114289161Y-97212256D01*
X114289161Y-97212256D02*
X114241542Y-97164636D01*
X114241542Y-97164636D02*
X114193923Y-97069398D01*
X114193923Y-97069398D02*
X114146304Y-96878922D01*
X114146304Y-96878922D02*
X114146304Y-96640827D01*
X114146304Y-96640827D02*
X114193923Y-96450351D01*
X114193923Y-96450351D02*
X114241542Y-96355113D01*
X114241542Y-96355113D02*
X114289161Y-96307494D01*
X114289161Y-96307494D02*
X114384399Y-96259875D01*
X115574875Y-96593208D02*
X115574875Y-97259875D01*
X115336780Y-96212256D02*
X115098685Y-96926541D01*
X115098685Y-96926541D02*
X115717732Y-96926541D01*
X116812970Y-96212256D02*
X115955828Y-97497970D01*
X117098685Y-96355113D02*
X117146304Y-96307494D01*
X117146304Y-96307494D02*
X117241542Y-96259875D01*
X117241542Y-96259875D02*
X117479637Y-96259875D01*
X117479637Y-96259875D02*
X117574875Y-96307494D01*
X117574875Y-96307494D02*
X117622494Y-96355113D01*
X117622494Y-96355113D02*
X117670113Y-96450351D01*
X117670113Y-96450351D02*
X117670113Y-96545589D01*
X117670113Y-96545589D02*
X117622494Y-96688446D01*
X117622494Y-96688446D02*
X117051066Y-97259875D01*
X117051066Y-97259875D02*
X117670113Y-97259875D01*
X118289161Y-96259875D02*
X118384399Y-96259875D01*
X118384399Y-96259875D02*
X118479637Y-96307494D01*
X118479637Y-96307494D02*
X118527256Y-96355113D01*
X118527256Y-96355113D02*
X118574875Y-96450351D01*
X118574875Y-96450351D02*
X118622494Y-96640827D01*
X118622494Y-96640827D02*
X118622494Y-96878922D01*
X118622494Y-96878922D02*
X118574875Y-97069398D01*
X118574875Y-97069398D02*
X118527256Y-97164636D01*
X118527256Y-97164636D02*
X118479637Y-97212256D01*
X118479637Y-97212256D02*
X118384399Y-97259875D01*
X118384399Y-97259875D02*
X118289161Y-97259875D01*
X118289161Y-97259875D02*
X118193923Y-97212256D01*
X118193923Y-97212256D02*
X118146304Y-97164636D01*
X118146304Y-97164636D02*
X118098685Y-97069398D01*
X118098685Y-97069398D02*
X118051066Y-96878922D01*
X118051066Y-96878922D02*
X118051066Y-96640827D01*
X118051066Y-96640827D02*
X118098685Y-96450351D01*
X118098685Y-96450351D02*
X118146304Y-96355113D01*
X118146304Y-96355113D02*
X118193923Y-96307494D01*
X118193923Y-96307494D02*
X118289161Y-96259875D01*
X119003447Y-96355113D02*
X119051066Y-96307494D01*
X119051066Y-96307494D02*
X119146304Y-96259875D01*
X119146304Y-96259875D02*
X119384399Y-96259875D01*
X119384399Y-96259875D02*
X119479637Y-96307494D01*
X119479637Y-96307494D02*
X119527256Y-96355113D01*
X119527256Y-96355113D02*
X119574875Y-96450351D01*
X119574875Y-96450351D02*
X119574875Y-96545589D01*
X119574875Y-96545589D02*
X119527256Y-96688446D01*
X119527256Y-96688446D02*
X118955828Y-97259875D01*
X118955828Y-97259875D02*
X119574875Y-97259875D01*
X120479637Y-96259875D02*
X120003447Y-96259875D01*
X120003447Y-96259875D02*
X119955828Y-96736065D01*
X119955828Y-96736065D02*
X120003447Y-96688446D01*
X120003447Y-96688446D02*
X120098685Y-96640827D01*
X120098685Y-96640827D02*
X120336780Y-96640827D01*
X120336780Y-96640827D02*
X120432018Y-96688446D01*
X120432018Y-96688446D02*
X120479637Y-96736065D01*
X120479637Y-96736065D02*
X120527256Y-96831303D01*
X120527256Y-96831303D02*
X120527256Y-97069398D01*
X120527256Y-97069398D02*
X120479637Y-97164636D01*
X120479637Y-97164636D02*
X120432018Y-97212256D01*
X120432018Y-97212256D02*
X120336780Y-97259875D01*
X120336780Y-97259875D02*
X120098685Y-97259875D01*
X120098685Y-97259875D02*
X120003447Y-97212256D01*
X120003447Y-97212256D02*
X119955828Y-97164636D01*
X101622493Y-97869819D02*
X101622493Y-98584104D01*
X101622493Y-98584104D02*
X101574874Y-98726961D01*
X101574874Y-98726961D02*
X101479636Y-98822200D01*
X101479636Y-98822200D02*
X101336779Y-98869819D01*
X101336779Y-98869819D02*
X101241541Y-98869819D01*
X102527255Y-98869819D02*
X102527255Y-98346009D01*
X102527255Y-98346009D02*
X102479636Y-98250771D01*
X102479636Y-98250771D02*
X102384398Y-98203152D01*
X102384398Y-98203152D02*
X102193922Y-98203152D01*
X102193922Y-98203152D02*
X102098684Y-98250771D01*
X102527255Y-98822200D02*
X102432017Y-98869819D01*
X102432017Y-98869819D02*
X102193922Y-98869819D01*
X102193922Y-98869819D02*
X102098684Y-98822200D01*
X102098684Y-98822200D02*
X102051065Y-98726961D01*
X102051065Y-98726961D02*
X102051065Y-98631723D01*
X102051065Y-98631723D02*
X102098684Y-98536485D01*
X102098684Y-98536485D02*
X102193922Y-98488866D01*
X102193922Y-98488866D02*
X102432017Y-98488866D01*
X102432017Y-98488866D02*
X102527255Y-98441247D01*
X103003446Y-98869819D02*
X103003446Y-98203152D01*
X103003446Y-98298390D02*
X103051065Y-98250771D01*
X103051065Y-98250771D02*
X103146303Y-98203152D01*
X103146303Y-98203152D02*
X103289160Y-98203152D01*
X103289160Y-98203152D02*
X103384398Y-98250771D01*
X103384398Y-98250771D02*
X103432017Y-98346009D01*
X103432017Y-98346009D02*
X103432017Y-98869819D01*
X103432017Y-98346009D02*
X103479636Y-98250771D01*
X103479636Y-98250771D02*
X103574874Y-98203152D01*
X103574874Y-98203152D02*
X103717731Y-98203152D01*
X103717731Y-98203152D02*
X103812970Y-98250771D01*
X103812970Y-98250771D02*
X103860589Y-98346009D01*
X103860589Y-98346009D02*
X103860589Y-98869819D01*
X104717731Y-98822200D02*
X104622493Y-98869819D01*
X104622493Y-98869819D02*
X104432017Y-98869819D01*
X104432017Y-98869819D02*
X104336779Y-98822200D01*
X104336779Y-98822200D02*
X104289160Y-98726961D01*
X104289160Y-98726961D02*
X104289160Y-98346009D01*
X104289160Y-98346009D02*
X104336779Y-98250771D01*
X104336779Y-98250771D02*
X104432017Y-98203152D01*
X104432017Y-98203152D02*
X104622493Y-98203152D01*
X104622493Y-98203152D02*
X104717731Y-98250771D01*
X104717731Y-98250771D02*
X104765350Y-98346009D01*
X104765350Y-98346009D02*
X104765350Y-98441247D01*
X104765350Y-98441247D02*
X104289160Y-98536485D01*
X105146303Y-98822200D02*
X105241541Y-98869819D01*
X105241541Y-98869819D02*
X105432017Y-98869819D01*
X105432017Y-98869819D02*
X105527255Y-98822200D01*
X105527255Y-98822200D02*
X105574874Y-98726961D01*
X105574874Y-98726961D02*
X105574874Y-98679342D01*
X105574874Y-98679342D02*
X105527255Y-98584104D01*
X105527255Y-98584104D02*
X105432017Y-98536485D01*
X105432017Y-98536485D02*
X105289160Y-98536485D01*
X105289160Y-98536485D02*
X105193922Y-98488866D01*
X105193922Y-98488866D02*
X105146303Y-98393628D01*
X105146303Y-98393628D02*
X105146303Y-98346009D01*
X105146303Y-98346009D02*
X105193922Y-98250771D01*
X105193922Y-98250771D02*
X105289160Y-98203152D01*
X105289160Y-98203152D02*
X105432017Y-98203152D01*
X105432017Y-98203152D02*
X105527255Y-98250771D01*
X106146303Y-98869819D02*
X106051065Y-98822200D01*
X106051065Y-98822200D02*
X106003446Y-98774580D01*
X106003446Y-98774580D02*
X105955827Y-98679342D01*
X105955827Y-98679342D02*
X105955827Y-98393628D01*
X105955827Y-98393628D02*
X106003446Y-98298390D01*
X106003446Y-98298390D02*
X106051065Y-98250771D01*
X106051065Y-98250771D02*
X106146303Y-98203152D01*
X106146303Y-98203152D02*
X106289160Y-98203152D01*
X106289160Y-98203152D02*
X106384398Y-98250771D01*
X106384398Y-98250771D02*
X106432017Y-98298390D01*
X106432017Y-98298390D02*
X106479636Y-98393628D01*
X106479636Y-98393628D02*
X106479636Y-98679342D01*
X106479636Y-98679342D02*
X106432017Y-98774580D01*
X106432017Y-98774580D02*
X106384398Y-98822200D01*
X106384398Y-98822200D02*
X106289160Y-98869819D01*
X106289160Y-98869819D02*
X106146303Y-98869819D01*
X106908208Y-98203152D02*
X106908208Y-98869819D01*
X106908208Y-98298390D02*
X106955827Y-98250771D01*
X106955827Y-98250771D02*
X107051065Y-98203152D01*
X107051065Y-98203152D02*
X107193922Y-98203152D01*
X107193922Y-98203152D02*
X107289160Y-98250771D01*
X107289160Y-98250771D02*
X107336779Y-98346009D01*
X107336779Y-98346009D02*
X107336779Y-98869819D01*
X108527256Y-98822200D02*
X108670113Y-98869819D01*
X108670113Y-98869819D02*
X108908208Y-98869819D01*
X108908208Y-98869819D02*
X109003446Y-98822200D01*
X109003446Y-98822200D02*
X109051065Y-98774580D01*
X109051065Y-98774580D02*
X109098684Y-98679342D01*
X109098684Y-98679342D02*
X109098684Y-98584104D01*
X109098684Y-98584104D02*
X109051065Y-98488866D01*
X109051065Y-98488866D02*
X109003446Y-98441247D01*
X109003446Y-98441247D02*
X108908208Y-98393628D01*
X108908208Y-98393628D02*
X108717732Y-98346009D01*
X108717732Y-98346009D02*
X108622494Y-98298390D01*
X108622494Y-98298390D02*
X108574875Y-98250771D01*
X108574875Y-98250771D02*
X108527256Y-98155533D01*
X108527256Y-98155533D02*
X108527256Y-98060295D01*
X108527256Y-98060295D02*
X108574875Y-97965057D01*
X108574875Y-97965057D02*
X108622494Y-97917438D01*
X108622494Y-97917438D02*
X108717732Y-97869819D01*
X108717732Y-97869819D02*
X108955827Y-97869819D01*
X108955827Y-97869819D02*
X109098684Y-97917438D01*
X109384399Y-98203152D02*
X109765351Y-98203152D01*
X109527256Y-97869819D02*
X109527256Y-98726961D01*
X109527256Y-98726961D02*
X109574875Y-98822200D01*
X109574875Y-98822200D02*
X109670113Y-98869819D01*
X109670113Y-98869819D02*
X109765351Y-98869819D01*
X110527256Y-98869819D02*
X110527256Y-98346009D01*
X110527256Y-98346009D02*
X110479637Y-98250771D01*
X110479637Y-98250771D02*
X110384399Y-98203152D01*
X110384399Y-98203152D02*
X110193923Y-98203152D01*
X110193923Y-98203152D02*
X110098685Y-98250771D01*
X110527256Y-98822200D02*
X110432018Y-98869819D01*
X110432018Y-98869819D02*
X110193923Y-98869819D01*
X110193923Y-98869819D02*
X110098685Y-98822200D01*
X110098685Y-98822200D02*
X110051066Y-98726961D01*
X110051066Y-98726961D02*
X110051066Y-98631723D01*
X110051066Y-98631723D02*
X110098685Y-98536485D01*
X110098685Y-98536485D02*
X110193923Y-98488866D01*
X110193923Y-98488866D02*
X110432018Y-98488866D01*
X110432018Y-98488866D02*
X110527256Y-98441247D01*
X111003447Y-98203152D02*
X111003447Y-98869819D01*
X111003447Y-98298390D02*
X111051066Y-98250771D01*
X111051066Y-98250771D02*
X111146304Y-98203152D01*
X111146304Y-98203152D02*
X111289161Y-98203152D01*
X111289161Y-98203152D02*
X111384399Y-98250771D01*
X111384399Y-98250771D02*
X111432018Y-98346009D01*
X111432018Y-98346009D02*
X111432018Y-98869819D01*
X112051066Y-98869819D02*
X111955828Y-98822200D01*
X111955828Y-98822200D02*
X111908209Y-98726961D01*
X111908209Y-98726961D02*
X111908209Y-97869819D01*
X112812971Y-98822200D02*
X112717733Y-98869819D01*
X112717733Y-98869819D02*
X112527257Y-98869819D01*
X112527257Y-98869819D02*
X112432019Y-98822200D01*
X112432019Y-98822200D02*
X112384400Y-98726961D01*
X112384400Y-98726961D02*
X112384400Y-98346009D01*
X112384400Y-98346009D02*
X112432019Y-98250771D01*
X112432019Y-98250771D02*
X112527257Y-98203152D01*
X112527257Y-98203152D02*
X112717733Y-98203152D01*
X112717733Y-98203152D02*
X112812971Y-98250771D01*
X112812971Y-98250771D02*
X112860590Y-98346009D01*
X112860590Y-98346009D02*
X112860590Y-98441247D01*
X112860590Y-98441247D02*
X112384400Y-98536485D01*
X113193924Y-98203152D02*
X113432019Y-98869819D01*
X113670114Y-98203152D02*
X113432019Y-98869819D01*
X113432019Y-98869819D02*
X113336781Y-99107914D01*
X113336781Y-99107914D02*
X113289162Y-99155533D01*
X113289162Y-99155533D02*
X113193924Y-99203152D01*
X161527255Y-86869819D02*
X161717731Y-86869819D01*
X161717731Y-86869819D02*
X161812969Y-86917438D01*
X161812969Y-86917438D02*
X161908207Y-87012676D01*
X161908207Y-87012676D02*
X161955826Y-87203152D01*
X161955826Y-87203152D02*
X161955826Y-87536485D01*
X161955826Y-87536485D02*
X161908207Y-87726961D01*
X161908207Y-87726961D02*
X161812969Y-87822200D01*
X161812969Y-87822200D02*
X161717731Y-87869819D01*
X161717731Y-87869819D02*
X161527255Y-87869819D01*
X161527255Y-87869819D02*
X161432017Y-87822200D01*
X161432017Y-87822200D02*
X161336779Y-87726961D01*
X161336779Y-87726961D02*
X161289160Y-87536485D01*
X161289160Y-87536485D02*
X161289160Y-87203152D01*
X161289160Y-87203152D02*
X161336779Y-87012676D01*
X161336779Y-87012676D02*
X161432017Y-86917438D01*
X161432017Y-86917438D02*
X161527255Y-86869819D01*
X162384398Y-87869819D02*
X162384398Y-86869819D01*
X162384398Y-86869819D02*
X162955826Y-87869819D01*
X162955826Y-87869819D02*
X162955826Y-86869819D01*
X164146302Y-86822200D02*
X163289160Y-88107914D01*
X164670112Y-86869819D02*
X164860588Y-86869819D01*
X164860588Y-86869819D02*
X164955826Y-86917438D01*
X164955826Y-86917438D02*
X165051064Y-87012676D01*
X165051064Y-87012676D02*
X165098683Y-87203152D01*
X165098683Y-87203152D02*
X165098683Y-87536485D01*
X165098683Y-87536485D02*
X165051064Y-87726961D01*
X165051064Y-87726961D02*
X164955826Y-87822200D01*
X164955826Y-87822200D02*
X164860588Y-87869819D01*
X164860588Y-87869819D02*
X164670112Y-87869819D01*
X164670112Y-87869819D02*
X164574874Y-87822200D01*
X164574874Y-87822200D02*
X164479636Y-87726961D01*
X164479636Y-87726961D02*
X164432017Y-87536485D01*
X164432017Y-87536485D02*
X164432017Y-87203152D01*
X164432017Y-87203152D02*
X164479636Y-87012676D01*
X164479636Y-87012676D02*
X164574874Y-86917438D01*
X164574874Y-86917438D02*
X164670112Y-86869819D01*
X165860588Y-87346009D02*
X165527255Y-87346009D01*
X165527255Y-87869819D02*
X165527255Y-86869819D01*
X165527255Y-86869819D02*
X166003445Y-86869819D01*
X166717731Y-87346009D02*
X166384398Y-87346009D01*
X166384398Y-87869819D02*
X166384398Y-86869819D01*
X166384398Y-86869819D02*
X166860588Y-86869819D01*
X151336779Y-86869819D02*
X151336779Y-87679342D01*
X151336779Y-87679342D02*
X151384398Y-87774580D01*
X151384398Y-87774580D02*
X151432017Y-87822200D01*
X151432017Y-87822200D02*
X151527255Y-87869819D01*
X151527255Y-87869819D02*
X151717731Y-87869819D01*
X151717731Y-87869819D02*
X151812969Y-87822200D01*
X151812969Y-87822200D02*
X151860588Y-87774580D01*
X151860588Y-87774580D02*
X151908207Y-87679342D01*
X151908207Y-87679342D02*
X151908207Y-86869819D01*
X152384398Y-87869819D02*
X152384398Y-86869819D01*
X152384398Y-86869819D02*
X152955826Y-87869819D01*
X152955826Y-87869819D02*
X152955826Y-86869819D01*
X153432017Y-87869819D02*
X153432017Y-86869819D01*
X153765350Y-86869819D02*
X154336778Y-86869819D01*
X154051064Y-87869819D02*
X154051064Y-86869819D01*
X154622493Y-87822200D02*
X154765350Y-87869819D01*
X154765350Y-87869819D02*
X155003445Y-87869819D01*
X155003445Y-87869819D02*
X155098683Y-87822200D01*
X155098683Y-87822200D02*
X155146302Y-87774580D01*
X155146302Y-87774580D02*
X155193921Y-87679342D01*
X155193921Y-87679342D02*
X155193921Y-87584104D01*
X155193921Y-87584104D02*
X155146302Y-87488866D01*
X155146302Y-87488866D02*
X155098683Y-87441247D01*
X155098683Y-87441247D02*
X155003445Y-87393628D01*
X155003445Y-87393628D02*
X154812969Y-87346009D01*
X154812969Y-87346009D02*
X154717731Y-87298390D01*
X154717731Y-87298390D02*
X154670112Y-87250771D01*
X154670112Y-87250771D02*
X154622493Y-87155533D01*
X154622493Y-87155533D02*
X154622493Y-87060295D01*
X154622493Y-87060295D02*
X154670112Y-86965057D01*
X154670112Y-86965057D02*
X154717731Y-86917438D01*
X154717731Y-86917438D02*
X154812969Y-86869819D01*
X154812969Y-86869819D02*
X155051064Y-86869819D01*
X155051064Y-86869819D02*
X155193921Y-86917438D01*
X142312969Y-87869819D02*
X141836779Y-87869819D01*
X141836779Y-87869819D02*
X141836779Y-86869819D01*
X142646303Y-87869819D02*
X142646303Y-86869819D01*
X143646302Y-86917438D02*
X143551064Y-86869819D01*
X143551064Y-86869819D02*
X143408207Y-86869819D01*
X143408207Y-86869819D02*
X143265350Y-86917438D01*
X143265350Y-86917438D02*
X143170112Y-87012676D01*
X143170112Y-87012676D02*
X143122493Y-87107914D01*
X143122493Y-87107914D02*
X143074874Y-87298390D01*
X143074874Y-87298390D02*
X143074874Y-87441247D01*
X143074874Y-87441247D02*
X143122493Y-87631723D01*
X143122493Y-87631723D02*
X143170112Y-87726961D01*
X143170112Y-87726961D02*
X143265350Y-87822200D01*
X143265350Y-87822200D02*
X143408207Y-87869819D01*
X143408207Y-87869819D02*
X143503445Y-87869819D01*
X143503445Y-87869819D02*
X143646302Y-87822200D01*
X143646302Y-87822200D02*
X143693921Y-87774580D01*
X143693921Y-87774580D02*
X143693921Y-87441247D01*
X143693921Y-87441247D02*
X143503445Y-87441247D01*
X144122493Y-87869819D02*
X144122493Y-86869819D01*
X144122493Y-87346009D02*
X144693921Y-87346009D01*
X144693921Y-87869819D02*
X144693921Y-86869819D01*
X145027255Y-86869819D02*
X145598683Y-86869819D01*
X145312969Y-87869819D02*
X145312969Y-86869819D01*
X132908207Y-87774580D02*
X132860588Y-87822200D01*
X132860588Y-87822200D02*
X132717731Y-87869819D01*
X132717731Y-87869819D02*
X132622493Y-87869819D01*
X132622493Y-87869819D02*
X132479636Y-87822200D01*
X132479636Y-87822200D02*
X132384398Y-87726961D01*
X132384398Y-87726961D02*
X132336779Y-87631723D01*
X132336779Y-87631723D02*
X132289160Y-87441247D01*
X132289160Y-87441247D02*
X132289160Y-87298390D01*
X132289160Y-87298390D02*
X132336779Y-87107914D01*
X132336779Y-87107914D02*
X132384398Y-87012676D01*
X132384398Y-87012676D02*
X132479636Y-86917438D01*
X132479636Y-86917438D02*
X132622493Y-86869819D01*
X132622493Y-86869819D02*
X132717731Y-86869819D01*
X132717731Y-86869819D02*
X132860588Y-86917438D01*
X132860588Y-86917438D02*
X132908207Y-86965057D01*
X133289160Y-87584104D02*
X133765350Y-87584104D01*
X133193922Y-87869819D02*
X133527255Y-86869819D01*
X133527255Y-86869819D02*
X133860588Y-87869819D01*
X134670112Y-87869819D02*
X134193922Y-87869819D01*
X134193922Y-87869819D02*
X134193922Y-86869819D01*
X122312969Y-87869819D02*
X121836779Y-87869819D01*
X121836779Y-87869819D02*
X121836779Y-86869819D01*
X122836779Y-86869819D02*
X123027255Y-86869819D01*
X123027255Y-86869819D02*
X123122493Y-86917438D01*
X123122493Y-86917438D02*
X123217731Y-87012676D01*
X123217731Y-87012676D02*
X123265350Y-87203152D01*
X123265350Y-87203152D02*
X123265350Y-87536485D01*
X123265350Y-87536485D02*
X123217731Y-87726961D01*
X123217731Y-87726961D02*
X123122493Y-87822200D01*
X123122493Y-87822200D02*
X123027255Y-87869819D01*
X123027255Y-87869819D02*
X122836779Y-87869819D01*
X122836779Y-87869819D02*
X122741541Y-87822200D01*
X122741541Y-87822200D02*
X122646303Y-87726961D01*
X122646303Y-87726961D02*
X122598684Y-87536485D01*
X122598684Y-87536485D02*
X122598684Y-87203152D01*
X122598684Y-87203152D02*
X122646303Y-87012676D01*
X122646303Y-87012676D02*
X122741541Y-86917438D01*
X122741541Y-86917438D02*
X122836779Y-86869819D01*
X124265350Y-87774580D02*
X124217731Y-87822200D01*
X124217731Y-87822200D02*
X124074874Y-87869819D01*
X124074874Y-87869819D02*
X123979636Y-87869819D01*
X123979636Y-87869819D02*
X123836779Y-87822200D01*
X123836779Y-87822200D02*
X123741541Y-87726961D01*
X123741541Y-87726961D02*
X123693922Y-87631723D01*
X123693922Y-87631723D02*
X123646303Y-87441247D01*
X123646303Y-87441247D02*
X123646303Y-87298390D01*
X123646303Y-87298390D02*
X123693922Y-87107914D01*
X123693922Y-87107914D02*
X123741541Y-87012676D01*
X123741541Y-87012676D02*
X123836779Y-86917438D01*
X123836779Y-86917438D02*
X123979636Y-86869819D01*
X123979636Y-86869819D02*
X124074874Y-86869819D01*
X124074874Y-86869819D02*
X124217731Y-86917438D01*
X124217731Y-86917438D02*
X124265350Y-86965057D01*
X124693922Y-87869819D02*
X124693922Y-86869819D01*
X125265350Y-87869819D02*
X124836779Y-87298390D01*
X125265350Y-86869819D02*
X124693922Y-87441247D01*
X108693922Y-87259875D02*
X109265350Y-87259875D01*
X108979636Y-88259875D02*
X108979636Y-87259875D01*
X109598684Y-87736065D02*
X109932017Y-87736065D01*
X110074874Y-88259875D02*
X109598684Y-88259875D01*
X109598684Y-88259875D02*
X109598684Y-87259875D01*
X109598684Y-87259875D02*
X110074874Y-87259875D01*
X110503446Y-88259875D02*
X110503446Y-87259875D01*
X110503446Y-87259875D02*
X110836779Y-87974160D01*
X110836779Y-87974160D02*
X111170112Y-87259875D01*
X111170112Y-87259875D02*
X111170112Y-88259875D01*
X111646303Y-88259875D02*
X111646303Y-87259875D01*
X111646303Y-87259875D02*
X112027255Y-87259875D01*
X112027255Y-87259875D02*
X112122493Y-87307494D01*
X112122493Y-87307494D02*
X112170112Y-87355113D01*
X112170112Y-87355113D02*
X112217731Y-87450351D01*
X112217731Y-87450351D02*
X112217731Y-87593208D01*
X112217731Y-87593208D02*
X112170112Y-87688446D01*
X112170112Y-87688446D02*
X112122493Y-87736065D01*
X112122493Y-87736065D02*
X112027255Y-87783684D01*
X112027255Y-87783684D02*
X111646303Y-87783684D01*
X113360589Y-88212256D02*
X113503446Y-88259875D01*
X113503446Y-88259875D02*
X113741541Y-88259875D01*
X113741541Y-88259875D02*
X113836779Y-88212256D01*
X113836779Y-88212256D02*
X113884398Y-88164636D01*
X113884398Y-88164636D02*
X113932017Y-88069398D01*
X113932017Y-88069398D02*
X113932017Y-87974160D01*
X113932017Y-87974160D02*
X113884398Y-87878922D01*
X113884398Y-87878922D02*
X113836779Y-87831303D01*
X113836779Y-87831303D02*
X113741541Y-87783684D01*
X113741541Y-87783684D02*
X113551065Y-87736065D01*
X113551065Y-87736065D02*
X113455827Y-87688446D01*
X113455827Y-87688446D02*
X113408208Y-87640827D01*
X113408208Y-87640827D02*
X113360589Y-87545589D01*
X113360589Y-87545589D02*
X113360589Y-87450351D01*
X113360589Y-87450351D02*
X113408208Y-87355113D01*
X113408208Y-87355113D02*
X113455827Y-87307494D01*
X113455827Y-87307494D02*
X113551065Y-87259875D01*
X113551065Y-87259875D02*
X113789160Y-87259875D01*
X113789160Y-87259875D02*
X113932017Y-87307494D01*
X114360589Y-88259875D02*
X114360589Y-87259875D01*
X114836779Y-88259875D02*
X114836779Y-87259875D01*
X114836779Y-87259875D02*
X115170112Y-87974160D01*
X115170112Y-87974160D02*
X115503445Y-87259875D01*
X115503445Y-87259875D02*
X115503445Y-88259875D01*
X115979636Y-88164636D02*
X116027255Y-88212256D01*
X116027255Y-88212256D02*
X115979636Y-88259875D01*
X115979636Y-88259875D02*
X115932017Y-88212256D01*
X115932017Y-88212256D02*
X115979636Y-88164636D01*
X115979636Y-88164636D02*
X115979636Y-88259875D01*
X105468922Y-48619819D02*
X106040350Y-48619819D01*
X105754636Y-49619819D02*
X105754636Y-48619819D01*
X106754636Y-49572200D02*
X106659398Y-49619819D01*
X106659398Y-49619819D02*
X106468922Y-49619819D01*
X106468922Y-49619819D02*
X106373684Y-49572200D01*
X106373684Y-49572200D02*
X106326065Y-49476961D01*
X106326065Y-49476961D02*
X106326065Y-49096009D01*
X106326065Y-49096009D02*
X106373684Y-49000771D01*
X106373684Y-49000771D02*
X106468922Y-48953152D01*
X106468922Y-48953152D02*
X106659398Y-48953152D01*
X106659398Y-48953152D02*
X106754636Y-49000771D01*
X106754636Y-49000771D02*
X106802255Y-49096009D01*
X106802255Y-49096009D02*
X106802255Y-49191247D01*
X106802255Y-49191247D02*
X106326065Y-49286485D01*
X107230827Y-49619819D02*
X107230827Y-48953152D01*
X107230827Y-49048390D02*
X107278446Y-49000771D01*
X107278446Y-49000771D02*
X107373684Y-48953152D01*
X107373684Y-48953152D02*
X107516541Y-48953152D01*
X107516541Y-48953152D02*
X107611779Y-49000771D01*
X107611779Y-49000771D02*
X107659398Y-49096009D01*
X107659398Y-49096009D02*
X107659398Y-49619819D01*
X107659398Y-49096009D02*
X107707017Y-49000771D01*
X107707017Y-49000771D02*
X107802255Y-48953152D01*
X107802255Y-48953152D02*
X107945112Y-48953152D01*
X107945112Y-48953152D02*
X108040351Y-49000771D01*
X108040351Y-49000771D02*
X108087970Y-49096009D01*
X108087970Y-49096009D02*
X108087970Y-49619819D01*
X108564160Y-48953152D02*
X108564160Y-49953152D01*
X108564160Y-49000771D02*
X108659398Y-48953152D01*
X108659398Y-48953152D02*
X108849874Y-48953152D01*
X108849874Y-48953152D02*
X108945112Y-49000771D01*
X108945112Y-49000771D02*
X108992731Y-49048390D01*
X108992731Y-49048390D02*
X109040350Y-49143628D01*
X109040350Y-49143628D02*
X109040350Y-49429342D01*
X109040350Y-49429342D02*
X108992731Y-49524580D01*
X108992731Y-49524580D02*
X108945112Y-49572200D01*
X108945112Y-49572200D02*
X108849874Y-49619819D01*
X108849874Y-49619819D02*
X108659398Y-49619819D01*
X108659398Y-49619819D02*
X108564160Y-49572200D01*
X110183208Y-49572200D02*
X110326065Y-49619819D01*
X110326065Y-49619819D02*
X110564160Y-49619819D01*
X110564160Y-49619819D02*
X110659398Y-49572200D01*
X110659398Y-49572200D02*
X110707017Y-49524580D01*
X110707017Y-49524580D02*
X110754636Y-49429342D01*
X110754636Y-49429342D02*
X110754636Y-49334104D01*
X110754636Y-49334104D02*
X110707017Y-49238866D01*
X110707017Y-49238866D02*
X110659398Y-49191247D01*
X110659398Y-49191247D02*
X110564160Y-49143628D01*
X110564160Y-49143628D02*
X110373684Y-49096009D01*
X110373684Y-49096009D02*
X110278446Y-49048390D01*
X110278446Y-49048390D02*
X110230827Y-49000771D01*
X110230827Y-49000771D02*
X110183208Y-48905533D01*
X110183208Y-48905533D02*
X110183208Y-48810295D01*
X110183208Y-48810295D02*
X110230827Y-48715057D01*
X110230827Y-48715057D02*
X110278446Y-48667438D01*
X110278446Y-48667438D02*
X110373684Y-48619819D01*
X110373684Y-48619819D02*
X110611779Y-48619819D01*
X110611779Y-48619819D02*
X110754636Y-48667438D01*
X111564160Y-49572200D02*
X111468922Y-49619819D01*
X111468922Y-49619819D02*
X111278446Y-49619819D01*
X111278446Y-49619819D02*
X111183208Y-49572200D01*
X111183208Y-49572200D02*
X111135589Y-49476961D01*
X111135589Y-49476961D02*
X111135589Y-49096009D01*
X111135589Y-49096009D02*
X111183208Y-49000771D01*
X111183208Y-49000771D02*
X111278446Y-48953152D01*
X111278446Y-48953152D02*
X111468922Y-48953152D01*
X111468922Y-48953152D02*
X111564160Y-49000771D01*
X111564160Y-49000771D02*
X111611779Y-49096009D01*
X111611779Y-49096009D02*
X111611779Y-49191247D01*
X111611779Y-49191247D02*
X111135589Y-49286485D01*
X112040351Y-48953152D02*
X112040351Y-49619819D01*
X112040351Y-49048390D02*
X112087970Y-49000771D01*
X112087970Y-49000771D02*
X112183208Y-48953152D01*
X112183208Y-48953152D02*
X112326065Y-48953152D01*
X112326065Y-48953152D02*
X112421303Y-49000771D01*
X112421303Y-49000771D02*
X112468922Y-49096009D01*
X112468922Y-49096009D02*
X112468922Y-49619819D01*
X112897494Y-49572200D02*
X112992732Y-49619819D01*
X112992732Y-49619819D02*
X113183208Y-49619819D01*
X113183208Y-49619819D02*
X113278446Y-49572200D01*
X113278446Y-49572200D02*
X113326065Y-49476961D01*
X113326065Y-49476961D02*
X113326065Y-49429342D01*
X113326065Y-49429342D02*
X113278446Y-49334104D01*
X113278446Y-49334104D02*
X113183208Y-49286485D01*
X113183208Y-49286485D02*
X113040351Y-49286485D01*
X113040351Y-49286485D02*
X112945113Y-49238866D01*
X112945113Y-49238866D02*
X112897494Y-49143628D01*
X112897494Y-49143628D02*
X112897494Y-49096009D01*
X112897494Y-49096009D02*
X112945113Y-49000771D01*
X112945113Y-49000771D02*
X113040351Y-48953152D01*
X113040351Y-48953152D02*
X113183208Y-48953152D01*
X113183208Y-48953152D02*
X113278446Y-49000771D01*
X113897494Y-49619819D02*
X113802256Y-49572200D01*
X113802256Y-49572200D02*
X113754637Y-49524580D01*
X113754637Y-49524580D02*
X113707018Y-49429342D01*
X113707018Y-49429342D02*
X113707018Y-49143628D01*
X113707018Y-49143628D02*
X113754637Y-49048390D01*
X113754637Y-49048390D02*
X113802256Y-49000771D01*
X113802256Y-49000771D02*
X113897494Y-48953152D01*
X113897494Y-48953152D02*
X114040351Y-48953152D01*
X114040351Y-48953152D02*
X114135589Y-49000771D01*
X114135589Y-49000771D02*
X114183208Y-49048390D01*
X114183208Y-49048390D02*
X114230827Y-49143628D01*
X114230827Y-49143628D02*
X114230827Y-49429342D01*
X114230827Y-49429342D02*
X114183208Y-49524580D01*
X114183208Y-49524580D02*
X114135589Y-49572200D01*
X114135589Y-49572200D02*
X114040351Y-49619819D01*
X114040351Y-49619819D02*
X113897494Y-49619819D01*
X114659399Y-49619819D02*
X114659399Y-48953152D01*
X114659399Y-49143628D02*
X114707018Y-49048390D01*
X114707018Y-49048390D02*
X114754637Y-49000771D01*
X114754637Y-49000771D02*
X114849875Y-48953152D01*
X114849875Y-48953152D02*
X114945113Y-48953152D01*
X112954819Y-81150238D02*
X112478628Y-81483571D01*
X112954819Y-81721666D02*
X111954819Y-81721666D01*
X111954819Y-81721666D02*
X111954819Y-81340714D01*
X111954819Y-81340714D02*
X112002438Y-81245476D01*
X112002438Y-81245476D02*
X112050057Y-81197857D01*
X112050057Y-81197857D02*
X112145295Y-81150238D01*
X112145295Y-81150238D02*
X112288152Y-81150238D01*
X112288152Y-81150238D02*
X112383390Y-81197857D01*
X112383390Y-81197857D02*
X112431009Y-81245476D01*
X112431009Y-81245476D02*
X112478628Y-81340714D01*
X112478628Y-81340714D02*
X112478628Y-81721666D01*
X111954819Y-80864523D02*
X112954819Y-80531190D01*
X112954819Y-80531190D02*
X111954819Y-80197857D01*
X112954819Y-79340714D02*
X112954819Y-79912142D01*
X112954819Y-79626428D02*
X111954819Y-79626428D01*
X111954819Y-79626428D02*
X112097676Y-79721666D01*
X112097676Y-79721666D02*
X112192914Y-79816904D01*
X112192914Y-79816904D02*
X112240533Y-79912142D01*
X151724819Y-72333333D02*
X152439104Y-72333333D01*
X152439104Y-72333333D02*
X152581961Y-72380952D01*
X152581961Y-72380952D02*
X152677200Y-72476190D01*
X152677200Y-72476190D02*
X152724819Y-72619047D01*
X152724819Y-72619047D02*
X152724819Y-72714285D01*
X151724819Y-71428571D02*
X151724819Y-71619047D01*
X151724819Y-71619047D02*
X151772438Y-71714285D01*
X151772438Y-71714285D02*
X151820057Y-71761904D01*
X151820057Y-71761904D02*
X151962914Y-71857142D01*
X151962914Y-71857142D02*
X152153390Y-71904761D01*
X152153390Y-71904761D02*
X152534342Y-71904761D01*
X152534342Y-71904761D02*
X152629580Y-71857142D01*
X152629580Y-71857142D02*
X152677200Y-71809523D01*
X152677200Y-71809523D02*
X152724819Y-71714285D01*
X152724819Y-71714285D02*
X152724819Y-71523809D01*
X152724819Y-71523809D02*
X152677200Y-71428571D01*
X152677200Y-71428571D02*
X152629580Y-71380952D01*
X152629580Y-71380952D02*
X152534342Y-71333333D01*
X152534342Y-71333333D02*
X152296247Y-71333333D01*
X152296247Y-71333333D02*
X152201009Y-71380952D01*
X152201009Y-71380952D02*
X152153390Y-71428571D01*
X152153390Y-71428571D02*
X152105771Y-71523809D01*
X152105771Y-71523809D02*
X152105771Y-71714285D01*
X152105771Y-71714285D02*
X152153390Y-71809523D01*
X152153390Y-71809523D02*
X152201009Y-71857142D01*
X152201009Y-71857142D02*
X152296247Y-71904761D01*
X134954819Y-60666666D02*
X134478628Y-60999999D01*
X134954819Y-61238094D02*
X133954819Y-61238094D01*
X133954819Y-61238094D02*
X133954819Y-60857142D01*
X133954819Y-60857142D02*
X134002438Y-60761904D01*
X134002438Y-60761904D02*
X134050057Y-60714285D01*
X134050057Y-60714285D02*
X134145295Y-60666666D01*
X134145295Y-60666666D02*
X134288152Y-60666666D01*
X134288152Y-60666666D02*
X134383390Y-60714285D01*
X134383390Y-60714285D02*
X134431009Y-60761904D01*
X134431009Y-60761904D02*
X134478628Y-60857142D01*
X134478628Y-60857142D02*
X134478628Y-61238094D01*
X133954819Y-59809523D02*
X133954819Y-59999999D01*
X133954819Y-59999999D02*
X134002438Y-60095237D01*
X134002438Y-60095237D02*
X134050057Y-60142856D01*
X134050057Y-60142856D02*
X134192914Y-60238094D01*
X134192914Y-60238094D02*
X134383390Y-60285713D01*
X134383390Y-60285713D02*
X134764342Y-60285713D01*
X134764342Y-60285713D02*
X134859580Y-60238094D01*
X134859580Y-60238094D02*
X134907200Y-60190475D01*
X134907200Y-60190475D02*
X134954819Y-60095237D01*
X134954819Y-60095237D02*
X134954819Y-59904761D01*
X134954819Y-59904761D02*
X134907200Y-59809523D01*
X134907200Y-59809523D02*
X134859580Y-59761904D01*
X134859580Y-59761904D02*
X134764342Y-59714285D01*
X134764342Y-59714285D02*
X134526247Y-59714285D01*
X134526247Y-59714285D02*
X134431009Y-59761904D01*
X134431009Y-59761904D02*
X134383390Y-59809523D01*
X134383390Y-59809523D02*
X134335771Y-59904761D01*
X134335771Y-59904761D02*
X134335771Y-60095237D01*
X134335771Y-60095237D02*
X134383390Y-60190475D01*
X134383390Y-60190475D02*
X134431009Y-60238094D01*
X134431009Y-60238094D02*
X134526247Y-60285713D01*
X129761905Y-59494819D02*
X129761905Y-58494819D01*
X129761905Y-58494819D02*
X130000000Y-58494819D01*
X130000000Y-58494819D02*
X130142857Y-58542438D01*
X130142857Y-58542438D02*
X130238095Y-58637676D01*
X130238095Y-58637676D02*
X130285714Y-58732914D01*
X130285714Y-58732914D02*
X130333333Y-58923390D01*
X130333333Y-58923390D02*
X130333333Y-59066247D01*
X130333333Y-59066247D02*
X130285714Y-59256723D01*
X130285714Y-59256723D02*
X130238095Y-59351961D01*
X130238095Y-59351961D02*
X130142857Y-59447200D01*
X130142857Y-59447200D02*
X130000000Y-59494819D01*
X130000000Y-59494819D02*
X129761905Y-59494819D01*
X131285714Y-59494819D02*
X130714286Y-59494819D01*
X131000000Y-59494819D02*
X131000000Y-58494819D01*
X131000000Y-58494819D02*
X130904762Y-58637676D01*
X130904762Y-58637676D02*
X130809524Y-58732914D01*
X130809524Y-58732914D02*
X130714286Y-58780533D01*
X102954819Y-52833333D02*
X103669104Y-52833333D01*
X103669104Y-52833333D02*
X103811961Y-52880952D01*
X103811961Y-52880952D02*
X103907200Y-52976190D01*
X103907200Y-52976190D02*
X103954819Y-53119047D01*
X103954819Y-53119047D02*
X103954819Y-53214285D01*
X102954819Y-52452380D02*
X102954819Y-51785714D01*
X102954819Y-51785714D02*
X103954819Y-52214285D01*
X121916667Y-83157200D02*
X122059524Y-83204819D01*
X122059524Y-83204819D02*
X122297619Y-83204819D01*
X122297619Y-83204819D02*
X122392857Y-83157200D01*
X122392857Y-83157200D02*
X122440476Y-83109580D01*
X122440476Y-83109580D02*
X122488095Y-83014342D01*
X122488095Y-83014342D02*
X122488095Y-82919104D01*
X122488095Y-82919104D02*
X122440476Y-82823866D01*
X122440476Y-82823866D02*
X122392857Y-82776247D01*
X122392857Y-82776247D02*
X122297619Y-82728628D01*
X122297619Y-82728628D02*
X122107143Y-82681009D01*
X122107143Y-82681009D02*
X122011905Y-82633390D01*
X122011905Y-82633390D02*
X121964286Y-82585771D01*
X121964286Y-82585771D02*
X121916667Y-82490533D01*
X121916667Y-82490533D02*
X121916667Y-82395295D01*
X121916667Y-82395295D02*
X121964286Y-82300057D01*
X121964286Y-82300057D02*
X122011905Y-82252438D01*
X122011905Y-82252438D02*
X122107143Y-82204819D01*
X122107143Y-82204819D02*
X122345238Y-82204819D01*
X122345238Y-82204819D02*
X122488095Y-82252438D01*
X122821429Y-82204819D02*
X123059524Y-83204819D01*
X123059524Y-83204819D02*
X123250000Y-82490533D01*
X123250000Y-82490533D02*
X123440476Y-83204819D01*
X123440476Y-83204819D02*
X123678572Y-82204819D01*
X124535714Y-82204819D02*
X124059524Y-82204819D01*
X124059524Y-82204819D02*
X124011905Y-82681009D01*
X124011905Y-82681009D02*
X124059524Y-82633390D01*
X124059524Y-82633390D02*
X124154762Y-82585771D01*
X124154762Y-82585771D02*
X124392857Y-82585771D01*
X124392857Y-82585771D02*
X124488095Y-82633390D01*
X124488095Y-82633390D02*
X124535714Y-82681009D01*
X124535714Y-82681009D02*
X124583333Y-82776247D01*
X124583333Y-82776247D02*
X124583333Y-83014342D01*
X124583333Y-83014342D02*
X124535714Y-83109580D01*
X124535714Y-83109580D02*
X124488095Y-83157200D01*
X124488095Y-83157200D02*
X124392857Y-83204819D01*
X124392857Y-83204819D02*
X124154762Y-83204819D01*
X124154762Y-83204819D02*
X124059524Y-83157200D01*
X124059524Y-83157200D02*
X124011905Y-83109580D01*
X154104819Y-60786666D02*
X153628628Y-61119999D01*
X154104819Y-61358094D02*
X153104819Y-61358094D01*
X153104819Y-61358094D02*
X153104819Y-60977142D01*
X153104819Y-60977142D02*
X153152438Y-60881904D01*
X153152438Y-60881904D02*
X153200057Y-60834285D01*
X153200057Y-60834285D02*
X153295295Y-60786666D01*
X153295295Y-60786666D02*
X153438152Y-60786666D01*
X153438152Y-60786666D02*
X153533390Y-60834285D01*
X153533390Y-60834285D02*
X153581009Y-60881904D01*
X153581009Y-60881904D02*
X153628628Y-60977142D01*
X153628628Y-60977142D02*
X153628628Y-61358094D01*
X153200057Y-60405713D02*
X153152438Y-60358094D01*
X153152438Y-60358094D02*
X153104819Y-60262856D01*
X153104819Y-60262856D02*
X153104819Y-60024761D01*
X153104819Y-60024761D02*
X153152438Y-59929523D01*
X153152438Y-59929523D02*
X153200057Y-59881904D01*
X153200057Y-59881904D02*
X153295295Y-59834285D01*
X153295295Y-59834285D02*
X153390533Y-59834285D01*
X153390533Y-59834285D02*
X153533390Y-59881904D01*
X153533390Y-59881904D02*
X154104819Y-60453332D01*
X154104819Y-60453332D02*
X154104819Y-59834285D01*
X161916667Y-83157200D02*
X162059524Y-83204819D01*
X162059524Y-83204819D02*
X162297619Y-83204819D01*
X162297619Y-83204819D02*
X162392857Y-83157200D01*
X162392857Y-83157200D02*
X162440476Y-83109580D01*
X162440476Y-83109580D02*
X162488095Y-83014342D01*
X162488095Y-83014342D02*
X162488095Y-82919104D01*
X162488095Y-82919104D02*
X162440476Y-82823866D01*
X162440476Y-82823866D02*
X162392857Y-82776247D01*
X162392857Y-82776247D02*
X162297619Y-82728628D01*
X162297619Y-82728628D02*
X162107143Y-82681009D01*
X162107143Y-82681009D02*
X162011905Y-82633390D01*
X162011905Y-82633390D02*
X161964286Y-82585771D01*
X161964286Y-82585771D02*
X161916667Y-82490533D01*
X161916667Y-82490533D02*
X161916667Y-82395295D01*
X161916667Y-82395295D02*
X161964286Y-82300057D01*
X161964286Y-82300057D02*
X162011905Y-82252438D01*
X162011905Y-82252438D02*
X162107143Y-82204819D01*
X162107143Y-82204819D02*
X162345238Y-82204819D01*
X162345238Y-82204819D02*
X162488095Y-82252438D01*
X162821429Y-82204819D02*
X163059524Y-83204819D01*
X163059524Y-83204819D02*
X163250000Y-82490533D01*
X163250000Y-82490533D02*
X163440476Y-83204819D01*
X163440476Y-83204819D02*
X163678572Y-82204819D01*
X164583333Y-83204819D02*
X164011905Y-83204819D01*
X164297619Y-83204819D02*
X164297619Y-82204819D01*
X164297619Y-82204819D02*
X164202381Y-82347676D01*
X164202381Y-82347676D02*
X164107143Y-82442914D01*
X164107143Y-82442914D02*
X164011905Y-82490533D01*
X158454819Y-60666666D02*
X157978628Y-60999999D01*
X158454819Y-61238094D02*
X157454819Y-61238094D01*
X157454819Y-61238094D02*
X157454819Y-60857142D01*
X157454819Y-60857142D02*
X157502438Y-60761904D01*
X157502438Y-60761904D02*
X157550057Y-60714285D01*
X157550057Y-60714285D02*
X157645295Y-60666666D01*
X157645295Y-60666666D02*
X157788152Y-60666666D01*
X157788152Y-60666666D02*
X157883390Y-60714285D01*
X157883390Y-60714285D02*
X157931009Y-60761904D01*
X157931009Y-60761904D02*
X157978628Y-60857142D01*
X157978628Y-60857142D02*
X157978628Y-61238094D01*
X158454819Y-59714285D02*
X158454819Y-60285713D01*
X158454819Y-59999999D02*
X157454819Y-59999999D01*
X157454819Y-59999999D02*
X157597676Y-60095237D01*
X157597676Y-60095237D02*
X157692914Y-60190475D01*
X157692914Y-60190475D02*
X157740533Y-60285713D01*
X139754819Y-60786666D02*
X139278628Y-61119999D01*
X139754819Y-61358094D02*
X138754819Y-61358094D01*
X138754819Y-61358094D02*
X138754819Y-60977142D01*
X138754819Y-60977142D02*
X138802438Y-60881904D01*
X138802438Y-60881904D02*
X138850057Y-60834285D01*
X138850057Y-60834285D02*
X138945295Y-60786666D01*
X138945295Y-60786666D02*
X139088152Y-60786666D01*
X139088152Y-60786666D02*
X139183390Y-60834285D01*
X139183390Y-60834285D02*
X139231009Y-60881904D01*
X139231009Y-60881904D02*
X139278628Y-60977142D01*
X139278628Y-60977142D02*
X139278628Y-61358094D01*
X138754819Y-59881904D02*
X138754819Y-60358094D01*
X138754819Y-60358094D02*
X139231009Y-60405713D01*
X139231009Y-60405713D02*
X139183390Y-60358094D01*
X139183390Y-60358094D02*
X139135771Y-60262856D01*
X139135771Y-60262856D02*
X139135771Y-60024761D01*
X139135771Y-60024761D02*
X139183390Y-59929523D01*
X139183390Y-59929523D02*
X139231009Y-59881904D01*
X139231009Y-59881904D02*
X139326247Y-59834285D01*
X139326247Y-59834285D02*
X139564342Y-59834285D01*
X139564342Y-59834285D02*
X139659580Y-59881904D01*
X139659580Y-59881904D02*
X139707200Y-59929523D01*
X139707200Y-59929523D02*
X139754819Y-60024761D01*
X139754819Y-60024761D02*
X139754819Y-60262856D01*
X139754819Y-60262856D02*
X139707200Y-60358094D01*
X139707200Y-60358094D02*
X139659580Y-60405713D01*
X151916667Y-83157200D02*
X152059524Y-83204819D01*
X152059524Y-83204819D02*
X152297619Y-83204819D01*
X152297619Y-83204819D02*
X152392857Y-83157200D01*
X152392857Y-83157200D02*
X152440476Y-83109580D01*
X152440476Y-83109580D02*
X152488095Y-83014342D01*
X152488095Y-83014342D02*
X152488095Y-82919104D01*
X152488095Y-82919104D02*
X152440476Y-82823866D01*
X152440476Y-82823866D02*
X152392857Y-82776247D01*
X152392857Y-82776247D02*
X152297619Y-82728628D01*
X152297619Y-82728628D02*
X152107143Y-82681009D01*
X152107143Y-82681009D02*
X152011905Y-82633390D01*
X152011905Y-82633390D02*
X151964286Y-82585771D01*
X151964286Y-82585771D02*
X151916667Y-82490533D01*
X151916667Y-82490533D02*
X151916667Y-82395295D01*
X151916667Y-82395295D02*
X151964286Y-82300057D01*
X151964286Y-82300057D02*
X152011905Y-82252438D01*
X152011905Y-82252438D02*
X152107143Y-82204819D01*
X152107143Y-82204819D02*
X152345238Y-82204819D01*
X152345238Y-82204819D02*
X152488095Y-82252438D01*
X152821429Y-82204819D02*
X153059524Y-83204819D01*
X153059524Y-83204819D02*
X153250000Y-82490533D01*
X153250000Y-82490533D02*
X153440476Y-83204819D01*
X153440476Y-83204819D02*
X153678572Y-82204819D01*
X154011905Y-82300057D02*
X154059524Y-82252438D01*
X154059524Y-82252438D02*
X154154762Y-82204819D01*
X154154762Y-82204819D02*
X154392857Y-82204819D01*
X154392857Y-82204819D02*
X154488095Y-82252438D01*
X154488095Y-82252438D02*
X154535714Y-82300057D01*
X154535714Y-82300057D02*
X154583333Y-82395295D01*
X154583333Y-82395295D02*
X154583333Y-82490533D01*
X154583333Y-82490533D02*
X154535714Y-82633390D01*
X154535714Y-82633390D02*
X153964286Y-83204819D01*
X153964286Y-83204819D02*
X154583333Y-83204819D01*
X131916667Y-83157200D02*
X132059524Y-83204819D01*
X132059524Y-83204819D02*
X132297619Y-83204819D01*
X132297619Y-83204819D02*
X132392857Y-83157200D01*
X132392857Y-83157200D02*
X132440476Y-83109580D01*
X132440476Y-83109580D02*
X132488095Y-83014342D01*
X132488095Y-83014342D02*
X132488095Y-82919104D01*
X132488095Y-82919104D02*
X132440476Y-82823866D01*
X132440476Y-82823866D02*
X132392857Y-82776247D01*
X132392857Y-82776247D02*
X132297619Y-82728628D01*
X132297619Y-82728628D02*
X132107143Y-82681009D01*
X132107143Y-82681009D02*
X132011905Y-82633390D01*
X132011905Y-82633390D02*
X131964286Y-82585771D01*
X131964286Y-82585771D02*
X131916667Y-82490533D01*
X131916667Y-82490533D02*
X131916667Y-82395295D01*
X131916667Y-82395295D02*
X131964286Y-82300057D01*
X131964286Y-82300057D02*
X132011905Y-82252438D01*
X132011905Y-82252438D02*
X132107143Y-82204819D01*
X132107143Y-82204819D02*
X132345238Y-82204819D01*
X132345238Y-82204819D02*
X132488095Y-82252438D01*
X132821429Y-82204819D02*
X133059524Y-83204819D01*
X133059524Y-83204819D02*
X133250000Y-82490533D01*
X133250000Y-82490533D02*
X133440476Y-83204819D01*
X133440476Y-83204819D02*
X133678572Y-82204819D01*
X134488095Y-82538152D02*
X134488095Y-83204819D01*
X134250000Y-82157200D02*
X134011905Y-82871485D01*
X134011905Y-82871485D02*
X134630952Y-82871485D01*
X149254819Y-60786666D02*
X148778628Y-61119999D01*
X149254819Y-61358094D02*
X148254819Y-61358094D01*
X148254819Y-61358094D02*
X148254819Y-60977142D01*
X148254819Y-60977142D02*
X148302438Y-60881904D01*
X148302438Y-60881904D02*
X148350057Y-60834285D01*
X148350057Y-60834285D02*
X148445295Y-60786666D01*
X148445295Y-60786666D02*
X148588152Y-60786666D01*
X148588152Y-60786666D02*
X148683390Y-60834285D01*
X148683390Y-60834285D02*
X148731009Y-60881904D01*
X148731009Y-60881904D02*
X148778628Y-60977142D01*
X148778628Y-60977142D02*
X148778628Y-61358094D01*
X148254819Y-60453332D02*
X148254819Y-59834285D01*
X148254819Y-59834285D02*
X148635771Y-60167618D01*
X148635771Y-60167618D02*
X148635771Y-60024761D01*
X148635771Y-60024761D02*
X148683390Y-59929523D01*
X148683390Y-59929523D02*
X148731009Y-59881904D01*
X148731009Y-59881904D02*
X148826247Y-59834285D01*
X148826247Y-59834285D02*
X149064342Y-59834285D01*
X149064342Y-59834285D02*
X149159580Y-59881904D01*
X149159580Y-59881904D02*
X149207200Y-59929523D01*
X149207200Y-59929523D02*
X149254819Y-60024761D01*
X149254819Y-60024761D02*
X149254819Y-60310475D01*
X149254819Y-60310475D02*
X149207200Y-60405713D01*
X149207200Y-60405713D02*
X149159580Y-60453332D01*
X144754819Y-60786666D02*
X144278628Y-61119999D01*
X144754819Y-61358094D02*
X143754819Y-61358094D01*
X143754819Y-61358094D02*
X143754819Y-60977142D01*
X143754819Y-60977142D02*
X143802438Y-60881904D01*
X143802438Y-60881904D02*
X143850057Y-60834285D01*
X143850057Y-60834285D02*
X143945295Y-60786666D01*
X143945295Y-60786666D02*
X144088152Y-60786666D01*
X144088152Y-60786666D02*
X144183390Y-60834285D01*
X144183390Y-60834285D02*
X144231009Y-60881904D01*
X144231009Y-60881904D02*
X144278628Y-60977142D01*
X144278628Y-60977142D02*
X144278628Y-61358094D01*
X144088152Y-59929523D02*
X144754819Y-59929523D01*
X143707200Y-60167618D02*
X144421485Y-60405713D01*
X144421485Y-60405713D02*
X144421485Y-59786666D01*
X141916667Y-83157200D02*
X142059524Y-83204819D01*
X142059524Y-83204819D02*
X142297619Y-83204819D01*
X142297619Y-83204819D02*
X142392857Y-83157200D01*
X142392857Y-83157200D02*
X142440476Y-83109580D01*
X142440476Y-83109580D02*
X142488095Y-83014342D01*
X142488095Y-83014342D02*
X142488095Y-82919104D01*
X142488095Y-82919104D02*
X142440476Y-82823866D01*
X142440476Y-82823866D02*
X142392857Y-82776247D01*
X142392857Y-82776247D02*
X142297619Y-82728628D01*
X142297619Y-82728628D02*
X142107143Y-82681009D01*
X142107143Y-82681009D02*
X142011905Y-82633390D01*
X142011905Y-82633390D02*
X141964286Y-82585771D01*
X141964286Y-82585771D02*
X141916667Y-82490533D01*
X141916667Y-82490533D02*
X141916667Y-82395295D01*
X141916667Y-82395295D02*
X141964286Y-82300057D01*
X141964286Y-82300057D02*
X142011905Y-82252438D01*
X142011905Y-82252438D02*
X142107143Y-82204819D01*
X142107143Y-82204819D02*
X142345238Y-82204819D01*
X142345238Y-82204819D02*
X142488095Y-82252438D01*
X142821429Y-82204819D02*
X143059524Y-83204819D01*
X143059524Y-83204819D02*
X143250000Y-82490533D01*
X143250000Y-82490533D02*
X143440476Y-83204819D01*
X143440476Y-83204819D02*
X143678572Y-82204819D01*
X143964286Y-82204819D02*
X144583333Y-82204819D01*
X144583333Y-82204819D02*
X144250000Y-82585771D01*
X144250000Y-82585771D02*
X144392857Y-82585771D01*
X144392857Y-82585771D02*
X144488095Y-82633390D01*
X144488095Y-82633390D02*
X144535714Y-82681009D01*
X144535714Y-82681009D02*
X144583333Y-82776247D01*
X144583333Y-82776247D02*
X144583333Y-83014342D01*
X144583333Y-83014342D02*
X144535714Y-83109580D01*
X144535714Y-83109580D02*
X144488095Y-83157200D01*
X144488095Y-83157200D02*
X144392857Y-83204819D01*
X144392857Y-83204819D02*
X144107143Y-83204819D01*
X144107143Y-83204819D02*
X144011905Y-83157200D01*
X144011905Y-83157200D02*
X143964286Y-83109580D01*
X129599819Y-73358333D02*
X130314104Y-73358333D01*
X130314104Y-73358333D02*
X130456961Y-73405952D01*
X130456961Y-73405952D02*
X130552200Y-73501190D01*
X130552200Y-73501190D02*
X130599819Y-73644047D01*
X130599819Y-73644047D02*
X130599819Y-73739285D01*
X129599819Y-72405952D02*
X129599819Y-72882142D01*
X129599819Y-72882142D02*
X130076009Y-72929761D01*
X130076009Y-72929761D02*
X130028390Y-72882142D01*
X130028390Y-72882142D02*
X129980771Y-72786904D01*
X129980771Y-72786904D02*
X129980771Y-72548809D01*
X129980771Y-72548809D02*
X130028390Y-72453571D01*
X130028390Y-72453571D02*
X130076009Y-72405952D01*
X130076009Y-72405952D02*
X130171247Y-72358333D01*
X130171247Y-72358333D02*
X130409342Y-72358333D01*
X130409342Y-72358333D02*
X130504580Y-72405952D01*
X130504580Y-72405952D02*
X130552200Y-72453571D01*
X130552200Y-72453571D02*
X130599819Y-72548809D01*
X130599819Y-72548809D02*
X130599819Y-72786904D01*
X130599819Y-72786904D02*
X130552200Y-72882142D01*
X130552200Y-72882142D02*
X130504580Y-72929761D01*
D11*
%TO.C,J1*%
X147050000Y-98790000D02*
X147050000Y-96130000D01*
X129210000Y-98790000D02*
X147050000Y-98790000D01*
X129210000Y-98790000D02*
X129210000Y-96130000D01*
X129210000Y-96130000D02*
X147050000Y-96130000D01*
X126610000Y-97460000D02*
X126610000Y-96130000D01*
X126610000Y-96130000D02*
X127940000Y-96130000D01*
%TO.C,J3*%
X164830000Y-98790000D02*
X164830000Y-96130000D01*
X152070000Y-98790000D02*
X164830000Y-98790000D01*
X152070000Y-98790000D02*
X152070000Y-96130000D01*
X152070000Y-96130000D02*
X164830000Y-96130000D01*
X149470000Y-97460000D02*
X149470000Y-96130000D01*
X149470000Y-96130000D02*
X150800000Y-96130000D01*
%TO.C,J2*%
X142986000Y-50530000D02*
X142986000Y-47870000D01*
X120066000Y-50530000D02*
X142986000Y-50530000D01*
X120066000Y-50530000D02*
X120066000Y-47870000D01*
X120066000Y-47870000D02*
X142986000Y-47870000D01*
X117466000Y-49200000D02*
X117466000Y-47870000D01*
X117466000Y-47870000D02*
X118796000Y-47870000D01*
%TO.C,J4*%
X164830000Y-50530000D02*
X164830000Y-47870000D01*
X146990000Y-50530000D02*
X164830000Y-50530000D01*
X146990000Y-50530000D02*
X146990000Y-47870000D01*
X146990000Y-47870000D02*
X164830000Y-47870000D01*
X144390000Y-49200000D02*
X144390000Y-47870000D01*
X144390000Y-47870000D02*
X145720000Y-47870000D01*
%TO.C,RV1*%
X117385000Y-86385000D02*
X107615000Y-86385000D01*
X117385000Y-76615000D02*
X117385000Y-86385000D01*
X117385000Y-76615000D02*
X107615000Y-76615000D01*
X107615000Y-76615000D02*
X107615000Y-86385000D01*
%TO.C,J6*%
X150830000Y-73330000D02*
X149500000Y-73330000D01*
X150830000Y-72000000D02*
X150830000Y-73330000D01*
X148230000Y-73330000D02*
X140550000Y-73330000D01*
X148230000Y-70670000D02*
X148230000Y-73330000D01*
X148230000Y-70670000D02*
X140550000Y-70670000D01*
X140550000Y-70670000D02*
X140550000Y-73330000D01*
%TO.C,R6*%
X136420000Y-65570000D02*
X136420000Y-55430000D01*
X136420000Y-55430000D02*
X132580000Y-55430000D01*
X134500000Y-66680000D02*
X134500000Y-65570000D01*
X134500000Y-54320000D02*
X134500000Y-55430000D01*
X132580000Y-65570000D02*
X136420000Y-65570000D01*
X132580000Y-55430000D02*
X132580000Y-65570000D01*
%TO.C,D1*%
X126955000Y-57330000D02*
X130045000Y-57330000D01*
X126955170Y-57330000D02*
G75*
G02*
X128499952Y-51780000I1544830J2560000D01*
G01*
X128500048Y-51780000D02*
G75*
G02*
X130044830Y-57330000I-48J-2990000D01*
G01*
X131000000Y-54770000D02*
G75*
G02*
X126000000Y-54770000I-2500000J0D01*
G01*
X126000000Y-54770000D02*
G75*
G02*
X131000000Y-54770000I2500000J0D01*
G01*
%TO.C,J7*%
X115060000Y-56010000D02*
X115060000Y-50040000D01*
X115060000Y-50040000D02*
X104940000Y-50040000D01*
X115050000Y-52300000D02*
X114300000Y-52300000D01*
X115050000Y-50800000D02*
X115050000Y-50050000D01*
X115050000Y-50050000D02*
X113250000Y-50050000D01*
X114300000Y-55250000D02*
X110000000Y-55250000D01*
X114300000Y-52300000D02*
X114300000Y-55250000D01*
X113250000Y-50800000D02*
X115050000Y-50800000D01*
X113250000Y-50050000D02*
X113250000Y-50800000D01*
X111750000Y-50800000D02*
X111750000Y-50050000D01*
X111750000Y-50050000D02*
X108250000Y-50050000D01*
X108250000Y-50800000D02*
X111750000Y-50800000D01*
X108250000Y-50050000D02*
X108250000Y-50800000D01*
X106750000Y-50800000D02*
X106750000Y-50050000D01*
X106750000Y-50050000D02*
X104950000Y-50050000D01*
X105900000Y-49750000D02*
X104650000Y-49750000D01*
X105700000Y-55250000D02*
X110000000Y-55250000D01*
X105700000Y-52300000D02*
X105700000Y-55250000D01*
X104950000Y-52300000D02*
X105700000Y-52300000D01*
X104950000Y-50800000D02*
X106750000Y-50800000D01*
X104950000Y-50050000D02*
X104950000Y-50800000D01*
X104940000Y-56010000D02*
X115060000Y-56010000D01*
X104940000Y-50040000D02*
X104940000Y-56010000D01*
X104650000Y-49750000D02*
X104650000Y-51000000D01*
%TO.C,SW5*%
X126750000Y-83500000D02*
X126750000Y-82000000D01*
X125500000Y-79500000D02*
X121000000Y-79500000D01*
X121000000Y-86000000D02*
X125500000Y-86000000D01*
X119750000Y-82000000D02*
X119750000Y-83500000D01*
%TO.C,R2*%
X151580000Y-55430000D02*
X151580000Y-65570000D01*
X151580000Y-65570000D02*
X155420000Y-65570000D01*
X153500000Y-54320000D02*
X153500000Y-55430000D01*
X153500000Y-66680000D02*
X153500000Y-65570000D01*
X155420000Y-55430000D02*
X151580000Y-55430000D01*
X155420000Y-65570000D02*
X155420000Y-55430000D01*
%TO.C,SW1*%
X166750000Y-83500000D02*
X166750000Y-82000000D01*
X165500000Y-79500000D02*
X161000000Y-79500000D01*
X161000000Y-86000000D02*
X165500000Y-86000000D01*
X159750000Y-82000000D02*
X159750000Y-83500000D01*
%TO.C,R1*%
X156080000Y-55430000D02*
X156080000Y-65570000D01*
X156080000Y-65570000D02*
X159920000Y-65570000D01*
X158000000Y-54320000D02*
X158000000Y-55430000D01*
X158000000Y-66680000D02*
X158000000Y-65570000D01*
X159920000Y-55430000D02*
X156080000Y-55430000D01*
X159920000Y-65570000D02*
X159920000Y-55430000D01*
%TO.C,R5*%
X141420000Y-65570000D02*
X141420000Y-55430000D01*
X141420000Y-55430000D02*
X137580000Y-55430000D01*
X139500000Y-66680000D02*
X139500000Y-65570000D01*
X139500000Y-54320000D02*
X139500000Y-55430000D01*
X137580000Y-65570000D02*
X141420000Y-65570000D01*
X137580000Y-55430000D02*
X137580000Y-65570000D01*
%TO.C,SW2*%
X156750000Y-83500000D02*
X156750000Y-82000000D01*
X155500000Y-79500000D02*
X151000000Y-79500000D01*
X151000000Y-86000000D02*
X155500000Y-86000000D01*
X149750000Y-82000000D02*
X149750000Y-83500000D01*
%TO.C,SW4*%
X136750000Y-83500000D02*
X136750000Y-82000000D01*
X135500000Y-79500000D02*
X131000000Y-79500000D01*
X131000000Y-86000000D02*
X135500000Y-86000000D01*
X129750000Y-82000000D02*
X129750000Y-83500000D01*
%TO.C,R3*%
X150920000Y-65570000D02*
X150920000Y-55430000D01*
X150920000Y-55430000D02*
X147080000Y-55430000D01*
X149000000Y-66680000D02*
X149000000Y-65570000D01*
X149000000Y-54320000D02*
X149000000Y-55430000D01*
X147080000Y-65570000D02*
X150920000Y-65570000D01*
X147080000Y-55430000D02*
X147080000Y-65570000D01*
%TO.C,R4*%
X146420000Y-65570000D02*
X146420000Y-55430000D01*
X146420000Y-55430000D02*
X142580000Y-55430000D01*
X144500000Y-66680000D02*
X144500000Y-65570000D01*
X144500000Y-54320000D02*
X144500000Y-55430000D01*
X142580000Y-65570000D02*
X146420000Y-65570000D01*
X142580000Y-55430000D02*
X142580000Y-65570000D01*
%TO.C,SW3*%
X146750000Y-83500000D02*
X146750000Y-82000000D01*
X145500000Y-79500000D02*
X141000000Y-79500000D01*
X141000000Y-86000000D02*
X145500000Y-86000000D01*
X139750000Y-82000000D02*
X139750000Y-83500000D01*
%TO.C,J5*%
X128705000Y-74355000D02*
X127375000Y-74355000D01*
X128705000Y-73025000D02*
X128705000Y-74355000D01*
X126105000Y-74355000D02*
X108265000Y-74355000D01*
X126105000Y-71695000D02*
X126105000Y-74355000D01*
X126105000Y-71695000D02*
X108265000Y-71695000D01*
X108265000Y-71695000D02*
X108265000Y-74355000D01*
%TD*%
M02*
