%TF.GenerationSoftware,KiCad,Pcbnew,8.0.8*%
%TF.CreationDate,2025-02-03T17:05:42-07:00*%
%TF.ProjectId,Uno_Sheild_Project,556e6f5f-5368-4656-996c-645f50726f6a,rev?*%
%TF.SameCoordinates,Original*%
%TF.FileFunction,Copper,L2,Bot*%
%TF.FilePolarity,Positive*%
%FSLAX46Y46*%
G04 Gerber Fmt 4.6, Leading zero omitted, Abs format (unit mm)*
G04 Created by KiCad (PCBNEW 8.0.8) date 2025-02-03 17:05:42*
%MOMM*%
%LPD*%
G01*
G04 APERTURE LIST*
G04 Aperture macros list*
%AMRoundRect*
0 Rectangle with rounded corners*
0 $1 Rounding radius*
0 $2 $3 $4 $5 $6 $7 $8 $9 X,Y pos of 4 corners*
0 Add a 4 corners polygon primitive as box body*
4,1,4,$2,$3,$4,$5,$6,$7,$8,$9,$2,$3,0*
0 Add four circle primitives for the rounded corners*
1,1,$1+$1,$2,$3*
1,1,$1+$1,$4,$5*
1,1,$1+$1,$6,$7*
1,1,$1+$1,$8,$9*
0 Add four rect primitives between the rounded corners*
20,1,$1+$1,$2,$3,$4,$5,0*
20,1,$1+$1,$4,$5,$6,$7,0*
20,1,$1+$1,$6,$7,$8,$9,0*
20,1,$1+$1,$8,$9,$2,$3,0*%
G04 Aperture macros list end*
%TA.AperFunction,ComponentPad*%
%ADD10O,1.700000X1.700000*%
%TD*%
%TA.AperFunction,ComponentPad*%
%ADD11R,1.700000X1.700000*%
%TD*%
%TA.AperFunction,ComponentPad*%
%ADD12C,1.440000*%
%TD*%
%TA.AperFunction,ComponentPad*%
%ADD13O,2.400000X2.400000*%
%TD*%
%TA.AperFunction,ComponentPad*%
%ADD14C,2.400000*%
%TD*%
%TA.AperFunction,ComponentPad*%
%ADD15R,1.800000X1.800000*%
%TD*%
%TA.AperFunction,ComponentPad*%
%ADD16C,1.800000*%
%TD*%
%TA.AperFunction,ComponentPad*%
%ADD17O,1.700000X1.950000*%
%TD*%
%TA.AperFunction,ComponentPad*%
%ADD18RoundRect,0.250000X-0.600000X-0.725000X0.600000X-0.725000X0.600000X0.725000X-0.600000X0.725000X0*%
%TD*%
%TA.AperFunction,ComponentPad*%
%ADD19C,2.000000*%
%TD*%
G04 APERTURE END LIST*
D10*
%TO.P,J1,8,Pin_8*%
%TO.N,VCC*%
X145720000Y-97460000D03*
%TO.P,J1,7,Pin_7*%
%TO.N,GND*%
X143180000Y-97460000D03*
%TO.P,J1,6,Pin_6*%
X140640000Y-97460000D03*
%TO.P,J1,5,Pin_5*%
%TO.N,+5V*%
X138100000Y-97460000D03*
%TO.P,J1,4,Pin_4*%
%TO.N,+3V3*%
X135560000Y-97460000D03*
%TO.P,J1,3,Pin_3*%
%TO.N,/~{RESET}*%
X133020000Y-97460000D03*
%TO.P,J1,2,Pin_2*%
%TO.N,/IOREF*%
X130480000Y-97460000D03*
D11*
%TO.P,J1,1,Pin_1*%
%TO.N,unconnected-(J1-Pin_1-Pad1)*%
X127940000Y-97460000D03*
%TD*%
D10*
%TO.P,J3,6,Pin_6*%
%TO.N,/SCL{slash}A5*%
X163500000Y-97460000D03*
%TO.P,J3,5,Pin_5*%
%TO.N,/SDA{slash}A4*%
X160960000Y-97460000D03*
%TO.P,J3,4,Pin_4*%
%TO.N,/A3*%
X158420000Y-97460000D03*
%TO.P,J3,3,Pin_3*%
%TO.N,/A2*%
X155880000Y-97460000D03*
%TO.P,J3,2,Pin_2*%
%TO.N,/A1*%
X153340000Y-97460000D03*
D11*
%TO.P,J3,1,Pin_1*%
%TO.N,/temp_sensor*%
X150800000Y-97460000D03*
%TD*%
D10*
%TO.P,J2,10,Pin_10*%
%TO.N,unconnected-(J2-Pin_10-Pad10)*%
X141656000Y-49200000D03*
%TO.P,J2,9,Pin_9*%
%TO.N,/led_light*%
X139116000Y-49200000D03*
%TO.P,J2,8,Pin_8*%
%TO.N,/\u002A10*%
X136576000Y-49200000D03*
%TO.P,J2,7,Pin_7*%
%TO.N,/\u002A11*%
X134036000Y-49200000D03*
%TO.P,J2,6,Pin_6*%
%TO.N,/temp_digital*%
X131496000Y-49200000D03*
%TO.P,J2,5,Pin_5*%
%TO.N,/13*%
X128956000Y-49200000D03*
%TO.P,J2,4,Pin_4*%
%TO.N,GND*%
X126416000Y-49200000D03*
%TO.P,J2,3,Pin_3*%
%TO.N,/AREF*%
X123876000Y-49200000D03*
%TO.P,J2,2,Pin_2*%
%TO.N,/I2C_SDA*%
X121336000Y-49200000D03*
D11*
%TO.P,J2,1,Pin_1*%
%TO.N,/I2C_SCL*%
X118796000Y-49200000D03*
%TD*%
D10*
%TO.P,J4,8,Pin_8*%
%TO.N,/RX{slash}0*%
X163500000Y-49200000D03*
%TO.P,J4,7,Pin_7*%
%TO.N,/TX{slash}1*%
X160960000Y-49200000D03*
%TO.P,J4,6,Pin_6*%
%TO.N,/button_onoff*%
X158420000Y-49200000D03*
%TO.P,J4,5,Pin_5*%
%TO.N,/button_units*%
X155880000Y-49200000D03*
%TO.P,J4,4,Pin_4*%
%TO.N,/button_light*%
X153340000Y-49200000D03*
%TO.P,J4,3,Pin_3*%
%TO.N,/button_cal*%
X150800000Y-49200000D03*
%TO.P,J4,2,Pin_2*%
%TO.N,/button_lock*%
X148260000Y-49200000D03*
D11*
%TO.P,J4,1,Pin_1*%
%TO.N,/7*%
X145720000Y-49200000D03*
%TD*%
D12*
%TO.P,RV1,3,3*%
%TO.N,GND*%
X115040000Y-81515000D03*
%TO.P,RV1,2,2*%
%TO.N,/temp_sensor*%
X112500000Y-84055000D03*
%TO.P,RV1,1,1*%
%TO.N,+5V*%
X109960000Y-81515000D03*
%TD*%
D10*
%TO.P,J6,4,Pin_4*%
%TO.N,/I2C_SDA*%
X141880000Y-72000000D03*
%TO.P,J6,3,Pin_3*%
%TO.N,/I2C_SCL*%
X144420000Y-72000000D03*
%TO.P,J6,2,Pin_2*%
%TO.N,+5V*%
X146960000Y-72000000D03*
D11*
%TO.P,J6,1,Pin_1*%
%TO.N,GND*%
X149500000Y-72000000D03*
%TD*%
D13*
%TO.P,R6,2*%
%TO.N,Net-(D1-A)*%
X134500000Y-68120000D03*
D14*
%TO.P,R6,1*%
%TO.N,/led_light*%
X134500000Y-52880000D03*
%TD*%
D15*
%TO.P,D1,1,K*%
%TO.N,GND*%
X128500000Y-56040000D03*
D16*
%TO.P,D1,2,A*%
%TO.N,Net-(D1-A)*%
X128500000Y-53500000D03*
%TD*%
D17*
%TO.P,J7,3,Pin_3*%
%TO.N,+5V*%
X112500000Y-52500000D03*
%TO.P,J7,2,Pin_2*%
%TO.N,/temp_digital*%
X110000000Y-52500000D03*
D18*
%TO.P,J7,1,Pin_1*%
%TO.N,GND*%
X107500000Y-52500000D03*
%TD*%
D19*
%TO.P,SW5,2,B*%
%TO.N,+5V*%
X126500000Y-85000000D03*
X120000000Y-85000000D03*
%TO.P,SW5,1,A*%
%TO.N,/button_lock*%
X126500000Y-80500000D03*
X120000000Y-80500000D03*
%TD*%
D14*
%TO.P,R2,1*%
%TO.N,/button_units*%
X153500000Y-52880000D03*
D13*
%TO.P,R2,2*%
%TO.N,GND*%
X153500000Y-68120000D03*
%TD*%
D19*
%TO.P,SW1,2,B*%
%TO.N,+5V*%
X166500000Y-85000000D03*
X160000000Y-85000000D03*
%TO.P,SW1,1,A*%
%TO.N,/button_onoff*%
X166500000Y-80500000D03*
X160000000Y-80500000D03*
%TD*%
D14*
%TO.P,R1,1*%
%TO.N,/button_onoff*%
X158000000Y-52880000D03*
D13*
%TO.P,R1,2*%
%TO.N,GND*%
X158000000Y-68120000D03*
%TD*%
%TO.P,R5,2*%
%TO.N,GND*%
X139500000Y-68120000D03*
D14*
%TO.P,R5,1*%
%TO.N,/button_lock*%
X139500000Y-52880000D03*
%TD*%
D19*
%TO.P,SW2,2,B*%
%TO.N,+5V*%
X156500000Y-85000000D03*
X150000000Y-85000000D03*
%TO.P,SW2,1,A*%
%TO.N,/button_units*%
X156500000Y-80500000D03*
X150000000Y-80500000D03*
%TD*%
%TO.P,SW4,2,B*%
%TO.N,+5V*%
X136500000Y-85000000D03*
X130000000Y-85000000D03*
%TO.P,SW4,1,A*%
%TO.N,/button_cal*%
X136500000Y-80500000D03*
X130000000Y-80500000D03*
%TD*%
D13*
%TO.P,R3,2*%
%TO.N,GND*%
X149000000Y-68120000D03*
D14*
%TO.P,R3,1*%
%TO.N,/button_light*%
X149000000Y-52880000D03*
%TD*%
D13*
%TO.P,R4,2*%
%TO.N,GND*%
X144500000Y-68120000D03*
D14*
%TO.P,R4,1*%
%TO.N,/button_cal*%
X144500000Y-52880000D03*
%TD*%
D19*
%TO.P,SW3,2,B*%
%TO.N,+5V*%
X146500000Y-85000000D03*
X140000000Y-85000000D03*
%TO.P,SW3,1,A*%
%TO.N,/button_light*%
X146500000Y-80500000D03*
X140000000Y-80500000D03*
%TD*%
D10*
%TO.P,J5,8,Pin_8*%
%TO.N,unconnected-(J5-Pin_8-Pad8)*%
X109595000Y-73025000D03*
%TO.P,J5,7,Pin_7*%
%TO.N,unconnected-(J5-Pin_7-Pad7)*%
X112135000Y-73025000D03*
%TO.P,J5,6,Pin_6*%
%TO.N,unconnected-(J5-Pin_6-Pad6)*%
X114675000Y-73025000D03*
%TO.P,J5,5,Pin_5*%
%TO.N,unconnected-(J5-Pin_5-Pad5)*%
X117215000Y-73025000D03*
%TO.P,J5,4,Pin_4*%
%TO.N,/I2C_SDA*%
X119755000Y-73025000D03*
%TO.P,J5,3,Pin_3*%
%TO.N,/I2C_SCL*%
X122295000Y-73025000D03*
%TO.P,J5,2,Pin_2*%
%TO.N,GND*%
X124835000Y-73025000D03*
D11*
%TO.P,J5,1,Pin_1*%
%TO.N,+5V*%
X127375000Y-73025000D03*
%TD*%
%TA.AperFunction,Conductor*%
%TO.N,GND*%
G36*
X142714075Y-97267007D02*
G01*
X142680000Y-97394174D01*
X142680000Y-97525826D01*
X142714075Y-97652993D01*
X142746988Y-97710000D01*
X141073012Y-97710000D01*
X141105925Y-97652993D01*
X141140000Y-97525826D01*
X141140000Y-97394174D01*
X141105925Y-97267007D01*
X141073012Y-97210000D01*
X142746988Y-97210000D01*
X142714075Y-97267007D01*
G37*
%TD.AperFunction*%
%TA.AperFunction,Conductor*%
G36*
X163484404Y-46755185D02*
G01*
X163505046Y-46771819D01*
X165928181Y-49194954D01*
X165961666Y-49256277D01*
X165964500Y-49282635D01*
X165964500Y-59344982D01*
X165964500Y-59375018D01*
X165975994Y-59402767D01*
X165975995Y-59402768D01*
X168468181Y-61894954D01*
X168501666Y-61956277D01*
X168504500Y-61982635D01*
X168504500Y-96107364D01*
X168484815Y-96174403D01*
X168468181Y-96195045D01*
X165997233Y-98665994D01*
X165975995Y-98687231D01*
X165964500Y-98714982D01*
X165964500Y-99231907D01*
X165963903Y-99244062D01*
X165952505Y-99359778D01*
X165947763Y-99383618D01*
X165917832Y-99482290D01*
X165915789Y-99489024D01*
X165906486Y-99511482D01*
X165854561Y-99608627D01*
X165841056Y-99628839D01*
X165771176Y-99713988D01*
X165753988Y-99731176D01*
X165668839Y-99801056D01*
X165648627Y-99814561D01*
X165551482Y-99866486D01*
X165529028Y-99875787D01*
X165487028Y-99888528D01*
X165423618Y-99907763D01*
X165399778Y-99912505D01*
X165291162Y-99923203D01*
X165284060Y-99923903D01*
X165271907Y-99924500D01*
X100768093Y-99924500D01*
X100755939Y-99923903D01*
X100747995Y-99923120D01*
X100640221Y-99912505D01*
X100616381Y-99907763D01*
X100599445Y-99902625D01*
X100510968Y-99875786D01*
X100488517Y-99866486D01*
X100391372Y-99814561D01*
X100371160Y-99801056D01*
X100286011Y-99731176D01*
X100268823Y-99713988D01*
X100198943Y-99628839D01*
X100185438Y-99608627D01*
X100133510Y-99511476D01*
X100124215Y-99489037D01*
X100092234Y-99383612D01*
X100087494Y-99359777D01*
X100076097Y-99244061D01*
X100075500Y-99231907D01*
X100075500Y-96561345D01*
X126581500Y-96561345D01*
X126581500Y-98358654D01*
X126588011Y-98419202D01*
X126588011Y-98419204D01*
X126639111Y-98556204D01*
X126726739Y-98673261D01*
X126843796Y-98760889D01*
X126980799Y-98811989D01*
X127008050Y-98814918D01*
X127041345Y-98818499D01*
X127041362Y-98818500D01*
X128838638Y-98818500D01*
X128838654Y-98818499D01*
X128865692Y-98815591D01*
X128899201Y-98811989D01*
X129036204Y-98760889D01*
X129153261Y-98673261D01*
X129240889Y-98556204D01*
X129286138Y-98434887D01*
X129328009Y-98378956D01*
X129393474Y-98354539D01*
X129461746Y-98369391D01*
X129493545Y-98394236D01*
X129556760Y-98462906D01*
X129734424Y-98601189D01*
X129734425Y-98601189D01*
X129734427Y-98601191D01*
X129861135Y-98669761D01*
X129932426Y-98708342D01*
X130145365Y-98781444D01*
X130367431Y-98818500D01*
X130592569Y-98818500D01*
X130814635Y-98781444D01*
X131027574Y-98708342D01*
X131225576Y-98601189D01*
X131403240Y-98462906D01*
X131524594Y-98331082D01*
X131555715Y-98297276D01*
X131555715Y-98297275D01*
X131555722Y-98297268D01*
X131646193Y-98158790D01*
X131699338Y-98113437D01*
X131768569Y-98104013D01*
X131831905Y-98133515D01*
X131853804Y-98158787D01*
X131944278Y-98297268D01*
X131944283Y-98297273D01*
X131944284Y-98297276D01*
X132070968Y-98434889D01*
X132096760Y-98462906D01*
X132274424Y-98601189D01*
X132274425Y-98601189D01*
X132274427Y-98601191D01*
X132401135Y-98669761D01*
X132472426Y-98708342D01*
X132685365Y-98781444D01*
X132907431Y-98818500D01*
X133132569Y-98818500D01*
X133354635Y-98781444D01*
X133567574Y-98708342D01*
X133765576Y-98601189D01*
X133943240Y-98462906D01*
X134064594Y-98331082D01*
X134095715Y-98297276D01*
X134095715Y-98297275D01*
X134095722Y-98297268D01*
X134186193Y-98158790D01*
X134239338Y-98113437D01*
X134308569Y-98104013D01*
X134371905Y-98133515D01*
X134393804Y-98158787D01*
X134484278Y-98297268D01*
X134484283Y-98297273D01*
X134484284Y-98297276D01*
X134610968Y-98434889D01*
X134636760Y-98462906D01*
X134814424Y-98601189D01*
X134814425Y-98601189D01*
X134814427Y-98601191D01*
X134941135Y-98669761D01*
X135012426Y-98708342D01*
X135225365Y-98781444D01*
X135447431Y-98818500D01*
X135672569Y-98818500D01*
X135894635Y-98781444D01*
X136107574Y-98708342D01*
X136305576Y-98601189D01*
X136483240Y-98462906D01*
X136604594Y-98331082D01*
X136635715Y-98297276D01*
X136635715Y-98297275D01*
X136635722Y-98297268D01*
X136726193Y-98158790D01*
X136779338Y-98113437D01*
X136848569Y-98104013D01*
X136911905Y-98133515D01*
X136933804Y-98158787D01*
X137024278Y-98297268D01*
X137024283Y-98297273D01*
X137024284Y-98297276D01*
X137150968Y-98434889D01*
X137176760Y-98462906D01*
X137354424Y-98601189D01*
X137354425Y-98601189D01*
X137354427Y-98601191D01*
X137481135Y-98669761D01*
X137552426Y-98708342D01*
X137765365Y-98781444D01*
X137987431Y-98818500D01*
X138212569Y-98818500D01*
X138434635Y-98781444D01*
X138647574Y-98708342D01*
X138845576Y-98601189D01*
X139023240Y-98462906D01*
X139144594Y-98331082D01*
X139175715Y-98297276D01*
X139175715Y-98297275D01*
X139175722Y-98297268D01*
X139269749Y-98153347D01*
X139322894Y-98107994D01*
X139392125Y-98098570D01*
X139455461Y-98128072D01*
X139475130Y-98150048D01*
X139601890Y-98331078D01*
X139768917Y-98498105D01*
X139962421Y-98633600D01*
X140176507Y-98733429D01*
X140176516Y-98733433D01*
X140390000Y-98790634D01*
X140390000Y-97893012D01*
X140447007Y-97925925D01*
X140574174Y-97960000D01*
X140705826Y-97960000D01*
X140832993Y-97925925D01*
X140890000Y-97893012D01*
X140890000Y-98790633D01*
X141103483Y-98733433D01*
X141103492Y-98733429D01*
X141317578Y-98633600D01*
X141511082Y-98498105D01*
X141678105Y-98331082D01*
X141808425Y-98144968D01*
X141863002Y-98101344D01*
X141932501Y-98094151D01*
X141994855Y-98125673D01*
X142011575Y-98144968D01*
X142141894Y-98331082D01*
X142308917Y-98498105D01*
X142502421Y-98633600D01*
X142716507Y-98733429D01*
X142716516Y-98733433D01*
X142930000Y-98790634D01*
X142930000Y-97893012D01*
X142987007Y-97925925D01*
X143114174Y-97960000D01*
X143245826Y-97960000D01*
X143372993Y-97925925D01*
X143430000Y-97893012D01*
X143430000Y-98790633D01*
X143643483Y-98733433D01*
X143643492Y-98733429D01*
X143857578Y-98633600D01*
X144051082Y-98498105D01*
X144218105Y-98331082D01*
X144344868Y-98150048D01*
X144399445Y-98106423D01*
X144468944Y-98099231D01*
X144531298Y-98130753D01*
X144550251Y-98153350D01*
X144644276Y-98297265D01*
X144644284Y-98297276D01*
X144770968Y-98434889D01*
X144796760Y-98462906D01*
X144974424Y-98601189D01*
X144974425Y-98601189D01*
X144974427Y-98601191D01*
X145101135Y-98669761D01*
X145172426Y-98708342D01*
X145385365Y-98781444D01*
X145607431Y-98818500D01*
X145832569Y-98818500D01*
X146054635Y-98781444D01*
X146267574Y-98708342D01*
X146465576Y-98601189D01*
X146643240Y-98462906D01*
X146764594Y-98331082D01*
X146795715Y-98297276D01*
X146795717Y-98297273D01*
X146795722Y-98297268D01*
X146918860Y-98108791D01*
X147009296Y-97902616D01*
X147064564Y-97684368D01*
X147067164Y-97652993D01*
X147083156Y-97460005D01*
X147083156Y-97459994D01*
X147064565Y-97235640D01*
X147064563Y-97235628D01*
X147009296Y-97017385D01*
X146999071Y-96994075D01*
X146918860Y-96811209D01*
X146902706Y-96786484D01*
X146795723Y-96622734D01*
X146795715Y-96622723D01*
X146739212Y-96561345D01*
X149441500Y-96561345D01*
X149441500Y-98358654D01*
X149448011Y-98419202D01*
X149448011Y-98419204D01*
X149499111Y-98556204D01*
X149586739Y-98673261D01*
X149703796Y-98760889D01*
X149840799Y-98811989D01*
X149868050Y-98814918D01*
X149901345Y-98818499D01*
X149901362Y-98818500D01*
X151698638Y-98818500D01*
X151698654Y-98818499D01*
X151725692Y-98815591D01*
X151759201Y-98811989D01*
X151896204Y-98760889D01*
X152013261Y-98673261D01*
X152100889Y-98556204D01*
X152146138Y-98434887D01*
X152188009Y-98378956D01*
X152253474Y-98354539D01*
X152321746Y-98369391D01*
X152353545Y-98394236D01*
X152416760Y-98462906D01*
X152594424Y-98601189D01*
X152594425Y-98601189D01*
X152594427Y-98601191D01*
X152721135Y-98669761D01*
X152792426Y-98708342D01*
X153005365Y-98781444D01*
X153227431Y-98818500D01*
X153452569Y-98818500D01*
X153674635Y-98781444D01*
X153887574Y-98708342D01*
X154085576Y-98601189D01*
X154263240Y-98462906D01*
X154384594Y-98331082D01*
X154415715Y-98297276D01*
X154415715Y-98297275D01*
X154415722Y-98297268D01*
X154506193Y-98158790D01*
X154559338Y-98113437D01*
X154628569Y-98104013D01*
X154691905Y-98133515D01*
X154713804Y-98158787D01*
X154804278Y-98297268D01*
X154804283Y-98297273D01*
X154804284Y-98297276D01*
X154930968Y-98434889D01*
X154956760Y-98462906D01*
X155134424Y-98601189D01*
X155134425Y-98601189D01*
X155134427Y-98601191D01*
X155261135Y-98669761D01*
X155332426Y-98708342D01*
X155545365Y-98781444D01*
X155767431Y-98818500D01*
X155992569Y-98818500D01*
X156214635Y-98781444D01*
X156427574Y-98708342D01*
X156625576Y-98601189D01*
X156803240Y-98462906D01*
X156924594Y-98331082D01*
X156955715Y-98297276D01*
X156955715Y-98297275D01*
X156955722Y-98297268D01*
X157046193Y-98158790D01*
X157099338Y-98113437D01*
X157168569Y-98104013D01*
X157231905Y-98133515D01*
X157253804Y-98158787D01*
X157344278Y-98297268D01*
X157344283Y-98297273D01*
X157344284Y-98297276D01*
X157470968Y-98434889D01*
X157496760Y-98462906D01*
X157674424Y-98601189D01*
X157674425Y-98601189D01*
X157674427Y-98601191D01*
X157801135Y-98669761D01*
X157872426Y-98708342D01*
X158085365Y-98781444D01*
X158307431Y-98818500D01*
X158532569Y-98818500D01*
X158754635Y-98781444D01*
X158967574Y-98708342D01*
X159165576Y-98601189D01*
X159343240Y-98462906D01*
X159464594Y-98331082D01*
X159495715Y-98297276D01*
X159495715Y-98297275D01*
X159495722Y-98297268D01*
X159586193Y-98158790D01*
X159639338Y-98113437D01*
X159708569Y-98104013D01*
X159771905Y-98133515D01*
X159793804Y-98158787D01*
X159884278Y-98297268D01*
X159884283Y-98297273D01*
X159884284Y-98297276D01*
X160010968Y-98434889D01*
X160036760Y-98462906D01*
X160214424Y-98601189D01*
X160214425Y-98601189D01*
X160214427Y-98601191D01*
X160341135Y-98669761D01*
X160412426Y-98708342D01*
X160625365Y-98781444D01*
X160847431Y-98818500D01*
X161072569Y-98818500D01*
X161294635Y-98781444D01*
X161507574Y-98708342D01*
X161705576Y-98601189D01*
X161883240Y-98462906D01*
X162004594Y-98331082D01*
X162035715Y-98297276D01*
X162035715Y-98297275D01*
X162035722Y-98297268D01*
X162126193Y-98158790D01*
X162179338Y-98113437D01*
X162248569Y-98104013D01*
X162311905Y-98133515D01*
X162333804Y-98158787D01*
X162424278Y-98297268D01*
X162424283Y-98297273D01*
X162424284Y-98297276D01*
X162550968Y-98434889D01*
X162576760Y-98462906D01*
X162754424Y-98601189D01*
X162754425Y-98601189D01*
X162754427Y-98601191D01*
X162881135Y-98669761D01*
X162952426Y-98708342D01*
X163165365Y-98781444D01*
X163387431Y-98818500D01*
X163612569Y-98818500D01*
X163834635Y-98781444D01*
X164047574Y-98708342D01*
X164245576Y-98601189D01*
X164423240Y-98462906D01*
X164544594Y-98331082D01*
X164575715Y-98297276D01*
X164575717Y-98297273D01*
X164575722Y-98297268D01*
X164698860Y-98108791D01*
X164789296Y-97902616D01*
X164844564Y-97684368D01*
X164847164Y-97652993D01*
X164863156Y-97460005D01*
X164863156Y-97459994D01*
X164844565Y-97235640D01*
X164844563Y-97235628D01*
X164789296Y-97017385D01*
X164779071Y-96994075D01*
X164698860Y-96811209D01*
X164682706Y-96786484D01*
X164575723Y-96622734D01*
X164575715Y-96622723D01*
X164423243Y-96457097D01*
X164423238Y-96457092D01*
X164245577Y-96318812D01*
X164245572Y-96318808D01*
X164047580Y-96211661D01*
X164047577Y-96211659D01*
X164047574Y-96211658D01*
X164047571Y-96211657D01*
X164047569Y-96211656D01*
X163834637Y-96138556D01*
X163612569Y-96101500D01*
X163387431Y-96101500D01*
X163165362Y-96138556D01*
X162952430Y-96211656D01*
X162952419Y-96211661D01*
X162754427Y-96318808D01*
X162754422Y-96318812D01*
X162576761Y-96457092D01*
X162576756Y-96457097D01*
X162424284Y-96622723D01*
X162424276Y-96622734D01*
X162333808Y-96761206D01*
X162280662Y-96806562D01*
X162211431Y-96815986D01*
X162148095Y-96786484D01*
X162126192Y-96761206D01*
X162035723Y-96622734D01*
X162035715Y-96622723D01*
X161883243Y-96457097D01*
X161883238Y-96457092D01*
X161705577Y-96318812D01*
X161705572Y-96318808D01*
X161507580Y-96211661D01*
X161507577Y-96211659D01*
X161507574Y-96211658D01*
X161507571Y-96211657D01*
X161507569Y-96211656D01*
X161294637Y-96138556D01*
X161072569Y-96101500D01*
X160847431Y-96101500D01*
X160625362Y-96138556D01*
X160412430Y-96211656D01*
X160412419Y-96211661D01*
X160214427Y-96318808D01*
X160214422Y-96318812D01*
X160036761Y-96457092D01*
X160036756Y-96457097D01*
X159884284Y-96622723D01*
X159884276Y-96622734D01*
X159793808Y-96761206D01*
X159740662Y-96806562D01*
X159671431Y-96815986D01*
X159608095Y-96786484D01*
X159586192Y-96761206D01*
X159495723Y-96622734D01*
X159495715Y-96622723D01*
X159343243Y-96457097D01*
X159343238Y-96457092D01*
X159165577Y-96318812D01*
X159165572Y-96318808D01*
X158967580Y-96211661D01*
X158967577Y-96211659D01*
X158967574Y-96211658D01*
X158967571Y-96211657D01*
X158967569Y-96211656D01*
X158754637Y-96138556D01*
X158532569Y-96101500D01*
X158307431Y-96101500D01*
X158085362Y-96138556D01*
X157872430Y-96211656D01*
X157872419Y-96211661D01*
X157674427Y-96318808D01*
X157674422Y-96318812D01*
X157496761Y-96457092D01*
X157496756Y-96457097D01*
X157344284Y-96622723D01*
X157344276Y-96622734D01*
X157253808Y-96761206D01*
X157200662Y-96806562D01*
X157131431Y-96815986D01*
X157068095Y-96786484D01*
X157046192Y-96761206D01*
X156955723Y-96622734D01*
X156955715Y-96622723D01*
X156803243Y-96457097D01*
X156803238Y-96457092D01*
X156625577Y-96318812D01*
X156625572Y-96318808D01*
X156427580Y-96211661D01*
X156427577Y-96211659D01*
X156427574Y-96211658D01*
X156427571Y-96211657D01*
X156427569Y-96211656D01*
X156214637Y-96138556D01*
X155992569Y-96101500D01*
X155767431Y-96101500D01*
X155545362Y-96138556D01*
X155332430Y-96211656D01*
X155332419Y-96211661D01*
X155134427Y-96318808D01*
X155134422Y-96318812D01*
X154956761Y-96457092D01*
X154956756Y-96457097D01*
X154804284Y-96622723D01*
X154804276Y-96622734D01*
X154713808Y-96761206D01*
X154660662Y-96806562D01*
X154591431Y-96815986D01*
X154528095Y-96786484D01*
X154506192Y-96761206D01*
X154415723Y-96622734D01*
X154415715Y-96622723D01*
X154263243Y-96457097D01*
X154263238Y-96457092D01*
X154085577Y-96318812D01*
X154085572Y-96318808D01*
X153887580Y-96211661D01*
X153887577Y-96211659D01*
X153887574Y-96211658D01*
X153887571Y-96211657D01*
X153887569Y-96211656D01*
X153674637Y-96138556D01*
X153452569Y-96101500D01*
X153227431Y-96101500D01*
X153005362Y-96138556D01*
X152792430Y-96211656D01*
X152792419Y-96211661D01*
X152594427Y-96318808D01*
X152594422Y-96318812D01*
X152416761Y-96457092D01*
X152353548Y-96525760D01*
X152293661Y-96561750D01*
X152223823Y-96559649D01*
X152166207Y-96520124D01*
X152146138Y-96485110D01*
X152100889Y-96363796D01*
X152067214Y-96318812D01*
X152013261Y-96246739D01*
X151896204Y-96159111D01*
X151895172Y-96158726D01*
X151759203Y-96108011D01*
X151698654Y-96101500D01*
X151698638Y-96101500D01*
X149901362Y-96101500D01*
X149901345Y-96101500D01*
X149840797Y-96108011D01*
X149840795Y-96108011D01*
X149703795Y-96159111D01*
X149586739Y-96246739D01*
X149499111Y-96363795D01*
X149448011Y-96500795D01*
X149448011Y-96500797D01*
X149441500Y-96561345D01*
X146739212Y-96561345D01*
X146643243Y-96457097D01*
X146643238Y-96457092D01*
X146465577Y-96318812D01*
X146465572Y-96318808D01*
X146267580Y-96211661D01*
X146267577Y-96211659D01*
X146267574Y-96211658D01*
X146267571Y-96211657D01*
X146267569Y-96211656D01*
X146054637Y-96138556D01*
X145832569Y-96101500D01*
X145607431Y-96101500D01*
X145385362Y-96138556D01*
X145172430Y-96211656D01*
X145172419Y-96211661D01*
X144974427Y-96318808D01*
X144974422Y-96318812D01*
X144796761Y-96457092D01*
X144796756Y-96457097D01*
X144644284Y-96622723D01*
X144644276Y-96622734D01*
X144550251Y-96766650D01*
X144497105Y-96812007D01*
X144427873Y-96821430D01*
X144364538Y-96791928D01*
X144344868Y-96769951D01*
X144218113Y-96588926D01*
X144218108Y-96588920D01*
X144051082Y-96421894D01*
X143857578Y-96286399D01*
X143643492Y-96186570D01*
X143643486Y-96186567D01*
X143430000Y-96129364D01*
X143430000Y-97026988D01*
X143372993Y-96994075D01*
X143245826Y-96960000D01*
X143114174Y-96960000D01*
X142987007Y-96994075D01*
X142930000Y-97026988D01*
X142930000Y-96129364D01*
X142929999Y-96129364D01*
X142716513Y-96186567D01*
X142716507Y-96186570D01*
X142502422Y-96286399D01*
X142502420Y-96286400D01*
X142308926Y-96421886D01*
X142308920Y-96421891D01*
X142141891Y-96588920D01*
X142141890Y-96588922D01*
X142011575Y-96775031D01*
X141956998Y-96818655D01*
X141887499Y-96825848D01*
X141825145Y-96794326D01*
X141808425Y-96775031D01*
X141678109Y-96588922D01*
X141678108Y-96588920D01*
X141511082Y-96421894D01*
X141317578Y-96286399D01*
X141103492Y-96186570D01*
X141103486Y-96186567D01*
X140890000Y-96129364D01*
X140890000Y-97026988D01*
X140832993Y-96994075D01*
X140705826Y-96960000D01*
X140574174Y-96960000D01*
X140447007Y-96994075D01*
X140390000Y-97026988D01*
X140390000Y-96129364D01*
X140389999Y-96129364D01*
X140176513Y-96186567D01*
X140176507Y-96186570D01*
X139962422Y-96286399D01*
X139962420Y-96286400D01*
X139768926Y-96421886D01*
X139768920Y-96421891D01*
X139601891Y-96588920D01*
X139601890Y-96588922D01*
X139475131Y-96769952D01*
X139420554Y-96813577D01*
X139351055Y-96820769D01*
X139288701Y-96789247D01*
X139269752Y-96766656D01*
X139175722Y-96622732D01*
X139175715Y-96622725D01*
X139175715Y-96622723D01*
X139023243Y-96457097D01*
X139023238Y-96457092D01*
X138845577Y-96318812D01*
X138845572Y-96318808D01*
X138647580Y-96211661D01*
X138647577Y-96211659D01*
X138647574Y-96211658D01*
X138647571Y-96211657D01*
X138647569Y-96211656D01*
X138434637Y-96138556D01*
X138212569Y-96101500D01*
X137987431Y-96101500D01*
X137765362Y-96138556D01*
X137552430Y-96211656D01*
X137552419Y-96211661D01*
X137354427Y-96318808D01*
X137354422Y-96318812D01*
X137176761Y-96457092D01*
X137176756Y-96457097D01*
X137024284Y-96622723D01*
X137024276Y-96622734D01*
X136933808Y-96761206D01*
X136880662Y-96806562D01*
X136811431Y-96815986D01*
X136748095Y-96786484D01*
X136726192Y-96761206D01*
X136635723Y-96622734D01*
X136635715Y-96622723D01*
X136483243Y-96457097D01*
X136483238Y-96457092D01*
X136305577Y-96318812D01*
X136305572Y-96318808D01*
X136107580Y-96211661D01*
X136107577Y-96211659D01*
X136107574Y-96211658D01*
X136107571Y-96211657D01*
X136107569Y-96211656D01*
X135894637Y-96138556D01*
X135672569Y-96101500D01*
X135447431Y-96101500D01*
X135225362Y-96138556D01*
X135012430Y-96211656D01*
X135012419Y-96211661D01*
X134814427Y-96318808D01*
X134814422Y-96318812D01*
X134636761Y-96457092D01*
X134636756Y-96457097D01*
X134484284Y-96622723D01*
X134484276Y-96622734D01*
X134393808Y-96761206D01*
X134340662Y-96806562D01*
X134271431Y-96815986D01*
X134208095Y-96786484D01*
X134186192Y-96761206D01*
X134095723Y-96622734D01*
X134095715Y-96622723D01*
X133943243Y-96457097D01*
X133943238Y-96457092D01*
X133765577Y-96318812D01*
X133765572Y-96318808D01*
X133567580Y-96211661D01*
X133567577Y-96211659D01*
X133567574Y-96211658D01*
X133567571Y-96211657D01*
X133567569Y-96211656D01*
X133354637Y-96138556D01*
X133132569Y-96101500D01*
X132907431Y-96101500D01*
X132685362Y-96138556D01*
X132472430Y-96211656D01*
X132472419Y-96211661D01*
X132274427Y-96318808D01*
X132274422Y-96318812D01*
X132096761Y-96457092D01*
X132096756Y-96457097D01*
X131944284Y-96622723D01*
X131944276Y-96622734D01*
X131853808Y-96761206D01*
X131800662Y-96806562D01*
X131731431Y-96815986D01*
X131668095Y-96786484D01*
X131646192Y-96761206D01*
X131555723Y-96622734D01*
X131555715Y-96622723D01*
X131403243Y-96457097D01*
X131403238Y-96457092D01*
X131225577Y-96318812D01*
X131225572Y-96318808D01*
X131027580Y-96211661D01*
X131027577Y-96211659D01*
X131027574Y-96211658D01*
X131027571Y-96211657D01*
X131027569Y-96211656D01*
X130814637Y-96138556D01*
X130592569Y-96101500D01*
X130367431Y-96101500D01*
X130145362Y-96138556D01*
X129932430Y-96211656D01*
X129932419Y-96211661D01*
X129734427Y-96318808D01*
X129734422Y-96318812D01*
X129556761Y-96457092D01*
X129493548Y-96525760D01*
X129433661Y-96561750D01*
X129363823Y-96559649D01*
X129306207Y-96520124D01*
X129286138Y-96485110D01*
X129240889Y-96363796D01*
X129207214Y-96318812D01*
X129153261Y-96246739D01*
X129036204Y-96159111D01*
X129035172Y-96158726D01*
X128899203Y-96108011D01*
X128838654Y-96101500D01*
X128838638Y-96101500D01*
X127041362Y-96101500D01*
X127041345Y-96101500D01*
X126980797Y-96108011D01*
X126980795Y-96108011D01*
X126843795Y-96159111D01*
X126726739Y-96246739D01*
X126639111Y-96363795D01*
X126588011Y-96500795D01*
X126588011Y-96500797D01*
X126581500Y-96561345D01*
X100075500Y-96561345D01*
X100075500Y-84054998D01*
X111266807Y-84054998D01*
X111266807Y-84055001D01*
X111285541Y-84269136D01*
X111285542Y-84269144D01*
X111341176Y-84476772D01*
X111341177Y-84476774D01*
X111341178Y-84476777D01*
X111432024Y-84671597D01*
X111432026Y-84671601D01*
X111555319Y-84847682D01*
X111707317Y-84999680D01*
X111883398Y-85122973D01*
X111883400Y-85122974D01*
X111883403Y-85122976D01*
X112078223Y-85213822D01*
X112285858Y-85269458D01*
X112438816Y-85282840D01*
X112499998Y-85288193D01*
X112500000Y-85288193D01*
X112500002Y-85288193D01*
X112553535Y-85283509D01*
X112714142Y-85269458D01*
X112921777Y-85213822D01*
X113116597Y-85122976D01*
X113292225Y-85000000D01*
X118486835Y-85000000D01*
X118505465Y-85236714D01*
X118560895Y-85467595D01*
X118560895Y-85467597D01*
X118651757Y-85686959D01*
X118651759Y-85686962D01*
X118775820Y-85889410D01*
X118775821Y-85889413D01*
X118775824Y-85889416D01*
X118930031Y-86069969D01*
X119069797Y-86189340D01*
X119110586Y-86224178D01*
X119110589Y-86224179D01*
X119313037Y-86348240D01*
X119313040Y-86348242D01*
X119532403Y-86439104D01*
X119532404Y-86439104D01*
X119532406Y-86439105D01*
X119763289Y-86494535D01*
X120000000Y-86513165D01*
X120236711Y-86494535D01*
X120467594Y-86439105D01*
X120467596Y-86439104D01*
X120467597Y-86439104D01*
X120686959Y-86348242D01*
X120686960Y-86348241D01*
X120686963Y-86348240D01*
X120889416Y-86224176D01*
X121069969Y-86069969D01*
X121224176Y-85889416D01*
X121348240Y-85686963D01*
X121439105Y-85467594D01*
X121494535Y-85236711D01*
X121513165Y-85000000D01*
X124986835Y-85000000D01*
X125005465Y-85236714D01*
X125060895Y-85467595D01*
X125060895Y-85467597D01*
X125151757Y-85686959D01*
X125151759Y-85686962D01*
X125275820Y-85889410D01*
X125275821Y-85889413D01*
X125275824Y-85889416D01*
X125430031Y-86069969D01*
X125569797Y-86189340D01*
X125610586Y-86224178D01*
X125610589Y-86224179D01*
X125813037Y-86348240D01*
X125813040Y-86348242D01*
X126032403Y-86439104D01*
X126032404Y-86439104D01*
X126032406Y-86439105D01*
X126263289Y-86494535D01*
X126500000Y-86513165D01*
X126736711Y-86494535D01*
X126967594Y-86439105D01*
X126967596Y-86439104D01*
X126967597Y-86439104D01*
X127186959Y-86348242D01*
X127186960Y-86348241D01*
X127186963Y-86348240D01*
X127389416Y-86224176D01*
X127569969Y-86069969D01*
X127724176Y-85889416D01*
X127848240Y-85686963D01*
X127939105Y-85467594D01*
X127994535Y-85236711D01*
X128013165Y-85000000D01*
X128486835Y-85000000D01*
X128505465Y-85236714D01*
X128560895Y-85467595D01*
X128560895Y-85467597D01*
X128651757Y-85686959D01*
X128651759Y-85686962D01*
X128775820Y-85889410D01*
X128775821Y-85889413D01*
X128775824Y-85889416D01*
X128930031Y-86069969D01*
X129069797Y-86189340D01*
X129110586Y-86224178D01*
X129110589Y-86224179D01*
X129313037Y-86348240D01*
X129313040Y-86348242D01*
X129532403Y-86439104D01*
X129532404Y-86439104D01*
X129532406Y-86439105D01*
X129763289Y-86494535D01*
X130000000Y-86513165D01*
X130236711Y-86494535D01*
X130467594Y-86439105D01*
X130467596Y-86439104D01*
X130467597Y-86439104D01*
X130686959Y-86348242D01*
X130686960Y-86348241D01*
X130686963Y-86348240D01*
X130889416Y-86224176D01*
X131069969Y-86069969D01*
X131224176Y-85889416D01*
X131348240Y-85686963D01*
X131439105Y-85467594D01*
X131494535Y-85236711D01*
X131513165Y-85000000D01*
X134986835Y-85000000D01*
X135005465Y-85236714D01*
X135060895Y-85467595D01*
X135060895Y-85467597D01*
X135151757Y-85686959D01*
X135151759Y-85686962D01*
X135275820Y-85889410D01*
X135275821Y-85889413D01*
X135275824Y-85889416D01*
X135430031Y-86069969D01*
X135569797Y-86189340D01*
X135610586Y-86224178D01*
X135610589Y-86224179D01*
X135813037Y-86348240D01*
X135813040Y-86348242D01*
X136032403Y-86439104D01*
X136032404Y-86439104D01*
X136032406Y-86439105D01*
X136263289Y-86494535D01*
X136500000Y-86513165D01*
X136736711Y-86494535D01*
X136967594Y-86439105D01*
X136967596Y-86439104D01*
X136967597Y-86439104D01*
X137186959Y-86348242D01*
X137186960Y-86348241D01*
X137186963Y-86348240D01*
X137389416Y-86224176D01*
X137569969Y-86069969D01*
X137724176Y-85889416D01*
X137848240Y-85686963D01*
X137939105Y-85467594D01*
X137994535Y-85236711D01*
X138013165Y-85000000D01*
X138486835Y-85000000D01*
X138505465Y-85236714D01*
X138560895Y-85467595D01*
X138560895Y-85467597D01*
X138651757Y-85686959D01*
X138651759Y-85686962D01*
X138775820Y-85889410D01*
X138775821Y-85889413D01*
X138775824Y-85889416D01*
X138930031Y-86069969D01*
X139069797Y-86189340D01*
X139110586Y-86224178D01*
X139110589Y-86224179D01*
X139313037Y-86348240D01*
X139313040Y-86348242D01*
X139532403Y-86439104D01*
X139532404Y-86439104D01*
X139532406Y-86439105D01*
X139763289Y-86494535D01*
X140000000Y-86513165D01*
X140236711Y-86494535D01*
X140467594Y-86439105D01*
X140467596Y-86439104D01*
X140467597Y-86439104D01*
X140686959Y-86348242D01*
X140686960Y-86348241D01*
X140686963Y-86348240D01*
X140889416Y-86224176D01*
X141069969Y-86069969D01*
X141224176Y-85889416D01*
X141348240Y-85686963D01*
X141439105Y-85467594D01*
X141494535Y-85236711D01*
X141513165Y-85000000D01*
X144986835Y-85000000D01*
X145005465Y-85236714D01*
X145060895Y-85467595D01*
X145060895Y-85467597D01*
X145151757Y-85686959D01*
X145151759Y-85686962D01*
X145275820Y-85889410D01*
X145275821Y-85889413D01*
X145275824Y-85889416D01*
X145430031Y-86069969D01*
X145569797Y-86189340D01*
X145610586Y-86224178D01*
X145610589Y-86224179D01*
X145813037Y-86348240D01*
X145813040Y-86348242D01*
X146032403Y-86439104D01*
X146032404Y-86439104D01*
X146032406Y-86439105D01*
X146263289Y-86494535D01*
X146500000Y-86513165D01*
X146736711Y-86494535D01*
X146967594Y-86439105D01*
X146967596Y-86439104D01*
X146967597Y-86439104D01*
X147186959Y-86348242D01*
X147186960Y-86348241D01*
X147186963Y-86348240D01*
X147389416Y-86224176D01*
X147569969Y-86069969D01*
X147724176Y-85889416D01*
X147848240Y-85686963D01*
X147939105Y-85467594D01*
X147994535Y-85236711D01*
X148013165Y-85000000D01*
X148486835Y-85000000D01*
X148505465Y-85236714D01*
X148560895Y-85467595D01*
X148560895Y-85467597D01*
X148651757Y-85686959D01*
X148651759Y-85686962D01*
X148775820Y-85889410D01*
X148775821Y-85889413D01*
X148775824Y-85889416D01*
X148930031Y-86069969D01*
X149069797Y-86189340D01*
X149110586Y-86224178D01*
X149110589Y-86224179D01*
X149313037Y-86348240D01*
X149313040Y-86348242D01*
X149532403Y-86439104D01*
X149532404Y-86439104D01*
X149532406Y-86439105D01*
X149763289Y-86494535D01*
X150000000Y-86513165D01*
X150236711Y-86494535D01*
X150467594Y-86439105D01*
X150467596Y-86439104D01*
X150467597Y-86439104D01*
X150686959Y-86348242D01*
X150686960Y-86348241D01*
X150686963Y-86348240D01*
X150889416Y-86224176D01*
X151069969Y-86069969D01*
X151224176Y-85889416D01*
X151348240Y-85686963D01*
X151439105Y-85467594D01*
X151494535Y-85236711D01*
X151513165Y-85000000D01*
X154986835Y-85000000D01*
X155005465Y-85236714D01*
X155060895Y-85467595D01*
X155060895Y-85467597D01*
X155151757Y-85686959D01*
X155151759Y-85686962D01*
X155275820Y-85889410D01*
X155275821Y-85889413D01*
X155275824Y-85889416D01*
X155430031Y-86069969D01*
X155569797Y-86189340D01*
X155610586Y-86224178D01*
X155610589Y-86224179D01*
X155813037Y-86348240D01*
X155813040Y-86348242D01*
X156032403Y-86439104D01*
X156032404Y-86439104D01*
X156032406Y-86439105D01*
X156263289Y-86494535D01*
X156500000Y-86513165D01*
X156736711Y-86494535D01*
X156967594Y-86439105D01*
X156967596Y-86439104D01*
X156967597Y-86439104D01*
X157186959Y-86348242D01*
X157186960Y-86348241D01*
X157186963Y-86348240D01*
X157389416Y-86224176D01*
X157569969Y-86069969D01*
X157724176Y-85889416D01*
X157848240Y-85686963D01*
X157939105Y-85467594D01*
X157994535Y-85236711D01*
X158013165Y-85000000D01*
X158486835Y-85000000D01*
X158505465Y-85236714D01*
X158560895Y-85467595D01*
X158560895Y-85467597D01*
X158651757Y-85686959D01*
X158651759Y-85686962D01*
X158775820Y-85889410D01*
X158775821Y-85889413D01*
X158775824Y-85889416D01*
X158930031Y-86069969D01*
X159069797Y-86189340D01*
X159110586Y-86224178D01*
X159110589Y-86224179D01*
X159313037Y-86348240D01*
X159313040Y-86348242D01*
X159532403Y-86439104D01*
X159532404Y-86439104D01*
X159532406Y-86439105D01*
X159763289Y-86494535D01*
X160000000Y-86513165D01*
X160236711Y-86494535D01*
X160467594Y-86439105D01*
X160467596Y-86439104D01*
X160467597Y-86439104D01*
X160686959Y-86348242D01*
X160686960Y-86348241D01*
X160686963Y-86348240D01*
X160889416Y-86224176D01*
X161069969Y-86069969D01*
X161224176Y-85889416D01*
X161348240Y-85686963D01*
X161439105Y-85467594D01*
X161494535Y-85236711D01*
X161513165Y-85000000D01*
X164986835Y-85000000D01*
X165005465Y-85236714D01*
X165060895Y-85467595D01*
X165060895Y-85467597D01*
X165151757Y-85686959D01*
X165151759Y-85686962D01*
X165275820Y-85889410D01*
X165275821Y-85889413D01*
X165275824Y-85889416D01*
X165430031Y-86069969D01*
X165569797Y-86189340D01*
X165610586Y-86224178D01*
X165610589Y-86224179D01*
X165813037Y-86348240D01*
X165813040Y-86348242D01*
X166032403Y-86439104D01*
X166032404Y-86439104D01*
X166032406Y-86439105D01*
X166263289Y-86494535D01*
X166500000Y-86513165D01*
X166736711Y-86494535D01*
X166967594Y-86439105D01*
X166967596Y-86439104D01*
X166967597Y-86439104D01*
X167186959Y-86348242D01*
X167186960Y-86348241D01*
X167186963Y-86348240D01*
X167389416Y-86224176D01*
X167569969Y-86069969D01*
X167724176Y-85889416D01*
X167848240Y-85686963D01*
X167939105Y-85467594D01*
X167994535Y-85236711D01*
X168013165Y-85000000D01*
X167994535Y-84763289D01*
X167939105Y-84532406D01*
X167939104Y-84532403D01*
X167939104Y-84532402D01*
X167848242Y-84313040D01*
X167848240Y-84313037D01*
X167724179Y-84110589D01*
X167724178Y-84110586D01*
X167689340Y-84069797D01*
X167569969Y-83930031D01*
X167450596Y-83828076D01*
X167389413Y-83775821D01*
X167389410Y-83775820D01*
X167186962Y-83651759D01*
X167186959Y-83651757D01*
X166967596Y-83560895D01*
X166736714Y-83505465D01*
X166500000Y-83486835D01*
X166263285Y-83505465D01*
X166032404Y-83560895D01*
X166032402Y-83560895D01*
X165813040Y-83651757D01*
X165813037Y-83651759D01*
X165610589Y-83775820D01*
X165610586Y-83775821D01*
X165430031Y-83930031D01*
X165275821Y-84110586D01*
X165275820Y-84110589D01*
X165151759Y-84313037D01*
X165151757Y-84313040D01*
X165060895Y-84532402D01*
X165060895Y-84532404D01*
X165005465Y-84763285D01*
X164986835Y-85000000D01*
X161513165Y-85000000D01*
X161494535Y-84763289D01*
X161439105Y-84532406D01*
X161439104Y-84532403D01*
X161439104Y-84532402D01*
X161348242Y-84313040D01*
X161348240Y-84313037D01*
X161224179Y-84110589D01*
X161224178Y-84110586D01*
X161189340Y-84069797D01*
X161069969Y-83930031D01*
X160950596Y-83828076D01*
X160889413Y-83775821D01*
X160889410Y-83775820D01*
X160686962Y-83651759D01*
X160686959Y-83651757D01*
X160467596Y-83560895D01*
X160236714Y-83505465D01*
X160000000Y-83486835D01*
X159763285Y-83505465D01*
X159532404Y-83560895D01*
X159532402Y-83560895D01*
X159313040Y-83651757D01*
X159313037Y-83651759D01*
X159110589Y-83775820D01*
X159110586Y-83775821D01*
X158930031Y-83930031D01*
X158775821Y-84110586D01*
X158775820Y-84110589D01*
X158651759Y-84313037D01*
X158651757Y-84313040D01*
X158560895Y-84532402D01*
X158560895Y-84532404D01*
X158505465Y-84763285D01*
X158486835Y-85000000D01*
X158013165Y-85000000D01*
X157994535Y-84763289D01*
X157939105Y-84532406D01*
X157939104Y-84532403D01*
X157939104Y-84532402D01*
X157848242Y-84313040D01*
X157848240Y-84313037D01*
X157724179Y-84110589D01*
X157724178Y-84110586D01*
X157689340Y-84069797D01*
X157569969Y-83930031D01*
X157450596Y-83828076D01*
X157389413Y-83775821D01*
X157389410Y-83775820D01*
X157186962Y-83651759D01*
X157186959Y-83651757D01*
X156967596Y-83560895D01*
X156736714Y-83505465D01*
X156500000Y-83486835D01*
X156263285Y-83505465D01*
X156032404Y-83560895D01*
X156032402Y-83560895D01*
X155813040Y-83651757D01*
X155813037Y-83651759D01*
X155610589Y-83775820D01*
X155610586Y-83775821D01*
X155430031Y-83930031D01*
X155275821Y-84110586D01*
X155275820Y-84110589D01*
X155151759Y-84313037D01*
X155151757Y-84313040D01*
X155060895Y-84532402D01*
X155060895Y-84532404D01*
X155005465Y-84763285D01*
X154986835Y-85000000D01*
X151513165Y-85000000D01*
X151494535Y-84763289D01*
X151439105Y-84532406D01*
X151439104Y-84532403D01*
X151439104Y-84532402D01*
X151348242Y-84313040D01*
X151348240Y-84313037D01*
X151224179Y-84110589D01*
X151224178Y-84110586D01*
X151189340Y-84069797D01*
X151069969Y-83930031D01*
X150950596Y-83828076D01*
X150889413Y-83775821D01*
X150889410Y-83775820D01*
X150686962Y-83651759D01*
X150686959Y-83651757D01*
X150467596Y-83560895D01*
X150236714Y-83505465D01*
X150000000Y-83486835D01*
X149763285Y-83505465D01*
X149532404Y-83560895D01*
X149532402Y-83560895D01*
X149313040Y-83651757D01*
X149313037Y-83651759D01*
X149110589Y-83775820D01*
X149110586Y-83775821D01*
X148930031Y-83930031D01*
X148775821Y-84110586D01*
X148775820Y-84110589D01*
X148651759Y-84313037D01*
X148651757Y-84313040D01*
X148560895Y-84532402D01*
X148560895Y-84532404D01*
X148505465Y-84763285D01*
X148486835Y-85000000D01*
X148013165Y-85000000D01*
X147994535Y-84763289D01*
X147939105Y-84532406D01*
X147939104Y-84532403D01*
X147939104Y-84532402D01*
X147848242Y-84313040D01*
X147848240Y-84313037D01*
X147724179Y-84110589D01*
X147724178Y-84110586D01*
X147689340Y-84069797D01*
X147569969Y-83930031D01*
X147450596Y-83828076D01*
X147389413Y-83775821D01*
X147389410Y-83775820D01*
X147186962Y-83651759D01*
X147186959Y-83651757D01*
X146967596Y-83560895D01*
X146736714Y-83505465D01*
X146500000Y-83486835D01*
X146263285Y-83505465D01*
X146032404Y-83560895D01*
X146032402Y-83560895D01*
X145813040Y-83651757D01*
X145813037Y-83651759D01*
X145610589Y-83775820D01*
X145610586Y-83775821D01*
X145430031Y-83930031D01*
X145275821Y-84110586D01*
X145275820Y-84110589D01*
X145151759Y-84313037D01*
X145151757Y-84313040D01*
X145060895Y-84532402D01*
X145060895Y-84532404D01*
X145005465Y-84763285D01*
X144986835Y-85000000D01*
X141513165Y-85000000D01*
X141494535Y-84763289D01*
X141439105Y-84532406D01*
X141439104Y-84532403D01*
X141439104Y-84532402D01*
X141348242Y-84313040D01*
X141348240Y-84313037D01*
X141224179Y-84110589D01*
X141224178Y-84110586D01*
X141189340Y-84069797D01*
X141069969Y-83930031D01*
X140950596Y-83828076D01*
X140889413Y-83775821D01*
X140889410Y-83775820D01*
X140686962Y-83651759D01*
X140686959Y-83651757D01*
X140467596Y-83560895D01*
X140236714Y-83505465D01*
X140000000Y-83486835D01*
X139763285Y-83505465D01*
X139532404Y-83560895D01*
X139532402Y-83560895D01*
X139313040Y-83651757D01*
X139313037Y-83651759D01*
X139110589Y-83775820D01*
X139110586Y-83775821D01*
X138930031Y-83930031D01*
X138775821Y-84110586D01*
X138775820Y-84110589D01*
X138651759Y-84313037D01*
X138651757Y-84313040D01*
X138560895Y-84532402D01*
X138560895Y-84532404D01*
X138505465Y-84763285D01*
X138486835Y-85000000D01*
X138013165Y-85000000D01*
X137994535Y-84763289D01*
X137939105Y-84532406D01*
X137939104Y-84532403D01*
X137939104Y-84532402D01*
X137848242Y-84313040D01*
X137848240Y-84313037D01*
X137724179Y-84110589D01*
X137724178Y-84110586D01*
X137689340Y-84069797D01*
X137569969Y-83930031D01*
X137450596Y-83828076D01*
X137389413Y-83775821D01*
X137389410Y-83775820D01*
X137186962Y-83651759D01*
X137186959Y-83651757D01*
X136967596Y-83560895D01*
X136736714Y-83505465D01*
X136500000Y-83486835D01*
X136263285Y-83505465D01*
X136032404Y-83560895D01*
X136032402Y-83560895D01*
X135813040Y-83651757D01*
X135813037Y-83651759D01*
X135610589Y-83775820D01*
X135610586Y-83775821D01*
X135430031Y-83930031D01*
X135275821Y-84110586D01*
X135275820Y-84110589D01*
X135151759Y-84313037D01*
X135151757Y-84313040D01*
X135060895Y-84532402D01*
X135060895Y-84532404D01*
X135005465Y-84763285D01*
X134986835Y-85000000D01*
X131513165Y-85000000D01*
X131494535Y-84763289D01*
X131439105Y-84532406D01*
X131439104Y-84532403D01*
X131439104Y-84532402D01*
X131348242Y-84313040D01*
X131348240Y-84313037D01*
X131224179Y-84110589D01*
X131224178Y-84110586D01*
X131189340Y-84069797D01*
X131069969Y-83930031D01*
X130950596Y-83828076D01*
X130889413Y-83775821D01*
X130889410Y-83775820D01*
X130686962Y-83651759D01*
X130686959Y-83651757D01*
X130467596Y-83560895D01*
X130236714Y-83505465D01*
X130000000Y-83486835D01*
X129763285Y-83505465D01*
X129532404Y-83560895D01*
X129532402Y-83560895D01*
X129313040Y-83651757D01*
X129313037Y-83651759D01*
X129110589Y-83775820D01*
X129110586Y-83775821D01*
X128930031Y-83930031D01*
X128775821Y-84110586D01*
X128775820Y-84110589D01*
X128651759Y-84313037D01*
X128651757Y-84313040D01*
X128560895Y-84532402D01*
X128560895Y-84532404D01*
X128505465Y-84763285D01*
X128486835Y-85000000D01*
X128013165Y-85000000D01*
X127994535Y-84763289D01*
X127939105Y-84532406D01*
X127939104Y-84532403D01*
X127939104Y-84532402D01*
X127848242Y-84313040D01*
X127848240Y-84313037D01*
X127724179Y-84110589D01*
X127724178Y-84110586D01*
X127689340Y-84069797D01*
X127569969Y-83930031D01*
X127450596Y-83828076D01*
X127389413Y-83775821D01*
X127389410Y-83775820D01*
X127186962Y-83651759D01*
X127186959Y-83651757D01*
X126967596Y-83560895D01*
X126736714Y-83505465D01*
X126500000Y-83486835D01*
X126263285Y-83505465D01*
X126032404Y-83560895D01*
X126032402Y-83560895D01*
X125813040Y-83651757D01*
X125813037Y-83651759D01*
X125610589Y-83775820D01*
X125610586Y-83775821D01*
X125430031Y-83930031D01*
X125275821Y-84110586D01*
X125275820Y-84110589D01*
X125151759Y-84313037D01*
X125151757Y-84313040D01*
X125060895Y-84532402D01*
X125060895Y-84532404D01*
X125005465Y-84763285D01*
X124986835Y-85000000D01*
X121513165Y-85000000D01*
X121494535Y-84763289D01*
X121439105Y-84532406D01*
X121439104Y-84532403D01*
X121439104Y-84532402D01*
X121348242Y-84313040D01*
X121348240Y-84313037D01*
X121224179Y-84110589D01*
X121224178Y-84110586D01*
X121189340Y-84069797D01*
X121069969Y-83930031D01*
X120950596Y-83828076D01*
X120889413Y-83775821D01*
X120889410Y-83775820D01*
X120686962Y-83651759D01*
X120686959Y-83651757D01*
X120467596Y-83560895D01*
X120236714Y-83505465D01*
X120000000Y-83486835D01*
X119763285Y-83505465D01*
X119532404Y-83560895D01*
X119532402Y-83560895D01*
X119313040Y-83651757D01*
X119313037Y-83651759D01*
X119110589Y-83775820D01*
X119110586Y-83775821D01*
X118930031Y-83930031D01*
X118775821Y-84110586D01*
X118775820Y-84110589D01*
X118651759Y-84313037D01*
X118651757Y-84313040D01*
X118560895Y-84532402D01*
X118560895Y-84532404D01*
X118505465Y-84763285D01*
X118486835Y-85000000D01*
X113292225Y-85000000D01*
X113292681Y-84999681D01*
X113444681Y-84847681D01*
X113567976Y-84671597D01*
X113658822Y-84476777D01*
X113714458Y-84269142D01*
X113733193Y-84055000D01*
X113714458Y-83840858D01*
X113658822Y-83633223D01*
X113567976Y-83438404D01*
X113444681Y-83262319D01*
X113444679Y-83262316D01*
X113292682Y-83110319D01*
X113116601Y-82987026D01*
X113116597Y-82987024D01*
X113116595Y-82987023D01*
X112921777Y-82896178D01*
X112921774Y-82896177D01*
X112921772Y-82896176D01*
X112714144Y-82840542D01*
X112714136Y-82840541D01*
X112500002Y-82821807D01*
X112499998Y-82821807D01*
X112285863Y-82840541D01*
X112285855Y-82840542D01*
X112078227Y-82896176D01*
X112078221Y-82896179D01*
X111883405Y-82987023D01*
X111883403Y-82987024D01*
X111707316Y-83110320D01*
X111555320Y-83262316D01*
X111432024Y-83438403D01*
X111432023Y-83438405D01*
X111341179Y-83633221D01*
X111341176Y-83633227D01*
X111285542Y-83840855D01*
X111285541Y-83840863D01*
X111266807Y-84054998D01*
X100075500Y-84054998D01*
X100075500Y-81514998D01*
X108726807Y-81514998D01*
X108726807Y-81515001D01*
X108745541Y-81729136D01*
X108745542Y-81729144D01*
X108801176Y-81936772D01*
X108801177Y-81936774D01*
X108801178Y-81936777D01*
X108890032Y-82127325D01*
X108892024Y-82131597D01*
X108892026Y-82131601D01*
X109015319Y-82307682D01*
X109167317Y-82459680D01*
X109343398Y-82582973D01*
X109343400Y-82582974D01*
X109343403Y-82582976D01*
X109538223Y-82673822D01*
X109745858Y-82729458D01*
X109898816Y-82742840D01*
X109959998Y-82748193D01*
X109960000Y-82748193D01*
X109960002Y-82748193D01*
X110013535Y-82743509D01*
X110174142Y-82729458D01*
X110381777Y-82673822D01*
X110576597Y-82582976D01*
X110752681Y-82459681D01*
X110904681Y-82307681D01*
X111027976Y-82131597D01*
X111118822Y-81936777D01*
X111174458Y-81729142D01*
X111193193Y-81515000D01*
X111193193Y-81514997D01*
X113815340Y-81514997D01*
X113815340Y-81515002D01*
X113833944Y-81727654D01*
X113833945Y-81727662D01*
X113889194Y-81933853D01*
X113889197Y-81933859D01*
X113979413Y-82127329D01*
X114018415Y-82183030D01*
X114640000Y-81561445D01*
X114640000Y-81567661D01*
X114667259Y-81669394D01*
X114719920Y-81760606D01*
X114794394Y-81835080D01*
X114885606Y-81887741D01*
X114987339Y-81915000D01*
X114993554Y-81915000D01*
X114371968Y-82536584D01*
X114427663Y-82575582D01*
X114427669Y-82575586D01*
X114621140Y-82665802D01*
X114621146Y-82665805D01*
X114827337Y-82721054D01*
X114827345Y-82721055D01*
X115039998Y-82739660D01*
X115040002Y-82739660D01*
X115252654Y-82721055D01*
X115252662Y-82721054D01*
X115458853Y-82665805D01*
X115458864Y-82665801D01*
X115652325Y-82575589D01*
X115708030Y-82536583D01*
X115086447Y-81915000D01*
X115092661Y-81915000D01*
X115194394Y-81887741D01*
X115285606Y-81835080D01*
X115360080Y-81760606D01*
X115412741Y-81669394D01*
X115440000Y-81567661D01*
X115440000Y-81561446D01*
X116061583Y-82183029D01*
X116100589Y-82127325D01*
X116190801Y-81933864D01*
X116190805Y-81933853D01*
X116246054Y-81727662D01*
X116246055Y-81727654D01*
X116264660Y-81515002D01*
X116264660Y-81514997D01*
X116246055Y-81302345D01*
X116246054Y-81302337D01*
X116190805Y-81096146D01*
X116190802Y-81096140D01*
X116100586Y-80902669D01*
X116100582Y-80902663D01*
X116061584Y-80846968D01*
X115440000Y-81468552D01*
X115440000Y-81462339D01*
X115412741Y-81360606D01*
X115360080Y-81269394D01*
X115285606Y-81194920D01*
X115194394Y-81142259D01*
X115092661Y-81115000D01*
X115086447Y-81115000D01*
X115701445Y-80500000D01*
X118486835Y-80500000D01*
X118505465Y-80736714D01*
X118560895Y-80967595D01*
X118560895Y-80967597D01*
X118651757Y-81186959D01*
X118651759Y-81186962D01*
X118775820Y-81389410D01*
X118775821Y-81389413D01*
X118775824Y-81389416D01*
X118930031Y-81569969D01*
X119046443Y-81669394D01*
X119110586Y-81724178D01*
X119110589Y-81724179D01*
X119313037Y-81848240D01*
X119313040Y-81848242D01*
X119532403Y-81939104D01*
X119532404Y-81939104D01*
X119532406Y-81939105D01*
X119763289Y-81994535D01*
X120000000Y-82013165D01*
X120236711Y-81994535D01*
X120467594Y-81939105D01*
X120467596Y-81939104D01*
X120467597Y-81939104D01*
X120686959Y-81848242D01*
X120686960Y-81848241D01*
X120686963Y-81848240D01*
X120889416Y-81724176D01*
X121069969Y-81569969D01*
X121224176Y-81389416D01*
X121348240Y-81186963D01*
X121358810Y-81161446D01*
X121439104Y-80967597D01*
X121439104Y-80967596D01*
X121439105Y-80967594D01*
X121494535Y-80736711D01*
X121513165Y-80500000D01*
X124986835Y-80500000D01*
X125005465Y-80736714D01*
X125060895Y-80967595D01*
X125060895Y-80967597D01*
X125151757Y-81186959D01*
X125151759Y-81186962D01*
X125275820Y-81389410D01*
X125275821Y-81389413D01*
X125275824Y-81389416D01*
X125430031Y-81569969D01*
X125546443Y-81669394D01*
X125610586Y-81724178D01*
X125610589Y-81724179D01*
X125813037Y-81848240D01*
X125813040Y-81848242D01*
X126032403Y-81939104D01*
X126032404Y-81939104D01*
X126032406Y-81939105D01*
X126263289Y-81994535D01*
X126500000Y-82013165D01*
X126736711Y-81994535D01*
X126967594Y-81939105D01*
X126967596Y-81939104D01*
X126967597Y-81939104D01*
X127186959Y-81848242D01*
X127186960Y-81848241D01*
X127186963Y-81848240D01*
X127389416Y-81724176D01*
X127569969Y-81569969D01*
X127724176Y-81389416D01*
X127848240Y-81186963D01*
X127858810Y-81161446D01*
X127939104Y-80967597D01*
X127939104Y-80967596D01*
X127939105Y-80967594D01*
X127994535Y-80736711D01*
X128013165Y-80500000D01*
X128486835Y-80500000D01*
X128505465Y-80736714D01*
X128560895Y-80967595D01*
X128560895Y-80967597D01*
X128651757Y-81186959D01*
X128651759Y-81186962D01*
X128775820Y-81389410D01*
X128775821Y-81389413D01*
X128775824Y-81389416D01*
X128930031Y-81569969D01*
X129046443Y-81669394D01*
X129110586Y-81724178D01*
X129110589Y-81724179D01*
X129313037Y-81848240D01*
X129313040Y-81848242D01*
X129532403Y-81939104D01*
X129532404Y-81939104D01*
X129532406Y-81939105D01*
X129763289Y-81994535D01*
X130000000Y-82013165D01*
X130236711Y-81994535D01*
X130467594Y-81939105D01*
X130467596Y-81939104D01*
X130467597Y-81939104D01*
X130686959Y-81848242D01*
X130686960Y-81848241D01*
X130686963Y-81848240D01*
X130889416Y-81724176D01*
X131069969Y-81569969D01*
X131224176Y-81389416D01*
X131348240Y-81186963D01*
X131358810Y-81161446D01*
X131439104Y-80967597D01*
X131439104Y-80967596D01*
X131439105Y-80967594D01*
X131494535Y-80736711D01*
X131513165Y-80500000D01*
X134986835Y-80500000D01*
X135005465Y-80736714D01*
X135060895Y-80967595D01*
X135060895Y-80967597D01*
X135151757Y-81186959D01*
X135151759Y-81186962D01*
X135275820Y-81389410D01*
X135275821Y-81389413D01*
X135275824Y-81389416D01*
X135430031Y-81569969D01*
X135546443Y-81669394D01*
X135610586Y-81724178D01*
X135610589Y-81724179D01*
X135813037Y-81848240D01*
X135813040Y-81848242D01*
X136032403Y-81939104D01*
X136032404Y-81939104D01*
X136032406Y-81939105D01*
X136263289Y-81994535D01*
X136500000Y-82013165D01*
X136736711Y-81994535D01*
X136967594Y-81939105D01*
X136967596Y-81939104D01*
X136967597Y-81939104D01*
X137186959Y-81848242D01*
X137186960Y-81848241D01*
X137186963Y-81848240D01*
X137389416Y-81724176D01*
X137569969Y-81569969D01*
X137724176Y-81389416D01*
X137848240Y-81186963D01*
X137858810Y-81161446D01*
X137939104Y-80967597D01*
X137939104Y-80967596D01*
X137939105Y-80967594D01*
X137994535Y-80736711D01*
X138013165Y-80500000D01*
X138486835Y-80500000D01*
X138505465Y-80736714D01*
X138560895Y-80967595D01*
X138560895Y-80967597D01*
X138651757Y-81186959D01*
X138651759Y-81186962D01*
X138775820Y-81389410D01*
X138775821Y-81389413D01*
X138775824Y-81389416D01*
X138930031Y-81569969D01*
X139046443Y-81669394D01*
X139110586Y-81724178D01*
X139110589Y-81724179D01*
X139313037Y-81848240D01*
X139313040Y-81848242D01*
X139532403Y-81939104D01*
X139532404Y-81939104D01*
X139532406Y-81939105D01*
X139763289Y-81994535D01*
X140000000Y-82013165D01*
X140236711Y-81994535D01*
X140467594Y-81939105D01*
X140467596Y-81939104D01*
X140467597Y-81939104D01*
X140686959Y-81848242D01*
X140686960Y-81848241D01*
X140686963Y-81848240D01*
X140889416Y-81724176D01*
X141069969Y-81569969D01*
X141224176Y-81389416D01*
X141348240Y-81186963D01*
X141358810Y-81161446D01*
X141439104Y-80967597D01*
X141439104Y-80967596D01*
X141439105Y-80967594D01*
X141494535Y-80736711D01*
X141513165Y-80500000D01*
X144986835Y-80500000D01*
X145005465Y-80736714D01*
X145060895Y-80967595D01*
X145060895Y-80967597D01*
X145151757Y-81186959D01*
X145151759Y-81186962D01*
X145275820Y-81389410D01*
X145275821Y-81389413D01*
X145275824Y-81389416D01*
X145430031Y-81569969D01*
X145546443Y-81669394D01*
X145610586Y-81724178D01*
X145610589Y-81724179D01*
X145813037Y-81848240D01*
X145813040Y-81848242D01*
X146032403Y-81939104D01*
X146032404Y-81939104D01*
X146032406Y-81939105D01*
X146263289Y-81994535D01*
X146500000Y-82013165D01*
X146736711Y-81994535D01*
X146967594Y-81939105D01*
X146967596Y-81939104D01*
X146967597Y-81939104D01*
X147186959Y-81848242D01*
X147186960Y-81848241D01*
X147186963Y-81848240D01*
X147389416Y-81724176D01*
X147569969Y-81569969D01*
X147724176Y-81389416D01*
X147848240Y-81186963D01*
X147858810Y-81161446D01*
X147939104Y-80967597D01*
X147939104Y-80967596D01*
X147939105Y-80967594D01*
X147994535Y-80736711D01*
X148013165Y-80500000D01*
X148486835Y-80500000D01*
X148505465Y-80736714D01*
X148560895Y-80967595D01*
X148560895Y-80967597D01*
X148651757Y-81186959D01*
X148651759Y-81186962D01*
X148775820Y-81389410D01*
X148775821Y-81389413D01*
X148775824Y-81389416D01*
X148930031Y-81569969D01*
X149046443Y-81669394D01*
X149110586Y-81724178D01*
X149110589Y-81724179D01*
X149313037Y-81848240D01*
X149313040Y-81848242D01*
X149532403Y-81939104D01*
X149532404Y-81939104D01*
X149532406Y-81939105D01*
X149763289Y-81994535D01*
X150000000Y-82013165D01*
X150236711Y-81994535D01*
X150467594Y-81939105D01*
X150467596Y-81939104D01*
X150467597Y-81939104D01*
X150686959Y-81848242D01*
X150686960Y-81848241D01*
X150686963Y-81848240D01*
X150889416Y-81724176D01*
X151069969Y-81569969D01*
X151224176Y-81389416D01*
X151348240Y-81186963D01*
X151358810Y-81161446D01*
X151439104Y-80967597D01*
X151439104Y-80967596D01*
X151439105Y-80967594D01*
X151494535Y-80736711D01*
X151513165Y-80500000D01*
X154986835Y-80500000D01*
X155005465Y-80736714D01*
X155060895Y-80967595D01*
X155060895Y-80967597D01*
X155151757Y-81186959D01*
X155151759Y-81186962D01*
X155275820Y-81389410D01*
X155275821Y-81389413D01*
X155275824Y-81389416D01*
X155430031Y-81569969D01*
X155546443Y-81669394D01*
X155610586Y-81724178D01*
X155610589Y-81724179D01*
X155813037Y-81848240D01*
X155813040Y-81848242D01*
X156032403Y-81939104D01*
X156032404Y-81939104D01*
X156032406Y-81939105D01*
X156263289Y-81994535D01*
X156500000Y-82013165D01*
X156736711Y-81994535D01*
X156967594Y-81939105D01*
X156967596Y-81939104D01*
X156967597Y-81939104D01*
X157186959Y-81848242D01*
X157186960Y-81848241D01*
X157186963Y-81848240D01*
X157389416Y-81724176D01*
X157569969Y-81569969D01*
X157724176Y-81389416D01*
X157848240Y-81186963D01*
X157858810Y-81161446D01*
X157939104Y-80967597D01*
X157939104Y-80967596D01*
X157939105Y-80967594D01*
X157994535Y-80736711D01*
X158013165Y-80500000D01*
X158486835Y-80500000D01*
X158505465Y-80736714D01*
X158560895Y-80967595D01*
X158560895Y-80967597D01*
X158651757Y-81186959D01*
X158651759Y-81186962D01*
X158775820Y-81389410D01*
X158775821Y-81389413D01*
X158775824Y-81389416D01*
X158930031Y-81569969D01*
X159046443Y-81669394D01*
X159110586Y-81724178D01*
X159110589Y-81724179D01*
X159313037Y-81848240D01*
X159313040Y-81848242D01*
X159532403Y-81939104D01*
X159532404Y-81939104D01*
X159532406Y-81939105D01*
X159763289Y-81994535D01*
X160000000Y-82013165D01*
X160236711Y-81994535D01*
X160467594Y-81939105D01*
X160467596Y-81939104D01*
X160467597Y-81939104D01*
X160686959Y-81848242D01*
X160686960Y-81848241D01*
X160686963Y-81848240D01*
X160889416Y-81724176D01*
X161069969Y-81569969D01*
X161224176Y-81389416D01*
X161348240Y-81186963D01*
X161358810Y-81161446D01*
X161439104Y-80967597D01*
X161439104Y-80967596D01*
X161439105Y-80967594D01*
X161494535Y-80736711D01*
X161513165Y-80500000D01*
X164986835Y-80500000D01*
X165005465Y-80736714D01*
X165060895Y-80967595D01*
X165060895Y-80967597D01*
X165151757Y-81186959D01*
X165151759Y-81186962D01*
X165275820Y-81389410D01*
X165275821Y-81389413D01*
X165275824Y-81389416D01*
X165430031Y-81569969D01*
X165546443Y-81669394D01*
X165610586Y-81724178D01*
X165610589Y-81724179D01*
X165813037Y-81848240D01*
X165813040Y-81848242D01*
X166032403Y-81939104D01*
X166032404Y-81939104D01*
X166032406Y-81939105D01*
X166263289Y-81994535D01*
X166500000Y-82013165D01*
X166736711Y-81994535D01*
X166967594Y-81939105D01*
X166967596Y-81939104D01*
X166967597Y-81939104D01*
X167186959Y-81848242D01*
X167186960Y-81848241D01*
X167186963Y-81848240D01*
X167389416Y-81724176D01*
X167569969Y-81569969D01*
X167724176Y-81389416D01*
X167848240Y-81186963D01*
X167858810Y-81161446D01*
X167939104Y-80967597D01*
X167939104Y-80967596D01*
X167939105Y-80967594D01*
X167994535Y-80736711D01*
X168013165Y-80500000D01*
X167994535Y-80263289D01*
X167939105Y-80032406D01*
X167939104Y-80032403D01*
X167939104Y-80032402D01*
X167848242Y-79813040D01*
X167848240Y-79813037D01*
X167724179Y-79610589D01*
X167724178Y-79610586D01*
X167689340Y-79569797D01*
X167569969Y-79430031D01*
X167450596Y-79328076D01*
X167389413Y-79275821D01*
X167389410Y-79275820D01*
X167186962Y-79151759D01*
X167186959Y-79151757D01*
X166967596Y-79060895D01*
X166736714Y-79005465D01*
X166500000Y-78986835D01*
X166263285Y-79005465D01*
X166032404Y-79060895D01*
X166032402Y-79060895D01*
X165813040Y-79151757D01*
X165813037Y-79151759D01*
X165610589Y-79275820D01*
X165610586Y-79275821D01*
X165430031Y-79430031D01*
X165275821Y-79610586D01*
X165275820Y-79610589D01*
X165151759Y-79813037D01*
X165151757Y-79813040D01*
X165060895Y-80032402D01*
X165060895Y-80032404D01*
X165005465Y-80263285D01*
X164986835Y-80500000D01*
X161513165Y-80500000D01*
X161494535Y-80263289D01*
X161439105Y-80032406D01*
X161439104Y-80032403D01*
X161439104Y-80032402D01*
X161348242Y-79813040D01*
X161348240Y-79813037D01*
X161224179Y-79610589D01*
X161224178Y-79610586D01*
X161189340Y-79569797D01*
X161069969Y-79430031D01*
X160950596Y-79328076D01*
X160889413Y-79275821D01*
X160889410Y-79275820D01*
X160686962Y-79151759D01*
X160686959Y-79151757D01*
X160467596Y-79060895D01*
X160236714Y-79005465D01*
X160000000Y-78986835D01*
X159763285Y-79005465D01*
X159532404Y-79060895D01*
X159532402Y-79060895D01*
X159313040Y-79151757D01*
X159313037Y-79151759D01*
X159110589Y-79275820D01*
X159110586Y-79275821D01*
X158930031Y-79430031D01*
X158775821Y-79610586D01*
X158775820Y-79610589D01*
X158651759Y-79813037D01*
X158651757Y-79813040D01*
X158560895Y-80032402D01*
X158560895Y-80032404D01*
X158505465Y-80263285D01*
X158486835Y-80500000D01*
X158013165Y-80500000D01*
X157994535Y-80263289D01*
X157939105Y-80032406D01*
X157939104Y-80032403D01*
X157939104Y-80032402D01*
X157848242Y-79813040D01*
X157848240Y-79813037D01*
X157724179Y-79610589D01*
X157724178Y-79610586D01*
X157689340Y-79569797D01*
X157569969Y-79430031D01*
X157450596Y-79328076D01*
X157389413Y-79275821D01*
X157389410Y-79275820D01*
X157186962Y-79151759D01*
X157186959Y-79151757D01*
X156967596Y-79060895D01*
X156736714Y-79005465D01*
X156500000Y-78986835D01*
X156263285Y-79005465D01*
X156032404Y-79060895D01*
X156032402Y-79060895D01*
X155813040Y-79151757D01*
X155813037Y-79151759D01*
X155610589Y-79275820D01*
X155610586Y-79275821D01*
X155430031Y-79430031D01*
X155275821Y-79610586D01*
X155275820Y-79610589D01*
X155151759Y-79813037D01*
X155151757Y-79813040D01*
X155060895Y-80032402D01*
X155060895Y-80032404D01*
X155005465Y-80263285D01*
X154986835Y-80500000D01*
X151513165Y-80500000D01*
X151494535Y-80263289D01*
X151439105Y-80032406D01*
X151439104Y-80032403D01*
X151439104Y-80032402D01*
X151348242Y-79813040D01*
X151348240Y-79813037D01*
X151224179Y-79610589D01*
X151224178Y-79610586D01*
X151189340Y-79569797D01*
X151069969Y-79430031D01*
X150950596Y-79328076D01*
X150889413Y-79275821D01*
X150889410Y-79275820D01*
X150686962Y-79151759D01*
X150686959Y-79151757D01*
X150467596Y-79060895D01*
X150236714Y-79005465D01*
X150000000Y-78986835D01*
X149763285Y-79005465D01*
X149532404Y-79060895D01*
X149532402Y-79060895D01*
X149313040Y-79151757D01*
X149313037Y-79151759D01*
X149110589Y-79275820D01*
X149110586Y-79275821D01*
X148930031Y-79430031D01*
X148775821Y-79610586D01*
X148775820Y-79610589D01*
X148651759Y-79813037D01*
X148651757Y-79813040D01*
X148560895Y-80032402D01*
X148560895Y-80032404D01*
X148505465Y-80263285D01*
X148486835Y-80500000D01*
X148013165Y-80500000D01*
X147994535Y-80263289D01*
X147939105Y-80032406D01*
X147939104Y-80032403D01*
X147939104Y-80032402D01*
X147848242Y-79813040D01*
X147848240Y-79813037D01*
X147724179Y-79610589D01*
X147724178Y-79610586D01*
X147689340Y-79569797D01*
X147569969Y-79430031D01*
X147450596Y-79328076D01*
X147389413Y-79275821D01*
X147389410Y-79275820D01*
X147186962Y-79151759D01*
X147186959Y-79151757D01*
X146967596Y-79060895D01*
X146736714Y-79005465D01*
X146500000Y-78986835D01*
X146263285Y-79005465D01*
X146032404Y-79060895D01*
X146032402Y-79060895D01*
X145813040Y-79151757D01*
X145813037Y-79151759D01*
X145610589Y-79275820D01*
X145610586Y-79275821D01*
X145430031Y-79430031D01*
X145275821Y-79610586D01*
X145275820Y-79610589D01*
X145151759Y-79813037D01*
X145151757Y-79813040D01*
X145060895Y-80032402D01*
X145060895Y-80032404D01*
X145005465Y-80263285D01*
X144986835Y-80500000D01*
X141513165Y-80500000D01*
X141494535Y-80263289D01*
X141439105Y-80032406D01*
X141439104Y-80032403D01*
X141439104Y-80032402D01*
X141348242Y-79813040D01*
X141348240Y-79813037D01*
X141224179Y-79610589D01*
X141224178Y-79610586D01*
X141189340Y-79569797D01*
X141069969Y-79430031D01*
X140950596Y-79328076D01*
X140889413Y-79275821D01*
X140889410Y-79275820D01*
X140686962Y-79151759D01*
X140686959Y-79151757D01*
X140467596Y-79060895D01*
X140236714Y-79005465D01*
X140000000Y-78986835D01*
X139763285Y-79005465D01*
X139532404Y-79060895D01*
X139532402Y-79060895D01*
X139313040Y-79151757D01*
X139313037Y-79151759D01*
X139110589Y-79275820D01*
X139110586Y-79275821D01*
X138930031Y-79430031D01*
X138775821Y-79610586D01*
X138775820Y-79610589D01*
X138651759Y-79813037D01*
X138651757Y-79813040D01*
X138560895Y-80032402D01*
X138560895Y-80032404D01*
X138505465Y-80263285D01*
X138486835Y-80500000D01*
X138013165Y-80500000D01*
X137994535Y-80263289D01*
X137939105Y-80032406D01*
X137939104Y-80032403D01*
X137939104Y-80032402D01*
X137848242Y-79813040D01*
X137848240Y-79813037D01*
X137724179Y-79610589D01*
X137724178Y-79610586D01*
X137689340Y-79569797D01*
X137569969Y-79430031D01*
X137450596Y-79328076D01*
X137389413Y-79275821D01*
X137389410Y-79275820D01*
X137186962Y-79151759D01*
X137186959Y-79151757D01*
X136967596Y-79060895D01*
X136736714Y-79005465D01*
X136500000Y-78986835D01*
X136263285Y-79005465D01*
X136032404Y-79060895D01*
X136032402Y-79060895D01*
X135813040Y-79151757D01*
X135813037Y-79151759D01*
X135610589Y-79275820D01*
X135610586Y-79275821D01*
X135430031Y-79430031D01*
X135275821Y-79610586D01*
X135275820Y-79610589D01*
X135151759Y-79813037D01*
X135151757Y-79813040D01*
X135060895Y-80032402D01*
X135060895Y-80032404D01*
X135005465Y-80263285D01*
X134986835Y-80500000D01*
X131513165Y-80500000D01*
X131494535Y-80263289D01*
X131439105Y-80032406D01*
X131439104Y-80032403D01*
X131439104Y-80032402D01*
X131348242Y-79813040D01*
X131348240Y-79813037D01*
X131224179Y-79610589D01*
X131224178Y-79610586D01*
X131189340Y-79569797D01*
X131069969Y-79430031D01*
X130950596Y-79328076D01*
X130889413Y-79275821D01*
X130889410Y-79275820D01*
X130686962Y-79151759D01*
X130686959Y-79151757D01*
X130467596Y-79060895D01*
X130236714Y-79005465D01*
X130000000Y-78986835D01*
X129763285Y-79005465D01*
X129532404Y-79060895D01*
X129532402Y-79060895D01*
X129313040Y-79151757D01*
X129313037Y-79151759D01*
X129110589Y-79275820D01*
X129110586Y-79275821D01*
X128930031Y-79430031D01*
X128775821Y-79610586D01*
X128775820Y-79610589D01*
X128651759Y-79813037D01*
X128651757Y-79813040D01*
X128560895Y-80032402D01*
X128560895Y-80032404D01*
X128505465Y-80263285D01*
X128486835Y-80500000D01*
X128013165Y-80500000D01*
X127994535Y-80263289D01*
X127939105Y-80032406D01*
X127939104Y-80032403D01*
X127939104Y-80032402D01*
X127848242Y-79813040D01*
X127848240Y-79813037D01*
X127724179Y-79610589D01*
X127724178Y-79610586D01*
X127689340Y-79569797D01*
X127569969Y-79430031D01*
X127450596Y-79328076D01*
X127389413Y-79275821D01*
X127389410Y-79275820D01*
X127186962Y-79151759D01*
X127186959Y-79151757D01*
X126967596Y-79060895D01*
X126736714Y-79005465D01*
X126500000Y-78986835D01*
X126263285Y-79005465D01*
X126032404Y-79060895D01*
X126032402Y-79060895D01*
X125813040Y-79151757D01*
X125813037Y-79151759D01*
X125610589Y-79275820D01*
X125610586Y-79275821D01*
X125430031Y-79430031D01*
X125275821Y-79610586D01*
X125275820Y-79610589D01*
X125151759Y-79813037D01*
X125151757Y-79813040D01*
X125060895Y-80032402D01*
X125060895Y-80032404D01*
X125005465Y-80263285D01*
X124986835Y-80500000D01*
X121513165Y-80500000D01*
X121494535Y-80263289D01*
X121439105Y-80032406D01*
X121439104Y-80032403D01*
X121439104Y-80032402D01*
X121348242Y-79813040D01*
X121348240Y-79813037D01*
X121224179Y-79610589D01*
X121224178Y-79610586D01*
X121189340Y-79569797D01*
X121069969Y-79430031D01*
X120950596Y-79328076D01*
X120889413Y-79275821D01*
X120889410Y-79275820D01*
X120686962Y-79151759D01*
X120686959Y-79151757D01*
X120467596Y-79060895D01*
X120236714Y-79005465D01*
X120000000Y-78986835D01*
X119763285Y-79005465D01*
X119532404Y-79060895D01*
X119532402Y-79060895D01*
X119313040Y-79151757D01*
X119313037Y-79151759D01*
X119110589Y-79275820D01*
X119110586Y-79275821D01*
X118930031Y-79430031D01*
X118775821Y-79610586D01*
X118775820Y-79610589D01*
X118651759Y-79813037D01*
X118651757Y-79813040D01*
X118560895Y-80032402D01*
X118560895Y-80032404D01*
X118505465Y-80263285D01*
X118486835Y-80500000D01*
X115701445Y-80500000D01*
X115708030Y-80493415D01*
X115652329Y-80454413D01*
X115458859Y-80364197D01*
X115458853Y-80364194D01*
X115252662Y-80308945D01*
X115252654Y-80308944D01*
X115040002Y-80290340D01*
X115039998Y-80290340D01*
X114827345Y-80308944D01*
X114827337Y-80308945D01*
X114621146Y-80364194D01*
X114621140Y-80364197D01*
X114427671Y-80454412D01*
X114427669Y-80454413D01*
X114371969Y-80493415D01*
X114371968Y-80493415D01*
X114993554Y-81115000D01*
X114987339Y-81115000D01*
X114885606Y-81142259D01*
X114794394Y-81194920D01*
X114719920Y-81269394D01*
X114667259Y-81360606D01*
X114640000Y-81462339D01*
X114640000Y-81468553D01*
X114018415Y-80846968D01*
X114018415Y-80846969D01*
X113979413Y-80902669D01*
X113979412Y-80902671D01*
X113889197Y-81096140D01*
X113889194Y-81096146D01*
X113833945Y-81302337D01*
X113833944Y-81302345D01*
X113815340Y-81514997D01*
X111193193Y-81514997D01*
X111174458Y-81300858D01*
X111118822Y-81093223D01*
X111027976Y-80898404D01*
X110904681Y-80722319D01*
X110904679Y-80722316D01*
X110752682Y-80570319D01*
X110576601Y-80447026D01*
X110576597Y-80447024D01*
X110576595Y-80447023D01*
X110381777Y-80356178D01*
X110381774Y-80356177D01*
X110381772Y-80356176D01*
X110174144Y-80300542D01*
X110174136Y-80300541D01*
X109960002Y-80281807D01*
X109959998Y-80281807D01*
X109745863Y-80300541D01*
X109745855Y-80300542D01*
X109538227Y-80356176D01*
X109538221Y-80356179D01*
X109343405Y-80447023D01*
X109343403Y-80447024D01*
X109167316Y-80570320D01*
X109015320Y-80722316D01*
X108892024Y-80898403D01*
X108892023Y-80898405D01*
X108801179Y-81093221D01*
X108801176Y-81093227D01*
X108745542Y-81300855D01*
X108745541Y-81300863D01*
X108726807Y-81514998D01*
X100075500Y-81514998D01*
X100075500Y-73024994D01*
X108231844Y-73024994D01*
X108231844Y-73025005D01*
X108250434Y-73249359D01*
X108250436Y-73249371D01*
X108305703Y-73467614D01*
X108396140Y-73673792D01*
X108519276Y-73862265D01*
X108519284Y-73862276D01*
X108638355Y-73991619D01*
X108671760Y-74027906D01*
X108849424Y-74166189D01*
X108849425Y-74166189D01*
X108849427Y-74166191D01*
X108909314Y-74198600D01*
X109047426Y-74273342D01*
X109260365Y-74346444D01*
X109482431Y-74383500D01*
X109707569Y-74383500D01*
X109929635Y-74346444D01*
X110142574Y-74273342D01*
X110340576Y-74166189D01*
X110518240Y-74027906D01*
X110623295Y-73913787D01*
X110670715Y-73862276D01*
X110670715Y-73862275D01*
X110670722Y-73862268D01*
X110761193Y-73723790D01*
X110814338Y-73678437D01*
X110883569Y-73669013D01*
X110946905Y-73698515D01*
X110968804Y-73723787D01*
X111059278Y-73862268D01*
X111059283Y-73862273D01*
X111059284Y-73862276D01*
X111178355Y-73991619D01*
X111211760Y-74027906D01*
X111389424Y-74166189D01*
X111389425Y-74166189D01*
X111389427Y-74166191D01*
X111449314Y-74198600D01*
X111587426Y-74273342D01*
X111800365Y-74346444D01*
X112022431Y-74383500D01*
X112247569Y-74383500D01*
X112469635Y-74346444D01*
X112682574Y-74273342D01*
X112880576Y-74166189D01*
X113058240Y-74027906D01*
X113163295Y-73913787D01*
X113210715Y-73862276D01*
X113210715Y-73862275D01*
X113210722Y-73862268D01*
X113301193Y-73723790D01*
X113354338Y-73678437D01*
X113423569Y-73669013D01*
X113486905Y-73698515D01*
X113508804Y-73723787D01*
X113599278Y-73862268D01*
X113599283Y-73862273D01*
X113599284Y-73862276D01*
X113718355Y-73991619D01*
X113751760Y-74027906D01*
X113929424Y-74166189D01*
X113929425Y-74166189D01*
X113929427Y-74166191D01*
X113989314Y-74198600D01*
X114127426Y-74273342D01*
X114340365Y-74346444D01*
X114562431Y-74383500D01*
X114787569Y-74383500D01*
X115009635Y-74346444D01*
X115222574Y-74273342D01*
X115420576Y-74166189D01*
X115598240Y-74027906D01*
X115703295Y-73913787D01*
X115750715Y-73862276D01*
X115750715Y-73862275D01*
X115750722Y-73862268D01*
X115841193Y-73723790D01*
X115894338Y-73678437D01*
X115963569Y-73669013D01*
X116026905Y-73698515D01*
X116048804Y-73723787D01*
X116139278Y-73862268D01*
X116139283Y-73862273D01*
X116139284Y-73862276D01*
X116258355Y-73991619D01*
X116291760Y-74027906D01*
X116469424Y-74166189D01*
X116469425Y-74166189D01*
X116469427Y-74166191D01*
X116529314Y-74198600D01*
X116667426Y-74273342D01*
X116880365Y-74346444D01*
X117102431Y-74383500D01*
X117327569Y-74383500D01*
X117549635Y-74346444D01*
X117762574Y-74273342D01*
X117960576Y-74166189D01*
X118138240Y-74027906D01*
X118243295Y-73913787D01*
X118290715Y-73862276D01*
X118290715Y-73862275D01*
X118290722Y-73862268D01*
X118381193Y-73723790D01*
X118434338Y-73678437D01*
X118503569Y-73669013D01*
X118566905Y-73698515D01*
X118588804Y-73723787D01*
X118679278Y-73862268D01*
X118679283Y-73862273D01*
X118679284Y-73862276D01*
X118798355Y-73991619D01*
X118831760Y-74027906D01*
X119009424Y-74166189D01*
X119009425Y-74166189D01*
X119009427Y-74166191D01*
X119069314Y-74198600D01*
X119207426Y-74273342D01*
X119420365Y-74346444D01*
X119642431Y-74383500D01*
X119867569Y-74383500D01*
X120089635Y-74346444D01*
X120302574Y-74273342D01*
X120500576Y-74166189D01*
X120678240Y-74027906D01*
X120783295Y-73913787D01*
X120830715Y-73862276D01*
X120830715Y-73862275D01*
X120830722Y-73862268D01*
X120921193Y-73723790D01*
X120974338Y-73678437D01*
X121043569Y-73669013D01*
X121106905Y-73698515D01*
X121128804Y-73723787D01*
X121219278Y-73862268D01*
X121219283Y-73862273D01*
X121219284Y-73862276D01*
X121338355Y-73991619D01*
X121371760Y-74027906D01*
X121549424Y-74166189D01*
X121549425Y-74166189D01*
X121549427Y-74166191D01*
X121609314Y-74198600D01*
X121747426Y-74273342D01*
X121960365Y-74346444D01*
X122182431Y-74383500D01*
X122407569Y-74383500D01*
X122629635Y-74346444D01*
X122842574Y-74273342D01*
X123040576Y-74166189D01*
X123218240Y-74027906D01*
X123323295Y-73913787D01*
X123370715Y-73862276D01*
X123370715Y-73862275D01*
X123370722Y-73862268D01*
X123464749Y-73718347D01*
X123517894Y-73672994D01*
X123587125Y-73663570D01*
X123650461Y-73693072D01*
X123670130Y-73715048D01*
X123796890Y-73896078D01*
X123963917Y-74063105D01*
X124157421Y-74198600D01*
X124371507Y-74298429D01*
X124371516Y-74298433D01*
X124585000Y-74355634D01*
X124585000Y-73458012D01*
X124642007Y-73490925D01*
X124769174Y-73525000D01*
X124900826Y-73525000D01*
X125027993Y-73490925D01*
X125085000Y-73458012D01*
X125085000Y-74355633D01*
X125298483Y-74298433D01*
X125298492Y-74298429D01*
X125512578Y-74198600D01*
X125706078Y-74063108D01*
X125821914Y-73947272D01*
X125883237Y-73913787D01*
X125952929Y-73918771D01*
X126008863Y-73960642D01*
X126025777Y-73991619D01*
X126074110Y-74121203D01*
X126074111Y-74121204D01*
X126161739Y-74238261D01*
X126278796Y-74325889D01*
X126415799Y-74376989D01*
X126443050Y-74379918D01*
X126476345Y-74383499D01*
X126476362Y-74383500D01*
X128273638Y-74383500D01*
X128273654Y-74383499D01*
X128300692Y-74380591D01*
X128334201Y-74376989D01*
X128471204Y-74325889D01*
X128588261Y-74238261D01*
X128675889Y-74121204D01*
X128726989Y-73984201D01*
X128730959Y-73947272D01*
X128733499Y-73923654D01*
X128733500Y-73923637D01*
X128733500Y-72126362D01*
X128733499Y-72126345D01*
X128730157Y-72095270D01*
X128726989Y-72065799D01*
X128724222Y-72058381D01*
X128702445Y-71999994D01*
X140516844Y-71999994D01*
X140516844Y-72000005D01*
X140535434Y-72224359D01*
X140535436Y-72224371D01*
X140590703Y-72442614D01*
X140681140Y-72648792D01*
X140804276Y-72837265D01*
X140804284Y-72837276D01*
X140916501Y-72959174D01*
X140956760Y-73002906D01*
X141134424Y-73141189D01*
X141134425Y-73141189D01*
X141134427Y-73141191D01*
X141256378Y-73207187D01*
X141332426Y-73248342D01*
X141545365Y-73321444D01*
X141767431Y-73358500D01*
X141992569Y-73358500D01*
X142214635Y-73321444D01*
X142427574Y-73248342D01*
X142625576Y-73141189D01*
X142803240Y-73002906D01*
X142955722Y-72837268D01*
X143046193Y-72698790D01*
X143099338Y-72653437D01*
X143168569Y-72644013D01*
X143231905Y-72673515D01*
X143253804Y-72698787D01*
X143344278Y-72837268D01*
X143344283Y-72837273D01*
X143344284Y-72837276D01*
X143456501Y-72959174D01*
X143496760Y-73002906D01*
X143674424Y-73141189D01*
X143674425Y-73141189D01*
X143674427Y-73141191D01*
X143796378Y-73207187D01*
X143872426Y-73248342D01*
X144085365Y-73321444D01*
X144307431Y-73358500D01*
X144532569Y-73358500D01*
X144754635Y-73321444D01*
X144967574Y-73248342D01*
X145165576Y-73141189D01*
X145343240Y-73002906D01*
X145495722Y-72837268D01*
X145586193Y-72698790D01*
X145639338Y-72653437D01*
X145708569Y-72644013D01*
X145771905Y-72673515D01*
X145793804Y-72698787D01*
X145884278Y-72837268D01*
X145884283Y-72837273D01*
X145884284Y-72837276D01*
X145996501Y-72959174D01*
X146036760Y-73002906D01*
X146214424Y-73141189D01*
X146214425Y-73141189D01*
X146214427Y-73141191D01*
X146336378Y-73207187D01*
X146412426Y-73248342D01*
X146625365Y-73321444D01*
X146847431Y-73358500D01*
X147072569Y-73358500D01*
X147294635Y-73321444D01*
X147507574Y-73248342D01*
X147705576Y-73141189D01*
X147883240Y-73002906D01*
X147952908Y-72927226D01*
X148012793Y-72891237D01*
X148082631Y-72893337D01*
X148140247Y-72932860D01*
X148160318Y-72967877D01*
X148206645Y-73092086D01*
X148206649Y-73092093D01*
X148292809Y-73207187D01*
X148292812Y-73207190D01*
X148407906Y-73293350D01*
X148407913Y-73293354D01*
X148542620Y-73343596D01*
X148542627Y-73343598D01*
X148602155Y-73349999D01*
X148602172Y-73350000D01*
X149250000Y-73350000D01*
X149250000Y-72433012D01*
X149307007Y-72465925D01*
X149434174Y-72500000D01*
X149565826Y-72500000D01*
X149692993Y-72465925D01*
X149750000Y-72433012D01*
X149750000Y-73350000D01*
X150397828Y-73350000D01*
X150397844Y-73349999D01*
X150457372Y-73343598D01*
X150457379Y-73343596D01*
X150592086Y-73293354D01*
X150592093Y-73293350D01*
X150707187Y-73207190D01*
X150707190Y-73207187D01*
X150793350Y-73092093D01*
X150793354Y-73092086D01*
X150843596Y-72957379D01*
X150843598Y-72957372D01*
X150849999Y-72897844D01*
X150850000Y-72897827D01*
X150850000Y-72250000D01*
X149933012Y-72250000D01*
X149965925Y-72192993D01*
X150000000Y-72065826D01*
X150000000Y-71934174D01*
X149965925Y-71807007D01*
X149933012Y-71750000D01*
X150850000Y-71750000D01*
X150850000Y-71102172D01*
X150849999Y-71102155D01*
X150843598Y-71042627D01*
X150843596Y-71042620D01*
X150793354Y-70907913D01*
X150793350Y-70907906D01*
X150707190Y-70792812D01*
X150707187Y-70792809D01*
X150592093Y-70706649D01*
X150592086Y-70706645D01*
X150457379Y-70656403D01*
X150457372Y-70656401D01*
X150397844Y-70650000D01*
X149750000Y-70650000D01*
X149750000Y-71566988D01*
X149692993Y-71534075D01*
X149565826Y-71500000D01*
X149434174Y-71500000D01*
X149307007Y-71534075D01*
X149250000Y-71566988D01*
X149250000Y-70650000D01*
X148602155Y-70650000D01*
X148542627Y-70656401D01*
X148542620Y-70656403D01*
X148407913Y-70706645D01*
X148407906Y-70706649D01*
X148292812Y-70792809D01*
X148292809Y-70792812D01*
X148206649Y-70907906D01*
X148206646Y-70907911D01*
X148160318Y-71032123D01*
X148118446Y-71088056D01*
X148052982Y-71112473D01*
X147984709Y-71097621D01*
X147952910Y-71072775D01*
X147883240Y-70997094D01*
X147705576Y-70858811D01*
X147705575Y-70858810D01*
X147705572Y-70858808D01*
X147507580Y-70751661D01*
X147507577Y-70751659D01*
X147507574Y-70751658D01*
X147507571Y-70751657D01*
X147507569Y-70751656D01*
X147294637Y-70678556D01*
X147072569Y-70641500D01*
X146847431Y-70641500D01*
X146625362Y-70678556D01*
X146412430Y-70751656D01*
X146412419Y-70751661D01*
X146214427Y-70858808D01*
X146214422Y-70858812D01*
X146036761Y-70997092D01*
X146036756Y-70997097D01*
X145884284Y-71162723D01*
X145884276Y-71162734D01*
X145793808Y-71301206D01*
X145740662Y-71346562D01*
X145671431Y-71355986D01*
X145608095Y-71326484D01*
X145586192Y-71301206D01*
X145495723Y-71162734D01*
X145495715Y-71162723D01*
X145343243Y-70997097D01*
X145343238Y-70997092D01*
X145165577Y-70858812D01*
X145165572Y-70858808D01*
X144967580Y-70751661D01*
X144967577Y-70751659D01*
X144967574Y-70751658D01*
X144967571Y-70751657D01*
X144967569Y-70751656D01*
X144754637Y-70678556D01*
X144532569Y-70641500D01*
X144307431Y-70641500D01*
X144085362Y-70678556D01*
X143872430Y-70751656D01*
X143872419Y-70751661D01*
X143674427Y-70858808D01*
X143674422Y-70858812D01*
X143496761Y-70997092D01*
X143496756Y-70997097D01*
X143344284Y-71162723D01*
X143344276Y-71162734D01*
X143253808Y-71301206D01*
X143200662Y-71346562D01*
X143131431Y-71355986D01*
X143068095Y-71326484D01*
X143046192Y-71301206D01*
X142955723Y-71162734D01*
X142955715Y-71162723D01*
X142803243Y-70997097D01*
X142803238Y-70997092D01*
X142625577Y-70858812D01*
X142625572Y-70858808D01*
X142427580Y-70751661D01*
X142427577Y-70751659D01*
X142427574Y-70751658D01*
X142427571Y-70751657D01*
X142427569Y-70751656D01*
X142214637Y-70678556D01*
X141992569Y-70641500D01*
X141767431Y-70641500D01*
X141545362Y-70678556D01*
X141332430Y-70751656D01*
X141332419Y-70751661D01*
X141134427Y-70858808D01*
X141134422Y-70858812D01*
X140956761Y-70997092D01*
X140956756Y-70997097D01*
X140804284Y-71162723D01*
X140804276Y-71162734D01*
X140681140Y-71351207D01*
X140590703Y-71557385D01*
X140535436Y-71775628D01*
X140535434Y-71775640D01*
X140516844Y-71999994D01*
X128702445Y-71999994D01*
X128697559Y-71986894D01*
X128675889Y-71928796D01*
X128588261Y-71811739D01*
X128471204Y-71724111D01*
X128334203Y-71673011D01*
X128273654Y-71666500D01*
X128273638Y-71666500D01*
X126476362Y-71666500D01*
X126476345Y-71666500D01*
X126415797Y-71673011D01*
X126415795Y-71673011D01*
X126278795Y-71724111D01*
X126161739Y-71811739D01*
X126074111Y-71928795D01*
X126025777Y-72058381D01*
X125983905Y-72114314D01*
X125918441Y-72138730D01*
X125850168Y-72123878D01*
X125821915Y-72102727D01*
X125706082Y-71986894D01*
X125512578Y-71851399D01*
X125298492Y-71751570D01*
X125298486Y-71751567D01*
X125085000Y-71694364D01*
X125085000Y-72591988D01*
X125027993Y-72559075D01*
X124900826Y-72525000D01*
X124769174Y-72525000D01*
X124642007Y-72559075D01*
X124585000Y-72591988D01*
X124585000Y-71694364D01*
X124584999Y-71694364D01*
X124371513Y-71751567D01*
X124371507Y-71751570D01*
X124157422Y-71851399D01*
X124157420Y-71851400D01*
X123963926Y-71986886D01*
X123963920Y-71986891D01*
X123796891Y-72153920D01*
X123796890Y-72153922D01*
X123670131Y-72334952D01*
X123615554Y-72378577D01*
X123546055Y-72385769D01*
X123483701Y-72354247D01*
X123464752Y-72331656D01*
X123370722Y-72187732D01*
X123370715Y-72187725D01*
X123370715Y-72187723D01*
X123218243Y-72022097D01*
X123218238Y-72022092D01*
X123040577Y-71883812D01*
X123040572Y-71883808D01*
X122842580Y-71776661D01*
X122842577Y-71776659D01*
X122842574Y-71776658D01*
X122842571Y-71776657D01*
X122842569Y-71776656D01*
X122629637Y-71703556D01*
X122407569Y-71666500D01*
X122182431Y-71666500D01*
X121960362Y-71703556D01*
X121747430Y-71776656D01*
X121747419Y-71776661D01*
X121549427Y-71883808D01*
X121549422Y-71883812D01*
X121371761Y-72022092D01*
X121371756Y-72022097D01*
X121219284Y-72187723D01*
X121219276Y-72187734D01*
X121128808Y-72326206D01*
X121075662Y-72371562D01*
X121006431Y-72380986D01*
X120943095Y-72351484D01*
X120921192Y-72326206D01*
X120854657Y-72224368D01*
X120830722Y-72187732D01*
X120830719Y-72187729D01*
X120830715Y-72187723D01*
X120678243Y-72022097D01*
X120678238Y-72022092D01*
X120500577Y-71883812D01*
X120500572Y-71883808D01*
X120302580Y-71776661D01*
X120302577Y-71776659D01*
X120302574Y-71776658D01*
X120302571Y-71776657D01*
X120302569Y-71776656D01*
X120089637Y-71703556D01*
X119867569Y-71666500D01*
X119642431Y-71666500D01*
X119420362Y-71703556D01*
X119207430Y-71776656D01*
X119207419Y-71776661D01*
X119009427Y-71883808D01*
X119009422Y-71883812D01*
X118831761Y-72022092D01*
X118831756Y-72022097D01*
X118679284Y-72187723D01*
X118679276Y-72187734D01*
X118588808Y-72326206D01*
X118535662Y-72371562D01*
X118466431Y-72380986D01*
X118403095Y-72351484D01*
X118381192Y-72326206D01*
X118314657Y-72224368D01*
X118290722Y-72187732D01*
X118290719Y-72187729D01*
X118290715Y-72187723D01*
X118138243Y-72022097D01*
X118138238Y-72022092D01*
X117960577Y-71883812D01*
X117960572Y-71883808D01*
X117762580Y-71776661D01*
X117762577Y-71776659D01*
X117762574Y-71776658D01*
X117762571Y-71776657D01*
X117762569Y-71776656D01*
X117549637Y-71703556D01*
X117327569Y-71666500D01*
X117102431Y-71666500D01*
X116880362Y-71703556D01*
X116667430Y-71776656D01*
X116667419Y-71776661D01*
X116469427Y-71883808D01*
X116469422Y-71883812D01*
X116291761Y-72022092D01*
X116291756Y-72022097D01*
X116139284Y-72187723D01*
X116139276Y-72187734D01*
X116048808Y-72326206D01*
X115995662Y-72371562D01*
X115926431Y-72380986D01*
X115863095Y-72351484D01*
X115841192Y-72326206D01*
X115774657Y-72224368D01*
X115750722Y-72187732D01*
X115750719Y-72187729D01*
X115750715Y-72187723D01*
X115598243Y-72022097D01*
X115598238Y-72022092D01*
X115420577Y-71883812D01*
X115420572Y-71883808D01*
X115222580Y-71776661D01*
X115222577Y-71776659D01*
X115222574Y-71776658D01*
X115222571Y-71776657D01*
X115222569Y-71776656D01*
X115009637Y-71703556D01*
X114787569Y-71666500D01*
X114562431Y-71666500D01*
X114340362Y-71703556D01*
X114127430Y-71776656D01*
X114127419Y-71776661D01*
X113929427Y-71883808D01*
X113929422Y-71883812D01*
X113751761Y-72022092D01*
X113751756Y-72022097D01*
X113599284Y-72187723D01*
X113599276Y-72187734D01*
X113508808Y-72326206D01*
X113455662Y-72371562D01*
X113386431Y-72380986D01*
X113323095Y-72351484D01*
X113301192Y-72326206D01*
X113234657Y-72224368D01*
X113210722Y-72187732D01*
X113210719Y-72187729D01*
X113210715Y-72187723D01*
X113058243Y-72022097D01*
X113058238Y-72022092D01*
X112880577Y-71883812D01*
X112880572Y-71883808D01*
X112682580Y-71776661D01*
X112682577Y-71776659D01*
X112682574Y-71776658D01*
X112682571Y-71776657D01*
X112682569Y-71776656D01*
X112469637Y-71703556D01*
X112247569Y-71666500D01*
X112022431Y-71666500D01*
X111800362Y-71703556D01*
X111587430Y-71776656D01*
X111587419Y-71776661D01*
X111389427Y-71883808D01*
X111389422Y-71883812D01*
X111211761Y-72022092D01*
X111211756Y-72022097D01*
X111059284Y-72187723D01*
X111059276Y-72187734D01*
X110968808Y-72326206D01*
X110915662Y-72371562D01*
X110846431Y-72380986D01*
X110783095Y-72351484D01*
X110761192Y-72326206D01*
X110694657Y-72224368D01*
X110670722Y-72187732D01*
X110670719Y-72187729D01*
X110670715Y-72187723D01*
X110518243Y-72022097D01*
X110518238Y-72022092D01*
X110340577Y-71883812D01*
X110340572Y-71883808D01*
X110142580Y-71776661D01*
X110142577Y-71776659D01*
X110142574Y-71776658D01*
X110142571Y-71776657D01*
X110142569Y-71776656D01*
X109929637Y-71703556D01*
X109707569Y-71666500D01*
X109482431Y-71666500D01*
X109260362Y-71703556D01*
X109047430Y-71776656D01*
X109047419Y-71776661D01*
X108849427Y-71883808D01*
X108849422Y-71883812D01*
X108671761Y-72022092D01*
X108671756Y-72022097D01*
X108519284Y-72187723D01*
X108519276Y-72187734D01*
X108396140Y-72376207D01*
X108305703Y-72582385D01*
X108250436Y-72800628D01*
X108250434Y-72800640D01*
X108231844Y-73024994D01*
X100075500Y-73024994D01*
X100075500Y-68119995D01*
X132786709Y-68119995D01*
X132786709Y-68120004D01*
X132805843Y-68375343D01*
X132805844Y-68375348D01*
X132862822Y-68624987D01*
X132862824Y-68624996D01*
X132862826Y-68625001D01*
X132956378Y-68863369D01*
X133084413Y-69085131D01*
X133213367Y-69246835D01*
X133244072Y-69285338D01*
X133421271Y-69449753D01*
X133431781Y-69459505D01*
X133643355Y-69603754D01*
X133643360Y-69603756D01*
X133643361Y-69603757D01*
X133643362Y-69603758D01*
X133765890Y-69662764D01*
X133874061Y-69714856D01*
X133874062Y-69714856D01*
X133874065Y-69714858D01*
X134118757Y-69790335D01*
X134118758Y-69790335D01*
X134118761Y-69790336D01*
X134371958Y-69828499D01*
X134371963Y-69828499D01*
X134371966Y-69828500D01*
X134371967Y-69828500D01*
X134628033Y-69828500D01*
X134628034Y-69828500D01*
X134628041Y-69828499D01*
X134881238Y-69790336D01*
X134881239Y-69790335D01*
X134881243Y-69790335D01*
X135125935Y-69714858D01*
X135356646Y-69603754D01*
X135568219Y-69459505D01*
X135755931Y-69285334D01*
X135915587Y-69085131D01*
X136043622Y-68863369D01*
X136137174Y-68625001D01*
X136194155Y-68375353D01*
X136194250Y-68374086D01*
X136213291Y-68120004D01*
X136213291Y-68119995D01*
X136194556Y-67870000D01*
X137813968Y-67870000D01*
X138951518Y-67870000D01*
X138940889Y-67888409D01*
X138900000Y-68041009D01*
X138900000Y-68198991D01*
X138940889Y-68351591D01*
X138951518Y-68370000D01*
X137813968Y-68370000D01*
X137814274Y-68374079D01*
X137814275Y-68374086D01*
X137870967Y-68622475D01*
X137870973Y-68622494D01*
X137964058Y-68859671D01*
X137964057Y-68859671D01*
X138091455Y-69080328D01*
X138250320Y-69279540D01*
X138437097Y-69452842D01*
X138647616Y-69596371D01*
X138647624Y-69596376D01*
X138877176Y-69706921D01*
X138877174Y-69706921D01*
X139120652Y-69782024D01*
X139120660Y-69782026D01*
X139250000Y-69801520D01*
X139250000Y-68668482D01*
X139268409Y-68679111D01*
X139421009Y-68720000D01*
X139578991Y-68720000D01*
X139731591Y-68679111D01*
X139750000Y-68668482D01*
X139750000Y-69801519D01*
X139879339Y-69782026D01*
X139879347Y-69782024D01*
X140122824Y-69706921D01*
X140352376Y-69596376D01*
X140352377Y-69596375D01*
X140562905Y-69452840D01*
X140749679Y-69279540D01*
X140908544Y-69080328D01*
X141035941Y-68859671D01*
X141129026Y-68622494D01*
X141129032Y-68622475D01*
X141185724Y-68374086D01*
X141185725Y-68374079D01*
X141186032Y-68370000D01*
X140048482Y-68370000D01*
X140059111Y-68351591D01*
X140100000Y-68198991D01*
X140100000Y-68041009D01*
X140059111Y-67888409D01*
X140048482Y-67870000D01*
X141186031Y-67870000D01*
X142813968Y-67870000D01*
X143951518Y-67870000D01*
X143940889Y-67888409D01*
X143900000Y-68041009D01*
X143900000Y-68198991D01*
X143940889Y-68351591D01*
X143951518Y-68370000D01*
X142813968Y-68370000D01*
X142814274Y-68374079D01*
X142814275Y-68374086D01*
X142870967Y-68622475D01*
X142870973Y-68622494D01*
X142964058Y-68859671D01*
X142964057Y-68859671D01*
X143091455Y-69080328D01*
X143250320Y-69279540D01*
X143437097Y-69452842D01*
X143647616Y-69596371D01*
X143647624Y-69596376D01*
X143877176Y-69706921D01*
X143877174Y-69706921D01*
X144120652Y-69782024D01*
X144120660Y-69782026D01*
X144250000Y-69801520D01*
X144250000Y-68668482D01*
X144268409Y-68679111D01*
X144421009Y-68720000D01*
X144578991Y-68720000D01*
X144731591Y-68679111D01*
X144750000Y-68668482D01*
X144750000Y-69801519D01*
X144879339Y-69782026D01*
X144879347Y-69782024D01*
X145122824Y-69706921D01*
X145352376Y-69596376D01*
X145352377Y-69596375D01*
X145562905Y-69452840D01*
X145749679Y-69279540D01*
X145908544Y-69080328D01*
X146035941Y-68859671D01*
X146129026Y-68622494D01*
X146129032Y-68622475D01*
X146185724Y-68374086D01*
X146185725Y-68374079D01*
X146186032Y-68370000D01*
X145048482Y-68370000D01*
X145059111Y-68351591D01*
X145100000Y-68198991D01*
X145100000Y-68041009D01*
X145059111Y-67888409D01*
X145048482Y-67870000D01*
X146186031Y-67870000D01*
X147313968Y-67870000D01*
X148451518Y-67870000D01*
X148440889Y-67888409D01*
X148400000Y-68041009D01*
X148400000Y-68198991D01*
X148440889Y-68351591D01*
X148451518Y-68370000D01*
X147313968Y-68370000D01*
X147314274Y-68374079D01*
X147314275Y-68374086D01*
X147370967Y-68622475D01*
X147370973Y-68622494D01*
X147464058Y-68859671D01*
X147464057Y-68859671D01*
X147591455Y-69080328D01*
X147750320Y-69279540D01*
X147937097Y-69452842D01*
X148147616Y-69596371D01*
X148147624Y-69596376D01*
X148377176Y-69706921D01*
X148377174Y-69706921D01*
X148620652Y-69782024D01*
X148620660Y-69782026D01*
X148750000Y-69801520D01*
X148750000Y-68668482D01*
X148768409Y-68679111D01*
X148921009Y-68720000D01*
X149078991Y-68720000D01*
X149231591Y-68679111D01*
X149250000Y-68668482D01*
X149250000Y-69801520D01*
X149379339Y-69782026D01*
X149379347Y-69782024D01*
X149622824Y-69706921D01*
X149852376Y-69596376D01*
X149852377Y-69596375D01*
X150062905Y-69452840D01*
X150249679Y-69279540D01*
X150408544Y-69080328D01*
X150535941Y-68859671D01*
X150629026Y-68622494D01*
X150629032Y-68622475D01*
X150685724Y-68374086D01*
X150685725Y-68374079D01*
X150686032Y-68370000D01*
X149548482Y-68370000D01*
X149559111Y-68351591D01*
X149600000Y-68198991D01*
X149600000Y-68041009D01*
X149559111Y-67888409D01*
X149548482Y-67870000D01*
X150686031Y-67870000D01*
X151813968Y-67870000D01*
X152951518Y-67870000D01*
X152940889Y-67888409D01*
X152900000Y-68041009D01*
X152900000Y-68198991D01*
X152940889Y-68351591D01*
X152951518Y-68370000D01*
X151813968Y-68370000D01*
X151814274Y-68374079D01*
X151814275Y-68374086D01*
X151870967Y-68622475D01*
X151870973Y-68622494D01*
X151964058Y-68859671D01*
X151964057Y-68859671D01*
X152091455Y-69080328D01*
X152250320Y-69279540D01*
X152437097Y-69452842D01*
X152647616Y-69596371D01*
X152647624Y-69596376D01*
X152877176Y-69706921D01*
X152877174Y-69706921D01*
X153120652Y-69782024D01*
X153120660Y-69782026D01*
X153250000Y-69801520D01*
X153250000Y-68668482D01*
X153268409Y-68679111D01*
X153421009Y-68720000D01*
X153578991Y-68720000D01*
X153731591Y-68679111D01*
X153750000Y-68668482D01*
X153750000Y-69801520D01*
X153879339Y-69782026D01*
X153879347Y-69782024D01*
X154122824Y-69706921D01*
X154352376Y-69596376D01*
X154352377Y-69596375D01*
X154562905Y-69452840D01*
X154749679Y-69279540D01*
X154908544Y-69080328D01*
X155035941Y-68859671D01*
X155129026Y-68622494D01*
X155129032Y-68622475D01*
X155185724Y-68374086D01*
X155185725Y-68374079D01*
X155186032Y-68370000D01*
X154048482Y-68370000D01*
X154059111Y-68351591D01*
X154100000Y-68198991D01*
X154100000Y-68041009D01*
X154059111Y-67888409D01*
X154048482Y-67870000D01*
X155186031Y-67870000D01*
X156313968Y-67870000D01*
X157451518Y-67870000D01*
X157440889Y-67888409D01*
X157400000Y-68041009D01*
X157400000Y-68198991D01*
X157440889Y-68351591D01*
X157451518Y-68370000D01*
X156313968Y-68370000D01*
X156314274Y-68374079D01*
X156314275Y-68374086D01*
X156370967Y-68622475D01*
X156370973Y-68622494D01*
X156464058Y-68859671D01*
X156464057Y-68859671D01*
X156591455Y-69080328D01*
X156750320Y-69279540D01*
X156937097Y-69452842D01*
X157147616Y-69596371D01*
X157147624Y-69596376D01*
X157377176Y-69706921D01*
X157377174Y-69706921D01*
X157620652Y-69782024D01*
X157620660Y-69782026D01*
X157750000Y-69801520D01*
X157750000Y-68668482D01*
X157768409Y-68679111D01*
X157921009Y-68720000D01*
X158078991Y-68720000D01*
X158231591Y-68679111D01*
X158250000Y-68668482D01*
X158250000Y-69801520D01*
X158379339Y-69782026D01*
X158379347Y-69782024D01*
X158622824Y-69706921D01*
X158852376Y-69596376D01*
X158852377Y-69596375D01*
X159062905Y-69452840D01*
X159249679Y-69279540D01*
X159408544Y-69080328D01*
X159535941Y-68859671D01*
X159629026Y-68622494D01*
X159629032Y-68622475D01*
X159685724Y-68374086D01*
X159685725Y-68374079D01*
X159686032Y-68370000D01*
X158548482Y-68370000D01*
X158559111Y-68351591D01*
X158600000Y-68198991D01*
X158600000Y-68041009D01*
X158559111Y-67888409D01*
X158548482Y-67870000D01*
X159686031Y-67870000D01*
X159685725Y-67865920D01*
X159685724Y-67865913D01*
X159629032Y-67617524D01*
X159629026Y-67617505D01*
X159535941Y-67380328D01*
X159535942Y-67380328D01*
X159408544Y-67159671D01*
X159249679Y-66960459D01*
X159062905Y-66787159D01*
X158852377Y-66643624D01*
X158852376Y-66643623D01*
X158622823Y-66533078D01*
X158622825Y-66533078D01*
X158379354Y-66457977D01*
X158379348Y-66457976D01*
X158250000Y-66438479D01*
X158250000Y-67571517D01*
X158231591Y-67560889D01*
X158078991Y-67520000D01*
X157921009Y-67520000D01*
X157768409Y-67560889D01*
X157750000Y-67571517D01*
X157750000Y-66438479D01*
X157620651Y-66457976D01*
X157620645Y-66457977D01*
X157377175Y-66533078D01*
X157147624Y-66643623D01*
X157147616Y-66643628D01*
X156937097Y-66787157D01*
X156750320Y-66960459D01*
X156591455Y-67159671D01*
X156464058Y-67380328D01*
X156370973Y-67617505D01*
X156370967Y-67617524D01*
X156314275Y-67865913D01*
X156314274Y-67865920D01*
X156313968Y-67870000D01*
X155186031Y-67870000D01*
X155185725Y-67865920D01*
X155185724Y-67865913D01*
X155129032Y-67617524D01*
X155129026Y-67617505D01*
X155035941Y-67380328D01*
X155035942Y-67380328D01*
X154908544Y-67159671D01*
X154749679Y-66960459D01*
X154562905Y-66787159D01*
X154352377Y-66643624D01*
X154352376Y-66643623D01*
X154122823Y-66533078D01*
X154122825Y-66533078D01*
X153879354Y-66457977D01*
X153879348Y-66457976D01*
X153750000Y-66438479D01*
X153750000Y-67571517D01*
X153731591Y-67560889D01*
X153578991Y-67520000D01*
X153421009Y-67520000D01*
X153268409Y-67560889D01*
X153250000Y-67571517D01*
X153250000Y-66438479D01*
X153120651Y-66457976D01*
X153120645Y-66457977D01*
X152877175Y-66533078D01*
X152647624Y-66643623D01*
X152647616Y-66643628D01*
X152437097Y-66787157D01*
X152250320Y-66960459D01*
X152091455Y-67159671D01*
X151964058Y-67380328D01*
X151870973Y-67617505D01*
X151870967Y-67617524D01*
X151814275Y-67865913D01*
X151814274Y-67865920D01*
X151813968Y-67870000D01*
X150686031Y-67870000D01*
X150685725Y-67865920D01*
X150685724Y-67865913D01*
X150629032Y-67617524D01*
X150629026Y-67617505D01*
X150535941Y-67380328D01*
X150535942Y-67380328D01*
X150408544Y-67159671D01*
X150249679Y-66960459D01*
X150062905Y-66787159D01*
X149852377Y-66643624D01*
X149852376Y-66643623D01*
X149622823Y-66533078D01*
X149622825Y-66533078D01*
X149379354Y-66457977D01*
X149379348Y-66457976D01*
X149250000Y-66438479D01*
X149250000Y-67571517D01*
X149231591Y-67560889D01*
X149078991Y-67520000D01*
X148921009Y-67520000D01*
X148768409Y-67560889D01*
X148750000Y-67571517D01*
X148750000Y-66438479D01*
X148620651Y-66457976D01*
X148620645Y-66457977D01*
X148377175Y-66533078D01*
X148147624Y-66643623D01*
X148147616Y-66643628D01*
X147937097Y-66787157D01*
X147750320Y-66960459D01*
X147591455Y-67159671D01*
X147464058Y-67380328D01*
X147370973Y-67617505D01*
X147370967Y-67617524D01*
X147314275Y-67865913D01*
X147314274Y-67865920D01*
X147313968Y-67870000D01*
X146186031Y-67870000D01*
X146185725Y-67865920D01*
X146185724Y-67865913D01*
X146129032Y-67617524D01*
X146129026Y-67617505D01*
X146035941Y-67380328D01*
X146035942Y-67380328D01*
X145908544Y-67159671D01*
X145749679Y-66960459D01*
X145562905Y-66787159D01*
X145352377Y-66643624D01*
X145352376Y-66643623D01*
X145122823Y-66533078D01*
X145122825Y-66533078D01*
X144879354Y-66457977D01*
X144879348Y-66457976D01*
X144750000Y-66438479D01*
X144750000Y-67571517D01*
X144731591Y-67560889D01*
X144578991Y-67520000D01*
X144421009Y-67520000D01*
X144268409Y-67560889D01*
X144250000Y-67571517D01*
X144250000Y-66438479D01*
X144120651Y-66457976D01*
X144120645Y-66457977D01*
X143877175Y-66533078D01*
X143647624Y-66643623D01*
X143647616Y-66643628D01*
X143437097Y-66787157D01*
X143250320Y-66960459D01*
X143091455Y-67159671D01*
X142964058Y-67380328D01*
X142870973Y-67617505D01*
X142870967Y-67617524D01*
X142814275Y-67865913D01*
X142814274Y-67865920D01*
X142813968Y-67870000D01*
X141186031Y-67870000D01*
X141185725Y-67865920D01*
X141185724Y-67865913D01*
X141129032Y-67617524D01*
X141129026Y-67617505D01*
X141035941Y-67380328D01*
X141035942Y-67380328D01*
X140908544Y-67159671D01*
X140749679Y-66960459D01*
X140562905Y-66787159D01*
X140352377Y-66643624D01*
X140352376Y-66643623D01*
X140122823Y-66533078D01*
X140122825Y-66533078D01*
X139879354Y-66457977D01*
X139879348Y-66457976D01*
X139750000Y-66438479D01*
X139750000Y-67571517D01*
X139731591Y-67560889D01*
X139578991Y-67520000D01*
X139421009Y-67520000D01*
X139268409Y-67560889D01*
X139250000Y-67571517D01*
X139250000Y-66438479D01*
X139120651Y-66457976D01*
X139120645Y-66457977D01*
X138877175Y-66533078D01*
X138647624Y-66643623D01*
X138647616Y-66643628D01*
X138437097Y-66787157D01*
X138250320Y-66960459D01*
X138091455Y-67159671D01*
X137964058Y-67380328D01*
X137870973Y-67617505D01*
X137870967Y-67617524D01*
X137814275Y-67865913D01*
X137814274Y-67865920D01*
X137813968Y-67870000D01*
X136194556Y-67870000D01*
X136194156Y-67864656D01*
X136194155Y-67864651D01*
X136194155Y-67864647D01*
X136137174Y-67614999D01*
X136043622Y-67376631D01*
X135915587Y-67154869D01*
X135755931Y-66954666D01*
X135755930Y-66954665D01*
X135755927Y-66954661D01*
X135634989Y-66842448D01*
X135568219Y-66780495D01*
X135367467Y-66643624D01*
X135356649Y-66636248D01*
X135356638Y-66636241D01*
X135125940Y-66525144D01*
X135125921Y-66525137D01*
X134881248Y-66449666D01*
X134881238Y-66449663D01*
X134628041Y-66411500D01*
X134628034Y-66411500D01*
X134371966Y-66411500D01*
X134371958Y-66411500D01*
X134118761Y-66449663D01*
X134118755Y-66449665D01*
X133874061Y-66525143D01*
X133643362Y-66636241D01*
X133643361Y-66636242D01*
X133643355Y-66636245D01*
X133643355Y-66636246D01*
X133632528Y-66643628D01*
X133431780Y-66780495D01*
X133244072Y-66954661D01*
X133084413Y-67154869D01*
X132956378Y-67376630D01*
X132862828Y-67614993D01*
X132862822Y-67615012D01*
X132805844Y-67864651D01*
X132805843Y-67864656D01*
X132786709Y-68119995D01*
X100075500Y-68119995D01*
X100075500Y-51725013D01*
X106150000Y-51725013D01*
X106150000Y-52250000D01*
X107095854Y-52250000D01*
X107057370Y-52316657D01*
X107025000Y-52437465D01*
X107025000Y-52562535D01*
X107057370Y-52683343D01*
X107095854Y-52750000D01*
X106150001Y-52750000D01*
X106150001Y-53274986D01*
X106160494Y-53377697D01*
X106215641Y-53544119D01*
X106215643Y-53544124D01*
X106307684Y-53693345D01*
X106431654Y-53817315D01*
X106580875Y-53909356D01*
X106580880Y-53909358D01*
X106747302Y-53964505D01*
X106747309Y-53964506D01*
X106850019Y-53974999D01*
X107249999Y-53974999D01*
X107250000Y-53974998D01*
X107250000Y-52904145D01*
X107316657Y-52942630D01*
X107437465Y-52975000D01*
X107562535Y-52975000D01*
X107683343Y-52942630D01*
X107750000Y-52904145D01*
X107750000Y-53974999D01*
X108149972Y-53974999D01*
X108149986Y-53974998D01*
X108252697Y-53964505D01*
X108419119Y-53909358D01*
X108419124Y-53909356D01*
X108568345Y-53817315D01*
X108692315Y-53693345D01*
X108783499Y-53545513D01*
X108835447Y-53498789D01*
X108904410Y-53487566D01*
X108968492Y-53515410D01*
X108976719Y-53522929D01*
X109114996Y-53661206D01*
X109287991Y-53786894D01*
X109381438Y-53834507D01*
X109478516Y-53883972D01*
X109478519Y-53883973D01*
X109556642Y-53909356D01*
X109681884Y-53950049D01*
X109893084Y-53983500D01*
X109893085Y-53983500D01*
X110106915Y-53983500D01*
X110106916Y-53983500D01*
X110318116Y-53950049D01*
X110521483Y-53883972D01*
X110712009Y-53786894D01*
X110885004Y-53661206D01*
X111036206Y-53510004D01*
X111127036Y-53384987D01*
X111149682Y-53353818D01*
X111205012Y-53311152D01*
X111274625Y-53305173D01*
X111336420Y-53337779D01*
X111350318Y-53353818D01*
X111447492Y-53487566D01*
X111463794Y-53510004D01*
X111614996Y-53661206D01*
X111787991Y-53786894D01*
X111881438Y-53834507D01*
X111978516Y-53883972D01*
X111978519Y-53883973D01*
X112056642Y-53909356D01*
X112181884Y-53950049D01*
X112393084Y-53983500D01*
X112393085Y-53983500D01*
X112606915Y-53983500D01*
X112606916Y-53983500D01*
X112818116Y-53950049D01*
X113021483Y-53883972D01*
X113212009Y-53786894D01*
X113385004Y-53661206D01*
X113536206Y-53510004D01*
X113543479Y-53499994D01*
X127086673Y-53499994D01*
X127086673Y-53500005D01*
X127105948Y-53732622D01*
X127105948Y-53732625D01*
X127105949Y-53732626D01*
X127127395Y-53817315D01*
X127163251Y-53958907D01*
X127257015Y-54172668D01*
X127384683Y-54368080D01*
X127478073Y-54469528D01*
X127508995Y-54532183D01*
X127501135Y-54601609D01*
X127456988Y-54655764D01*
X127430177Y-54669693D01*
X127357911Y-54696646D01*
X127357906Y-54696649D01*
X127242812Y-54782809D01*
X127242809Y-54782812D01*
X127156649Y-54897906D01*
X127156645Y-54897913D01*
X127106403Y-55032620D01*
X127106401Y-55032627D01*
X127100000Y-55092155D01*
X127100000Y-55790000D01*
X128124722Y-55790000D01*
X128080667Y-55866306D01*
X128050000Y-55980756D01*
X128050000Y-56099244D01*
X128080667Y-56213694D01*
X128124722Y-56290000D01*
X127100000Y-56290000D01*
X127100000Y-56987844D01*
X127106401Y-57047372D01*
X127106403Y-57047379D01*
X127156645Y-57182086D01*
X127156649Y-57182093D01*
X127242809Y-57297187D01*
X127242812Y-57297190D01*
X127357906Y-57383350D01*
X127357913Y-57383354D01*
X127492620Y-57433596D01*
X127492627Y-57433598D01*
X127552155Y-57439999D01*
X127552172Y-57440000D01*
X128250000Y-57440000D01*
X128250000Y-56415277D01*
X128326306Y-56459333D01*
X128440756Y-56490000D01*
X128559244Y-56490000D01*
X128673694Y-56459333D01*
X128750000Y-56415277D01*
X128750000Y-57440000D01*
X129447828Y-57440000D01*
X129447844Y-57439999D01*
X129507372Y-57433598D01*
X129507379Y-57433596D01*
X129642086Y-57383354D01*
X129642093Y-57383350D01*
X129757187Y-57297190D01*
X129757190Y-57297187D01*
X129843350Y-57182093D01*
X129843354Y-57182086D01*
X129893596Y-57047379D01*
X129893598Y-57047372D01*
X129899999Y-56987844D01*
X129900000Y-56987827D01*
X129900000Y-56290000D01*
X128875278Y-56290000D01*
X128919333Y-56213694D01*
X128950000Y-56099244D01*
X128950000Y-55980756D01*
X128919333Y-55866306D01*
X128875278Y-55790000D01*
X129900000Y-55790000D01*
X129900000Y-55092172D01*
X129899999Y-55092155D01*
X129893598Y-55032627D01*
X129893596Y-55032620D01*
X129843354Y-54897913D01*
X129843350Y-54897906D01*
X129757190Y-54782812D01*
X129757187Y-54782809D01*
X129642093Y-54696649D01*
X129642086Y-54696645D01*
X129569823Y-54669693D01*
X129513889Y-54627822D01*
X129489472Y-54562357D01*
X129504324Y-54494084D01*
X129521927Y-54469528D01*
X129615313Y-54368084D01*
X129615316Y-54368080D01*
X129742984Y-54172669D01*
X129836749Y-53958907D01*
X129894051Y-53732626D01*
X129912498Y-53510004D01*
X129913327Y-53500005D01*
X129913327Y-53499994D01*
X129899821Y-53337009D01*
X129894051Y-53267374D01*
X129836749Y-53041093D01*
X129766085Y-52879995D01*
X132786709Y-52879995D01*
X132786709Y-52880004D01*
X132805843Y-53135343D01*
X132805844Y-53135348D01*
X132862822Y-53384987D01*
X132862824Y-53384996D01*
X132862826Y-53385001D01*
X132956378Y-53623369D01*
X133084413Y-53845131D01*
X133168081Y-53950048D01*
X133244072Y-54045338D01*
X133421271Y-54209753D01*
X133431781Y-54219505D01*
X133643355Y-54363754D01*
X133643360Y-54363756D01*
X133643361Y-54363757D01*
X133643362Y-54363758D01*
X133765890Y-54422764D01*
X133874061Y-54474856D01*
X133874062Y-54474856D01*
X133874065Y-54474858D01*
X134118757Y-54550335D01*
X134118758Y-54550335D01*
X134118761Y-54550336D01*
X134371958Y-54588499D01*
X134371963Y-54588499D01*
X134371966Y-54588500D01*
X134371967Y-54588500D01*
X134628033Y-54588500D01*
X134628034Y-54588500D01*
X134628041Y-54588499D01*
X134881238Y-54550336D01*
X134881239Y-54550335D01*
X134881243Y-54550335D01*
X135125935Y-54474858D01*
X135356646Y-54363754D01*
X135568219Y-54219505D01*
X135755931Y-54045334D01*
X135915587Y-53845131D01*
X136043622Y-53623369D01*
X136137174Y-53385001D01*
X136194155Y-53135353D01*
X136213291Y-52880000D01*
X136213291Y-52879995D01*
X137786709Y-52879995D01*
X137786709Y-52880004D01*
X137805843Y-53135343D01*
X137805844Y-53135348D01*
X137862822Y-53384987D01*
X137862824Y-53384996D01*
X137862826Y-53385001D01*
X137956378Y-53623369D01*
X138084413Y-53845131D01*
X138168081Y-53950048D01*
X138244072Y-54045338D01*
X138421271Y-54209753D01*
X138431781Y-54219505D01*
X138643355Y-54363754D01*
X138643360Y-54363756D01*
X138643361Y-54363757D01*
X138643362Y-54363758D01*
X138765890Y-54422764D01*
X138874061Y-54474856D01*
X138874062Y-54474856D01*
X138874065Y-54474858D01*
X139118757Y-54550335D01*
X139118758Y-54550335D01*
X139118761Y-54550336D01*
X139371958Y-54588499D01*
X139371963Y-54588499D01*
X139371966Y-54588500D01*
X139371967Y-54588500D01*
X139628033Y-54588500D01*
X139628034Y-54588500D01*
X139628041Y-54588499D01*
X139881238Y-54550336D01*
X139881239Y-54550335D01*
X139881243Y-54550335D01*
X140125935Y-54474858D01*
X140356646Y-54363754D01*
X140568219Y-54219505D01*
X140755931Y-54045334D01*
X140915587Y-53845131D01*
X141043622Y-53623369D01*
X141137174Y-53385001D01*
X141194155Y-53135353D01*
X141213291Y-52880000D01*
X141213291Y-52879995D01*
X142786709Y-52879995D01*
X142786709Y-52880004D01*
X142805843Y-53135343D01*
X142805844Y-53135348D01*
X142862822Y-53384987D01*
X142862824Y-53384996D01*
X142862826Y-53385001D01*
X142956378Y-53623369D01*
X143084413Y-53845131D01*
X143168081Y-53950048D01*
X143244072Y-54045338D01*
X143421271Y-54209753D01*
X143431781Y-54219505D01*
X143643355Y-54363754D01*
X143643360Y-54363756D01*
X143643361Y-54363757D01*
X143643362Y-54363758D01*
X143765890Y-54422764D01*
X143874061Y-54474856D01*
X143874062Y-54474856D01*
X143874065Y-54474858D01*
X144118757Y-54550335D01*
X144118758Y-54550335D01*
X144118761Y-54550336D01*
X144371958Y-54588499D01*
X144371963Y-54588499D01*
X144371966Y-54588500D01*
X144371967Y-54588500D01*
X144628033Y-54588500D01*
X144628034Y-54588500D01*
X144628041Y-54588499D01*
X144881238Y-54550336D01*
X144881239Y-54550335D01*
X144881243Y-54550335D01*
X145125935Y-54474858D01*
X145356646Y-54363754D01*
X145568219Y-54219505D01*
X145755931Y-54045334D01*
X145915587Y-53845131D01*
X146043622Y-53623369D01*
X146137174Y-53385001D01*
X146194155Y-53135353D01*
X146213291Y-52880000D01*
X146213291Y-52879995D01*
X147286709Y-52879995D01*
X147286709Y-52880004D01*
X147305843Y-53135343D01*
X147305844Y-53135348D01*
X147362822Y-53384987D01*
X147362824Y-53384996D01*
X147362826Y-53385001D01*
X147456378Y-53623369D01*
X147584413Y-53845131D01*
X147668081Y-53950048D01*
X147744072Y-54045338D01*
X147921271Y-54209753D01*
X147931781Y-54219505D01*
X148143355Y-54363754D01*
X148143360Y-54363756D01*
X148143361Y-54363757D01*
X148143362Y-54363758D01*
X148265890Y-54422764D01*
X148374061Y-54474856D01*
X148374062Y-54474856D01*
X148374065Y-54474858D01*
X148618757Y-54550335D01*
X148618758Y-54550335D01*
X148618761Y-54550336D01*
X148871958Y-54588499D01*
X148871963Y-54588499D01*
X148871966Y-54588500D01*
X148871967Y-54588500D01*
X149128033Y-54588500D01*
X149128034Y-54588500D01*
X149128041Y-54588499D01*
X149381238Y-54550336D01*
X149381239Y-54550335D01*
X149381243Y-54550335D01*
X149625935Y-54474858D01*
X149856646Y-54363754D01*
X150068219Y-54219505D01*
X150255931Y-54045334D01*
X150415587Y-53845131D01*
X150543622Y-53623369D01*
X150637174Y-53385001D01*
X150694155Y-53135353D01*
X150713291Y-52880000D01*
X150713291Y-52879995D01*
X151786709Y-52879995D01*
X151786709Y-52880004D01*
X151805843Y-53135343D01*
X151805844Y-53135348D01*
X151862822Y-53384987D01*
X151862824Y-53384996D01*
X151862826Y-53385001D01*
X151956378Y-53623369D01*
X152084413Y-53845131D01*
X152168081Y-53950048D01*
X152244072Y-54045338D01*
X152421271Y-54209753D01*
X152431781Y-54219505D01*
X152643355Y-54363754D01*
X152643360Y-54363756D01*
X152643361Y-54363757D01*
X152643362Y-54363758D01*
X152765890Y-54422764D01*
X152874061Y-54474856D01*
X152874062Y-54474856D01*
X152874065Y-54474858D01*
X153118757Y-54550335D01*
X153118758Y-54550335D01*
X153118761Y-54550336D01*
X153371958Y-54588499D01*
X153371963Y-54588499D01*
X153371966Y-54588500D01*
X153371967Y-54588500D01*
X153628033Y-54588500D01*
X153628034Y-54588500D01*
X153628041Y-54588499D01*
X153881238Y-54550336D01*
X153881239Y-54550335D01*
X153881243Y-54550335D01*
X154125935Y-54474858D01*
X154356646Y-54363754D01*
X154568219Y-54219505D01*
X154755931Y-54045334D01*
X154915587Y-53845131D01*
X155043622Y-53623369D01*
X155137174Y-53385001D01*
X155194155Y-53135353D01*
X155213291Y-52880000D01*
X155213291Y-52879995D01*
X156286709Y-52879995D01*
X156286709Y-52880004D01*
X156305843Y-53135343D01*
X156305844Y-53135348D01*
X156362822Y-53384987D01*
X156362824Y-53384996D01*
X156362826Y-53385001D01*
X156456378Y-53623369D01*
X156584413Y-53845131D01*
X156668081Y-53950048D01*
X156744072Y-54045338D01*
X156921271Y-54209753D01*
X156931781Y-54219505D01*
X157143355Y-54363754D01*
X157143360Y-54363756D01*
X157143361Y-54363757D01*
X157143362Y-54363758D01*
X157265890Y-54422764D01*
X157374061Y-54474856D01*
X157374062Y-54474856D01*
X157374065Y-54474858D01*
X157618757Y-54550335D01*
X157618758Y-54550335D01*
X157618761Y-54550336D01*
X157871958Y-54588499D01*
X157871963Y-54588499D01*
X157871966Y-54588500D01*
X157871967Y-54588500D01*
X158128033Y-54588500D01*
X158128034Y-54588500D01*
X158128041Y-54588499D01*
X158381238Y-54550336D01*
X158381239Y-54550335D01*
X158381243Y-54550335D01*
X158625935Y-54474858D01*
X158856646Y-54363754D01*
X159068219Y-54219505D01*
X159255931Y-54045334D01*
X159415587Y-53845131D01*
X159543622Y-53623369D01*
X159637174Y-53385001D01*
X159694155Y-53135353D01*
X159713291Y-52880000D01*
X159694155Y-52624647D01*
X159637174Y-52374999D01*
X159543622Y-52136631D01*
X159415587Y-51914869D01*
X159255931Y-51714666D01*
X159255930Y-51714665D01*
X159255927Y-51714661D01*
X159134989Y-51602448D01*
X159068219Y-51540495D01*
X159024305Y-51510555D01*
X158856649Y-51396248D01*
X158856638Y-51396241D01*
X158625940Y-51285144D01*
X158625921Y-51285137D01*
X158381248Y-51209666D01*
X158381238Y-51209663D01*
X158128041Y-51171500D01*
X158128034Y-51171500D01*
X157871966Y-51171500D01*
X157871958Y-51171500D01*
X157618761Y-51209663D01*
X157618755Y-51209665D01*
X157374061Y-51285143D01*
X157143362Y-51396241D01*
X157143361Y-51396242D01*
X156931780Y-51540495D01*
X156744072Y-51714661D01*
X156584413Y-51914869D01*
X156456378Y-52136630D01*
X156362828Y-52374993D01*
X156362822Y-52375012D01*
X156305844Y-52624651D01*
X156305843Y-52624656D01*
X156286709Y-52879995D01*
X155213291Y-52879995D01*
X155194155Y-52624647D01*
X155137174Y-52374999D01*
X155043622Y-52136631D01*
X154915587Y-51914869D01*
X154755931Y-51714666D01*
X154755930Y-51714665D01*
X154755927Y-51714661D01*
X154634989Y-51602448D01*
X154568219Y-51540495D01*
X154524305Y-51510555D01*
X154356649Y-51396248D01*
X154356638Y-51396241D01*
X154125940Y-51285144D01*
X154125921Y-51285137D01*
X153881248Y-51209666D01*
X153881238Y-51209663D01*
X153628041Y-51171500D01*
X153628034Y-51171500D01*
X153371966Y-51171500D01*
X153371958Y-51171500D01*
X153118761Y-51209663D01*
X153118755Y-51209665D01*
X152874061Y-51285143D01*
X152643362Y-51396241D01*
X152643361Y-51396242D01*
X152431780Y-51540495D01*
X152244072Y-51714661D01*
X152084413Y-51914869D01*
X151956378Y-52136630D01*
X151862828Y-52374993D01*
X151862822Y-52375012D01*
X151805844Y-52624651D01*
X151805843Y-52624656D01*
X151786709Y-52879995D01*
X150713291Y-52879995D01*
X150694155Y-52624647D01*
X150637174Y-52374999D01*
X150543622Y-52136631D01*
X150415587Y-51914869D01*
X150255931Y-51714666D01*
X150255930Y-51714665D01*
X150255927Y-51714661D01*
X150134989Y-51602448D01*
X150068219Y-51540495D01*
X150024305Y-51510555D01*
X149856649Y-51396248D01*
X149856638Y-51396241D01*
X149625940Y-51285144D01*
X149625921Y-51285137D01*
X149381248Y-51209666D01*
X149381238Y-51209663D01*
X149128041Y-51171500D01*
X149128034Y-51171500D01*
X148871966Y-51171500D01*
X148871958Y-51171500D01*
X148618761Y-51209663D01*
X148618755Y-51209665D01*
X148374061Y-51285143D01*
X148143362Y-51396241D01*
X148143361Y-51396242D01*
X147931780Y-51540495D01*
X147744072Y-51714661D01*
X147584413Y-51914869D01*
X147456378Y-52136630D01*
X147362828Y-52374993D01*
X147362822Y-52375012D01*
X147305844Y-52624651D01*
X147305843Y-52624656D01*
X147286709Y-52879995D01*
X146213291Y-52879995D01*
X146194155Y-52624647D01*
X146137174Y-52374999D01*
X146043622Y-52136631D01*
X145915587Y-51914869D01*
X145755931Y-51714666D01*
X145755930Y-51714665D01*
X145755927Y-51714661D01*
X145634989Y-51602448D01*
X145568219Y-51540495D01*
X145524305Y-51510555D01*
X145356649Y-51396248D01*
X145356638Y-51396241D01*
X145125940Y-51285144D01*
X145125921Y-51285137D01*
X144881248Y-51209666D01*
X144881238Y-51209663D01*
X144628041Y-51171500D01*
X144628034Y-51171500D01*
X144371966Y-51171500D01*
X144371958Y-51171500D01*
X144118761Y-51209663D01*
X144118755Y-51209665D01*
X143874061Y-51285143D01*
X143643362Y-51396241D01*
X143643361Y-51396242D01*
X143431780Y-51540495D01*
X143244072Y-51714661D01*
X143084413Y-51914869D01*
X142956378Y-52136630D01*
X142862828Y-52374993D01*
X142862822Y-52375012D01*
X142805844Y-52624651D01*
X142805843Y-52624656D01*
X142786709Y-52879995D01*
X141213291Y-52879995D01*
X141194155Y-52624647D01*
X141137174Y-52374999D01*
X141043622Y-52136631D01*
X140915587Y-51914869D01*
X140755931Y-51714666D01*
X140755930Y-51714665D01*
X140755927Y-51714661D01*
X140634989Y-51602448D01*
X140568219Y-51540495D01*
X140524305Y-51510555D01*
X140356649Y-51396248D01*
X140356638Y-51396241D01*
X140125940Y-51285144D01*
X140125921Y-51285137D01*
X139881248Y-51209666D01*
X139881238Y-51209663D01*
X139628041Y-51171500D01*
X139628034Y-51171500D01*
X139371966Y-51171500D01*
X139371958Y-51171500D01*
X139118761Y-51209663D01*
X139118755Y-51209665D01*
X138874061Y-51285143D01*
X138643362Y-51396241D01*
X138643361Y-51396242D01*
X138431780Y-51540495D01*
X138244072Y-51714661D01*
X138084413Y-51914869D01*
X137956378Y-52136630D01*
X137862828Y-52374993D01*
X137862822Y-52375012D01*
X137805844Y-52624651D01*
X137805843Y-52624656D01*
X137786709Y-52879995D01*
X136213291Y-52879995D01*
X136194155Y-52624647D01*
X136137174Y-52374999D01*
X136043622Y-52136631D01*
X135915587Y-51914869D01*
X135755931Y-51714666D01*
X135755930Y-51714665D01*
X135755927Y-51714661D01*
X135634989Y-51602448D01*
X135568219Y-51540495D01*
X135524305Y-51510555D01*
X135356649Y-51396248D01*
X135356638Y-51396241D01*
X135125940Y-51285144D01*
X135125921Y-51285137D01*
X134881248Y-51209666D01*
X134881238Y-51209663D01*
X134628041Y-51171500D01*
X134628034Y-51171500D01*
X134371966Y-51171500D01*
X134371958Y-51171500D01*
X134118761Y-51209663D01*
X134118755Y-51209665D01*
X133874061Y-51285143D01*
X133643362Y-51396241D01*
X133643361Y-51396242D01*
X133431780Y-51540495D01*
X133244072Y-51714661D01*
X133084413Y-51914869D01*
X132956378Y-52136630D01*
X132862828Y-52374993D01*
X132862822Y-52375012D01*
X132805844Y-52624651D01*
X132805843Y-52624656D01*
X132786709Y-52879995D01*
X129766085Y-52879995D01*
X129742984Y-52827331D01*
X129692461Y-52750000D01*
X129615313Y-52631915D01*
X129457223Y-52460185D01*
X129457222Y-52460184D01*
X129457220Y-52460182D01*
X129273017Y-52316810D01*
X129273015Y-52316809D01*
X129273014Y-52316808D01*
X129273011Y-52316806D01*
X129067733Y-52205716D01*
X129067730Y-52205715D01*
X129067727Y-52205713D01*
X129067721Y-52205711D01*
X129067719Y-52205710D01*
X128846954Y-52129920D01*
X128674271Y-52101105D01*
X128616712Y-52091500D01*
X128383288Y-52091500D01*
X128337240Y-52099184D01*
X128153045Y-52129920D01*
X127932280Y-52205710D01*
X127932266Y-52205716D01*
X127726988Y-52316806D01*
X127726985Y-52316808D01*
X127542781Y-52460181D01*
X127542776Y-52460185D01*
X127384686Y-52631915D01*
X127257015Y-52827331D01*
X127163251Y-53041092D01*
X127105948Y-53267377D01*
X127086673Y-53499994D01*
X113543479Y-53499994D01*
X113661894Y-53337009D01*
X113758972Y-53146483D01*
X113825049Y-52943116D01*
X113858500Y-52731916D01*
X113858500Y-52268084D01*
X113825049Y-52056884D01*
X113758972Y-51853517D01*
X113758972Y-51853516D01*
X113688221Y-51714661D01*
X113661894Y-51662991D01*
X113536206Y-51489996D01*
X113385004Y-51338794D01*
X113212009Y-51213106D01*
X113152303Y-51182684D01*
X113021483Y-51116027D01*
X113021480Y-51116026D01*
X112818117Y-51049951D01*
X112712516Y-51033225D01*
X112606916Y-51016500D01*
X112393084Y-51016500D01*
X112339411Y-51025001D01*
X112181882Y-51049951D01*
X111978519Y-51116026D01*
X111978516Y-51116027D01*
X111787990Y-51213106D01*
X111614993Y-51338796D01*
X111463796Y-51489993D01*
X111463796Y-51489994D01*
X111463794Y-51489996D01*
X111400365Y-51577297D01*
X111350318Y-51646182D01*
X111294988Y-51688847D01*
X111225374Y-51694826D01*
X111163579Y-51662220D01*
X111149682Y-51646182D01*
X111124930Y-51612115D01*
X111036206Y-51489996D01*
X110885004Y-51338794D01*
X110712009Y-51213106D01*
X110652303Y-51182684D01*
X110521483Y-51116027D01*
X110521480Y-51116026D01*
X110318117Y-51049951D01*
X110212516Y-51033225D01*
X110106916Y-51016500D01*
X109893084Y-51016500D01*
X109839411Y-51025001D01*
X109681882Y-51049951D01*
X109478519Y-51116026D01*
X109478516Y-51116027D01*
X109287990Y-51213106D01*
X109114997Y-51338793D01*
X108976719Y-51477071D01*
X108915396Y-51510555D01*
X108845704Y-51505571D01*
X108789771Y-51463699D01*
X108783499Y-51454486D01*
X108692315Y-51306654D01*
X108568345Y-51182684D01*
X108419124Y-51090643D01*
X108419119Y-51090641D01*
X108252697Y-51035494D01*
X108252690Y-51035493D01*
X108149986Y-51025000D01*
X107750000Y-51025000D01*
X107750000Y-52095854D01*
X107683343Y-52057370D01*
X107562535Y-52025000D01*
X107437465Y-52025000D01*
X107316657Y-52057370D01*
X107250000Y-52095854D01*
X107250000Y-51025000D01*
X106850028Y-51025000D01*
X106850012Y-51025001D01*
X106747302Y-51035494D01*
X106580880Y-51090641D01*
X106580875Y-51090643D01*
X106431654Y-51182684D01*
X106307684Y-51306654D01*
X106215643Y-51455875D01*
X106215641Y-51455880D01*
X106160494Y-51622302D01*
X106160493Y-51622309D01*
X106150000Y-51725013D01*
X100075500Y-51725013D01*
X100075500Y-48301345D01*
X117437500Y-48301345D01*
X117437500Y-50098654D01*
X117444011Y-50159202D01*
X117444011Y-50159204D01*
X117495111Y-50296204D01*
X117582739Y-50413261D01*
X117699796Y-50500889D01*
X117836799Y-50551989D01*
X117864050Y-50554918D01*
X117897345Y-50558499D01*
X117897362Y-50558500D01*
X119694638Y-50558500D01*
X119694654Y-50558499D01*
X119721692Y-50555591D01*
X119755201Y-50551989D01*
X119892204Y-50500889D01*
X120009261Y-50413261D01*
X120096889Y-50296204D01*
X120142138Y-50174887D01*
X120184009Y-50118956D01*
X120249474Y-50094539D01*
X120317746Y-50109391D01*
X120349545Y-50134236D01*
X120412760Y-50202906D01*
X120590424Y-50341189D01*
X120590425Y-50341189D01*
X120590427Y-50341191D01*
X120650314Y-50373600D01*
X120788426Y-50448342D01*
X121001365Y-50521444D01*
X121223431Y-50558500D01*
X121448569Y-50558500D01*
X121670635Y-50521444D01*
X121883574Y-50448342D01*
X122081576Y-50341189D01*
X122259240Y-50202906D01*
X122380594Y-50071082D01*
X122411715Y-50037276D01*
X122411715Y-50037275D01*
X122411722Y-50037268D01*
X122502193Y-49898790D01*
X122555338Y-49853437D01*
X122624569Y-49844013D01*
X122687905Y-49873515D01*
X122709804Y-49898787D01*
X122800278Y-50037268D01*
X122800283Y-50037273D01*
X122800284Y-50037276D01*
X122926968Y-50174889D01*
X122952760Y-50202906D01*
X123130424Y-50341189D01*
X123130425Y-50341189D01*
X123130427Y-50341191D01*
X123190314Y-50373600D01*
X123328426Y-50448342D01*
X123541365Y-50521444D01*
X123763431Y-50558500D01*
X123988569Y-50558500D01*
X124210635Y-50521444D01*
X124423574Y-50448342D01*
X124621576Y-50341189D01*
X124799240Y-50202906D01*
X124920594Y-50071082D01*
X124951715Y-50037276D01*
X124951715Y-50037275D01*
X124951722Y-50037268D01*
X125045749Y-49893347D01*
X125098894Y-49847994D01*
X125168125Y-49838570D01*
X125231461Y-49868072D01*
X125251130Y-49890048D01*
X125377890Y-50071078D01*
X125544917Y-50238105D01*
X125738421Y-50373600D01*
X125952507Y-50473429D01*
X125952516Y-50473433D01*
X126166000Y-50530634D01*
X126166000Y-49633012D01*
X126223007Y-49665925D01*
X126350174Y-49700000D01*
X126481826Y-49700000D01*
X126608993Y-49665925D01*
X126666000Y-49633012D01*
X126666000Y-50530633D01*
X126879483Y-50473433D01*
X126879492Y-50473429D01*
X127093578Y-50373600D01*
X127287082Y-50238105D01*
X127454105Y-50071082D01*
X127580868Y-49890048D01*
X127635445Y-49846423D01*
X127704944Y-49839231D01*
X127767298Y-49870753D01*
X127786251Y-49893350D01*
X127880276Y-50037265D01*
X127880284Y-50037276D01*
X128006968Y-50174889D01*
X128032760Y-50202906D01*
X128210424Y-50341189D01*
X128210425Y-50341189D01*
X128210427Y-50341191D01*
X128270314Y-50373600D01*
X128408426Y-50448342D01*
X128621365Y-50521444D01*
X128843431Y-50558500D01*
X129068569Y-50558500D01*
X129290635Y-50521444D01*
X129503574Y-50448342D01*
X129701576Y-50341189D01*
X129879240Y-50202906D01*
X130000594Y-50071082D01*
X130031715Y-50037276D01*
X130031715Y-50037275D01*
X130031722Y-50037268D01*
X130122193Y-49898790D01*
X130175338Y-49853437D01*
X130244569Y-49844013D01*
X130307905Y-49873515D01*
X130329804Y-49898787D01*
X130420278Y-50037268D01*
X130420283Y-50037273D01*
X130420284Y-50037276D01*
X130546968Y-50174889D01*
X130572760Y-50202906D01*
X130750424Y-50341189D01*
X130750425Y-50341189D01*
X130750427Y-50341191D01*
X130810314Y-50373600D01*
X130948426Y-50448342D01*
X131161365Y-50521444D01*
X131383431Y-50558500D01*
X131608569Y-50558500D01*
X131830635Y-50521444D01*
X132043574Y-50448342D01*
X132241576Y-50341189D01*
X132419240Y-50202906D01*
X132540594Y-50071082D01*
X132571715Y-50037276D01*
X132571715Y-50037275D01*
X132571722Y-50037268D01*
X132662193Y-49898790D01*
X132715338Y-49853437D01*
X132784569Y-49844013D01*
X132847905Y-49873515D01*
X132869804Y-49898787D01*
X132960278Y-50037268D01*
X132960283Y-50037273D01*
X132960284Y-50037276D01*
X133086968Y-50174889D01*
X133112760Y-50202906D01*
X133290424Y-50341189D01*
X133290425Y-50341189D01*
X133290427Y-50341191D01*
X133350314Y-50373600D01*
X133488426Y-50448342D01*
X133701365Y-50521444D01*
X133923431Y-50558500D01*
X134148569Y-50558500D01*
X134370635Y-50521444D01*
X134583574Y-50448342D01*
X134781576Y-50341189D01*
X134959240Y-50202906D01*
X135080594Y-50071082D01*
X135111715Y-50037276D01*
X135111715Y-50037275D01*
X135111722Y-50037268D01*
X135202193Y-49898790D01*
X135255338Y-49853437D01*
X135324569Y-49844013D01*
X135387905Y-49873515D01*
X135409804Y-49898787D01*
X135500278Y-50037268D01*
X135500283Y-50037273D01*
X135500284Y-50037276D01*
X135626968Y-50174889D01*
X135652760Y-50202906D01*
X135830424Y-50341189D01*
X135830425Y-50341189D01*
X135830427Y-50341191D01*
X135890314Y-50373600D01*
X136028426Y-50448342D01*
X136241365Y-50521444D01*
X136463431Y-50558500D01*
X136688569Y-50558500D01*
X136910635Y-50521444D01*
X137123574Y-50448342D01*
X137321576Y-50341189D01*
X137499240Y-50202906D01*
X137620594Y-50071082D01*
X137651715Y-50037276D01*
X137651715Y-50037275D01*
X137651722Y-50037268D01*
X137742193Y-49898790D01*
X137795338Y-49853437D01*
X137864569Y-49844013D01*
X137927905Y-49873515D01*
X137949804Y-49898787D01*
X138040278Y-50037268D01*
X138040283Y-50037273D01*
X138040284Y-50037276D01*
X138166968Y-50174889D01*
X138192760Y-50202906D01*
X138370424Y-50341189D01*
X138370425Y-50341189D01*
X138370427Y-50341191D01*
X138430314Y-50373600D01*
X138568426Y-50448342D01*
X138781365Y-50521444D01*
X139003431Y-50558500D01*
X139228569Y-50558500D01*
X139450635Y-50521444D01*
X139663574Y-50448342D01*
X139861576Y-50341189D01*
X140039240Y-50202906D01*
X140160594Y-50071082D01*
X140191715Y-50037276D01*
X140191715Y-50037275D01*
X140191722Y-50037268D01*
X140282193Y-49898790D01*
X140335338Y-49853437D01*
X140404569Y-49844013D01*
X140467905Y-49873515D01*
X140489804Y-49898787D01*
X140580278Y-50037268D01*
X140580283Y-50037273D01*
X140580284Y-50037276D01*
X140706968Y-50174889D01*
X140732760Y-50202906D01*
X140910424Y-50341189D01*
X140910425Y-50341189D01*
X140910427Y-50341191D01*
X140970314Y-50373600D01*
X141108426Y-50448342D01*
X141321365Y-50521444D01*
X141543431Y-50558500D01*
X141768569Y-50558500D01*
X141990635Y-50521444D01*
X142203574Y-50448342D01*
X142401576Y-50341189D01*
X142579240Y-50202906D01*
X142700594Y-50071082D01*
X142731715Y-50037276D01*
X142731717Y-50037273D01*
X142731722Y-50037268D01*
X142854860Y-49848791D01*
X142945296Y-49642616D01*
X143000564Y-49424368D01*
X143012309Y-49282635D01*
X143019156Y-49200005D01*
X143019156Y-49199994D01*
X143000565Y-48975640D01*
X143000563Y-48975628D01*
X142945296Y-48757385D01*
X142935071Y-48734075D01*
X142854860Y-48551209D01*
X142838706Y-48526484D01*
X142731723Y-48362734D01*
X142731715Y-48362723D01*
X142675212Y-48301345D01*
X144361500Y-48301345D01*
X144361500Y-50098654D01*
X144368011Y-50159202D01*
X144368011Y-50159204D01*
X144419111Y-50296204D01*
X144506739Y-50413261D01*
X144623796Y-50500889D01*
X144760799Y-50551989D01*
X144788050Y-50554918D01*
X144821345Y-50558499D01*
X144821362Y-50558500D01*
X146618638Y-50558500D01*
X146618654Y-50558499D01*
X146645692Y-50555591D01*
X146679201Y-50551989D01*
X146816204Y-50500889D01*
X146933261Y-50413261D01*
X147020889Y-50296204D01*
X147066138Y-50174887D01*
X147108009Y-50118956D01*
X147173474Y-50094539D01*
X147241746Y-50109391D01*
X147273545Y-50134236D01*
X147336760Y-50202906D01*
X147514424Y-50341189D01*
X147514425Y-50341189D01*
X147514427Y-50341191D01*
X147574314Y-50373600D01*
X147712426Y-50448342D01*
X147925365Y-50521444D01*
X148147431Y-50558500D01*
X148372569Y-50558500D01*
X148594635Y-50521444D01*
X148807574Y-50448342D01*
X149005576Y-50341189D01*
X149183240Y-50202906D01*
X149304594Y-50071082D01*
X149335715Y-50037276D01*
X149335715Y-50037275D01*
X149335722Y-50037268D01*
X149426193Y-49898790D01*
X149479338Y-49853437D01*
X149548569Y-49844013D01*
X149611905Y-49873515D01*
X149633804Y-49898787D01*
X149724278Y-50037268D01*
X149724283Y-50037273D01*
X149724284Y-50037276D01*
X149850968Y-50174889D01*
X149876760Y-50202906D01*
X150054424Y-50341189D01*
X150054425Y-50341189D01*
X150054427Y-50341191D01*
X150114314Y-50373600D01*
X150252426Y-50448342D01*
X150465365Y-50521444D01*
X150687431Y-50558500D01*
X150912569Y-50558500D01*
X151134635Y-50521444D01*
X151347574Y-50448342D01*
X151545576Y-50341189D01*
X151723240Y-50202906D01*
X151844594Y-50071082D01*
X151875715Y-50037276D01*
X151875715Y-50037275D01*
X151875722Y-50037268D01*
X151966193Y-49898790D01*
X152019338Y-49853437D01*
X152088569Y-49844013D01*
X152151905Y-49873515D01*
X152173804Y-49898787D01*
X152264278Y-50037268D01*
X152264283Y-50037273D01*
X152264284Y-50037276D01*
X152390968Y-50174889D01*
X152416760Y-50202906D01*
X152594424Y-50341189D01*
X152594425Y-50341189D01*
X152594427Y-50341191D01*
X152654314Y-50373600D01*
X152792426Y-50448342D01*
X153005365Y-50521444D01*
X153227431Y-50558500D01*
X153452569Y-50558500D01*
X153674635Y-50521444D01*
X153887574Y-50448342D01*
X154085576Y-50341189D01*
X154263240Y-50202906D01*
X154384594Y-50071082D01*
X154415715Y-50037276D01*
X154415715Y-50037275D01*
X154415722Y-50037268D01*
X154506193Y-49898790D01*
X154559338Y-49853437D01*
X154628569Y-49844013D01*
X154691905Y-49873515D01*
X154713804Y-49898787D01*
X154804278Y-50037268D01*
X154804283Y-50037273D01*
X154804284Y-50037276D01*
X154930968Y-50174889D01*
X154956760Y-50202906D01*
X155134424Y-50341189D01*
X155134425Y-50341189D01*
X155134427Y-50341191D01*
X155194314Y-50373600D01*
X155332426Y-50448342D01*
X155545365Y-50521444D01*
X155767431Y-50558500D01*
X155992569Y-50558500D01*
X156214635Y-50521444D01*
X156427574Y-50448342D01*
X156625576Y-50341189D01*
X156803240Y-50202906D01*
X156924594Y-50071082D01*
X156955715Y-50037276D01*
X156955715Y-50037275D01*
X156955722Y-50037268D01*
X157046193Y-49898790D01*
X157099338Y-49853437D01*
X157168569Y-49844013D01*
X157231905Y-49873515D01*
X157253804Y-49898787D01*
X157344278Y-50037268D01*
X157344283Y-50037273D01*
X157344284Y-50037276D01*
X157470968Y-50174889D01*
X157496760Y-50202906D01*
X157674424Y-50341189D01*
X157674425Y-50341189D01*
X157674427Y-50341191D01*
X157734314Y-50373600D01*
X157872426Y-50448342D01*
X158085365Y-50521444D01*
X158307431Y-50558500D01*
X158532569Y-50558500D01*
X158754635Y-50521444D01*
X158967574Y-50448342D01*
X159165576Y-50341189D01*
X159343240Y-50202906D01*
X159464594Y-50071082D01*
X159495715Y-50037276D01*
X159495715Y-50037275D01*
X159495722Y-50037268D01*
X159586193Y-49898790D01*
X159639338Y-49853437D01*
X159708569Y-49844013D01*
X159771905Y-49873515D01*
X159793804Y-49898787D01*
X159884278Y-50037268D01*
X159884283Y-50037273D01*
X159884284Y-50037276D01*
X160010968Y-50174889D01*
X160036760Y-50202906D01*
X160214424Y-50341189D01*
X160214425Y-50341189D01*
X160214427Y-50341191D01*
X160274314Y-50373600D01*
X160412426Y-50448342D01*
X160625365Y-50521444D01*
X160847431Y-50558500D01*
X161072569Y-50558500D01*
X161294635Y-50521444D01*
X161507574Y-50448342D01*
X161705576Y-50341189D01*
X161883240Y-50202906D01*
X162004594Y-50071082D01*
X162035715Y-50037276D01*
X162035715Y-50037275D01*
X162035722Y-50037268D01*
X162126193Y-49898790D01*
X162179338Y-49853437D01*
X162248569Y-49844013D01*
X162311905Y-49873515D01*
X162333804Y-49898787D01*
X162424278Y-50037268D01*
X162424283Y-50037273D01*
X162424284Y-50037276D01*
X162550968Y-50174889D01*
X162576760Y-50202906D01*
X162754424Y-50341189D01*
X162754425Y-50341189D01*
X162754427Y-50341191D01*
X162814314Y-50373600D01*
X162952426Y-50448342D01*
X163165365Y-50521444D01*
X163387431Y-50558500D01*
X163612569Y-50558500D01*
X163834635Y-50521444D01*
X164047574Y-50448342D01*
X164245576Y-50341189D01*
X164423240Y-50202906D01*
X164544594Y-50071082D01*
X164575715Y-50037276D01*
X164575717Y-50037273D01*
X164575722Y-50037268D01*
X164698860Y-49848791D01*
X164789296Y-49642616D01*
X164844564Y-49424368D01*
X164856309Y-49282635D01*
X164863156Y-49200005D01*
X164863156Y-49199994D01*
X164844565Y-48975640D01*
X164844563Y-48975628D01*
X164789296Y-48757385D01*
X164779071Y-48734075D01*
X164698860Y-48551209D01*
X164682706Y-48526484D01*
X164575723Y-48362734D01*
X164575715Y-48362723D01*
X164423243Y-48197097D01*
X164423238Y-48197092D01*
X164245577Y-48058812D01*
X164245572Y-48058808D01*
X164047580Y-47951661D01*
X164047577Y-47951659D01*
X164047574Y-47951658D01*
X164047571Y-47951657D01*
X164047569Y-47951656D01*
X163834637Y-47878556D01*
X163612569Y-47841500D01*
X163387431Y-47841500D01*
X163165362Y-47878556D01*
X162952430Y-47951656D01*
X162952419Y-47951661D01*
X162754427Y-48058808D01*
X162754422Y-48058812D01*
X162576761Y-48197092D01*
X162576756Y-48197097D01*
X162424284Y-48362723D01*
X162424276Y-48362734D01*
X162333808Y-48501206D01*
X162280662Y-48546562D01*
X162211431Y-48555986D01*
X162148095Y-48526484D01*
X162126192Y-48501206D01*
X162035723Y-48362734D01*
X162035715Y-48362723D01*
X161883243Y-48197097D01*
X161883238Y-48197092D01*
X161705577Y-48058812D01*
X161705572Y-48058808D01*
X161507580Y-47951661D01*
X161507577Y-47951659D01*
X161507574Y-47951658D01*
X161507571Y-47951657D01*
X161507569Y-47951656D01*
X161294637Y-47878556D01*
X161072569Y-47841500D01*
X160847431Y-47841500D01*
X160625362Y-47878556D01*
X160412430Y-47951656D01*
X160412419Y-47951661D01*
X160214427Y-48058808D01*
X160214422Y-48058812D01*
X160036761Y-48197092D01*
X160036756Y-48197097D01*
X159884284Y-48362723D01*
X159884276Y-48362734D01*
X159793808Y-48501206D01*
X159740662Y-48546562D01*
X159671431Y-48555986D01*
X159608095Y-48526484D01*
X159586192Y-48501206D01*
X159495723Y-48362734D01*
X159495715Y-48362723D01*
X159343243Y-48197097D01*
X159343238Y-48197092D01*
X159165577Y-48058812D01*
X159165572Y-48058808D01*
X158967580Y-47951661D01*
X158967577Y-47951659D01*
X158967574Y-47951658D01*
X158967571Y-47951657D01*
X158967569Y-47951656D01*
X158754637Y-47878556D01*
X158532569Y-47841500D01*
X158307431Y-47841500D01*
X158085362Y-47878556D01*
X157872430Y-47951656D01*
X157872419Y-47951661D01*
X157674427Y-48058808D01*
X157674422Y-48058812D01*
X157496761Y-48197092D01*
X157496756Y-48197097D01*
X157344284Y-48362723D01*
X157344276Y-48362734D01*
X157253808Y-48501206D01*
X157200662Y-48546562D01*
X157131431Y-48555986D01*
X157068095Y-48526484D01*
X157046192Y-48501206D01*
X156955723Y-48362734D01*
X156955715Y-48362723D01*
X156803243Y-48197097D01*
X156803238Y-48197092D01*
X156625577Y-48058812D01*
X156625572Y-48058808D01*
X156427580Y-47951661D01*
X156427577Y-47951659D01*
X156427574Y-47951658D01*
X156427571Y-47951657D01*
X156427569Y-47951656D01*
X156214637Y-47878556D01*
X155992569Y-47841500D01*
X155767431Y-47841500D01*
X155545362Y-47878556D01*
X155332430Y-47951656D01*
X155332419Y-47951661D01*
X155134427Y-48058808D01*
X155134422Y-48058812D01*
X154956761Y-48197092D01*
X154956756Y-48197097D01*
X154804284Y-48362723D01*
X154804276Y-48362734D01*
X154713808Y-48501206D01*
X154660662Y-48546562D01*
X154591431Y-48555986D01*
X154528095Y-48526484D01*
X154506192Y-48501206D01*
X154415723Y-48362734D01*
X154415715Y-48362723D01*
X154263243Y-48197097D01*
X154263238Y-48197092D01*
X154085577Y-48058812D01*
X154085572Y-48058808D01*
X153887580Y-47951661D01*
X153887577Y-47951659D01*
X153887574Y-47951658D01*
X153887571Y-47951657D01*
X153887569Y-47951656D01*
X153674637Y-47878556D01*
X153452569Y-47841500D01*
X153227431Y-47841500D01*
X153005362Y-47878556D01*
X152792430Y-47951656D01*
X152792419Y-47951661D01*
X152594427Y-48058808D01*
X152594422Y-48058812D01*
X152416761Y-48197092D01*
X152416756Y-48197097D01*
X152264284Y-48362723D01*
X152264276Y-48362734D01*
X152173808Y-48501206D01*
X152120662Y-48546562D01*
X152051431Y-48555986D01*
X151988095Y-48526484D01*
X151966192Y-48501206D01*
X151875723Y-48362734D01*
X151875715Y-48362723D01*
X151723243Y-48197097D01*
X151723238Y-48197092D01*
X151545577Y-48058812D01*
X151545572Y-48058808D01*
X151347580Y-47951661D01*
X151347577Y-47951659D01*
X151347574Y-47951658D01*
X151347571Y-47951657D01*
X151347569Y-47951656D01*
X151134637Y-47878556D01*
X150912569Y-47841500D01*
X150687431Y-47841500D01*
X150465362Y-47878556D01*
X150252430Y-47951656D01*
X150252419Y-47951661D01*
X150054427Y-48058808D01*
X150054422Y-48058812D01*
X149876761Y-48197092D01*
X149876756Y-48197097D01*
X149724284Y-48362723D01*
X149724276Y-48362734D01*
X149633808Y-48501206D01*
X149580662Y-48546562D01*
X149511431Y-48555986D01*
X149448095Y-48526484D01*
X149426192Y-48501206D01*
X149335723Y-48362734D01*
X149335715Y-48362723D01*
X149183243Y-48197097D01*
X149183238Y-48197092D01*
X149005577Y-48058812D01*
X149005572Y-48058808D01*
X148807580Y-47951661D01*
X148807577Y-47951659D01*
X148807574Y-47951658D01*
X148807571Y-47951657D01*
X148807569Y-47951656D01*
X148594637Y-47878556D01*
X148372569Y-47841500D01*
X148147431Y-47841500D01*
X147925362Y-47878556D01*
X147712430Y-47951656D01*
X147712419Y-47951661D01*
X147514427Y-48058808D01*
X147514422Y-48058812D01*
X147336761Y-48197092D01*
X147273548Y-48265760D01*
X147213661Y-48301750D01*
X147143823Y-48299649D01*
X147086207Y-48260124D01*
X147066138Y-48225110D01*
X147020889Y-48103796D01*
X146987214Y-48058812D01*
X146933261Y-47986739D01*
X146816204Y-47899111D01*
X146679203Y-47848011D01*
X146618654Y-47841500D01*
X146618638Y-47841500D01*
X144821362Y-47841500D01*
X144821345Y-47841500D01*
X144760797Y-47848011D01*
X144760795Y-47848011D01*
X144623795Y-47899111D01*
X144506739Y-47986739D01*
X144419111Y-48103795D01*
X144368011Y-48240795D01*
X144368011Y-48240797D01*
X144361500Y-48301345D01*
X142675212Y-48301345D01*
X142579243Y-48197097D01*
X142579238Y-48197092D01*
X142401577Y-48058812D01*
X142401572Y-48058808D01*
X142203580Y-47951661D01*
X142203577Y-47951659D01*
X142203574Y-47951658D01*
X142203571Y-47951657D01*
X142203569Y-47951656D01*
X141990637Y-47878556D01*
X141768569Y-47841500D01*
X141543431Y-47841500D01*
X141321362Y-47878556D01*
X141108430Y-47951656D01*
X141108419Y-47951661D01*
X140910427Y-48058808D01*
X140910422Y-48058812D01*
X140732761Y-48197092D01*
X140732756Y-48197097D01*
X140580284Y-48362723D01*
X140580276Y-48362734D01*
X140489808Y-48501206D01*
X140436662Y-48546562D01*
X140367431Y-48555986D01*
X140304095Y-48526484D01*
X140282192Y-48501206D01*
X140191723Y-48362734D01*
X140191715Y-48362723D01*
X140039243Y-48197097D01*
X140039238Y-48197092D01*
X139861577Y-48058812D01*
X139861572Y-48058808D01*
X139663580Y-47951661D01*
X139663577Y-47951659D01*
X139663574Y-47951658D01*
X139663571Y-47951657D01*
X139663569Y-47951656D01*
X139450637Y-47878556D01*
X139228569Y-47841500D01*
X139003431Y-47841500D01*
X138781362Y-47878556D01*
X138568430Y-47951656D01*
X138568419Y-47951661D01*
X138370427Y-48058808D01*
X138370422Y-48058812D01*
X138192761Y-48197092D01*
X138192756Y-48197097D01*
X138040284Y-48362723D01*
X138040276Y-48362734D01*
X137949808Y-48501206D01*
X137896662Y-48546562D01*
X137827431Y-48555986D01*
X137764095Y-48526484D01*
X137742192Y-48501206D01*
X137651723Y-48362734D01*
X137651715Y-48362723D01*
X137499243Y-48197097D01*
X137499238Y-48197092D01*
X137321577Y-48058812D01*
X137321572Y-48058808D01*
X137123580Y-47951661D01*
X137123577Y-47951659D01*
X137123574Y-47951658D01*
X137123571Y-47951657D01*
X137123569Y-47951656D01*
X136910637Y-47878556D01*
X136688569Y-47841500D01*
X136463431Y-47841500D01*
X136241362Y-47878556D01*
X136028430Y-47951656D01*
X136028419Y-47951661D01*
X135830427Y-48058808D01*
X135830422Y-48058812D01*
X135652761Y-48197092D01*
X135652756Y-48197097D01*
X135500284Y-48362723D01*
X135500276Y-48362734D01*
X135409808Y-48501206D01*
X135356662Y-48546562D01*
X135287431Y-48555986D01*
X135224095Y-48526484D01*
X135202192Y-48501206D01*
X135111723Y-48362734D01*
X135111715Y-48362723D01*
X134959243Y-48197097D01*
X134959238Y-48197092D01*
X134781577Y-48058812D01*
X134781572Y-48058808D01*
X134583580Y-47951661D01*
X134583577Y-47951659D01*
X134583574Y-47951658D01*
X134583571Y-47951657D01*
X134583569Y-47951656D01*
X134370637Y-47878556D01*
X134148569Y-47841500D01*
X133923431Y-47841500D01*
X133701362Y-47878556D01*
X133488430Y-47951656D01*
X133488419Y-47951661D01*
X133290427Y-48058808D01*
X133290422Y-48058812D01*
X133112761Y-48197092D01*
X133112756Y-48197097D01*
X132960284Y-48362723D01*
X132960276Y-48362734D01*
X132869808Y-48501206D01*
X132816662Y-48546562D01*
X132747431Y-48555986D01*
X132684095Y-48526484D01*
X132662192Y-48501206D01*
X132571723Y-48362734D01*
X132571715Y-48362723D01*
X132419243Y-48197097D01*
X132419238Y-48197092D01*
X132241577Y-48058812D01*
X132241572Y-48058808D01*
X132043580Y-47951661D01*
X132043577Y-47951659D01*
X132043574Y-47951658D01*
X132043571Y-47951657D01*
X132043569Y-47951656D01*
X131830637Y-47878556D01*
X131608569Y-47841500D01*
X131383431Y-47841500D01*
X131161362Y-47878556D01*
X130948430Y-47951656D01*
X130948419Y-47951661D01*
X130750427Y-48058808D01*
X130750422Y-48058812D01*
X130572761Y-48197092D01*
X130572756Y-48197097D01*
X130420284Y-48362723D01*
X130420276Y-48362734D01*
X130329808Y-48501206D01*
X130276662Y-48546562D01*
X130207431Y-48555986D01*
X130144095Y-48526484D01*
X130122192Y-48501206D01*
X130031723Y-48362734D01*
X130031715Y-48362723D01*
X129879243Y-48197097D01*
X129879238Y-48197092D01*
X129701577Y-48058812D01*
X129701572Y-48058808D01*
X129503580Y-47951661D01*
X129503577Y-47951659D01*
X129503574Y-47951658D01*
X129503571Y-47951657D01*
X129503569Y-47951656D01*
X129290637Y-47878556D01*
X129068569Y-47841500D01*
X128843431Y-47841500D01*
X128621362Y-47878556D01*
X128408430Y-47951656D01*
X128408419Y-47951661D01*
X128210427Y-48058808D01*
X128210422Y-48058812D01*
X128032761Y-48197092D01*
X128032756Y-48197097D01*
X127880284Y-48362723D01*
X127880276Y-48362734D01*
X127786251Y-48506650D01*
X127733105Y-48552007D01*
X127663873Y-48561430D01*
X127600538Y-48531928D01*
X127580868Y-48509951D01*
X127454113Y-48328926D01*
X127454108Y-48328920D01*
X127287082Y-48161894D01*
X127093578Y-48026399D01*
X126879492Y-47926570D01*
X126879486Y-47926567D01*
X126666000Y-47869364D01*
X126666000Y-48766988D01*
X126608993Y-48734075D01*
X126481826Y-48700000D01*
X126350174Y-48700000D01*
X126223007Y-48734075D01*
X126166000Y-48766988D01*
X126166000Y-47869364D01*
X126165999Y-47869364D01*
X125952513Y-47926567D01*
X125952507Y-47926570D01*
X125738422Y-48026399D01*
X125738420Y-48026400D01*
X125544926Y-48161886D01*
X125544920Y-48161891D01*
X125377891Y-48328920D01*
X125377890Y-48328922D01*
X125251131Y-48509952D01*
X125196554Y-48553577D01*
X125127055Y-48560769D01*
X125064701Y-48529247D01*
X125045752Y-48506656D01*
X124951722Y-48362732D01*
X124951715Y-48362725D01*
X124951715Y-48362723D01*
X124799243Y-48197097D01*
X124799238Y-48197092D01*
X124621577Y-48058812D01*
X124621572Y-48058808D01*
X124423580Y-47951661D01*
X124423577Y-47951659D01*
X124423574Y-47951658D01*
X124423571Y-47951657D01*
X124423569Y-47951656D01*
X124210637Y-47878556D01*
X123988569Y-47841500D01*
X123763431Y-47841500D01*
X123541362Y-47878556D01*
X123328430Y-47951656D01*
X123328419Y-47951661D01*
X123130427Y-48058808D01*
X123130422Y-48058812D01*
X122952761Y-48197092D01*
X122952756Y-48197097D01*
X122800284Y-48362723D01*
X122800276Y-48362734D01*
X122709808Y-48501206D01*
X122656662Y-48546562D01*
X122587431Y-48555986D01*
X122524095Y-48526484D01*
X122502192Y-48501206D01*
X122411723Y-48362734D01*
X122411715Y-48362723D01*
X122259243Y-48197097D01*
X122259238Y-48197092D01*
X122081577Y-48058812D01*
X122081572Y-48058808D01*
X121883580Y-47951661D01*
X121883577Y-47951659D01*
X121883574Y-47951658D01*
X121883571Y-47951657D01*
X121883569Y-47951656D01*
X121670637Y-47878556D01*
X121448569Y-47841500D01*
X121223431Y-47841500D01*
X121001362Y-47878556D01*
X120788430Y-47951656D01*
X120788419Y-47951661D01*
X120590427Y-48058808D01*
X120590422Y-48058812D01*
X120412761Y-48197092D01*
X120349548Y-48265760D01*
X120289661Y-48301750D01*
X120219823Y-48299649D01*
X120162207Y-48260124D01*
X120142138Y-48225110D01*
X120096889Y-48103796D01*
X120063214Y-48058812D01*
X120009261Y-47986739D01*
X119892204Y-47899111D01*
X119755203Y-47848011D01*
X119694654Y-47841500D01*
X119694638Y-47841500D01*
X117897362Y-47841500D01*
X117897345Y-47841500D01*
X117836797Y-47848011D01*
X117836795Y-47848011D01*
X117699795Y-47899111D01*
X117582739Y-47986739D01*
X117495111Y-48103795D01*
X117444011Y-48240795D01*
X117444011Y-48240797D01*
X117437500Y-48301345D01*
X100075500Y-48301345D01*
X100075500Y-47428092D01*
X100076097Y-47415938D01*
X100087494Y-47300222D01*
X100092234Y-47276389D01*
X100124216Y-47170959D01*
X100133508Y-47148526D01*
X100185442Y-47051365D01*
X100198938Y-47031166D01*
X100268827Y-46946006D01*
X100286006Y-46928827D01*
X100371166Y-46858938D01*
X100391365Y-46845442D01*
X100488526Y-46793508D01*
X100510959Y-46784216D01*
X100616389Y-46752234D01*
X100640220Y-46747494D01*
X100755939Y-46736097D01*
X100768093Y-46735500D01*
X100786531Y-46735500D01*
X163417365Y-46735500D01*
X163484404Y-46755185D01*
G37*
%TD.AperFunction*%
%TD*%
M02*
